<?xml version="1.0" encoding="utf-8"?>
<!-- Generator: Adobe Illustrator 15.0.0, SVG Export Plug-In . SVG Version: 6.00 Build 0)  -->
<!DOCTYPE svg PUBLIC "-//W3C//DTD SVG 1.1//EN" "http://www.w3.org/Graphics/SVG/1.1/DTD/svg11.dtd">
<svg version="1.1" id="Calque_1" xmlns="http://www.w3.org/2000/svg" xmlns:xlink="http://www.w3.org/1999/xlink" x="0px" y="0px"
	 width="1984.25px" height="566.93px" viewBox="0 0 1984.25 566.93" enable-background="new 0 0 1984.25 566.93"
	 xml:space="preserve">
<rect x="392.15" y="45.161" opacity="0.3" fill="#C5E2ED" width="678.161" height="404.598"/>
<rect x="489.575" y="123.322" fill="none" stroke="#575756" stroke-width="40" stroke-linejoin="round" stroke-miterlimit="10" width="245.977" height="197.701"/>
<polyline fill="none" stroke="#575756" stroke-width="40" stroke-linejoin="round" stroke-miterlimit="10" points="489.575,321.023 
	445.896,321.023 445.896,202.632 489.575,202.632 "/>
<line fill="none" stroke="#FFFFFF" stroke-width="4" stroke-linecap="round" stroke-linejoin="round" stroke-miterlimit="10" x1="489.575" y1="259.529" x2="489.575" y2="184.816"/>
<polyline fill="none" stroke="#FFFFFF" stroke-width="4" stroke-linecap="round" stroke-linejoin="round" stroke-miterlimit="10" points="
	477.307,200.241 489.575,184.816 501.843,200.241 "/>
<line fill="none" stroke="#FFFFFF" stroke-width="4" stroke-linecap="round" stroke-linejoin="round" stroke-miterlimit="10" x1="735.552" y1="214.9" x2="735.552" y2="289.613"/>
<polyline fill="none" stroke="#FFFFFF" stroke-width="4" stroke-linecap="round" stroke-linejoin="round" stroke-miterlimit="10" points="
	723.284,274.188 735.552,289.613 747.819,274.188 "/>
<polygon fill="none" stroke="#575756" stroke-width="40" stroke-linejoin="round" stroke-miterlimit="10" points="658.54,123.322 
	918.311,123.322 918.311,371.598 811.413,371.598 811.414,247.46 657.391,247.46 "/>
<line fill="none" stroke="#FFFFFF" stroke-width="4" stroke-linecap="round" stroke-linejoin="round" stroke-miterlimit="10" x1="594.999" y1="395.736" x2="594.999" y2="321.023"/>
<polyline fill="none" stroke="#FFFFFF" stroke-width="4" stroke-linecap="round" stroke-linejoin="round" stroke-miterlimit="10" points="
	582.731,336.447 594.999,321.023 607.267,336.447 "/>
<line fill="none" stroke="#FFFFFF" stroke-width="4" stroke-linecap="round" stroke-linejoin="round" stroke-miterlimit="10" x1="645.123" y1="395.735" x2="645.123" y2="321.022"/>
<polyline fill="none" stroke="#FFFFFF" stroke-width="4" stroke-linecap="round" stroke-linejoin="round" stroke-miterlimit="10" points="
	632.855,336.447 645.123,321.022 657.391,336.447 "/>
<polyline fill="none" stroke="#FFFFFF" stroke-width="4" stroke-linecap="round" stroke-linejoin="round" stroke-miterlimit="10" points="
	657.391,152 657.391,122.667 694.747,122.667 "/>
<polyline fill="none" stroke="#FFFFFF" stroke-width="4" stroke-linecap="round" stroke-linejoin="round" stroke-miterlimit="10" points="
	679.322,110.399 694.747,122.667 679.322,134.935 "/>
<polyline fill="none" stroke="#FFFFFF" stroke-width="4" stroke-linecap="round" stroke-linejoin="round" stroke-miterlimit="10" points="
	489.575,152.735 489.575,123.402 526.932,123.402 "/>
<polyline fill="none" stroke="#FFFFFF" stroke-width="4" stroke-linecap="round" stroke-linejoin="round" stroke-miterlimit="10" points="
	511.507,111.134 526.932,123.402 511.507,135.67 "/>
<polyline fill="none" stroke="#FFFFFF" stroke-width="4" stroke-linecap="round" stroke-linejoin="round" stroke-miterlimit="10" points="
	518.644,319.543 489.311,319.543 489.311,282.188 "/>
<polyline fill="none" stroke="#FFFFFF" stroke-width="4" stroke-linecap="round" stroke-linejoin="round" stroke-miterlimit="10" points="
	477.042,297.612 489.311,282.188 501.578,297.612 "/>
<polyline fill="none" stroke="#FFFFFF" stroke-width="4" stroke-linecap="round" stroke-linejoin="round" stroke-miterlimit="10" points="
	889.666,123.322 918.999,123.322 918.999,160.679 "/>
<polyline fill="none" stroke="#FFFFFF" stroke-width="4" stroke-linecap="round" stroke-linejoin="round" stroke-miterlimit="10" points="
	931.267,145.254 918.999,160.679 906.731,145.254 "/>
<polyline fill="none" stroke="#FFFFFF" stroke-width="4" stroke-linecap="round" stroke-linejoin="round" stroke-miterlimit="10" points="
	918.311,342.398 918.311,371.731 880.954,371.731 "/>
<polyline fill="none" stroke="#FFFFFF" stroke-width="4" stroke-linecap="round" stroke-linejoin="round" stroke-miterlimit="10" points="
	896.379,384 880.954,371.731 896.379,359.464 "/>
<polyline fill="none" stroke="#FFFFFF" stroke-width="4" stroke-linecap="round" stroke-linejoin="round" stroke-miterlimit="10" points="
	839.666,371.598 810.333,371.598 810.333,334.241 "/>
<polyline fill="none" stroke="#FFFFFF" stroke-width="4" stroke-linecap="round" stroke-linejoin="round" stroke-miterlimit="10" points="
	798.064,349.666 810.333,334.241 822.6,349.666 "/>
<polyline fill="none" stroke="#FFFFFF" stroke-width="4" stroke-linecap="round" stroke-linejoin="round" stroke-miterlimit="10" points="
	686.724,247.46 657.391,247.46 657.391,210.104 "/>
<polyline fill="none" stroke="#FFFFFF" stroke-width="4" stroke-linecap="round" stroke-linejoin="round" stroke-miterlimit="10" points="
	645.123,225.528 657.391,210.104 669.658,225.528 "/>
<polyline fill="none" stroke="#FFFFFF" stroke-width="4" stroke-linecap="round" stroke-linejoin="round" stroke-miterlimit="10" points="
	810.333,278.057 810.333,248.724 772.976,248.724 "/>
<polyline fill="none" stroke="#FFFFFF" stroke-width="4" stroke-linecap="round" stroke-linejoin="round" stroke-miterlimit="10" points="
	788.401,236.456 772.976,248.724 788.401,260.991 "/>
<line fill="none" stroke="#FFFFFF" stroke-width="4" stroke-linecap="round" stroke-linejoin="round" stroke-miterlimit="10" x1="803.922" y1="48.688" x2="803.922" y2="123.401"/>
<polyline fill="none" stroke="#FFFFFF" stroke-width="4" stroke-linecap="round" stroke-linejoin="round" stroke-miterlimit="10" points="
	791.654,107.978 803.922,123.401 816.19,107.978 "/>
<line fill="none" stroke="#FFFFFF" stroke-width="4" stroke-linecap="round" stroke-linejoin="round" stroke-miterlimit="10" x1="854.046" y1="48.689" x2="854.046" y2="123.402"/>
<polyline fill="none" stroke="#FFFFFF" stroke-width="4" stroke-linecap="round" stroke-linejoin="round" stroke-miterlimit="10" points="
	841.778,107.978 854.046,123.402 866.314,107.978 "/>
</svg>
