<?xml version="1.0" encoding="utf-8"?>
<!-- Generator: Adobe Illustrator 14.0.0, SVG Export Plug-In . SVG Version: 6.00 Build 43363)  -->
<!DOCTYPE svg PUBLIC "-//W3C//DTD SVG 1.1//EN" "http://www.w3.org/Graphics/SVG/1.1/DTD/svg11.dtd">
<svg version="1.1" id="Calque_1" xmlns="http://www.w3.org/2000/svg" xmlns:xlink="http://www.w3.org/1999/xlink" x="0px" y="0px"
	 width="862px" height="408px" viewBox="0 0 862 408" enable-background="new 0 0 862 408" xml:space="preserve">
<g>
	<rect x="528.402" y="36.943" fill="none" stroke="#000000" width="104.488" height="32.307"/>
	<g>
		<rect x="539.107" y="39.186" fill="none" width="83.076" height="27.822"/>
		<path d="M552.85,43.58c0,2.771-1.691,4.258-3.754,4.258c-2.146,0-3.634-1.667-3.634-4.114c0-2.566,1.583-4.246,3.742-4.246
			C551.423,39.478,552.85,41.169,552.85,43.58z M546.565,43.7c0,1.739,0.936,3.286,2.591,3.286c1.654,0,2.59-1.523,2.59-3.358
			c0-1.619-0.839-3.298-2.578-3.298S546.565,41.937,546.565,43.7z"/>
		<path d="M554.174,43.796c0-0.744-0.023-1.343-0.048-1.895h0.936l0.06,0.995h0.024c0.419-0.708,1.115-1.115,2.062-1.115
			c1.415,0,2.471,1.188,2.471,2.938c0,2.087-1.283,3.118-2.65,3.118c-0.768,0-1.439-0.336-1.787-0.912h-0.024v3.154h-1.043V43.796z
			 M555.217,45.343c0,0.156,0.013,0.3,0.049,0.432c0.191,0.732,0.827,1.235,1.583,1.235c1.115,0,1.763-0.911,1.763-2.243
			c0-1.151-0.611-2.146-1.727-2.146c-0.721,0-1.404,0.503-1.596,1.295c-0.035,0.132-0.072,0.288-0.072,0.42V45.343z"/>
		<path d="M561.59,44.995c0.023,1.427,0.923,2.015,1.99,2.015c0.756,0,1.223-0.132,1.607-0.3l0.191,0.756
			c-0.371,0.168-1.02,0.372-1.943,0.372c-1.787,0-2.854-1.188-2.854-2.938s1.031-3.118,2.723-3.118c1.906,0,2.398,1.655,2.398,2.723
			c0,0.216-0.012,0.372-0.036,0.492H561.59z M564.684,44.239c0.012-0.66-0.275-1.703-1.463-1.703c-1.08,0-1.535,0.971-1.619,1.703
			H564.684z"/>
		<path d="M567.014,43.712c0-0.684-0.013-1.271-0.049-1.811h0.924l0.048,1.151h0.036c0.264-0.78,0.912-1.271,1.619-1.271
			c0.107,0,0.191,0.012,0.288,0.024V42.8c-0.108-0.024-0.216-0.024-0.36-0.024c-0.743,0-1.271,0.552-1.415,1.343
			c-0.024,0.144-0.036,0.324-0.036,0.492v3.094h-1.055V43.712z"/>
		<path d="M574.955,46.314c0,0.503,0.023,0.995,0.084,1.391h-0.947l-0.084-0.731h-0.037c-0.323,0.456-0.947,0.863-1.774,0.863
			c-1.175,0-1.774-0.828-1.774-1.667c0-1.403,1.246-2.171,3.489-2.159v-0.12c0-0.468-0.132-1.343-1.319-1.331
			c-0.551,0-1.115,0.156-1.523,0.432l-0.239-0.708c0.479-0.3,1.188-0.504,1.919-0.504c1.775,0,2.207,1.211,2.207,2.363V46.314z
			 M573.936,44.743c-1.151-0.024-2.459,0.18-2.459,1.307c0,0.696,0.456,1.008,0.983,1.008c0.768,0,1.259-0.48,1.427-0.972
			c0.037-0.12,0.049-0.24,0.049-0.336V44.743z"/>
		<path d="M577.885,40.509v1.392h1.512v0.803h-1.512v3.13c0,0.72,0.203,1.127,0.791,1.127c0.288,0,0.456-0.024,0.612-0.072
			l0.048,0.803c-0.204,0.072-0.527,0.144-0.936,0.144c-0.492,0-0.888-0.168-1.14-0.444c-0.288-0.324-0.407-0.839-0.407-1.523v-3.167
			h-0.9v-0.803h0.9v-1.08L577.885,40.509z"/>
		<path d="M581.102,44.995c0.023,1.427,0.923,2.015,1.99,2.015c0.756,0,1.223-0.132,1.607-0.3l0.191,0.756
			c-0.371,0.168-1.02,0.372-1.943,0.372c-1.787,0-2.854-1.188-2.854-2.938s1.031-3.118,2.723-3.118c1.906,0,2.398,1.655,2.398,2.723
			c0,0.216-0.012,0.372-0.036,0.492H581.102z M584.195,44.239c0.012-0.66-0.275-1.703-1.463-1.703c-1.08,0-1.535,0.971-1.619,1.703
			H584.195z"/>
		<path d="M591.383,46.11c0,0.612,0.012,1.14,0.047,1.595h-0.936l-0.06-0.947h-0.024c-0.264,0.468-0.887,1.079-1.918,1.079
			c-0.912,0-2.004-0.516-2.004-2.542v-3.394h1.057v3.202c0,1.104,0.348,1.859,1.295,1.859c0.707,0,1.199-0.492,1.391-0.971
			c0.061-0.144,0.096-0.336,0.096-0.54v-3.55h1.057V46.11z"/>
		<path d="M593.137,43.712c0-0.684-0.012-1.271-0.048-1.811h0.923l0.049,1.151h0.035c0.264-0.78,0.912-1.271,1.619-1.271
			c0.108,0,0.192,0.012,0.288,0.024V42.8c-0.108-0.024-0.216-0.024-0.359-0.024c-0.743,0-1.271,0.552-1.415,1.343
			c-0.024,0.144-0.036,0.324-0.036,0.492v3.094h-1.056V43.712z"/>
		<path d="M596.916,46.638c0.324,0.192,0.876,0.408,1.404,0.408c0.756,0,1.115-0.372,1.115-0.863c0-0.504-0.301-0.768-1.068-1.056
			c-1.055-0.384-1.547-0.947-1.547-1.643c0-0.936,0.768-1.703,2.004-1.703c0.587,0,1.103,0.156,1.414,0.36l-0.252,0.768
			c-0.227-0.144-0.646-0.348-1.187-0.348c-0.624,0-0.96,0.36-0.96,0.792c0,0.479,0.336,0.695,1.092,0.995
			c0.995,0.372,1.523,0.876,1.523,1.739c0,1.031-0.804,1.751-2.159,1.751c-0.636,0-1.224-0.168-1.631-0.408L596.916,46.638z"/>
		<path d="M609.357,39.19v7.016c0,0.516,0.024,1.103,0.049,1.499h-0.936l-0.049-1.007h-0.035c-0.312,0.647-1.008,1.139-1.955,1.139
			c-1.403,0-2.495-1.188-2.495-2.95c-0.012-1.931,1.2-3.106,2.603-3.106c0.9,0,1.487,0.42,1.752,0.875h0.023V39.19H609.357z
			 M608.314,44.264c0-0.132-0.012-0.312-0.049-0.444c-0.155-0.66-0.73-1.211-1.522-1.211c-1.091,0-1.739,0.959-1.739,2.231
			c0,1.175,0.588,2.146,1.715,2.146c0.708,0,1.355-0.479,1.547-1.259c0.037-0.144,0.049-0.288,0.049-0.456V44.264z"/>
		<path d="M611.713,44.995c0.023,1.427,0.923,2.015,1.99,2.015c0.756,0,1.223-0.132,1.607-0.3l0.191,0.756
			c-0.371,0.168-1.02,0.372-1.943,0.372c-1.787,0-2.854-1.188-2.854-2.938s1.031-3.118,2.723-3.118c1.906,0,2.398,1.655,2.398,2.723
			c0,0.216-0.012,0.372-0.036,0.492H611.713z M614.807,44.239c0.012-0.66-0.275-1.703-1.463-1.703c-1.08,0-1.535,0.971-1.619,1.703
			H614.807z"/>
		<path d="M567.413,61.254c0,1.343-0.276,2.147-0.827,2.663c-0.576,0.516-1.392,0.696-2.123,0.696c-0.695,0-1.463-0.168-1.932-0.48
			l0.264-0.815c0.385,0.252,0.984,0.468,1.703,0.468c1.08,0,1.871-0.564,1.871-2.039V61.11h-0.023
			c-0.312,0.54-0.947,0.972-1.848,0.972c-1.438,0-2.471-1.224-2.471-2.831c0-1.967,1.284-3.07,2.627-3.07
			c1.008,0,1.547,0.516,1.812,0.996h0.024l0.035-0.875h0.936c-0.036,0.408-0.048,0.887-0.048,1.583V61.254z M566.357,58.591
			c0-0.18-0.012-0.336-0.06-0.468c-0.192-0.624-0.696-1.127-1.476-1.127c-1.008,0-1.727,0.852-1.727,2.195
			c0,1.14,0.588,2.087,1.715,2.087c0.66,0,1.247-0.408,1.463-1.079c0.061-0.18,0.084-0.384,0.084-0.564V58.591z"/>
		<path d="M574.014,60.51c0,0.612,0.012,1.14,0.047,1.595h-0.936l-0.06-0.947h-0.024c-0.264,0.467-0.887,1.079-1.918,1.079
			c-0.912,0-2.004-0.516-2.004-2.542v-3.394h1.057v3.202c0,1.104,0.348,1.859,1.295,1.859c0.707,0,1.199-0.492,1.391-0.971
			c0.061-0.144,0.096-0.336,0.096-0.54v-3.55h1.057V60.51z"/>
		<path d="M576.943,54.669c0,0.36-0.252,0.648-0.672,0.648c-0.384,0-0.636-0.288-0.636-0.648s0.264-0.66,0.659-0.66
			C576.68,54.01,576.943,54.298,576.943,54.669z M575.768,62.105v-5.805h1.056v5.805H575.768z"/>
		<path d="M582.713,61.901c-0.275,0.132-0.887,0.336-1.666,0.336c-1.752,0-2.891-1.187-2.891-2.962c0-1.787,1.223-3.094,3.118-3.094
			c0.624,0,1.175,0.156,1.463,0.312l-0.239,0.803c-0.252-0.132-0.648-0.276-1.224-0.276c-1.331,0-2.052,0.996-2.052,2.195
			c0,1.343,0.864,2.171,2.016,2.171c0.6,0,0.996-0.144,1.295-0.276L582.713,61.901z"/>
		<path d="M583.951,53.59h1.057v3.634h0.023c0.168-0.3,0.432-0.576,0.756-0.755c0.312-0.18,0.684-0.288,1.079-0.288
			c0.779,0,2.026,0.48,2.026,2.471v3.454h-1.055v-3.334c0-0.936-0.348-1.715-1.344-1.715c-0.684,0-1.211,0.48-1.415,1.043
			c-0.06,0.156-0.071,0.312-0.071,0.504v3.502h-1.057V53.59z"/>
		<path d="M591.199,59.395c0.024,1.427,0.924,2.015,1.991,2.015c0.755,0,1.224-0.132,1.606-0.3l0.192,0.756
			c-0.372,0.168-1.019,0.372-1.942,0.372c-1.787,0-2.855-1.187-2.855-2.938c0-1.751,1.032-3.118,2.723-3.118
			c1.907,0,2.399,1.655,2.399,2.723c0,0.216-0.013,0.372-0.036,0.492H591.199z M594.294,58.639c0.012-0.659-0.276-1.703-1.464-1.703
			c-1.079,0-1.535,0.971-1.619,1.703H594.294z"/>
		<path d="M597.895,54.91v1.391h1.512v0.803h-1.512v3.13c0,0.72,0.204,1.127,0.792,1.127c0.288,0,0.456-0.024,0.611-0.072
			l0.048,0.803c-0.203,0.072-0.527,0.144-0.936,0.144c-0.491,0-0.887-0.168-1.139-0.444c-0.288-0.324-0.408-0.839-0.408-1.523
			v-3.167h-0.899v-0.803h0.899v-1.08L597.895,54.91z"/>
	</g>
	<rect x="690.653" y="92.328" fill="none" stroke="#000000" width="104.487" height="32.307"/>
	<g>
		<rect x="701.358" y="94.57" fill="none" width="83.075" height="27.822"/>
		<path d="M713.467,95.104c0.503-0.084,1.162-0.156,2.002-0.156c1.031,0,1.787,0.24,2.268,0.672
			c0.432,0.384,0.707,0.971,0.707,1.691c0,0.731-0.216,1.307-0.623,1.727c-0.564,0.587-1.451,0.888-2.471,0.888
			c-0.312,0-0.6-0.012-0.84-0.072v3.238h-1.043V95.104z M714.51,99.001c0.228,0.06,0.516,0.084,0.863,0.084
			c1.26,0,2.027-0.624,2.027-1.715c0-1.08-0.768-1.595-1.907-1.595c-0.456,0-0.804,0.036-0.983,0.084V99.001z"/>
		<path d="M719.622,99.098c0-0.684-0.013-1.271-0.048-1.811h0.924l0.047,1.151h0.037c0.264-0.78,0.911-1.271,1.619-1.271
			c0.107,0,0.191,0.012,0.287,0.024v0.996c-0.107-0.024-0.216-0.024-0.359-0.024c-0.744,0-1.271,0.552-1.416,1.343
			c-0.023,0.144-0.035,0.324-0.035,0.492v3.094h-1.056V99.098z"/>
		<path d="M724.014,100.381c0.023,1.427,0.924,2.015,1.99,2.015c0.756,0,1.224-0.132,1.607-0.3l0.191,0.756
			c-0.371,0.168-1.019,0.372-1.942,0.372c-1.787,0-2.854-1.188-2.854-2.938s1.031-3.118,2.723-3.118
			c1.906,0,2.398,1.655,2.398,2.723c0,0.216-0.012,0.372-0.035,0.492H724.014z M727.107,99.625c0.012-0.66-0.275-1.703-1.463-1.703
			c-1.08,0-1.535,0.971-1.619,1.703H727.107z M727.348,94.78l-1.463,1.715h-0.744l1.056-1.715H727.348z"/>
		<path d="M729.438,99.182c0-0.744-0.023-1.343-0.048-1.895h0.936l0.06,0.995h0.024c0.419-0.708,1.115-1.115,2.062-1.115
			c1.415,0,2.471,1.188,2.471,2.938c0,2.087-1.283,3.118-2.65,3.118c-0.768,0-1.439-0.336-1.787-0.912h-0.024v3.154h-1.043V99.182z
			 M730.48,100.729c0,0.156,0.013,0.3,0.049,0.432c0.191,0.732,0.827,1.235,1.582,1.235c1.116,0,1.764-0.911,1.764-2.243
			c0-1.151-0.611-2.146-1.727-2.146c-0.721,0-1.404,0.503-1.596,1.295c-0.035,0.132-0.072,0.288-0.072,0.42V100.729z"/>
		<path d="M741.518,100.141c0,2.146-1.498,3.082-2.89,3.082c-1.56,0-2.782-1.151-2.782-2.986c0-1.931,1.283-3.07,2.878-3.07
			C740.391,97.167,741.518,98.378,741.518,100.141z M736.925,100.201c0,1.271,0.72,2.231,1.751,2.231
			c1.008,0,1.764-0.947,1.764-2.255c0-0.983-0.492-2.219-1.74-2.219C737.465,97.958,736.925,99.109,736.925,100.201z"/>
		<path d="M742.709,102.024c0.324,0.192,0.875,0.408,1.403,0.408c0.756,0,1.115-0.372,1.115-0.863c0-0.504-0.3-0.768-1.067-1.056
			c-1.055-0.384-1.547-0.947-1.547-1.643c0-0.936,0.768-1.703,2.003-1.703c0.587,0,1.103,0.156,1.415,0.36l-0.252,0.768
			c-0.228-0.144-0.647-0.348-1.188-0.348c-0.623,0-0.959,0.36-0.959,0.792c0,0.479,0.336,0.695,1.092,0.995
			c0.994,0.372,1.522,0.876,1.522,1.739c0,1.031-0.804,1.751-2.159,1.751c-0.635,0-1.223-0.168-1.631-0.408L742.709,102.024z"/>
		<path d="M748.193,100.381c0.023,1.427,0.923,2.015,1.99,2.015c0.756,0,1.223-0.132,1.607-0.3l0.191,0.756
			c-0.371,0.168-1.02,0.372-1.943,0.372c-1.787,0-2.854-1.188-2.854-2.938s1.031-3.118,2.723-3.118c1.906,0,2.398,1.655,2.398,2.723
			c0,0.216-0.012,0.372-0.036,0.492H748.193z M751.287,99.625c0.012-0.66-0.275-1.703-1.463-1.703c-1.08,0-1.535,0.971-1.619,1.703
			H751.287z M751.527,94.78l-1.464,1.715h-0.743l1.055-1.715H751.527z"/>
		<path d="M760.238,101.7c0,0.503,0.023,0.995,0.084,1.391h-0.947l-0.084-0.731h-0.036c-0.323,0.456-0.947,0.863-1.774,0.863
			c-1.176,0-1.775-0.828-1.775-1.667c0-1.403,1.247-2.171,3.49-2.159v-0.12c0-0.468-0.133-1.343-1.32-1.331
			c-0.551,0-1.115,0.156-1.522,0.432l-0.239-0.708c0.479-0.3,1.188-0.504,1.918-0.504c1.775,0,2.207,1.211,2.207,2.363V101.7z
			 M759.219,100.129c-1.15-0.024-2.459,0.18-2.459,1.307c0,0.696,0.457,1.008,0.984,1.008c0.768,0,1.259-0.48,1.427-0.972
			c0.036-0.12,0.048-0.24,0.048-0.336V100.129z"/>
		<path d="M766.803,101.496c0,0.612,0.012,1.14,0.047,1.595h-0.936l-0.06-0.947h-0.024c-0.264,0.468-0.887,1.079-1.918,1.079
			c-0.912,0-2.004-0.516-2.004-2.542v-3.394h1.057v3.202c0,1.104,0.348,1.859,1.295,1.859c0.707,0,1.199-0.492,1.391-0.971
			c0.061-0.144,0.096-0.336,0.096-0.54v-3.55h1.057V101.496z"/>
		<path d="M769.049,97.287l0.827,1.247c0.228,0.324,0.407,0.612,0.6,0.936h0.024c0.191-0.336,0.383-0.636,0.588-0.947l0.803-1.235
			h1.151l-1.979,2.806l2.026,2.999h-1.188l-0.863-1.307c-0.228-0.336-0.42-0.66-0.623-1.008h-0.024
			c-0.192,0.348-0.384,0.66-0.612,1.008l-0.839,1.307h-1.163l2.062-2.962l-1.967-2.842H769.049z"/>
		<path d="M711.606,113.498c0-0.684-0.013-1.271-0.048-1.811h0.924l0.047,1.151h0.037c0.264-0.78,0.911-1.271,1.619-1.271
			c0.107,0,0.191,0.012,0.287,0.024v0.996c-0.107-0.024-0.216-0.024-0.359-0.024c-0.744,0-1.271,0.552-1.416,1.343
			c-0.023,0.144-0.035,0.324-0.035,0.492v3.094h-1.056V113.498z"/>
		<path d="M715.998,114.781c0.023,1.427,0.924,2.015,1.99,2.015c0.756,0,1.224-0.132,1.607-0.3l0.191,0.756
			c-0.371,0.168-1.019,0.372-1.942,0.372c-1.787,0-2.854-1.187-2.854-2.938c0-1.751,1.031-3.118,2.723-3.118
			c1.906,0,2.398,1.655,2.398,2.723c0,0.216-0.012,0.372-0.035,0.492H715.998z M719.092,114.025
			c0.012-0.659-0.275-1.703-1.463-1.703c-1.08,0-1.535,0.971-1.619,1.703H719.092z M719.332,109.18l-1.463,1.715h-0.744l1.056-1.715
			H719.332z"/>
		<path d="M725.56,117.287c-0.276,0.132-0.888,0.336-1.667,0.336c-1.751,0-2.891-1.187-2.891-2.962c0-1.787,1.224-3.094,3.119-3.094
			c0.623,0,1.175,0.156,1.463,0.312l-0.24,0.803c-0.252-0.132-0.647-0.276-1.223-0.276c-1.332,0-2.052,0.996-2.052,2.195
			c0,1.343,0.864,2.171,2.015,2.171c0.6,0,0.996-0.144,1.296-0.276L725.56,117.287z"/>
		<path d="M726.798,108.976h1.056v8.515h-1.056V108.976z"/>
		<path d="M733.707,116.1c0,0.503,0.024,0.995,0.084,1.391h-0.947l-0.084-0.731h-0.035c-0.324,0.456-0.947,0.863-1.775,0.863
			c-1.176,0-1.775-0.828-1.775-1.667c0-1.403,1.248-2.171,3.49-2.159v-0.12c0-0.468-0.132-1.343-1.318-1.331
			c-0.553,0-1.116,0.156-1.523,0.432l-0.24-0.708c0.479-0.3,1.188-0.504,1.919-0.504c1.774,0,2.206,1.211,2.206,2.363V116.1z
			 M732.688,114.529c-1.15-0.024-2.458,0.18-2.458,1.307c0,0.696,0.456,1.008,0.983,1.008c0.768,0,1.26-0.48,1.428-0.972
			c0.035-0.12,0.047-0.24,0.047-0.336V114.529z"/>
		<path d="M735.414,113.257c0-0.611-0.023-1.091-0.048-1.571h0.923l0.049,0.947h0.035c0.324-0.552,0.864-1.067,1.836-1.067
			c0.779,0,1.379,0.48,1.631,1.164h0.023c0.18-0.336,0.42-0.576,0.66-0.756c0.348-0.264,0.719-0.408,1.271-0.408
			c0.779,0,1.918,0.504,1.918,2.519v3.406h-1.031v-3.274c0-1.127-0.42-1.787-1.259-1.787c-0.612,0-1.067,0.443-1.259,0.947
			c-0.049,0.156-0.084,0.336-0.084,0.528v3.586h-1.031v-3.478c0-0.923-0.408-1.583-1.212-1.583c-0.647,0-1.14,0.527-1.308,1.055
			c-0.06,0.144-0.084,0.336-0.084,0.516v3.49h-1.031V113.257z"/>
		<path d="M749.5,116.1c0,0.503,0.023,0.995,0.084,1.391h-0.947l-0.084-0.731h-0.037c-0.323,0.456-0.947,0.863-1.774,0.863
			c-1.175,0-1.774-0.828-1.774-1.667c0-1.403,1.246-2.171,3.489-2.159v-0.12c0-0.468-0.132-1.343-1.319-1.331
			c-0.551,0-1.115,0.156-1.523,0.432l-0.239-0.708c0.479-0.3,1.187-0.504,1.919-0.504c1.775,0,2.207,1.211,2.207,2.363V116.1z
			 M748.48,114.529c-1.152-0.024-2.459,0.18-2.459,1.307c0,0.696,0.456,1.008,0.983,1.008c0.768,0,1.259-0.48,1.427-0.972
			c0.037-0.12,0.049-0.24,0.049-0.336V114.529z"/>
		<path d="M752.43,110.295v1.391h1.512v0.803h-1.512v3.13c0,0.72,0.203,1.127,0.791,1.127c0.288,0,0.456-0.024,0.611-0.072
			l0.049,0.803c-0.204,0.072-0.527,0.144-0.936,0.144c-0.492,0-0.888-0.168-1.14-0.444c-0.288-0.324-0.407-0.839-0.407-1.523v-3.167
			h-0.9v-0.803h0.9v-1.08L752.43,110.295z"/>
		<path d="M756.305,110.055c0,0.36-0.252,0.648-0.671,0.648c-0.384,0-0.636-0.288-0.636-0.648s0.264-0.66,0.66-0.66
			C756.041,109.396,756.305,109.684,756.305,110.055z M755.13,117.491v-5.805h1.056v5.805H755.13z"/>
		<path d="M763.191,114.541c0,2.146-1.5,3.082-2.891,3.082c-1.559,0-2.783-1.151-2.783-2.986c0-1.931,1.284-3.07,2.879-3.07
			C762.064,111.566,763.191,112.778,763.191,114.541z M758.598,114.601c0,1.271,0.72,2.231,1.751,2.231
			c1.007,0,1.763-0.947,1.763-2.255c0-0.983-0.491-2.219-1.738-2.219C759.137,112.358,758.598,113.509,758.598,114.601z"/>
		<path d="M764.525,113.257c0-0.611-0.012-1.091-0.047-1.571h0.936l0.059,0.959h0.025c0.287-0.54,0.959-1.08,1.918-1.08
			c0.804,0,2.051,0.48,2.051,2.471v3.454h-1.055v-3.346c0-0.936-0.348-1.715-1.344-1.715c-0.684,0-1.223,0.492-1.415,1.079
			c-0.048,0.132-0.071,0.312-0.071,0.492v3.49h-1.057V113.257z"/>
		<path d="M771.041,116.424c0.324,0.192,0.876,0.408,1.404,0.408c0.756,0,1.115-0.372,1.115-0.863c0-0.504-0.301-0.768-1.068-1.056
			c-1.055-0.384-1.547-0.947-1.547-1.643c0-0.936,0.768-1.703,2.004-1.703c0.587,0,1.104,0.156,1.414,0.36l-0.252,0.768
			c-0.227-0.144-0.646-0.348-1.187-0.348c-0.624,0-0.96,0.36-0.96,0.792c0,0.479,0.336,0.695,1.092,0.996
			c0.996,0.372,1.523,0.875,1.523,1.739c0,1.031-0.804,1.751-2.159,1.751c-0.636,0-1.224-0.168-1.632-0.408L771.041,116.424z"/>
	</g>
	<rect x="690.653" y="36.941" fill="none" stroke="#000000" width="104.487" height="32.308"/>
	<g>
		<rect x="701.358" y="45.916" fill="none" width="83.076" height="14.358"/>
		<path d="M719.483,54.436l-2.65-8.083h1.14l1.259,3.982c0.336,1.091,0.636,2.075,0.864,3.022h0.023
			c0.229-0.935,0.552-1.955,0.924-3.01l1.367-3.994h1.115l-2.891,8.083H719.483z"/>
		<path d="M729.225,51.486c0,2.146-1.498,3.082-2.89,3.082c-1.56,0-2.782-1.151-2.782-2.986c0-1.931,1.283-3.07,2.878-3.07
			C728.098,48.511,729.225,49.723,729.225,51.486z M724.632,51.545c0,1.271,0.72,2.231,1.751,2.231c1.008,0,1.764-0.947,1.764-2.255
			c0-0.983-0.492-2.219-1.74-2.219C725.172,49.303,724.632,50.454,724.632,51.545z"/>
		<path d="M730.86,48.631l1.259,3.43c0.145,0.384,0.289,0.839,0.385,1.187h0.023c0.107-0.348,0.229-0.792,0.372-1.211l1.151-3.406
			h1.115l-1.583,4.138c-0.756,1.991-1.271,2.998-1.991,3.634c-0.527,0.444-1.031,0.624-1.295,0.672l-0.264-0.875
			c0.264-0.084,0.611-0.252,0.924-0.516c0.287-0.228,0.635-0.635,0.887-1.175c0.048-0.108,0.084-0.192,0.084-0.251
			c0-0.06-0.023-0.144-0.084-0.276l-2.135-5.349H730.86z"/>
		<path d="M740.158,53.045c0,0.503,0.023,0.995,0.084,1.391h-0.947l-0.084-0.731h-0.037c-0.323,0.456-0.947,0.863-1.774,0.863
			c-1.175,0-1.774-0.828-1.774-1.667c0-1.403,1.246-2.171,3.489-2.159v-0.12c0-0.468-0.132-1.343-1.319-1.331
			c-0.551,0-1.115,0.156-1.523,0.432l-0.239-0.708c0.479-0.3,1.187-0.504,1.919-0.504c1.775,0,2.207,1.211,2.207,2.363V53.045z
			 M739.139,51.474c-1.152-0.024-2.459,0.18-2.459,1.307c0,0.696,0.456,1.008,0.983,1.008c0.768,0,1.259-0.48,1.427-0.972
			c0.037-0.12,0.049-0.24,0.049-0.336V51.474z"/>
		<path d="M746.829,53.584c0,1.343-0.276,2.147-0.827,2.663c-0.576,0.516-1.392,0.696-2.123,0.696c-0.695,0-1.463-0.168-1.932-0.48
			l0.264-0.815c0.385,0.252,0.984,0.468,1.703,0.468c1.08,0,1.871-0.564,1.871-2.039V53.44h-0.023
			c-0.312,0.54-0.947,0.972-1.848,0.972c-1.438,0-2.471-1.223-2.471-2.831c0-1.967,1.284-3.07,2.627-3.07
			c1.008,0,1.547,0.516,1.811,0.996h0.025l0.035-0.875h0.936c-0.035,0.408-0.048,0.887-0.048,1.583V53.584z M745.773,50.922
			c0-0.18-0.012-0.336-0.06-0.468c-0.192-0.624-0.696-1.127-1.476-1.127c-1.008,0-1.727,0.852-1.727,2.195
			c0,1.14,0.588,2.087,1.715,2.087c0.66,0,1.247-0.408,1.463-1.079c0.061-0.18,0.084-0.384,0.084-0.564V50.922z"/>
		<path d="M749.16,51.726c0.023,1.427,0.923,2.015,1.99,2.015c0.756,0,1.223-0.132,1.607-0.3l0.191,0.756
			c-0.371,0.168-1.02,0.372-1.943,0.372c-1.787,0-2.854-1.188-2.854-2.938s1.031-3.118,2.723-3.118c1.906,0,2.398,1.655,2.398,2.723
			c0,0.216-0.012,0.372-0.036,0.492H749.16z M752.254,50.97c0.012-0.66-0.275-1.703-1.463-1.703c-1.08,0-1.535,0.971-1.619,1.703
			H752.254z"/>
		<path d="M759.441,52.841c0,0.612,0.012,1.14,0.047,1.595h-0.936l-0.06-0.947h-0.024c-0.264,0.468-0.887,1.079-1.918,1.079
			c-0.912,0-2.004-0.516-2.004-2.542v-3.394h1.057v3.202c0,1.104,0.348,1.859,1.295,1.859c0.707,0,1.199-0.492,1.391-0.971
			c0.061-0.144,0.096-0.336,0.096-0.54v-3.55h1.057V52.841z"/>
		<path d="M761.195,50.442c0-0.684-0.012-1.271-0.048-1.811h0.923l0.049,1.151h0.035c0.264-0.78,0.912-1.271,1.619-1.271
			c0.108,0,0.192,0.012,0.289,0.024v0.996c-0.109-0.024-0.217-0.024-0.36-0.024c-0.743,0-1.271,0.552-1.415,1.343
			c-0.024,0.144-0.036,0.324-0.036,0.492v3.094h-1.056V50.442z"/>
		<path d="M764.975,53.369c0.324,0.192,0.876,0.408,1.404,0.408c0.756,0,1.115-0.372,1.115-0.863c0-0.504-0.301-0.768-1.068-1.056
			c-1.055-0.384-1.547-0.947-1.547-1.643c0-0.936,0.768-1.703,2.004-1.703c0.587,0,1.104,0.156,1.414,0.36l-0.252,0.768
			c-0.227-0.144-0.646-0.348-1.187-0.348c-0.624,0-0.96,0.36-0.96,0.792c0,0.479,0.336,0.695,1.092,0.995
			c0.996,0.372,1.523,0.876,1.523,1.739c0,1.031-0.804,1.751-2.159,1.751c-0.636,0-1.224-0.168-1.632-0.408L764.975,53.369z"/>
	</g>
	<rect x="290.433" y="92.327" fill="none" stroke="#000000" width="104.488" height="32.309"/>
	<g>
		<rect x="301.138" y="101.302" fill="none" width="83.076" height="14.359"/>
		<path d="M313.721,108.551c0.468,0.3,1.139,0.528,1.859,0.528c1.067,0,1.691-0.563,1.691-1.379c0-0.743-0.432-1.187-1.523-1.595
			c-1.319-0.48-2.135-1.176-2.135-2.303c0-1.259,1.043-2.195,2.615-2.195c0.815,0,1.427,0.192,1.775,0.396l-0.288,0.852
			c-0.252-0.156-0.792-0.384-1.523-0.384c-1.103,0-1.523,0.66-1.523,1.211c0,0.755,0.492,1.127,1.607,1.559
			c1.368,0.528,2.051,1.188,2.051,2.375c0,1.248-0.912,2.339-2.819,2.339c-0.779,0-1.631-0.24-2.062-0.528L313.721,108.551z"/>
		<path d="M324.59,108.227c0,0.612,0.012,1.14,0.048,1.595h-0.936l-0.06-0.947h-0.024c-0.264,0.468-0.887,1.079-1.919,1.079
			c-0.911,0-2.003-0.516-2.003-2.542v-3.394h1.056v3.202c0,1.104,0.348,1.859,1.295,1.859c0.708,0,1.199-0.492,1.391-0.971
			c0.06-0.144,0.096-0.336,0.096-0.54v-3.55h1.056V108.227z"/>
		<path d="M326.344,105.913c0-0.744-0.024-1.343-0.048-1.895h0.936l0.06,0.995h0.024c0.419-0.708,1.115-1.115,2.062-1.115
			c1.416,0,2.471,1.188,2.471,2.938c0,2.087-1.283,3.118-2.65,3.118c-0.768,0-1.439-0.336-1.787-0.912h-0.024v3.154h-1.043V105.913z
			 M327.388,107.459c0,0.156,0.012,0.3,0.048,0.432c0.192,0.732,0.828,1.235,1.583,1.235c1.116,0,1.763-0.911,1.763-2.243
			c0-1.151-0.612-2.146-1.727-2.146c-0.72,0-1.403,0.503-1.595,1.295c-0.036,0.132-0.072,0.288-0.072,0.42V107.459z"/>
		<path d="M333.76,107.112c0.024,1.427,0.923,2.015,1.991,2.015c0.755,0,1.223-0.132,1.607-0.3l0.192,0.756
			c-0.372,0.168-1.019,0.372-1.943,0.372c-1.787,0-2.854-1.188-2.854-2.938s1.032-3.118,2.723-3.118
			c1.907,0,2.399,1.655,2.399,2.723c0,0.216-0.012,0.372-0.036,0.492H333.76z M336.854,106.356c0.012-0.66-0.276-1.703-1.463-1.703
			c-1.079,0-1.535,0.971-1.619,1.703H336.854z"/>
		<path d="M339.184,105.829c0-0.684-0.012-1.271-0.048-1.811h0.923l0.048,1.151h0.036c0.264-0.78,0.912-1.271,1.619-1.271
			c0.108,0,0.192,0.012,0.288,0.024v0.996c-0.108-0.024-0.216-0.024-0.359-0.024c-0.744,0-1.271,0.552-1.416,1.343
			c-0.024,0.144-0.036,0.324-0.036,0.492v3.094h-1.056V105.829z"/>
		<path d="M343.815,104.018l1.14,3.25c0.192,0.54,0.348,1.02,0.468,1.499h0.036c0.132-0.479,0.3-0.959,0.492-1.499l1.127-3.25h1.104
			l-2.279,5.805h-1.007l-2.207-5.805H343.815z"/>
		<path d="M350.354,102.386c0,0.36-0.252,0.648-0.671,0.648c-0.384,0-0.636-0.288-0.636-0.648s0.264-0.66,0.66-0.66
			C350.091,101.727,350.354,102.015,350.354,102.386z M349.179,109.822v-5.805h1.056v5.805H349.179z"/>
		<path d="M351.843,108.755c0.324,0.192,0.875,0.408,1.403,0.408c0.756,0,1.115-0.372,1.115-0.863c0-0.504-0.3-0.768-1.067-1.056
			c-1.055-0.384-1.547-0.947-1.547-1.643c0-0.936,0.768-1.703,2.003-1.703c0.587,0,1.103,0.156,1.415,0.36l-0.252,0.768
			c-0.228-0.144-0.647-0.348-1.187-0.348c-0.624,0-0.959,0.36-0.959,0.792c0,0.479,0.335,0.695,1.091,0.995
			c0.995,0.372,1.523,0.876,1.523,1.739c0,1.031-0.803,1.751-2.159,1.751c-0.636,0-1.223-0.168-1.631-0.408L351.843,108.755z"/>
		<path d="M357.327,107.112c0.024,1.427,0.923,2.015,1.991,2.015c0.755,0,1.223-0.132,1.607-0.3l0.192,0.756
			c-0.372,0.168-1.019,0.372-1.943,0.372c-1.787,0-2.854-1.188-2.854-2.938s1.032-3.118,2.723-3.118
			c1.907,0,2.399,1.655,2.399,2.723c0,0.216-0.012,0.372-0.036,0.492H357.327z M360.421,106.356c0.012-0.66-0.276-1.703-1.463-1.703
			c-1.079,0-1.535,0.971-1.619,1.703H360.421z"/>
		<path d="M367.608,108.227c0,0.612,0.012,1.14,0.048,1.595h-0.936l-0.06-0.947h-0.024c-0.264,0.468-0.887,1.079-1.919,1.079
			c-0.911,0-2.003-0.516-2.003-2.542v-3.394h1.056v3.202c0,1.104,0.348,1.859,1.295,1.859c0.708,0,1.199-0.492,1.391-0.971
			c0.06-0.144,0.096-0.336,0.096-0.54v-3.55h1.056V108.227z"/>
		<path d="M369.363,105.829c0-0.684-0.012-1.271-0.048-1.811h0.923l0.048,1.151h0.036c0.264-0.78,0.912-1.271,1.619-1.271
			c0.108,0,0.192,0.012,0.288,0.024v0.996c-0.108-0.024-0.216-0.024-0.36-0.024c-0.744,0-1.271,0.552-1.416,1.343
			c-0.024,0.144-0.036,0.324-0.036,0.492v3.094h-1.056V105.829z"/>
	</g>
	<rect x="54.348" y="203.099" fill="none" stroke="#000000" width="104.487" height="32.309"/>
	<g>
		<rect x="65.054" y="205.343" fill="none" width="83.076" height="27.82"/>
		<path d="M75.729,205.888c0.527-0.096,1.295-0.168,2.003-0.168c1.115,0,1.847,0.216,2.338,0.66c0.396,0.36,0.636,0.912,0.636,1.547
			c0,1.055-0.671,1.763-1.511,2.051v0.036c0.612,0.216,0.983,0.792,1.175,1.631c0.264,1.127,0.456,1.907,0.624,2.219h-1.08
			c-0.132-0.24-0.312-0.923-0.528-1.931c-0.24-1.115-0.684-1.535-1.631-1.571h-0.983v3.502h-1.043V205.888z M76.772,209.57h1.067
			c1.115,0,1.823-0.612,1.823-1.535c0-1.043-0.755-1.5-1.859-1.5c-0.504,0-0.852,0.036-1.031,0.084V209.57z"/>
		<path d="M82.784,211.153c0.024,1.427,0.923,2.015,1.991,2.015c0.755,0,1.223-0.132,1.607-0.3l0.192,0.756
			c-0.372,0.168-1.019,0.372-1.943,0.372c-1.787,0-2.854-1.188-2.854-2.938s1.032-3.118,2.723-3.118
			c1.907,0,2.399,1.655,2.399,2.723c0,0.216-0.012,0.372-0.036,0.492H82.784z M85.878,210.397c0.012-0.66-0.276-1.703-1.463-1.703
			c-1.079,0-1.535,0.971-1.619,1.703H85.878z"/>
		<path d="M88.064,212.796c0.324,0.192,0.875,0.408,1.403,0.408c0.756,0,1.115-0.372,1.115-0.863c0-0.504-0.3-0.768-1.067-1.056
			c-1.055-0.384-1.547-0.947-1.547-1.643c0-0.936,0.768-1.703,2.003-1.703c0.587,0,1.103,0.156,1.415,0.36l-0.252,0.768
			c-0.228-0.144-0.647-0.348-1.187-0.348c-0.624,0-0.959,0.36-0.959,0.792c0,0.479,0.335,0.695,1.091,0.995
			c0.995,0.372,1.523,0.876,1.523,1.739c0,1.031-0.803,1.751-2.159,1.751c-0.636,0-1.223-0.168-1.631-0.408L88.064,212.796z"/>
		<path d="M92.96,209.954c0-0.744-0.024-1.343-0.048-1.895h0.936l0.06,0.995h0.024c0.419-0.708,1.115-1.115,2.062-1.115
			c1.416,0,2.471,1.188,2.471,2.938c0,2.087-1.283,3.118-2.65,3.118c-0.768,0-1.439-0.336-1.787-0.912h-0.024v3.154H92.96V209.954z
			 M94.003,211.5c0,0.156,0.012,0.3,0.048,0.432c0.192,0.732,0.828,1.235,1.583,1.235c1.115,0,1.763-0.911,1.763-2.243
			c0-1.151-0.611-2.146-1.727-2.146c-0.72,0-1.403,0.503-1.595,1.295c-0.036,0.132-0.072,0.288-0.072,0.42V211.5z"/>
		<path d="M105.041,210.913c0,2.146-1.499,3.082-2.89,3.082c-1.559,0-2.783-1.151-2.783-2.986c0-1.931,1.284-3.07,2.878-3.07
			C103.914,207.938,105.041,209.15,105.041,210.913z M100.447,210.973c0,1.271,0.72,2.231,1.751,2.231
			c1.007,0,1.763-0.947,1.763-2.255c0-0.983-0.492-2.219-1.739-2.219C100.987,208.73,100.447,209.881,100.447,210.973z"/>
		<path d="M106.375,209.629c0-0.611-0.012-1.091-0.048-1.571h0.936l0.06,0.959h0.024c0.288-0.54,0.959-1.08,1.919-1.08
			c0.803,0,2.051,0.48,2.051,2.471v3.454h-1.056v-3.346c0-0.936-0.348-1.715-1.343-1.715c-0.684,0-1.223,0.492-1.415,1.079
			c-0.048,0.132-0.072,0.312-0.072,0.492v3.49h-1.056V209.629z"/>
		<path d="M112.892,212.796c0.324,0.192,0.875,0.408,1.403,0.408c0.756,0,1.115-0.372,1.115-0.863c0-0.504-0.3-0.768-1.067-1.056
			c-1.055-0.384-1.547-0.947-1.547-1.643c0-0.936,0.768-1.703,2.003-1.703c0.587,0,1.104,0.156,1.415,0.36l-0.252,0.768
			c-0.228-0.144-0.647-0.348-1.187-0.348c-0.624,0-0.959,0.36-0.959,0.792c0,0.479,0.335,0.695,1.091,0.995
			c0.996,0.372,1.523,0.876,1.523,1.739c0,1.031-0.803,1.751-2.159,1.751c-0.636,0-1.223-0.168-1.631-0.408L112.892,212.796z"/>
		<path d="M121.865,212.472c0,0.503,0.024,0.995,0.084,1.391h-0.947l-0.084-0.731h-0.036c-0.324,0.456-0.947,0.863-1.775,0.863
			c-1.175,0-1.775-0.828-1.775-1.667c0-1.403,1.247-2.171,3.49-2.159v-0.12c0-0.468-0.132-1.343-1.319-1.331
			c-0.552,0-1.116,0.156-1.523,0.432l-0.24-0.708c0.479-0.3,1.187-0.504,1.919-0.504c1.775,0,2.207,1.211,2.207,2.363V212.472z
			 M120.846,210.901c-1.151-0.024-2.458,0.18-2.458,1.307c0,0.696,0.456,1.008,0.983,1.008c0.768,0,1.259-0.48,1.427-0.972
			c0.036-0.12,0.048-0.24,0.048-0.336V210.901z"/>
		<path d="M123.572,205.348h1.043v3.646h0.024c0.372-0.648,1.043-1.056,1.979-1.056c1.451,0,2.458,1.199,2.458,2.95
			c0,2.075-1.319,3.106-2.614,3.106c-0.84,0-1.511-0.324-1.955-1.079h-0.024l-0.06,0.947h-0.899
			c0.024-0.396,0.048-0.983,0.048-1.499V205.348z M124.615,211.537c0,0.132,0.012,0.264,0.048,0.384
			c0.192,0.731,0.815,1.235,1.583,1.235c1.116,0,1.763-0.899,1.763-2.231c0-1.163-0.6-2.159-1.739-2.159
			c-0.708,0-1.379,0.504-1.595,1.295c-0.036,0.132-0.06,0.276-0.06,0.443V211.537z"/>
		<path d="M130.399,205.348h1.056v8.515h-1.056V205.348z"/>
		<path d="M133.819,211.153c0.024,1.427,0.923,2.015,1.991,2.015c0.755,0,1.223-0.132,1.607-0.3l0.192,0.756
			c-0.372,0.168-1.019,0.372-1.943,0.372c-1.787,0-2.854-1.188-2.854-2.938s1.032-3.118,2.723-3.118
			c1.907,0,2.399,1.655,2.399,2.723c0,0.216-0.012,0.372-0.036,0.492H133.819z M136.914,210.397c0.012-0.66-0.276-1.703-1.463-1.703
			c-1.079,0-1.535,0.971-1.619,1.703H136.914z"/>
		<path d="M89.312,226.992c0.468,0.3,1.139,0.528,1.859,0.528c1.067,0,1.691-0.563,1.691-1.379c0-0.743-0.432-1.187-1.523-1.595
			c-1.319-0.48-2.135-1.175-2.135-2.303c0-1.259,1.043-2.195,2.615-2.195c0.815,0,1.427,0.192,1.775,0.396l-0.288,0.852
			c-0.252-0.156-0.792-0.384-1.523-0.384c-1.103,0-1.523,0.66-1.523,1.211c0,0.755,0.492,1.127,1.607,1.559
			c1.368,0.528,2.051,1.188,2.051,2.375c0,1.247-0.912,2.338-2.819,2.338c-0.779,0-1.631-0.24-2.062-0.528L89.312,226.992z"/>
		<path d="M95.984,225.553c0.024,1.427,0.923,2.015,1.991,2.015c0.755,0,1.223-0.132,1.607-0.3l0.192,0.756
			c-0.372,0.168-1.019,0.372-1.943,0.372c-1.787,0-2.854-1.187-2.854-2.938c0-1.751,1.032-3.118,2.723-3.118
			c1.907,0,2.399,1.655,2.399,2.723c0,0.216-0.012,0.372-0.036,0.492H95.984z M99.078,224.797c0.012-0.659-0.276-1.703-1.463-1.703
			c-1.08,0-1.535,0.971-1.619,1.703H99.078z"/>
		<path d="M101.408,224.27c0-0.684-0.012-1.271-0.048-1.811h0.923l0.048,1.151h0.036c0.264-0.78,0.912-1.271,1.619-1.271
			c0.108,0,0.192,0.012,0.288,0.024v0.996c-0.108-0.024-0.216-0.024-0.36-0.024c-0.744,0-1.271,0.552-1.416,1.343
			c-0.024,0.144-0.036,0.324-0.036,0.492v3.094h-1.056V224.27z"/>
		<path d="M106.04,222.458l1.14,3.25c0.192,0.54,0.348,1.02,0.468,1.5h0.036c0.132-0.48,0.3-0.96,0.492-1.5l1.127-3.25h1.104
			l-2.279,5.805h-1.007l-2.207-5.805H106.04z"/>
		<path d="M112.579,220.827c0,0.36-0.252,0.648-0.671,0.648c-0.384,0-0.636-0.288-0.636-0.648s0.264-0.66,0.66-0.66
			C112.315,220.167,112.579,220.456,112.579,220.827z M111.404,228.263v-5.805h1.056v5.805H111.404z"/>
		<path d="M118.35,228.059c-0.276,0.132-0.888,0.336-1.667,0.336c-1.751,0-2.891-1.187-2.891-2.962c0-1.787,1.224-3.094,3.119-3.094
			c0.624,0,1.175,0.156,1.463,0.312l-0.24,0.803c-0.252-0.132-0.647-0.276-1.223-0.276c-1.332,0-2.051,0.996-2.051,2.195
			c0,1.343,0.864,2.171,2.015,2.171c0.6,0,0.996-0.144,1.295-0.276L118.35,228.059z"/>
		<path d="M120.104,225.553c0.024,1.427,0.923,2.015,1.991,2.015c0.755,0,1.223-0.132,1.607-0.3l0.192,0.756
			c-0.372,0.168-1.019,0.372-1.943,0.372c-1.787,0-2.854-1.187-2.854-2.938c0-1.751,1.032-3.118,2.723-3.118
			c1.907,0,2.399,1.655,2.399,2.723c0,0.216-0.012,0.372-0.036,0.492H120.104z M123.198,224.797
			c0.012-0.659-0.276-1.703-1.463-1.703c-1.079,0-1.535,0.971-1.619,1.703H123.198z"/>
	</g>
	<rect x="54.354" y="147.713" fill="none" stroke="#000000" width="104.488" height="32.309"/>
	<g>
		<rect x="65.062" y="149.957" fill="none" width="83.076" height="27.82"/>
		<path d="M75.736,150.502c0.527-0.096,1.295-0.168,2.003-0.168c1.115,0,1.847,0.216,2.338,0.66c0.396,0.36,0.636,0.912,0.636,1.547
			c0,1.055-0.671,1.763-1.511,2.051v0.036c0.612,0.216,0.983,0.792,1.175,1.631c0.264,1.127,0.456,1.907,0.624,2.219h-1.08
			c-0.132-0.24-0.312-0.923-0.528-1.931c-0.24-1.115-0.684-1.535-1.631-1.571h-0.983v3.502h-1.043V150.502z M76.779,154.184h1.067
			c1.115,0,1.823-0.612,1.823-1.535c0-1.043-0.755-1.5-1.859-1.5c-0.504,0-0.852,0.036-1.031,0.084V154.184z"/>
		<path d="M82.792,155.767c0.024,1.427,0.923,2.015,1.991,2.015c0.755,0,1.223-0.132,1.607-0.3l0.192,0.756
			c-0.372,0.168-1.019,0.372-1.943,0.372c-1.787,0-2.854-1.188-2.854-2.938s1.032-3.118,2.723-3.118
			c1.907,0,2.399,1.655,2.399,2.723c0,0.216-0.012,0.372-0.036,0.492H82.792z M85.886,155.011c0.012-0.66-0.276-1.703-1.463-1.703
			c-1.079,0-1.535,0.971-1.619,1.703H85.886z"/>
		<path d="M88.071,157.41c0.324,0.192,0.875,0.408,1.403,0.408c0.756,0,1.115-0.372,1.115-0.863c0-0.504-0.3-0.768-1.067-1.056
			c-1.055-0.384-1.547-0.947-1.547-1.643c0-0.936,0.768-1.703,2.003-1.703c0.587,0,1.103,0.156,1.415,0.36l-0.252,0.768
			c-0.228-0.144-0.647-0.348-1.187-0.348c-0.624,0-0.959,0.36-0.959,0.792c0,0.479,0.335,0.695,1.091,0.995
			c0.995,0.372,1.523,0.876,1.523,1.739c0,1.031-0.803,1.751-2.159,1.751c-0.636,0-1.223-0.168-1.631-0.408L88.071,157.41z"/>
		<path d="M92.967,154.568c0-0.744-0.024-1.343-0.048-1.895h0.936l0.06,0.995h0.024c0.419-0.708,1.115-1.115,2.062-1.115
			c1.416,0,2.471,1.188,2.471,2.938c0,2.087-1.283,3.118-2.65,3.118c-0.768,0-1.439-0.336-1.787-0.912h-0.024v3.154h-1.043V154.568z
			 M94.011,156.115c0,0.156,0.012,0.3,0.048,0.432c0.192,0.732,0.828,1.235,1.583,1.235c1.115,0,1.763-0.911,1.763-2.243
			c0-1.151-0.611-2.146-1.727-2.146c-0.72,0-1.403,0.503-1.595,1.295c-0.036,0.132-0.072,0.288-0.072,0.42V156.115z"/>
		<path d="M105.048,155.527c0,2.146-1.499,3.082-2.89,3.082c-1.559,0-2.783-1.151-2.783-2.986c0-1.931,1.284-3.07,2.878-3.07
			C103.921,152.553,105.048,153.764,105.048,155.527z M100.455,155.587c0,1.271,0.72,2.231,1.751,2.231
			c1.007,0,1.763-0.947,1.763-2.255c0-0.983-0.492-2.219-1.739-2.219C100.994,153.344,100.455,154.496,100.455,155.587z"/>
		<path d="M106.383,154.244c0-0.611-0.012-1.091-0.048-1.571h0.936l0.06,0.959h0.024c0.288-0.54,0.959-1.08,1.919-1.08
			c0.803,0,2.051,0.48,2.051,2.471v3.454h-1.056v-3.346c0-0.936-0.348-1.715-1.343-1.715c-0.684,0-1.223,0.492-1.415,1.079
			c-0.048,0.132-0.072,0.312-0.072,0.492v3.49h-1.056V154.244z"/>
		<path d="M112.899,157.41c0.324,0.192,0.875,0.408,1.403,0.408c0.756,0,1.115-0.372,1.115-0.863c0-0.504-0.3-0.768-1.067-1.056
			c-1.055-0.384-1.547-0.947-1.547-1.643c0-0.936,0.768-1.703,2.003-1.703c0.587,0,1.104,0.156,1.415,0.36l-0.252,0.768
			c-0.228-0.144-0.647-0.348-1.187-0.348c-0.624,0-0.959,0.36-0.959,0.792c0,0.479,0.335,0.695,1.091,0.995
			c0.996,0.372,1.523,0.876,1.523,1.739c0,1.031-0.803,1.751-2.159,1.751c-0.636,0-1.223-0.168-1.631-0.408L112.899,157.41z"/>
		<path d="M121.873,157.086c0,0.503,0.024,0.995,0.084,1.391h-0.947l-0.084-0.731h-0.036c-0.324,0.456-0.947,0.863-1.775,0.863
			c-1.175,0-1.775-0.828-1.775-1.667c0-1.403,1.247-2.171,3.49-2.159v-0.12c0-0.468-0.132-1.343-1.319-1.331
			c-0.552,0-1.116,0.156-1.523,0.432l-0.24-0.708c0.479-0.3,1.187-0.504,1.919-0.504c1.775,0,2.207,1.211,2.207,2.363V157.086z
			 M120.853,155.515c-1.151-0.024-2.458,0.18-2.458,1.307c0,0.696,0.456,1.008,0.983,1.008c0.768,0,1.259-0.48,1.427-0.972
			c0.036-0.12,0.048-0.24,0.048-0.336V155.515z"/>
		<path d="M123.579,149.962h1.043v3.646h0.024c0.372-0.648,1.043-1.056,1.979-1.056c1.451,0,2.458,1.199,2.458,2.95
			c0,2.075-1.319,3.106-2.614,3.106c-0.84,0-1.511-0.324-1.955-1.079h-0.024l-0.06,0.947h-0.899
			c0.024-0.396,0.048-0.983,0.048-1.499V149.962z M124.623,156.151c0,0.132,0.012,0.264,0.048,0.384
			c0.192,0.731,0.815,1.235,1.583,1.235c1.116,0,1.763-0.899,1.763-2.231c0-1.163-0.6-2.159-1.739-2.159
			c-0.708,0-1.379,0.504-1.595,1.295c-0.036,0.132-0.06,0.276-0.06,0.443V156.151z"/>
		<path d="M130.407,149.962h1.056v8.515h-1.056V149.962z"/>
		<path d="M133.827,155.767c0.024,1.427,0.923,2.015,1.991,2.015c0.755,0,1.223-0.132,1.607-0.3l0.192,0.756
			c-0.372,0.168-1.019,0.372-1.943,0.372c-1.787,0-2.854-1.188-2.854-2.938s1.032-3.118,2.723-3.118
			c1.907,0,2.399,1.655,2.399,2.723c0,0.216-0.012,0.372-0.036,0.492H133.827z M136.921,155.011c0.012-0.66-0.276-1.703-1.463-1.703
			c-1.079,0-1.535,0.971-1.619,1.703H136.921z"/>
		<path d="M83.349,165.682v1.391h1.511v0.803h-1.511v3.13c0,0.72,0.204,1.127,0.792,1.127c0.288,0,0.456-0.024,0.612-0.072
			l0.048,0.803c-0.204,0.072-0.528,0.144-0.936,0.144c-0.492,0-0.888-0.168-1.14-0.444c-0.288-0.324-0.408-0.839-0.408-1.523v-3.167
			h-0.899v-0.803h0.899v-1.08L83.349,165.682z"/>
		<path d="M86.566,170.167c0.024,1.427,0.923,2.015,1.991,2.015c0.755,0,1.223-0.132,1.607-0.3l0.192,0.756
			c-0.372,0.168-1.019,0.372-1.943,0.372c-1.787,0-2.854-1.187-2.854-2.938c0-1.751,1.032-3.118,2.723-3.118
			c1.907,0,2.399,1.655,2.399,2.723c0,0.216-0.012,0.372-0.036,0.492H86.566z M89.66,169.411c0.012-0.659-0.276-1.703-1.463-1.703
			c-1.079,0-1.535,0.971-1.619,1.703H89.66z"/>
		<path d="M96.127,172.673c-0.276,0.132-0.888,0.336-1.667,0.336c-1.751,0-2.891-1.187-2.891-2.962c0-1.787,1.224-3.094,3.119-3.094
			c0.624,0,1.175,0.156,1.463,0.312l-0.24,0.803c-0.252-0.132-0.647-0.276-1.223-0.276c-1.332,0-2.051,0.996-2.051,2.195
			c0,1.343,0.864,2.171,2.015,2.171c0.6,0,0.996-0.144,1.295-0.276L96.127,172.673z"/>
		<path d="M97.366,164.362h1.056v3.634h0.024c0.168-0.3,0.432-0.576,0.755-0.755c0.312-0.18,0.684-0.288,1.08-0.288
			c0.779,0,2.027,0.48,2.027,2.471v3.454h-1.056v-3.334c0-0.936-0.348-1.715-1.343-1.715c-0.684,0-1.211,0.48-1.415,1.043
			c-0.06,0.156-0.072,0.312-0.072,0.504v3.502h-1.056V164.362z"/>
		<path d="M104.026,168.644c0-0.611-0.012-1.091-0.048-1.571h0.936l0.06,0.959h0.024c0.288-0.54,0.959-1.08,1.919-1.08
			c0.803,0,2.051,0.48,2.051,2.471v3.454h-1.056v-3.346c0-0.936-0.348-1.715-1.343-1.715c-0.684,0-1.223,0.492-1.415,1.079
			c-0.048,0.132-0.072,0.312-0.072,0.492v3.49h-1.056V168.644z"/>
		<path d="M111.861,165.441c0,0.36-0.252,0.648-0.671,0.648c-0.384,0-0.636-0.288-0.636-0.648s0.264-0.66,0.66-0.66
			C111.598,164.782,111.861,165.07,111.861,165.441z M110.686,172.877v-5.805h1.056v5.805H110.686z"/>
		<path d="M117.452,171.99h-0.024c-0.324,0.564-0.959,1.02-1.895,1.02c-1.355,0-2.459-1.163-2.459-2.926
			c0-2.183,1.403-3.13,2.627-3.13c0.899,0,1.499,0.444,1.787,0.996h0.024l0.036-0.875h0.996c-0.024,0.479-0.048,0.995-0.048,1.595
			v6.584h-1.043V171.99z M117.452,169.423c0-0.144-0.012-0.3-0.048-0.432c-0.167-0.648-0.719-1.2-1.511-1.2
			c-1.092,0-1.751,0.924-1.751,2.219c0,1.163,0.552,2.159,1.715,2.159c0.684,0,1.271-0.42,1.511-1.14
			c0.048-0.156,0.084-0.359,0.084-0.516V169.423z"/>
		<path d="M125.107,171.282c0,0.612,0.012,1.14,0.048,1.595h-0.936l-0.06-0.947h-0.024c-0.264,0.467-0.887,1.079-1.919,1.079
			c-0.911,0-2.003-0.516-2.003-2.542v-3.394h1.056v3.202c0,1.104,0.348,1.859,1.295,1.859c0.708,0,1.199-0.492,1.391-0.971
			c0.06-0.144,0.096-0.336,0.096-0.54v-3.55h1.056V171.282z"/>
		<path d="M127.45,170.167c0.024,1.427,0.923,2.015,1.991,2.015c0.755,0,1.223-0.132,1.607-0.3l0.192,0.756
			c-0.372,0.168-1.019,0.372-1.943,0.372c-1.787,0-2.854-1.187-2.854-2.938c0-1.751,1.032-3.118,2.723-3.118
			c1.907,0,2.399,1.655,2.399,2.723c0,0.216-0.012,0.372-0.036,0.492H127.45z M130.544,169.411c0.012-0.659-0.276-1.703-1.463-1.703
			c-1.079,0-1.535,0.971-1.619,1.703H130.544z"/>
	</g>
	<g>
		<rect x="228.373" y="45.917" fill="none" width="83.076" height="14.357"/>
		<path d="M246.742,54.185c-0.372,0.192-1.151,0.384-2.135,0.384c-2.279,0-3.982-1.439-3.982-4.102c0-2.542,1.715-4.246,4.222-4.246
			c0.996,0,1.643,0.216,1.919,0.36l-0.264,0.852c-0.384-0.192-0.948-0.336-1.619-0.336c-1.895,0-3.154,1.211-3.154,3.334
			c0,1.991,1.139,3.25,3.094,3.25c0.647,0,1.295-0.132,1.715-0.336L246.742,54.185z"/>
		<path d="M253.15,51.487c0,2.146-1.499,3.082-2.89,3.082c-1.559,0-2.783-1.151-2.783-2.986c0-1.931,1.284-3.07,2.878-3.07
			C252.023,48.512,253.15,49.724,253.15,51.487z M248.557,51.546c0,1.271,0.72,2.231,1.751,2.231c1.007,0,1.763-0.947,1.763-2.255
			c0-0.983-0.492-2.219-1.739-2.219C249.096,49.304,248.557,50.455,248.557,51.546z"/>
		<path d="M254.485,50.203c0-0.611-0.012-1.091-0.048-1.571h0.936l0.06,0.959h0.024c0.288-0.54,0.959-1.08,1.919-1.08
			c0.803,0,2.051,0.48,2.051,2.471v3.454h-1.056v-3.346c0-0.936-0.348-1.715-1.343-1.715c-0.684,0-1.223,0.492-1.415,1.079
			c-0.048,0.132-0.072,0.312-0.072,0.492v3.49h-1.056V50.203z"/>
		<path d="M266.146,45.922v7.016c0,0.516,0.024,1.103,0.048,1.499h-0.936l-0.048-1.007h-0.036c-0.312,0.647-1.007,1.139-1.955,1.139
			c-1.403,0-2.495-1.188-2.495-2.95c-0.012-1.931,1.2-3.106,2.603-3.106c0.9,0,1.487,0.42,1.751,0.875h0.024v-3.466H266.146z
			 M265.103,50.995c0-0.132-0.012-0.312-0.048-0.444c-0.156-0.66-0.731-1.211-1.523-1.211c-1.091,0-1.739,0.959-1.739,2.231
			c0,1.175,0.588,2.146,1.715,2.146c0.708,0,1.355-0.479,1.547-1.259c0.036-0.144,0.048-0.288,0.048-0.456V50.995z"/>
		<path d="M272.77,52.842c0,0.612,0.012,1.14,0.048,1.595h-0.936l-0.06-0.947h-0.024c-0.264,0.468-0.887,1.079-1.919,1.079
			c-0.911,0-2.003-0.516-2.003-2.542v-3.394h1.056v3.202c0,1.104,0.348,1.859,1.295,1.859c0.708,0,1.199-0.492,1.391-0.971
			c0.06-0.144,0.096-0.336,0.096-0.54v-3.55h1.056V52.842z"/>
		<path d="M278.662,54.233c-0.276,0.132-0.887,0.336-1.667,0.336c-1.751,0-2.891-1.188-2.891-2.962c0-1.787,1.224-3.094,3.119-3.094
			c0.624,0,1.175,0.156,1.463,0.312l-0.24,0.803c-0.252-0.132-0.647-0.275-1.223-0.275c-1.332,0-2.051,0.995-2.051,2.194
			c0,1.343,0.864,2.171,2.015,2.171c0.6,0,0.996-0.144,1.295-0.276L278.662,54.233z"/>
		<path d="M281.328,47.241v1.392h1.511v0.803h-1.511v3.13c0,0.72,0.204,1.127,0.792,1.127c0.288,0,0.456-0.024,0.612-0.072
			l0.048,0.803c-0.204,0.072-0.528,0.144-0.936,0.144c-0.492,0-0.888-0.168-1.14-0.444c-0.288-0.324-0.408-0.839-0.408-1.523v-3.167
			h-0.899v-0.803h0.899v-1.08L281.328,47.241z"/>
		<path d="M284.544,51.727c0.024,1.427,0.923,2.015,1.991,2.015c0.755,0,1.223-0.132,1.607-0.3l0.192,0.756
			c-0.372,0.168-1.019,0.372-1.943,0.372c-1.787,0-2.854-1.188-2.854-2.938s1.032-3.118,2.723-3.118
			c1.907,0,2.399,1.655,2.399,2.723c0,0.216-0.012,0.372-0.036,0.492H284.544z M287.638,50.971c0.012-0.66-0.276-1.703-1.463-1.703
			c-1.08,0-1.535,0.971-1.619,1.703H287.638z"/>
		<path d="M294.825,52.842c0,0.612,0.012,1.14,0.048,1.595h-0.936l-0.06-0.947h-0.024c-0.264,0.468-0.887,1.079-1.919,1.079
			c-0.911,0-2.003-0.516-2.003-2.542v-3.394h1.056v3.202c0,1.104,0.348,1.859,1.295,1.859c0.708,0,1.199-0.492,1.391-0.971
			c0.06-0.144,0.096-0.336,0.096-0.54v-3.55h1.056V52.842z"/>
		<path d="M296.58,50.443c0-0.684-0.012-1.271-0.048-1.811h0.923l0.048,1.151h0.036c0.264-0.78,0.912-1.271,1.619-1.271
			c0.108,0,0.192,0.012,0.288,0.024v0.996c-0.108-0.024-0.216-0.024-0.359-0.024c-0.744,0-1.271,0.552-1.416,1.343
			c-0.024,0.144-0.036,0.324-0.036,0.492v3.094h-1.056V50.443z"/>
	</g>
	<rect x="211.334" y="36.942" fill="none" stroke="#000000" width="104.487" height="32.307"/>
	<rect x="366.759" y="36.942" fill="none" stroke="#000000" width="104.486" height="32.308"/>
	<g>
		<rect x="377.464" y="45.917" fill="none" width="83.076" height="14.358"/>
		<path d="M398.664,54.185c-0.371,0.192-1.15,0.384-2.135,0.384c-2.278,0-3.981-1.439-3.981-4.102c0-2.542,1.716-4.246,4.222-4.246
			c0.996,0,1.643,0.216,1.919,0.36l-0.264,0.852c-0.384-0.192-0.948-0.336-1.619-0.336c-1.896,0-3.154,1.211-3.154,3.334
			c0,1.991,1.14,3.25,3.095,3.25c0.647,0,1.295-0.132,1.715-0.336L398.664,54.185z"/>
		<path d="M405.072,51.487c0,2.146-1.498,3.082-2.89,3.082c-1.56,0-2.782-1.151-2.782-2.986c0-1.931,1.283-3.07,2.878-3.07
			C403.945,48.512,405.072,49.724,405.072,51.487z M400.479,51.546c0,1.271,0.72,2.231,1.751,2.231c1.008,0,1.764-0.947,1.764-2.255
			c0-0.983-0.492-2.219-1.74-2.219C401.02,49.304,400.479,50.455,400.479,51.546z"/>
		<path d="M406.408,50.203c0-0.611-0.013-1.091-0.049-1.571h0.936l0.061,0.959h0.023c0.288-0.54,0.96-1.08,1.92-1.08
			c0.803,0,2.051,0.48,2.051,2.471v3.454h-1.057v-3.346c0-0.936-0.348-1.715-1.343-1.715c-0.684,0-1.224,0.492-1.415,1.079
			c-0.048,0.132-0.072,0.312-0.072,0.492v3.49h-1.055V50.203z"/>
		<path d="M414.291,47.241v1.392h1.512v0.803h-1.512v3.13c0,0.72,0.204,1.127,0.792,1.127c0.288,0,0.456-0.024,0.611-0.072
			l0.048,0.803c-0.203,0.072-0.527,0.144-0.936,0.144c-0.491,0-0.887-0.168-1.139-0.444c-0.288-0.324-0.408-0.839-0.408-1.523
			v-3.167h-0.899v-0.803h0.899v-1.08L414.291,47.241z"/>
		<path d="M416.992,50.443c0-0.684-0.013-1.271-0.049-1.811h0.924l0.048,1.151h0.036c0.264-0.78,0.912-1.271,1.619-1.271
			c0.107,0,0.191,0.012,0.288,0.024v0.996c-0.108-0.024-0.216-0.024-0.36-0.024c-0.743,0-1.271,0.552-1.415,1.343
			c-0.024,0.144-0.036,0.324-0.036,0.492v3.094h-1.055V50.443z"/>
		<path d="M426.049,51.487c0,2.146-1.5,3.082-2.891,3.082c-1.559,0-2.783-1.151-2.783-2.986c0-1.931,1.284-3.07,2.879-3.07
			C424.922,48.512,426.049,49.724,426.049,51.487z M421.455,51.546c0,1.271,0.72,2.231,1.751,2.231c1.007,0,1.763-0.947,1.763-2.255
			c0-0.983-0.491-2.219-1.738-2.219C421.994,49.304,421.455,50.455,421.455,51.546z M423.566,46.125l1.15,1.715h-0.803l-0.708-1.127
			h-0.024l-0.684,1.127h-0.791l1.127-1.715H423.566z"/>
		<path d="M427.383,45.922h1.057v8.515h-1.057V45.922z"/>
		<path d="M430.803,51.727c0.024,1.427,0.924,2.015,1.991,2.015c0.755,0,1.224-0.132,1.606-0.3l0.192,0.756
			c-0.372,0.168-1.019,0.372-1.942,0.372c-1.787,0-2.855-1.188-2.855-2.938s1.032-3.118,2.723-3.118
			c1.907,0,2.399,1.655,2.399,2.723c0,0.216-0.013,0.372-0.036,0.492H430.803z M433.897,50.971c0.012-0.66-0.276-1.703-1.464-1.703
			c-1.079,0-1.535,0.971-1.619,1.703H433.897z"/>
		<path d="M441.084,52.842c0,0.612,0.012,1.14,0.049,1.595h-0.936l-0.061-0.947h-0.023c-0.264,0.468-0.888,1.079-1.92,1.079
			c-0.91,0-2.002-0.516-2.002-2.542v-3.394h1.055v3.202c0,1.104,0.348,1.859,1.296,1.859c0.708,0,1.199-0.492,1.392-0.971
			c0.06-0.144,0.096-0.336,0.096-0.54v-3.55h1.055V52.842z"/>
		<path d="M442.839,50.443c0-0.684-0.012-1.271-0.048-1.811h0.924l0.047,1.151h0.037c0.264-0.78,0.911-1.271,1.619-1.271
			c0.107,0,0.191,0.012,0.287,0.024v0.996c-0.107-0.024-0.216-0.024-0.359-0.024c-0.744,0-1.271,0.552-1.416,1.343
			c-0.023,0.144-0.035,0.324-0.035,0.492v3.094h-1.056V50.443z"/>
	</g>
	<g>
		<line fill="none" stroke="#000000" stroke-dasharray="2" x1="342.678" y1="300.76" x2="342.678" y2="323.838"/>
		<polyline fill="none" stroke="#000000" points="349.844,309.256 342.677,301.76 335.51,309.256 		"/>
	</g>
	<rect x="290.433" y="268.453" fill="none" stroke="#000000" width="104.488" height="32.307"/>
	<g>
		<rect x="301.138" y="270.695" fill="none" width="83.076" height="27.822"/>
		<path d="M318.381,272.02h-2.459v-0.888h5.985v0.888h-2.471v7.195h-1.055V272.02z"/>
		<path d="M322.51,276.505c0.024,1.427,0.923,2.015,1.991,2.015c0.755,0,1.223-0.132,1.607-0.3l0.192,0.756
			c-0.372,0.168-1.019,0.372-1.943,0.372c-1.787,0-2.854-1.188-2.854-2.939c0-1.75,1.032-3.117,2.723-3.117
			c1.907,0,2.399,1.654,2.399,2.723c0,0.215-0.012,0.371-0.036,0.491H322.51z M325.604,275.749c0.012-0.659-0.276-1.702-1.463-1.702
			c-1.079,0-1.535,0.971-1.619,1.702H325.604z"/>
		<path d="M332.071,279.012c-0.276,0.132-0.888,0.336-1.667,0.336c-1.751,0-2.891-1.188-2.891-2.963
			c0-1.787,1.224-3.094,3.119-3.094c0.624,0,1.175,0.155,1.463,0.312l-0.24,0.804c-0.252-0.133-0.647-0.275-1.223-0.275
			c-1.332,0-2.051,0.994-2.051,2.193c0,1.344,0.864,2.172,2.015,2.172c0.6,0,0.996-0.145,1.295-0.276L332.071,279.012z"/>
		<path d="M333.31,270.7h1.056v3.634h0.024c0.168-0.3,0.432-0.576,0.755-0.756c0.312-0.18,0.684-0.287,1.08-0.287
			c0.779,0,2.027,0.479,2.027,2.471v3.453h-1.056v-3.334c0-0.936-0.348-1.715-1.343-1.715c-0.684,0-1.211,0.48-1.415,1.043
			c-0.06,0.156-0.072,0.312-0.072,0.504v3.502h-1.056V270.7z"/>
		<path d="M339.97,274.981c0-0.611-0.012-1.091-0.048-1.571h0.936l0.06,0.96h0.024c0.288-0.54,0.959-1.079,1.919-1.079
			c0.803,0,2.051,0.479,2.051,2.471v3.453h-1.056v-3.346c0-0.936-0.348-1.715-1.343-1.715c-0.684,0-1.223,0.492-1.415,1.079
			c-0.048,0.132-0.072,0.312-0.072,0.491v3.49h-1.056V274.981z"/>
		<path d="M347.805,271.779c0,0.359-0.252,0.648-0.671,0.648c-0.384,0-0.636-0.289-0.636-0.648s0.264-0.66,0.66-0.66
			C347.542,271.119,347.805,271.408,347.805,271.779z M346.63,279.215v-5.805h1.056v5.805H346.63z"/>
		<path d="M353.576,279.012c-0.276,0.132-0.887,0.336-1.667,0.336c-1.751,0-2.891-1.188-2.891-2.963
			c0-1.787,1.224-3.094,3.119-3.094c0.624,0,1.175,0.155,1.463,0.312l-0.24,0.804c-0.252-0.133-0.647-0.275-1.223-0.275
			c-1.332,0-2.051,0.994-2.051,2.193c0,1.344,0.864,2.172,2.015,2.172c0.6,0,0.996-0.145,1.295-0.276L353.576,279.012z"/>
		<path d="M355.989,271.779c0,0.359-0.252,0.648-0.671,0.648c-0.384,0-0.636-0.289-0.636-0.648s0.264-0.66,0.66-0.66
			C355.726,271.119,355.989,271.408,355.989,271.779z M354.814,279.215v-5.805h1.056v5.805H354.814z"/>
		<path d="M358.21,276.505c0.024,1.427,0.923,2.015,1.991,2.015c0.755,0,1.223-0.132,1.607-0.3l0.192,0.756
			c-0.372,0.168-1.019,0.372-1.943,0.372c-1.787,0-2.854-1.188-2.854-2.939c0-1.75,1.032-3.117,2.723-3.117
			c1.907,0,2.399,1.654,2.399,2.723c0,0.215-0.012,0.371-0.036,0.491H358.21z M361.304,275.749c0.012-0.659-0.276-1.702-1.463-1.702
			c-1.079,0-1.535,0.971-1.619,1.702H361.304z"/>
		<path d="M363.634,274.981c0-0.611-0.012-1.091-0.048-1.571h0.936l0.06,0.96h0.024c0.288-0.54,0.959-1.079,1.919-1.079
			c0.803,0,2.051,0.479,2.051,2.471v3.453h-1.056v-3.346c0-0.936-0.348-1.715-1.343-1.715c-0.684,0-1.223,0.492-1.415,1.079
			c-0.048,0.132-0.072,0.312-0.072,0.491v3.49h-1.056V274.981z"/>
		<path d="M312.087,286.18c0,0.359-0.252,0.647-0.671,0.647c-0.384,0-0.636-0.288-0.636-0.647c0-0.36,0.264-0.66,0.66-0.66
			C311.823,285.52,312.087,285.808,312.087,286.18z M310.912,293.615v-5.805h1.056v5.805H310.912z"/>
		<path d="M313.72,289.381c0-0.611-0.012-1.091-0.048-1.57h0.936l0.06,0.959h0.024c0.288-0.539,0.959-1.079,1.919-1.079
			c0.803,0,2.051,0.479,2.051,2.471v3.454h-1.056v-3.346c0-0.936-0.348-1.715-1.343-1.715c-0.684,0-1.223,0.491-1.415,1.078
			c-0.048,0.133-0.072,0.312-0.072,0.492v3.49h-1.056V289.381z"/>
		<path d="M320.487,293.615v-5.002h-0.804v-0.803h0.804v-0.275c0-0.816,0.192-1.56,0.672-2.027c0.396-0.384,0.923-0.54,1.415-0.54
			c0.384,0,0.696,0.084,0.899,0.168l-0.144,0.815c-0.156-0.072-0.359-0.132-0.671-0.132c-0.899,0-1.127,0.78-1.127,1.679v0.312
			h1.403v0.803h-1.403v5.002H320.487z"/>
		<path d="M328.98,290.665c0,2.146-1.499,3.082-2.89,3.082c-1.559,0-2.783-1.151-2.783-2.986c0-1.931,1.284-3.07,2.878-3.07
			C327.854,287.69,328.98,288.902,328.98,290.665z M324.387,290.725c0,1.271,0.72,2.23,1.751,2.23c1.007,0,1.763-0.947,1.763-2.254
			c0-0.984-0.492-2.219-1.739-2.219C324.927,288.482,324.387,289.633,324.387,290.725z"/>
		<path d="M330.315,289.621c0-0.684-0.012-1.271-0.048-1.811h0.923l0.048,1.151h0.036c0.264-0.78,0.912-1.271,1.619-1.271
			c0.108,0,0.192,0.013,0.288,0.024v0.995c-0.108-0.024-0.216-0.024-0.359-0.024c-0.744,0-1.271,0.553-1.416,1.344
			c-0.024,0.145-0.036,0.324-0.036,0.492v3.094h-1.056V289.621z"/>
		<path d="M334.287,289.381c0-0.611-0.024-1.091-0.048-1.57h0.923l0.048,0.947h0.036c0.324-0.552,0.864-1.067,1.835-1.067
			c0.78,0,1.379,0.479,1.631,1.163h0.024c0.18-0.336,0.419-0.575,0.66-0.756c0.348-0.264,0.719-0.407,1.271-0.407
			c0.78,0,1.919,0.504,1.919,2.519v3.406h-1.031v-3.274c0-1.127-0.42-1.786-1.259-1.786c-0.612,0-1.067,0.443-1.259,0.947
			c-0.048,0.155-0.084,0.336-0.084,0.527v3.586h-1.032v-3.479c0-0.923-0.408-1.582-1.211-1.582c-0.648,0-1.14,0.527-1.308,1.055
			c-0.06,0.145-0.084,0.336-0.084,0.516v3.49h-1.031V289.381z"/>
		<path d="M348.373,292.225c0,0.503,0.024,0.994,0.084,1.391h-0.947l-0.084-0.731h-0.036c-0.324,0.456-0.947,0.863-1.775,0.863
			c-1.175,0-1.775-0.827-1.775-1.667c0-1.403,1.247-2.171,3.49-2.158v-0.121c0-0.467-0.132-1.343-1.319-1.33
			c-0.551,0-1.115,0.155-1.523,0.432l-0.24-0.708c0.479-0.3,1.188-0.504,1.919-0.504c1.775,0,2.207,1.212,2.207,2.362V292.225z
			 M347.354,290.652c-1.151-0.023-2.459,0.18-2.459,1.308c0,0.696,0.456,1.008,0.983,1.008c0.768,0,1.259-0.479,1.427-0.972
			c0.036-0.12,0.048-0.24,0.048-0.336V290.652z"/>
		<path d="M351.303,286.42v1.391h1.511v0.803h-1.511v3.131c0,0.72,0.204,1.127,0.792,1.127c0.288,0,0.456-0.023,0.612-0.071
			l0.048,0.804c-0.204,0.072-0.528,0.144-0.936,0.144c-0.492,0-0.888-0.168-1.14-0.444c-0.288-0.323-0.408-0.839-0.408-1.522v-3.167
			h-0.899v-0.803h0.899v-1.08L351.303,286.42z"/>
		<path d="M355.178,286.18c0,0.359-0.252,0.647-0.671,0.647c-0.384,0-0.636-0.288-0.636-0.647c0-0.36,0.264-0.66,0.66-0.66
			C354.915,285.52,355.178,285.808,355.178,286.18z M354.003,293.615v-5.805h1.056v5.805H354.003z"/>
		<path d="M360.769,292.728h-0.024c-0.324,0.563-0.959,1.02-1.895,1.02c-1.355,0-2.459-1.163-2.459-2.927
			c0-2.182,1.403-3.13,2.627-3.13c0.899,0,1.499,0.444,1.787,0.995h0.024l0.036-0.875h0.996c-0.024,0.479-0.048,0.995-0.048,1.596
			v6.584h-1.043V292.728z M360.769,290.161c0-0.144-0.012-0.3-0.048-0.432c-0.167-0.647-0.719-1.2-1.511-1.2
			c-1.092,0-1.751,0.924-1.751,2.22c0,1.163,0.552,2.159,1.715,2.159c0.684,0,1.271-0.42,1.511-1.141
			c0.048-0.155,0.084-0.359,0.084-0.516V290.161z"/>
		<path d="M368.424,292.02c0,0.612,0.012,1.141,0.048,1.596h-0.936l-0.06-0.947h-0.024c-0.264,0.467-0.887,1.079-1.919,1.079
			c-0.911,0-2.003-0.516-2.003-2.542v-3.395h1.056v3.202c0,1.104,0.348,1.858,1.295,1.858c0.708,0,1.199-0.491,1.391-0.971
			c0.06-0.145,0.096-0.336,0.096-0.54v-3.55h1.056V292.02z"/>
		<path d="M370.767,290.904c0.024,1.428,0.923,2.016,1.991,2.016c0.755,0,1.223-0.133,1.607-0.301l0.192,0.756
			c-0.372,0.168-1.019,0.372-1.943,0.372c-1.787,0-2.854-1.187-2.854-2.938c0-1.751,1.032-3.118,2.723-3.118
			c1.907,0,2.399,1.655,2.399,2.723c0,0.216-0.012,0.372-0.036,0.491H370.767z M373.861,290.148
			c0.012-0.658-0.276-1.702-1.463-1.702c-1.079,0-1.535,0.972-1.619,1.702H373.861z"/>
	</g>
	<rect x="290.432" y="324.081" fill="none" stroke="#000000" width="104.488" height="32.307"/>
	<g>
		<rect x="301.137" y="326.323" fill="none" width="83.076" height="27.822"/>
		<path d="M311.811,326.867c0.528-0.096,1.295-0.168,2.003-0.168c1.115,0,1.847,0.217,2.338,0.66
			c0.396,0.359,0.636,0.912,0.636,1.547c0,1.056-0.671,1.764-1.511,2.051v0.036c0.612,0.216,0.983,0.792,1.175,1.632
			c0.264,1.127,0.456,1.906,0.624,2.219h-1.08c-0.132-0.24-0.312-0.924-0.528-1.932c-0.24-1.115-0.684-1.535-1.631-1.57h-0.983
			v3.502h-1.043V326.867z M312.854,330.55h1.067c1.115,0,1.823-0.612,1.823-1.535c0-1.044-0.755-1.499-1.859-1.499
			c-0.504,0-0.852,0.035-1.031,0.084V330.55z"/>
		<path d="M318.867,332.133c0.024,1.428,0.923,2.015,1.991,2.015c0.755,0,1.223-0.132,1.607-0.3l0.192,0.756
			c-0.372,0.168-1.019,0.371-1.943,0.371c-1.787,0-2.854-1.188-2.854-2.938c0-1.752,1.032-3.119,2.723-3.119
			c1.907,0,2.399,1.656,2.399,2.723c0,0.217-0.012,0.372-0.036,0.492H318.867z M321.961,331.377c0.012-0.66-0.276-1.703-1.463-1.703
			c-1.08,0-1.535,0.972-1.619,1.703H321.961z"/>
		<path d="M324.146,333.775c0.324,0.192,0.875,0.408,1.403,0.408c0.756,0,1.115-0.371,1.115-0.863c0-0.504-0.3-0.768-1.067-1.056
			c-1.055-0.384-1.547-0.947-1.547-1.644c0-0.936,0.768-1.703,2.003-1.703c0.587,0,1.104,0.156,1.415,0.36l-0.252,0.768
			c-0.228-0.144-0.647-0.348-1.187-0.348c-0.624,0-0.959,0.36-0.959,0.792c0,0.479,0.335,0.695,1.091,0.994
			c0.996,0.373,1.523,0.877,1.523,1.74c0,1.031-0.803,1.75-2.159,1.75c-0.636,0-1.223-0.168-1.631-0.407L324.146,333.775z"/>
		<path d="M329.042,330.934c0-0.744-0.024-1.344-0.048-1.895h0.936l0.06,0.994h0.024c0.419-0.707,1.115-1.115,2.062-1.115
			c1.416,0,2.471,1.188,2.471,2.939c0,2.086-1.283,3.117-2.65,3.117c-0.768,0-1.439-0.336-1.787-0.911h-0.024v3.154h-1.043V330.934z
			 M330.086,332.48c0,0.156,0.012,0.3,0.048,0.432c0.192,0.732,0.828,1.235,1.583,1.235c1.116,0,1.763-0.911,1.763-2.243
			c0-1.15-0.612-2.146-1.727-2.146c-0.72,0-1.403,0.504-1.595,1.295c-0.036,0.133-0.072,0.289-0.072,0.42V332.48z"/>
		<path d="M341.123,331.893c0,2.146-1.499,3.082-2.89,3.082c-1.559,0-2.783-1.15-2.783-2.986c0-1.93,1.284-3.07,2.878-3.07
			C339.996,328.918,341.123,330.13,341.123,331.893z M336.53,331.953c0,1.271,0.72,2.23,1.751,2.23c1.007,0,1.763-0.947,1.763-2.255
			c0-0.983-0.492-2.219-1.739-2.219C337.069,329.71,336.53,330.861,336.53,331.953z"/>
		<path d="M342.458,330.609c0-0.611-0.012-1.092-0.048-1.57h0.936l0.06,0.959h0.024c0.288-0.54,0.959-1.08,1.919-1.08
			c0.803,0,2.051,0.48,2.051,2.471v3.455h-1.056v-3.347c0-0.936-0.348-1.715-1.343-1.715c-0.684,0-1.223,0.491-1.415,1.079
			c-0.048,0.132-0.072,0.312-0.072,0.492v3.49h-1.056V330.609z"/>
		<path d="M348.974,333.775c0.324,0.192,0.875,0.408,1.403,0.408c0.756,0,1.115-0.371,1.115-0.863c0-0.504-0.3-0.768-1.067-1.056
			c-1.055-0.384-1.547-0.947-1.547-1.644c0-0.936,0.768-1.703,2.003-1.703c0.587,0,1.104,0.156,1.415,0.36l-0.252,0.768
			c-0.228-0.144-0.647-0.348-1.187-0.348c-0.624,0-0.959,0.36-0.959,0.792c0,0.479,0.335,0.695,1.091,0.994
			c0.996,0.373,1.523,0.877,1.523,1.74c0,1.031-0.803,1.75-2.159,1.75c-0.636,0-1.223-0.168-1.631-0.407L348.974,333.775z"/>
		<path d="M357.947,333.452c0,0.503,0.024,0.995,0.084,1.392h-0.947L357,334.111h-0.036c-0.324,0.456-0.947,0.863-1.775,0.863
			c-1.175,0-1.775-0.827-1.775-1.666c0-1.404,1.247-2.172,3.49-2.159v-0.12c0-0.468-0.132-1.344-1.319-1.331
			c-0.552,0-1.116,0.155-1.523,0.432l-0.24-0.708c0.479-0.299,1.187-0.504,1.919-0.504c1.775,0,2.207,1.212,2.207,2.363V333.452z
			 M356.928,331.881c-1.151-0.023-2.458,0.18-2.458,1.307c0,0.696,0.456,1.008,0.983,1.008c0.768,0,1.259-0.479,1.427-0.971
			c0.036-0.121,0.048-0.24,0.048-0.336V331.881z"/>
		<path d="M359.654,326.328h1.043v3.646h0.024c0.372-0.648,1.043-1.057,1.979-1.057c1.451,0,2.458,1.199,2.458,2.951
			c0,2.074-1.319,3.105-2.614,3.105c-0.84,0-1.511-0.323-1.955-1.078h-0.024l-0.06,0.947h-0.899c0.024-0.396,0.048-0.984,0.048-1.5
			V326.328z M360.697,332.517c0,0.132,0.012,0.264,0.048,0.384c0.192,0.731,0.815,1.235,1.583,1.235
			c1.116,0,1.763-0.899,1.763-2.231c0-1.162-0.6-2.158-1.739-2.158c-0.708,0-1.379,0.504-1.595,1.295
			c-0.036,0.133-0.06,0.276-0.06,0.443V332.517z"/>
		<path d="M366.481,326.328h1.056v8.516h-1.056V326.328z"/>
		<path d="M369.901,332.133c0.024,1.428,0.923,2.015,1.991,2.015c0.755,0,1.223-0.132,1.607-0.3l0.192,0.756
			c-0.372,0.168-1.019,0.371-1.943,0.371c-1.787,0-2.854-1.188-2.854-2.938c0-1.752,1.032-3.119,2.723-3.119
			c1.907,0,2.399,1.656,2.399,2.723c0,0.217-0.012,0.372-0.036,0.492H369.901z M372.996,331.377c0.012-0.66-0.276-1.703-1.463-1.703
			c-1.079,0-1.535,0.972-1.619,1.703H372.996z"/>
		<path d="M312.086,341.807c0,0.36-0.252,0.648-0.671,0.648c-0.384,0-0.636-0.288-0.636-0.648c0-0.359,0.264-0.659,0.66-0.659
			C311.822,341.147,312.086,341.436,312.086,341.807z M310.911,349.243v-5.805h1.056v5.805H310.911z"/>
		<path d="M313.719,345.01c0-0.611-0.012-1.092-0.048-1.571h0.936l0.06,0.96h0.024c0.288-0.541,0.959-1.08,1.919-1.08
			c0.803,0,2.051,0.48,2.051,2.471v3.454h-1.056v-3.347c0-0.936-0.348-1.715-1.343-1.715c-0.684,0-1.223,0.492-1.415,1.08
			c-0.048,0.131-0.072,0.312-0.072,0.491v3.49h-1.056V345.01z"/>
		<path d="M320.486,349.243v-5.001h-0.804v-0.804h0.804v-0.276c0-0.814,0.192-1.559,0.672-2.026c0.396-0.384,0.923-0.54,1.415-0.54
			c0.384,0,0.696,0.084,0.899,0.168l-0.144,0.816c-0.156-0.072-0.359-0.133-0.671-0.133c-0.899,0-1.127,0.779-1.127,1.68v0.312
			h1.403v0.804h-1.403v5.001H320.486z"/>
		<path d="M328.979,346.293c0,2.146-1.499,3.082-2.89,3.082c-1.559,0-2.783-1.151-2.783-2.986c0-1.931,1.284-3.07,2.878-3.07
			C327.853,343.318,328.979,344.529,328.979,346.293z M324.386,346.353c0,1.271,0.72,2.231,1.751,2.231
			c1.007,0,1.763-0.947,1.763-2.256c0-0.982-0.492-2.219-1.739-2.219C324.926,344.109,324.386,345.262,324.386,346.353z"/>
		<path d="M330.314,345.25c0-0.684-0.012-1.271-0.048-1.812h0.923l0.048,1.151h0.036c0.264-0.779,0.912-1.271,1.619-1.271
			c0.108,0,0.192,0.012,0.288,0.023v0.996c-0.108-0.023-0.216-0.023-0.359-0.023c-0.744,0-1.271,0.551-1.416,1.343
			c-0.024,0.144-0.036,0.323-0.036,0.491v3.095h-1.056V345.25z"/>
		<path d="M334.286,345.01c0-0.611-0.024-1.092-0.048-1.571h0.923l0.048,0.947h0.036c0.324-0.552,0.864-1.067,1.835-1.067
			c0.78,0,1.379,0.48,1.631,1.164h0.024c0.18-0.336,0.419-0.576,0.66-0.756c0.348-0.264,0.719-0.408,1.271-0.408
			c0.78,0,1.919,0.504,1.919,2.519v3.406h-1.031v-3.274c0-1.127-0.42-1.787-1.259-1.787c-0.612,0-1.067,0.443-1.259,0.947
			c-0.048,0.156-0.084,0.336-0.084,0.528v3.586h-1.032v-3.478c0-0.924-0.408-1.584-1.211-1.584c-0.648,0-1.14,0.527-1.308,1.056
			c-0.06,0.144-0.084,0.336-0.084,0.516v3.49h-1.031V345.01z"/>
		<path d="M348.372,347.852c0,0.504,0.024,0.996,0.084,1.392h-0.947l-0.084-0.731h-0.036c-0.324,0.455-0.947,0.863-1.775,0.863
			c-1.175,0-1.775-0.828-1.775-1.667c0-1.403,1.247-2.171,3.49-2.159v-0.119c0-0.469-0.132-1.344-1.319-1.332
			c-0.551,0-1.115,0.156-1.523,0.432l-0.24-0.707c0.479-0.3,1.188-0.504,1.919-0.504c1.775,0,2.207,1.211,2.207,2.363V347.852z
			 M347.353,346.281c-1.151-0.024-2.459,0.18-2.459,1.307c0,0.695,0.456,1.008,0.983,1.008c0.768,0,1.259-0.48,1.427-0.972
			c0.036-0.12,0.048-0.239,0.048-0.336V346.281z"/>
		<path d="M351.302,342.047v1.392h1.511v0.804h-1.511v3.13c0,0.72,0.204,1.128,0.792,1.128c0.288,0,0.456-0.024,0.612-0.072
			l0.048,0.803c-0.204,0.072-0.528,0.145-0.936,0.145c-0.492,0-0.888-0.168-1.14-0.443c-0.288-0.324-0.408-0.84-0.408-1.523v-3.166
			h-0.899v-0.804h0.899v-1.079L351.302,342.047z"/>
		<path d="M355.177,341.807c0,0.36-0.252,0.648-0.671,0.648c-0.384,0-0.636-0.288-0.636-0.648c0-0.359,0.264-0.659,0.66-0.659
			C354.914,341.147,355.177,341.436,355.177,341.807z M354.002,349.243v-5.805h1.056v5.805H354.002z"/>
		<path d="M360.768,348.355h-0.024c-0.324,0.564-0.959,1.02-1.895,1.02c-1.355,0-2.459-1.163-2.459-2.926
			c0-2.184,1.403-3.131,2.627-3.131c0.899,0,1.499,0.443,1.787,0.996h0.024l0.036-0.876h0.996c-0.024,0.479-0.048,0.995-0.048,1.595
			v6.584h-1.043V348.355z M360.768,345.789c0-0.145-0.012-0.3-0.048-0.432c-0.167-0.648-0.719-1.199-1.511-1.199
			c-1.092,0-1.751,0.924-1.751,2.219c0,1.163,0.552,2.158,1.715,2.158c0.684,0,1.271-0.42,1.511-1.139
			c0.048-0.156,0.084-0.359,0.084-0.516V345.789z"/>
		<path d="M368.423,347.648c0,0.611,0.012,1.139,0.048,1.595h-0.936l-0.06-0.947h-0.024c-0.264,0.468-0.887,1.079-1.919,1.079
			c-0.911,0-2.003-0.516-2.003-2.543v-3.394h1.056v3.202c0,1.104,0.348,1.859,1.295,1.859c0.708,0,1.199-0.492,1.391-0.972
			c0.06-0.144,0.096-0.336,0.096-0.54v-3.55h1.056V347.648z"/>
		<path d="M370.766,346.533c0.024,1.427,0.923,2.014,1.991,2.014c0.755,0,1.223-0.131,1.607-0.299l0.192,0.756
			c-0.372,0.168-1.019,0.371-1.943,0.371c-1.787,0-2.854-1.188-2.854-2.938s1.032-3.118,2.723-3.118
			c1.907,0,2.399,1.655,2.399,2.723c0,0.216-0.012,0.371-0.036,0.492H370.766z M373.86,345.777c0.012-0.66-0.276-1.703-1.463-1.703
			c-1.079,0-1.535,0.971-1.619,1.703H373.86z"/>
	</g>
	<rect x="54.35" y="36.941" fill="none" stroke="#000000" width="104.487" height="32.309"/>
	<g>
		<rect x="65.057" y="39.186" fill="none" width="83.076" height="27.82"/>
		<path d="M82.3,40.51h-2.459v-0.887h5.985v0.887h-2.471v7.196H82.3V40.51z"/>
		<path d="M86.429,44.996c0.024,1.427,0.923,2.015,1.991,2.015c0.755,0,1.223-0.132,1.607-0.3l0.192,0.756
			c-0.372,0.168-1.019,0.372-1.943,0.372c-1.787,0-2.854-1.188-2.854-2.938s1.032-3.118,2.723-3.118
			c1.907,0,2.399,1.655,2.399,2.723c0,0.216-0.012,0.372-0.036,0.492H86.429z M89.523,44.24c0.012-0.66-0.276-1.703-1.463-1.703
			c-1.079,0-1.535,0.971-1.619,1.703H89.523z"/>
		<path d="M95.99,47.502c-0.276,0.132-0.888,0.336-1.667,0.336c-1.751,0-2.891-1.188-2.891-2.962c0-1.787,1.224-3.094,3.119-3.094
			c0.624,0,1.175,0.156,1.463,0.312l-0.24,0.803c-0.252-0.132-0.647-0.275-1.223-0.275c-1.332,0-2.051,0.995-2.051,2.194
			c0,1.343,0.864,2.171,2.015,2.171c0.6,0,0.996-0.144,1.295-0.276L95.99,47.502z"/>
		<path d="M97.229,39.191h1.056v3.634h0.024c0.168-0.3,0.432-0.576,0.755-0.755c0.312-0.18,0.684-0.288,1.08-0.288
			c0.779,0,2.027,0.48,2.027,2.471v3.454h-1.056v-3.334c0-0.936-0.348-1.715-1.343-1.715c-0.684,0-1.211,0.48-1.415,1.043
			c-0.06,0.156-0.072,0.312-0.072,0.504v3.502h-1.056V39.191z"/>
		<path d="M103.889,43.472c0-0.611-0.012-1.091-0.048-1.571h0.936l0.06,0.959h0.024c0.288-0.54,0.959-1.08,1.919-1.08
			c0.803,0,2.051,0.48,2.051,2.471v3.454h-1.056V44.36c0-0.936-0.348-1.715-1.343-1.715c-0.684,0-1.223,0.492-1.415,1.079
			c-0.048,0.132-0.072,0.312-0.072,0.492v3.49h-1.056V43.472z"/>
		<path d="M111.724,40.27c0,0.36-0.252,0.648-0.671,0.648c-0.384,0-0.636-0.288-0.636-0.648s0.264-0.66,0.66-0.66
			C111.46,39.61,111.724,39.898,111.724,40.27z M110.549,47.706v-5.805h1.056v5.805H110.549z"/>
		<path d="M117.495,47.502c-0.276,0.132-0.887,0.336-1.667,0.336c-1.751,0-2.891-1.188-2.891-2.962c0-1.787,1.224-3.094,3.119-3.094
			c0.624,0,1.175,0.156,1.463,0.312l-0.24,0.803c-0.252-0.132-0.647-0.275-1.223-0.275c-1.332,0-2.051,0.995-2.051,2.194
			c0,1.343,0.864,2.171,2.015,2.171c0.6,0,0.996-0.144,1.295-0.276L117.495,47.502z"/>
		<path d="M119.908,40.27c0,0.36-0.252,0.648-0.671,0.648c-0.384,0-0.636-0.288-0.636-0.648s0.264-0.66,0.66-0.66
			C119.645,39.61,119.908,39.898,119.908,40.27z M118.733,47.706v-5.805h1.056v5.805H118.733z"/>
		<path d="M122.129,44.996c0.024,1.427,0.923,2.015,1.991,2.015c0.755,0,1.223-0.132,1.607-0.3l0.192,0.756
			c-0.372,0.168-1.019,0.372-1.943,0.372c-1.787,0-2.854-1.188-2.854-2.938s1.032-3.118,2.723-3.118
			c1.907,0,2.399,1.655,2.399,2.723c0,0.216-0.012,0.372-0.036,0.492H122.129z M125.223,44.24c0.012-0.66-0.276-1.703-1.463-1.703
			c-1.079,0-1.535,0.971-1.619,1.703H125.223z"/>
		<path d="M127.553,43.472c0-0.611-0.012-1.091-0.048-1.571h0.936l0.06,0.959h0.024c0.288-0.54,0.959-1.08,1.919-1.08
			c0.803,0,2.051,0.48,2.051,2.471v3.454h-1.056V44.36c0-0.936-0.348-1.715-1.343-1.715c-0.684,0-1.223,0.492-1.415,1.079
			c-0.048,0.132-0.072,0.312-0.072,0.492v3.49h-1.056V43.472z"/>
		<path d="M81.691,58.556c-0.06-1.127-0.132-2.494-0.132-3.49h-0.024c-0.288,0.936-0.612,1.955-1.02,3.07l-1.427,3.922h-0.792
			l-1.319-3.85c-0.384-1.151-0.695-2.183-0.923-3.142h-0.024c-0.024,1.007-0.084,2.351-0.156,3.574l-0.216,3.466h-0.995l0.563-8.083
			h1.332l1.379,3.91c0.336,0.996,0.6,1.883,0.815,2.723h0.024c0.216-0.815,0.503-1.703,0.863-2.723l1.439-3.91h1.331l0.504,8.083
			h-1.032L81.691,58.556z"/>
		<path d="M88.641,60.715c0,0.503,0.024,0.995,0.084,1.391h-0.947l-0.084-0.731h-0.036c-0.324,0.456-0.947,0.863-1.775,0.863
			c-1.175,0-1.775-0.828-1.775-1.667c0-1.403,1.247-2.171,3.49-2.159v-0.12c0-0.468-0.132-1.343-1.319-1.331
			c-0.552,0-1.116,0.156-1.523,0.432l-0.24-0.708c0.479-0.3,1.187-0.504,1.919-0.504c1.775,0,2.207,1.211,2.207,2.363V60.715z
			 M87.621,59.144c-1.151-0.024-2.458,0.18-2.458,1.307c0,0.696,0.456,1.008,0.983,1.008c0.768,0,1.259-0.48,1.427-0.972
			c0.036-0.12,0.048-0.24,0.048-0.336V59.144z"/>
		<path d="M91.522,54.67c0,0.36-0.252,0.648-0.671,0.648c-0.384,0-0.636-0.288-0.636-0.648s0.264-0.66,0.66-0.66
			C91.258,54.01,91.522,54.298,91.522,54.67z M90.347,62.106v-5.805h1.056v5.805H90.347z"/>
		<path d="M93.155,57.872c0-0.611-0.012-1.091-0.048-1.571h0.936l0.06,0.959h0.024c0.288-0.54,0.959-1.08,1.919-1.08
			c0.803,0,2.051,0.48,2.051,2.471v3.454h-1.056V58.76c0-0.936-0.348-1.715-1.343-1.715c-0.684,0-1.223,0.492-1.415,1.079
			c-0.048,0.132-0.072,0.312-0.072,0.492v3.49h-1.056V57.872z"/>
		<path d="M101.038,54.91v1.391h1.511v0.803h-1.511v3.13c0,0.72,0.204,1.127,0.792,1.127c0.288,0,0.456-0.024,0.612-0.072
			l0.048,0.803c-0.204,0.072-0.528,0.144-0.936,0.144c-0.492,0-0.888-0.168-1.14-0.444c-0.288-0.324-0.408-0.839-0.408-1.523v-3.167
			h-0.899v-0.803h0.899v-1.08L101.038,54.91z"/>
		<path d="M104.254,59.396c0.024,1.427,0.923,2.015,1.991,2.015c0.755,0,1.223-0.132,1.607-0.3l0.192,0.756
			c-0.372,0.168-1.019,0.372-1.943,0.372c-1.787,0-2.854-1.187-2.854-2.938c0-1.751,1.032-3.118,2.723-3.118
			c1.907,0,2.399,1.655,2.399,2.723c0,0.216-0.012,0.372-0.036,0.492H104.254z M107.349,58.64c0.012-0.659-0.276-1.703-1.463-1.703
			c-1.08,0-1.535,0.971-1.619,1.703H107.349z"/>
		<path d="M109.678,57.872c0-0.611-0.012-1.091-0.048-1.571h0.936l0.06,0.959h0.024c0.288-0.54,0.959-1.08,1.919-1.08
			c0.803,0,2.051,0.48,2.051,2.471v3.454h-1.056V58.76c0-0.936-0.348-1.715-1.343-1.715c-0.684,0-1.223,0.492-1.415,1.079
			c-0.048,0.132-0.072,0.312-0.072,0.492v3.49h-1.056V57.872z"/>
		<path d="M120.416,60.715c0,0.503,0.024,0.995,0.084,1.391h-0.947l-0.084-0.731h-0.036c-0.324,0.456-0.947,0.863-1.775,0.863
			c-1.175,0-1.775-0.828-1.775-1.667c0-1.403,1.247-2.171,3.49-2.159v-0.12c0-0.468-0.132-1.343-1.319-1.331
			c-0.552,0-1.116,0.156-1.523,0.432l-0.24-0.708c0.479-0.3,1.187-0.504,1.919-0.504c1.775,0,2.207,1.211,2.207,2.363V60.715z
			 M119.396,59.144c-1.151-0.024-2.458,0.18-2.458,1.307c0,0.696,0.456,1.008,0.983,1.008c0.768,0,1.259-0.48,1.427-0.972
			c0.036-0.12,0.048-0.24,0.048-0.336V59.144z"/>
		<path d="M122.123,57.872c0-0.611-0.012-1.091-0.048-1.571h0.936l0.06,0.959h0.024c0.288-0.54,0.959-1.08,1.919-1.08
			c0.803,0,2.051,0.48,2.051,2.471v3.454h-1.056V58.76c0-0.936-0.348-1.715-1.343-1.715c-0.684,0-1.223,0.492-1.415,1.079
			c-0.048,0.132-0.072,0.312-0.072,0.492v3.49h-1.056V57.872z"/>
		<path d="M132.92,61.902c-0.276,0.132-0.887,0.336-1.667,0.336c-1.751,0-2.891-1.187-2.891-2.962c0-1.787,1.224-3.094,3.119-3.094
			c0.624,0,1.175,0.156,1.463,0.312l-0.24,0.803c-0.252-0.132-0.647-0.276-1.223-0.276c-1.332,0-2.051,0.996-2.051,2.195
			c0,1.343,0.864,2.171,2.015,2.171c0.6,0,0.996-0.144,1.295-0.276L132.92,61.902z"/>
		<path d="M134.674,59.396c0.024,1.427,0.923,2.015,1.991,2.015c0.755,0,1.223-0.132,1.607-0.3l0.192,0.756
			c-0.372,0.168-1.019,0.372-1.943,0.372c-1.787,0-2.854-1.187-2.854-2.938c0-1.751,1.032-3.118,2.723-3.118
			c1.907,0,2.399,1.655,2.399,2.723c0,0.216-0.012,0.372-0.036,0.492H134.674z M137.769,58.64c0.012-0.659-0.276-1.703-1.463-1.703
			c-1.08,0-1.535,0.971-1.619,1.703H137.769z"/>
	</g>
	<rect x="54.351" y="92.327" fill="none" stroke="#000000" width="104.488" height="32.309"/>
	<g>
		<rect x="65.059" y="94.571" fill="none" width="83.075" height="27.82"/>
		<path d="M75.733,95.116c0.527-0.096,1.295-0.168,2.003-0.168c1.115,0,1.847,0.216,2.338,0.66c0.396,0.36,0.636,0.912,0.636,1.547
			c0,1.055-0.671,1.763-1.511,2.051v0.036c0.612,0.216,0.983,0.792,1.175,1.631c0.264,1.127,0.456,1.907,0.624,2.219h-1.08
			c-0.132-0.24-0.312-0.923-0.528-1.931c-0.24-1.115-0.684-1.535-1.631-1.571h-0.983v3.502h-1.043V95.116z M76.776,98.798h1.067
			c1.115,0,1.823-0.612,1.823-1.535c0-1.043-0.755-1.5-1.859-1.5c-0.504,0-0.852,0.036-1.031,0.084V98.798z"/>
		<path d="M82.789,100.381c0.024,1.427,0.923,2.015,1.991,2.015c0.755,0,1.223-0.132,1.607-0.3l0.192,0.756
			c-0.372,0.168-1.019,0.372-1.943,0.372c-1.787,0-2.854-1.188-2.854-2.938s1.032-3.118,2.723-3.118
			c1.907,0,2.399,1.655,2.399,2.723c0,0.216-0.012,0.372-0.036,0.492H82.789z M85.883,99.625c0.012-0.66-0.276-1.703-1.463-1.703
			c-1.079,0-1.535,0.971-1.619,1.703H85.883z"/>
		<path d="M88.068,102.024c0.324,0.192,0.875,0.408,1.403,0.408c0.756,0,1.115-0.372,1.115-0.863c0-0.504-0.3-0.768-1.067-1.056
			c-1.055-0.384-1.547-0.947-1.547-1.643c0-0.936,0.768-1.703,2.003-1.703c0.587,0,1.103,0.156,1.415,0.36l-0.252,0.768
			c-0.228-0.144-0.647-0.348-1.187-0.348c-0.624,0-0.959,0.36-0.959,0.792c0,0.479,0.335,0.695,1.091,0.995
			c0.995,0.372,1.523,0.876,1.523,1.739c0,1.031-0.803,1.751-2.159,1.751c-0.636,0-1.223-0.168-1.631-0.408L88.068,102.024z"/>
		<path d="M92.964,99.182c0-0.744-0.024-1.343-0.048-1.895h0.936l0.06,0.995h0.024c0.419-0.708,1.115-1.115,2.062-1.115
			c1.416,0,2.471,1.188,2.471,2.938c0,2.087-1.283,3.118-2.65,3.118c-0.768,0-1.439-0.336-1.787-0.912h-0.024v3.154h-1.043V99.182z
			 M94.008,100.729c0,0.156,0.012,0.3,0.048,0.432c0.192,0.732,0.828,1.235,1.583,1.235c1.115,0,1.763-0.911,1.763-2.243
			c0-1.151-0.611-2.146-1.727-2.146c-0.72,0-1.403,0.503-1.595,1.295c-0.036,0.132-0.072,0.288-0.072,0.42V100.729z"/>
		<path d="M105.045,100.142c0,2.146-1.499,3.082-2.89,3.082c-1.559,0-2.783-1.151-2.783-2.986c0-1.931,1.284-3.07,2.878-3.07
			C103.918,97.167,105.045,98.378,105.045,100.142z M100.452,100.201c0,1.271,0.72,2.231,1.751,2.231
			c1.007,0,1.763-0.947,1.763-2.255c0-0.983-0.492-2.219-1.739-2.219C100.991,97.958,100.452,99.11,100.452,100.201z"/>
		<path d="M106.38,98.858c0-0.611-0.012-1.091-0.048-1.571h0.936l0.06,0.959h0.024c0.288-0.54,0.959-1.08,1.919-1.08
			c0.803,0,2.051,0.48,2.051,2.471v3.454h-1.056v-3.346c0-0.936-0.348-1.715-1.343-1.715c-0.684,0-1.223,0.492-1.415,1.079
			c-0.048,0.132-0.072,0.312-0.072,0.492v3.49h-1.056V98.858z"/>
		<path d="M112.896,102.024c0.324,0.192,0.875,0.408,1.403,0.408c0.756,0,1.115-0.372,1.115-0.863c0-0.504-0.3-0.768-1.067-1.056
			c-1.055-0.384-1.547-0.947-1.547-1.643c0-0.936,0.768-1.703,2.003-1.703c0.587,0,1.104,0.156,1.415,0.36l-0.252,0.768
			c-0.228-0.144-0.647-0.348-1.187-0.348c-0.624,0-0.959,0.36-0.959,0.792c0,0.479,0.335,0.695,1.091,0.995
			c0.996,0.372,1.523,0.876,1.523,1.739c0,1.031-0.803,1.751-2.159,1.751c-0.636,0-1.223-0.168-1.631-0.408L112.896,102.024z"/>
		<path d="M121.87,101.701c0,0.503,0.024,0.995,0.084,1.391h-0.947l-0.084-0.731h-0.036c-0.324,0.456-0.947,0.863-1.775,0.863
			c-1.175,0-1.775-0.828-1.775-1.667c0-1.403,1.247-2.171,3.49-2.159v-0.12c0-0.468-0.132-1.343-1.319-1.331
			c-0.552,0-1.116,0.156-1.523,0.432l-0.24-0.708c0.479-0.3,1.187-0.504,1.919-0.504c1.775,0,2.207,1.211,2.207,2.363V101.701z
			 M120.85,100.129c-1.151-0.024-2.458,0.18-2.458,1.307c0,0.696,0.456,1.008,0.983,1.008c0.768,0,1.259-0.48,1.427-0.972
			c0.036-0.12,0.048-0.24,0.048-0.336V100.129z"/>
		<path d="M123.576,94.577h1.043v3.646h0.024c0.372-0.648,1.043-1.056,1.979-1.056c1.451,0,2.458,1.199,2.458,2.95
			c0,2.075-1.319,3.106-2.614,3.106c-0.84,0-1.511-0.324-1.955-1.079h-0.024l-0.06,0.947h-0.899
			c0.024-0.396,0.048-0.983,0.048-1.499V94.577z M124.62,100.765c0,0.132,0.012,0.264,0.048,0.384
			c0.192,0.731,0.815,1.235,1.583,1.235c1.116,0,1.763-0.899,1.763-2.231c0-1.163-0.6-2.159-1.739-2.159
			c-0.708,0-1.379,0.504-1.595,1.295c-0.036,0.132-0.06,0.276-0.06,0.443V100.765z"/>
		<path d="M130.404,94.577h1.056v8.515h-1.056V94.577z"/>
		<path d="M133.824,100.381c0.024,1.427,0.923,2.015,1.991,2.015c0.755,0,1.223-0.132,1.607-0.3l0.192,0.756
			c-0.372,0.168-1.019,0.372-1.943,0.372c-1.787,0-2.854-1.188-2.854-2.938s1.032-3.118,2.723-3.118
			c1.907,0,2.399,1.655,2.399,2.723c0,0.216-0.012,0.372-0.036,0.492H133.824z M136.918,99.625c0.012-0.66-0.276-1.703-1.463-1.703
			c-1.079,0-1.535,0.971-1.619,1.703H136.918z"/>
		<path d="M81.693,113.941c-0.06-1.127-0.132-2.494-0.132-3.49h-0.024c-0.288,0.936-0.612,1.955-1.02,3.07l-1.427,3.922h-0.792
			l-1.319-3.85c-0.384-1.151-0.695-2.183-0.923-3.142h-0.024c-0.024,1.007-0.084,2.351-0.156,3.574l-0.216,3.466h-0.995l0.563-8.083
			h1.332l1.379,3.91c0.336,0.996,0.6,1.883,0.815,2.723h0.024c0.216-0.815,0.503-1.703,0.863-2.723l1.439-3.91h1.331l0.504,8.083
			h-1.032L81.693,113.941z"/>
		<path d="M88.642,116.101c0,0.503,0.024,0.995,0.084,1.391h-0.947l-0.084-0.731h-0.036c-0.324,0.456-0.947,0.863-1.775,0.863
			c-1.175,0-1.775-0.828-1.775-1.667c0-1.403,1.247-2.171,3.49-2.159v-0.12c0-0.468-0.132-1.343-1.319-1.331
			c-0.552,0-1.116,0.156-1.523,0.432l-0.24-0.708c0.479-0.3,1.187-0.504,1.919-0.504c1.775,0,2.207,1.211,2.207,2.363V116.101z
			 M87.623,114.529c-1.151-0.024-2.458,0.18-2.458,1.307c0,0.696,0.456,1.008,0.983,1.008c0.768,0,1.259-0.48,1.427-0.972
			c0.036-0.12,0.048-0.24,0.048-0.336V114.529z"/>
		<path d="M91.523,110.056c0,0.36-0.252,0.648-0.671,0.648c-0.384,0-0.636-0.288-0.636-0.648s0.264-0.66,0.66-0.66
			C91.26,109.396,91.523,109.684,91.523,110.056z M90.348,117.492v-5.805h1.056v5.805H90.348z"/>
		<path d="M93.156,113.258c0-0.611-0.012-1.091-0.048-1.571h0.936l0.06,0.959h0.024c0.288-0.54,0.959-1.08,1.919-1.08
			c0.803,0,2.051,0.48,2.051,2.471v3.454h-1.056v-3.346c0-0.936-0.348-1.715-1.343-1.715c-0.684,0-1.223,0.492-1.415,1.079
			c-0.048,0.132-0.072,0.312-0.072,0.492v3.49h-1.056V113.258z"/>
		<path d="M101.04,110.296v1.391h1.511v0.803h-1.511v3.13c0,0.72,0.204,1.127,0.792,1.127c0.288,0,0.456-0.024,0.612-0.072
			l0.048,0.803c-0.204,0.072-0.528,0.144-0.936,0.144c-0.492,0-0.888-0.168-1.14-0.444c-0.288-0.324-0.408-0.839-0.408-1.523v-3.167
			h-0.899v-0.803h0.899v-1.08L101.04,110.296z"/>
		<path d="M104.256,114.781c0.024,1.427,0.923,2.015,1.991,2.015c0.755,0,1.223-0.132,1.607-0.3l0.192,0.756
			c-0.372,0.168-1.019,0.372-1.943,0.372c-1.787,0-2.854-1.187-2.854-2.938c0-1.751,1.032-3.118,2.723-3.118
			c1.907,0,2.399,1.655,2.399,2.723c0,0.216-0.012,0.372-0.036,0.492H104.256z M107.35,114.025c0.012-0.659-0.276-1.703-1.463-1.703
			c-1.08,0-1.535,0.971-1.619,1.703H107.35z"/>
		<path d="M109.68,113.258c0-0.611-0.012-1.091-0.048-1.571h0.936l0.06,0.959h0.024c0.288-0.54,0.959-1.08,1.919-1.08
			c0.803,0,2.051,0.48,2.051,2.471v3.454h-1.056v-3.346c0-0.936-0.348-1.715-1.343-1.715c-0.684,0-1.223,0.492-1.415,1.079
			c-0.048,0.132-0.072,0.312-0.072,0.492v3.49h-1.056V113.258z"/>
		<path d="M120.417,116.101c0,0.503,0.024,0.995,0.084,1.391h-0.947l-0.084-0.731h-0.036c-0.324,0.456-0.947,0.863-1.775,0.863
			c-1.175,0-1.775-0.828-1.775-1.667c0-1.403,1.247-2.171,3.49-2.159v-0.12c0-0.468-0.132-1.343-1.319-1.331
			c-0.552,0-1.116,0.156-1.523,0.432l-0.24-0.708c0.479-0.3,1.187-0.504,1.919-0.504c1.775,0,2.207,1.211,2.207,2.363V116.101z
			 M119.398,114.529c-1.151-0.024-2.458,0.18-2.458,1.307c0,0.696,0.456,1.008,0.983,1.008c0.768,0,1.259-0.48,1.427-0.972
			c0.036-0.12,0.048-0.24,0.048-0.336V114.529z"/>
		<path d="M122.124,113.258c0-0.611-0.012-1.091-0.048-1.571h0.936l0.06,0.959h0.024c0.288-0.54,0.959-1.08,1.919-1.08
			c0.803,0,2.051,0.48,2.051,2.471v3.454h-1.056v-3.346c0-0.936-0.348-1.715-1.343-1.715c-0.684,0-1.223,0.492-1.415,1.079
			c-0.048,0.132-0.072,0.312-0.072,0.492v3.49h-1.056V113.258z"/>
		<path d="M132.922,117.288c-0.276,0.132-0.887,0.336-1.667,0.336c-1.751,0-2.891-1.187-2.891-2.962
			c0-1.787,1.224-3.094,3.119-3.094c0.624,0,1.175,0.156,1.463,0.312l-0.24,0.803c-0.252-0.132-0.647-0.276-1.223-0.276
			c-1.332,0-2.051,0.996-2.051,2.195c0,1.343,0.864,2.171,2.015,2.171c0.6,0,0.996-0.144,1.295-0.276L132.922,117.288z"/>
		<path d="M134.676,114.781c0.024,1.427,0.923,2.015,1.991,2.015c0.755,0,1.223-0.132,1.607-0.3l0.192,0.756
			c-0.372,0.168-1.019,0.372-1.943,0.372c-1.787,0-2.854-1.187-2.854-2.938c0-1.751,1.032-3.118,2.723-3.118
			c1.907,0,2.399,1.655,2.399,2.723c0,0.216-0.012,0.372-0.036,0.492H134.676z M137.77,114.025c0.012-0.659-0.276-1.703-1.463-1.703
			c-1.08,0-1.535,0.971-1.619,1.703H137.77z"/>
	</g>
	<g>
		<line fill="none" stroke="#000000" stroke-dasharray="2" x1="106.593" y1="69.25" x2="106.593" y2="92.328"/>
		<polyline fill="none" stroke="#000000" points="113.759,77.746 106.592,70.25 99.425,77.746 		"/>
	</g>
	<g>
		<line fill="none" stroke="#000000" stroke-dasharray="2" x1="106.598" y1="124.069" x2="106.598" y2="147.147"/>
		<polyline fill="none" stroke="#000000" points="113.764,132.565 106.597,125.069 99.43,132.565 		"/>
	</g>
	<g>
		<line fill="none" stroke="#000000" stroke-dasharray="2" x1="106.593" y1="180.021" x2="106.593" y2="203.1"/>
		<polyline fill="none" stroke="#000000" points="113.759,188.518 106.592,181.021 99.425,188.518 		"/>
	</g>
	<g>
		<line fill="none" stroke="#000000" stroke-dasharray="2" x1="742.897" y1="69.25" x2="742.897" y2="92.328"/>
		<polyline fill="none" stroke="#000000" points="750.063,77.746 742.896,70.25 735.729,77.746 		"/>
	</g>
	<g>
		<line fill="none" stroke="#000000" stroke-dasharray="2" x1="301.138" y1="69.25" x2="301.138" y2="92.328"/>
		<polyline fill="none" stroke="#000000" points="308.304,77.746 301.137,70.25 293.97,77.746 		"/>
	</g>
	<g>
		<line fill="none" stroke="#000000" stroke-dasharray="2" x1="384.214" y1="69.25" x2="384.214" y2="92.328"/>
		<polyline fill="none" stroke="#000000" points="391.38,77.746 384.213,70.25 377.046,77.746 		"/>
	</g>
	<g>
		<line fill="none" stroke="#000000" stroke-dasharray="2" x1="342.68" y1="124.569" x2="342.679" y2="268.453"/>
		<polyline fill="none" stroke="#000000" points="349.846,133.065 342.679,125.569 335.512,133.065 		"/>
	</g>
	<line fill="none" stroke="#000000" stroke-dasharray="2" x1="586.973" y1="69.132" x2="366.759" y2="268.453"/>
	<polyline fill="none" stroke="#000000" points="585.572,80.664 586.789,70.365 576.446,69.611 	"/>
	<g>
		<line fill="none" stroke="#000000" stroke-dasharray="2" x1="159.505" y1="216.801" x2="315.821" y2="268.453"/>
		<polyline fill="none" stroke="#000000" points="169.712,212.399 160.463,217.092 165.565,226.12 		"/>
	</g>
	<line fill="none" stroke="#000000" stroke-dasharray="2" x1="690.653" y1="109.436" x2="392.822" y2="265.51"/>
	<polyline fill="none" stroke="#000000" points="687.516,119.241 690.531,109.317 680.483,106.75 	"/>
	<g>
		<path d="M120.089,81.767l1.607,2.207h-0.863l-1.583-2.207l1.583-2.207h0.852L120.089,81.767z M122.056,81.767l1.595,2.207H122.8
			l-1.583-2.207l1.583-2.207h0.852L122.056,81.767z"/>
		<path d="M129.015,80.999h-3.13v2.914h3.502v0.876h-4.558v-8.084h4.378v0.876h-3.322v2.555h3.13V80.999z"/>
		<path d="M130.121,79.56h0.84l1.595,2.207l-1.595,2.207h-0.84l1.595-2.207L130.121,79.56z M132.064,79.56h0.852l1.595,2.207
			l-1.595,2.207h-0.84l1.595-2.207L132.064,79.56z"/>
	</g>
	<g>
		<path d="M120.089,139.416l1.607,2.207h-0.863l-1.583-2.207l1.583-2.207h0.852L120.089,139.416z M122.056,139.416l1.595,2.207
			H122.8l-1.583-2.207l1.583-2.207h0.852L122.056,139.416z"/>
		<path d="M129.015,138.648h-3.13v2.914h3.502v0.876h-4.558v-8.084h4.378v0.876h-3.322v2.555h3.13V138.648z"/>
		<path d="M130.121,137.209h0.84l1.595,2.207l-1.595,2.207h-0.84l1.595-2.207L130.121,137.209z M132.064,137.209h0.852l1.595,2.207
			l-1.595,2.207h-0.84l1.595-2.207L132.064,137.209z"/>
	</g>
	<g>
		<path d="M120.089,193.489l1.607,2.207h-0.863l-1.583-2.207l1.583-2.207h0.852L120.089,193.489z M122.056,193.489l1.595,2.207
			H122.8l-1.583-2.207l1.583-2.207h0.852L122.056,193.489z"/>
		<path d="M129.015,192.722h-3.13v2.914h3.502v0.876h-4.558v-8.084h4.378v0.876h-3.322v2.555h3.13V192.722z"/>
		<path d="M130.121,191.282h0.84l1.595,2.207l-1.595,2.207h-0.84l1.595-2.207L130.121,191.282z M132.064,191.282h0.852l1.595,2.207
			l-1.595,2.207h-0.84l1.595-2.207L132.064,191.282z"/>
	</g>
	<g>
		<path d="M395.457,84.767l1.607,2.207h-0.863l-1.584-2.207l1.584-2.207h0.852L395.457,84.767z M397.424,84.767l1.596,2.207h-0.852
			l-1.584-2.207l1.584-2.207h0.852L397.424,84.767z"/>
		<path d="M404.383,83.999h-3.131v2.914h3.502v0.876h-4.557v-8.084h4.377v0.876h-3.322v2.555h3.131V83.999z"/>
		<path d="M405.488,82.56h0.84l1.596,2.207l-1.596,2.207h-0.84l1.596-2.207L405.488,82.56z M407.432,82.56h0.852l1.596,2.207
			l-1.596,2.207h-0.84l1.596-2.207L407.432,82.56z"/>
	</g>
	<g>
		<path d="M309.029,84.767l1.607,2.207h-0.863l-1.583-2.207l1.583-2.207h0.852L309.029,84.767z M310.996,84.767l1.595,2.207h-0.852
			l-1.583-2.207l1.583-2.207h0.852L310.996,84.767z"/>
		<path d="M317.954,83.999h-3.13v2.914h3.502v0.876h-4.558v-8.084h4.378v0.876h-3.322v2.555h3.13V83.999z"/>
		<path d="M319.061,82.56h0.84l1.595,2.207l-1.595,2.207h-0.84l1.595-2.207L319.061,82.56z M321.004,82.56h0.852l1.595,2.207
			l-1.595,2.207h-0.84l1.595-2.207L321.004,82.56z"/>
	</g>
	<g>
		<path d="M244.851,232.385l1.607,2.207h-0.863l-1.583-2.207l1.583-2.207h0.852L244.851,232.385z M246.817,232.385l1.595,2.207
			h-0.852l-1.583-2.207l1.583-2.207h0.852L246.817,232.385z"/>
		<path d="M253.776,231.617h-3.13v2.914h3.502v0.876h-4.558v-8.084h4.378v0.876h-3.322v2.555h3.13V231.617z"/>
		<path d="M254.882,230.178h0.84l1.595,2.207l-1.595,2.207h-0.84l1.595-2.207L254.882,230.178z M256.826,230.178h0.852l1.595,2.207
			l-1.595,2.207h-0.84l1.595-2.207L256.826,230.178z"/>
	</g>
	<g>
		<path d="M351.986,209.377l1.607,2.207h-0.863l-1.583-2.207l1.583-2.207h0.852L351.986,209.377z M353.953,209.377l1.595,2.207
			h-0.852l-1.583-2.207l1.583-2.207h0.852L353.953,209.377z"/>
		<path d="M360.911,208.609h-3.13v2.914h3.502v0.876h-4.558v-8.084h4.378v0.876h-3.322v2.555h3.13V208.609z"/>
		<path d="M362.018,207.17h0.84l1.595,2.207l-1.595,2.207h-0.84l1.595-2.207L362.018,207.17z M363.961,207.17h0.852l1.595,2.207
			l-1.595,2.207h-0.84l1.595-2.207L363.961,207.17z"/>
	</g>
	<g>
		<path d="M464.453,196.489l1.607,2.207h-0.863l-1.584-2.207l1.584-2.207h0.852L464.453,196.489z M466.42,196.489l1.596,2.207
			h-0.852l-1.584-2.207l1.584-2.207h0.852L466.42,196.489z"/>
		<path d="M473.379,195.722h-3.131v2.914h3.502v0.876h-4.557v-8.084h4.377v0.876h-3.322v2.555h3.131V195.722z"/>
		<path d="M474.484,194.282h0.84l1.596,2.207l-1.596,2.207h-0.84l1.596-2.207L474.484,194.282z M476.428,194.282h0.852l1.596,2.207
			l-1.596,2.207h-0.84l1.596-2.207L476.428,194.282z"/>
	</g>
	<g>
		<path d="M511.164,216.237l1.606,2.207h-0.863l-1.583-2.207l1.583-2.207h0.852L511.164,216.237z M513.131,216.237l1.595,2.207
			h-0.852l-1.583-2.207l1.583-2.207h0.852L513.131,216.237z"/>
		<path d="M520.089,215.47h-3.13v2.914h3.502v0.876h-4.558v-8.084h4.378v0.876h-3.322v2.555h3.13V215.47z"/>
		<path d="M521.195,214.03h0.84l1.596,2.207l-1.596,2.207h-0.84l1.596-2.207L521.195,214.03z M523.139,214.03h0.852l1.595,2.207
			l-1.595,2.207h-0.84l1.596-2.207L523.139,214.03z"/>
	</g>
	<g>
		<path d="M753.248,84.767l1.606,2.207h-0.863l-1.583-2.207l1.583-2.207h0.852L753.248,84.767z M755.215,84.767l1.595,2.207h-0.852
			l-1.583-2.207l1.583-2.207h0.852L755.215,84.767z"/>
		<path d="M762.173,83.999h-3.13v2.914h3.502v0.876h-4.558v-8.084h4.378v0.876h-3.322v2.555h3.13V83.999z"/>
		<path d="M763.279,82.56h0.84l1.596,2.207l-1.596,2.207h-0.84l1.596-2.207L763.279,82.56z M765.223,82.56h0.852l1.595,2.207
			l-1.595,2.207h-0.84l1.596-2.207L765.223,82.56z"/>
	</g>
</g>
</svg>
