<?xml version="1.0" encoding="UTF-8" standalone="no"?>
<!DOCTYPE svg PUBLIC "-//W3C//DTD SVG 1.1//EN"
 "http://www.w3.org/Graphics/SVG/1.1/DTD/svg11.dtd">
<!-- Generated by graphviz version 2.26.3 (20100126.1600)
 -->
<!-- Title: _anonymous_0 Pages: 1 -->
<svg width="768pt" height="484pt"
 viewBox="0.00 0.00 768.00 484.00" xmlns="http://www.w3.org/2000/svg" xmlns:xlink="http://www.w3.org/1999/xlink">
<g id="graph1" class="graph" transform="scale(1 1) rotate(0) translate(4 480)">
<title>_anonymous_0</title>
<polygon fill="white" stroke="white" points="-4,5 -4,-480 765,-480 765,5 -4,5"/>
<!-- U1 -->
<g id="node3" class="node"><title>U1</title>
<polygon fill="none" stroke="black" points="452,-476 250,-476 250,-440 452,-440 452,-476"/>
<text text-anchor="middle" x="351" y="-452.9" font-family="Times,serif" font-size="14.00">U1) Technicien de Maintenance</text>
</g>
<!-- U6 -->
<g id="node4" class="node"><title>U6</title>
<polygon fill="none" stroke="black" points="475,-388 291,-388 291,-352 475,-352 475,-388"/>
<text text-anchor="middle" x="383" y="-364.9" font-family="Times,serif" font-size="14.00">U6) Responsable Mainteance</text>
</g>
<!-- U6&#45;&gt;U1 -->
<g id="edge26" class="edge"><title>U6&#45;&gt;U1</title>
<path fill="none" stroke="black" stroke-dasharray="1,5" d="M390,-388C390,-388 377.032,-411.276 366.051,-430.985"/>
<polygon fill="black" stroke="black" points="361.043,-439.973 361.979,-429.047 363.477,-435.605 365.911,-431.238 365.911,-431.238 365.911,-431.238 363.477,-435.605 369.842,-433.428 361.043,-439.973 361.043,-439.973"/>
<text text-anchor="middle" x="391.5" y="-408.9" font-family="Times,serif" font-size="14.00">«E»</text>
</g>
<!-- U4 -->
<g id="node15" class="node"><title>U4</title>
<polygon fill="none" stroke="black" points="638,-476 470,-476 470,-440 638,-440 638,-476"/>
<text text-anchor="middle" x="554" y="-452.9" font-family="Times,serif" font-size="14.00">U4) Opérateur de Guichet</text>
</g>
<!-- U6&#45;&gt;U4 -->
<!-- U2 -->
<g id="node6" class="node"><title>U2</title>
<polygon fill="none" stroke="black" points="232,-476 122,-476 122,-440 232,-440 232,-476"/>
<text text-anchor="middle" x="177" y="-452.9" font-family="Times,serif" font-size="14.00">U2) Conducteur</text>
</g>
<!-- U3 -->
<g id="node7" class="node"><title>U3</title>
<polygon fill="none" stroke="black" points="104,-476 4.9738e-14,-476 0,-440 104,-440 104,-476"/>
<text text-anchor="middle" x="52" y="-452.9" font-family="Times,serif" font-size="14.00">U3) Contrôleur</text>
</g>
<!-- U7 -->
<g id="node8" class="node"><title>U7</title>
<polygon fill="none" stroke="black" points="236,-388 126,-388 126,-352 236,-352 236,-388"/>
<text text-anchor="middle" x="181" y="-364.9" font-family="Times,serif" font-size="14.00">U7) Superviseur</text>
</g>
<!-- U7&#45;&gt;U2 -->
<g id="edge5" class="edge"><title>U7&#45;&gt;U2</title>
<path fill="none" stroke="black" stroke-dasharray="1,5" d="M171,-388C171,-388 172.924,-410.441 174.592,-429.911"/>
<polygon fill="black" stroke="black" points="175.455,-439.973 170.117,-430.394 175.028,-434.992 174.601,-430.01 174.601,-430.01 174.601,-430.01 175.028,-434.992 179.084,-429.625 175.455,-439.973 175.455,-439.973"/>
<text text-anchor="middle" x="185.5" y="-408.9" font-family="Times,serif" font-size="14.00">«E»</text>
</g>
<!-- U7&#45;&gt;U3 -->
<g id="edge7" class="edge"><title>U7&#45;&gt;U3</title>
<path fill="none" stroke="black" stroke-dasharray="1,5" d="M171,-388C171,-388 126.258,-414.319 91.6434,-434.68"/>
<polygon fill="black" stroke="black" points="82.6455,-439.973 88.9832,-431.024 86.9551,-437.438 91.2648,-434.903 91.2648,-434.903 91.2648,-434.903 86.9551,-437.438 93.5464,-438.782 82.6455,-439.973 82.6455,-439.973"/>
<text text-anchor="middle" x="149.5" y="-408.9" font-family="Times,serif" font-size="14.00">«E»</text>
</g>
<!-- U9 -->
<g id="node12" class="node"><title>U9</title>
<polygon fill="none" stroke="black" points="473,-300 293,-300 293,-264 473,-264 473,-300"/>
<text text-anchor="middle" x="383" y="-276.9" font-family="Times,serif" font-size="14.00">U9) Responsable Technique</text>
</g>
<!-- U9&#45;&gt;U6 -->
<g id="edge25" class="edge"><title>U9&#45;&gt;U6</title>
<path fill="none" stroke="black" stroke-dasharray="1,5" d="M383,-300C383,-300 383,-322.441 383,-341.911"/>
<polygon fill="black" stroke="black" points="383,-351.973 378.5,-341.973 383,-346.973 383,-341.973 383,-341.973 383,-341.973 383,-346.973 387.5,-341.973 383,-351.973 383,-351.973"/>
<text text-anchor="middle" x="394.5" y="-320.9" font-family="Times,serif" font-size="14.00">«E»</text>
</g>
<!-- U9&#45;&gt;U7 -->
<g id="edge16" class="edge"><title>U9&#45;&gt;U7</title>
<path fill="none" stroke="black" stroke-dasharray="1,5" d="M383,-300C383,-300 302.126,-328.026 242.724,-348.611"/>
<polygon fill="black" stroke="black" points="233.02,-351.973 240.995,-344.447 237.744,-350.336 242.469,-348.699 242.469,-348.699 242.469,-348.699 237.744,-350.336 243.942,-352.951 233.02,-351.973 233.02,-351.973"/>
<text text-anchor="middle" x="338.5" y="-320.9" font-family="Times,serif" font-size="14.00">«E»</text>
</g>
<!-- U8 -->
<g id="node18" class="node"><title>U8</title>
<polygon fill="none" stroke="black" points="743,-388 549,-388 549,-352 743,-352 743,-388"/>
<text text-anchor="middle" x="646" y="-364.9" font-family="Times,serif" font-size="14.00">U8) Préposé aux Réclamations</text>
</g>
<!-- U9&#45;&gt;U8 -->
<!-- U10 -->
<g id="node13" class="node"><title>U10</title>
<polygon fill="none" stroke="black" points="493,-212 273,-212 273,-176 493,-176 493,-212"/>
<text text-anchor="middle" x="383" y="-188.9" font-family="Times,serif" font-size="14.00">U10) Responsable Service Bagages</text>
</g>
<!-- U10&#45;&gt;U9 -->
<g id="edge15" class="edge"><title>U10&#45;&gt;U9</title>
<path fill="none" stroke="black" stroke-dasharray="1,5" d="M383,-212.234C383,-224.151 383,-239.962 383,-253.518"/>
<polygon fill="black" stroke="black" points="383,-263.79 378.5,-253.79 383,-258.79 383,-253.79 383,-253.79 383,-253.79 383,-258.79 387.5,-253.79 383,-263.79 383,-263.79"/>
<text text-anchor="middle" x="394.5" y="-232.9" font-family="Times,serif" font-size="14.00">«E»</text>
</g>
<!-- U5 -->
<g id="node17" class="node"><title>U5</title>
<polygon fill="none" stroke="black" points="760,-476 656,-476 656,-440 760,-440 760,-476"/>
<text text-anchor="middle" x="708" y="-452.9" font-family="Times,serif" font-size="14.00">U5) Voyageurs</text>
</g>
<!-- U8&#45;&gt;U5 -->
<g id="edge19" class="edge"><title>U8&#45;&gt;U5</title>
<path fill="none" stroke="black" stroke-dasharray="1,5" d="M658.846,-388.234C667.658,-400.741 679.492,-417.537 689.34,-431.514"/>
<polygon fill="black" stroke="black" points="695.17,-439.79 685.732,-434.207 692.29,-435.702 689.41,-431.615 689.41,-431.615 689.41,-431.615 692.29,-435.702 693.089,-429.023 695.17,-439.79 695.17,-439.79"/>
<text text-anchor="middle" x="693.5" y="-408.9" font-family="Times,serif" font-size="14.00">«E»</text>
</g>
<!-- U11 -->
<g id="node20" class="node"><title>U11</title>
<polygon fill="none" stroke="black" points="573,-124 381,-124 381,-88 573,-88 573,-124"/>
<text text-anchor="middle" x="477" y="-100.9" font-family="Times,serif" font-size="14.00">U11) Technicien Informatique</text>
</g>
<!-- U11&#45;&gt;U7 -->
<g id="edge21" class="edge"><title>U11&#45;&gt;U7</title>
<path fill="none" stroke="black" stroke-dasharray="1,5" d="M473,-124C473,-124 300.445,-144.978 264,-176 213.081,-219.342 192.578,-299.504 185.003,-341.946"/>
<polygon fill="black" stroke="black" points="183.345,-351.878 180.553,-341.273 184.168,-346.946 184.992,-342.014 184.992,-342.014 184.992,-342.014 184.168,-346.946 189.43,-342.755 183.345,-351.878 183.345,-351.878"/>
<text text-anchor="middle" x="232.5" y="-232.9" font-family="Times,serif" font-size="14.00">«E»</text>
</g>
<!-- U11&#45;&gt;U10 -->
<g id="edge14" class="edge"><title>U11&#45;&gt;U10</title>
<path fill="none" stroke="black" stroke-dasharray="1,5" d="M473,-124C473,-124 440.304,-149.43 414.326,-169.636"/>
<polygon fill="black" stroke="black" points="406.177,-175.973 411.308,-166.282 410.124,-172.904 414.071,-169.834 414.071,-169.834 414.071,-169.834 410.124,-172.904 416.834,-173.386 406.177,-175.973 406.177,-175.973"/>
<text text-anchor="middle" x="459.5" y="-144.9" font-family="Times,serif" font-size="14.00">«E»</text>
</g>
<!-- U11&#45;&gt;U4 -->
<g id="edge23" class="edge"><title>U11&#45;&gt;U4</title>
<path fill="none" stroke="black" stroke-dasharray="1,5" d="M473,-124C473,-124 521,-156.277 521,-194 521,-194 521,-194 521,-370 521,-391.278 529.563,-413.713 537.965,-430.605"/>
<polygon fill="black" stroke="black" points="542.828,-439.859 534.193,-433.1 540.502,-435.433 538.176,-431.007 538.176,-431.007 538.176,-431.007 540.502,-435.433 542.16,-428.914 542.828,-439.859 542.828,-439.859"/>
<text text-anchor="middle" x="532.5" y="-276.9" font-family="Times,serif" font-size="14.00">«E»</text>
</g>
<!-- U11&#45;&gt;U8 -->
<g id="edge18" class="edge"><title>U11&#45;&gt;U8</title>
<path fill="none" stroke="black" stroke-dasharray="1,5" d="M473,-124C473,-124 524.028,-132.756 535,-142 598.384,-195.403 628.573,-293.566 640.111,-341.775"/>
<polygon fill="black" stroke="black" points="642.416,-351.815 635.793,-343.075 641.297,-346.942 640.179,-342.068 640.179,-342.068 640.179,-342.068 641.297,-346.942 644.565,-341.062 642.416,-351.815 642.416,-351.815"/>
<text text-anchor="middle" x="617.5" y="-232.9" font-family="Times,serif" font-size="14.00">«E»</text>
</g>
<!-- U12 -->
<g id="node21" class="node"><title>U12</title>
<polygon fill="none" stroke="black" points="576,-36 378,-36 378,-1.77636e-14 576,-3.55271e-15 576,-36"/>
<text text-anchor="middle" x="477" y="-12.9" font-family="Times,serif" font-size="14.00">U12) Responsable Informatique</text>
</g>
<!-- U12&#45;&gt;U11 -->
<g id="edge13" class="edge"><title>U12&#45;&gt;U11</title>
<path fill="none" stroke="black" stroke-dasharray="1,5" d="M477,-36.2337C477,-48.1508 477,-63.9616 477,-77.5183"/>
<polygon fill="black" stroke="black" points="477,-87.7897 472.5,-77.7897 477,-82.7897 477,-77.7897 477,-77.7897 477,-77.7897 477,-82.7897 481.5,-77.7897 477,-87.7897 477,-87.7897"/>
<text text-anchor="middle" x="488.5" y="-56.9" font-family="Times,serif" font-size="14.00">«E»</text>
</g>
</g>
</svg>
