<?xml version="1.0" encoding="utf-8"?>
<!-- Generator: Adobe Illustrator 15.0.0, SVG Export Plug-In . SVG Version: 6.00 Build 0)  -->
<!DOCTYPE svg PUBLIC "-//W3C//DTD SVG 1.1//EN" "http://www.w3.org/Graphics/SVG/1.1/DTD/svg11.dtd">
<svg version="1.1" id="Calque_1" xmlns="http://www.w3.org/2000/svg" xmlns:xlink="http://www.w3.org/1999/xlink" x="0px" y="0px"
	 width="1755.176px" height="1095.217px" viewBox="0 0 1755.176 1095.217" enable-background="new 0 0 1755.176 1095.217"
	 xml:space="preserve">
<g>
	<rect x="887.703" y="57.267" fill="none" stroke="#000000" width="104.487" height="32.308"/>
	<rect x="898.408" y="66.242" fill="none" width="83.076" height="14.359"/>
	<text transform="matrix(1 0 0 1 928.9849 74.7622)" font-family="'MyriadPro-Regular'" font-size="12">tous</text>
	<rect x="737.37" y="135.728" fill="none" stroke="#000000" width="104.487" height="32.308"/>
	<rect x="748.075" y="144.703" fill="none" width="83.076" height="14.359"/>
	<text transform="matrix(1 0 0 1 767.6475 153.2222)" font-family="'MyriadPro-Regular'" font-size="12">employé</text>
	<rect x="1578.522" y="138.66" fill="none" stroke="#000000" width="104.487" height="32.309"/>
	<rect x="1589.227" y="147.635" fill="none" width="83.076" height="14.359"/>
	<text transform="matrix(1 0 0 1 1615.1235 156.1548)" font-family="'MyriadPro-Regular'" font-size="12">public</text>
	<g>
		<line fill="none" stroke="#000000" x1="939.947" y1="89.575" x2="939.947" y2="112.651"/>
		<polyline fill="none" stroke="#000000" points="789.613,135.728 789.613,112.651 1630.763,112.651 1630.766,138.66 		"/>
		<polygon fill="#FFFFFF" stroke="#000000" points="939.946,90.575 932.78,98.069 947.113,98.069 		"/>
	</g>
	<g>
		<line fill="none" stroke="#000000" x1="789.613" y1="168.036" x2="789.613" y2="191.112"/>
		<polyline fill="none" stroke="#000000" points="280.215,214.383 280.215,191.306 1475.063,191.306 1475.063,214.382 		"/>
		<polygon fill="#FFFFFF" stroke="#000000" points="789.613,169.036 782.446,176.53 796.78,176.53 		"/>
	</g>
	<rect x="1578.522" y="422.129" fill="none" stroke="#000000" width="104.487" height="32.308"/>
	<rect x="1589.227" y="431.104" fill="none" width="83.076" height="14.358"/>
	<text transform="matrix(1 0 0 1 1604.4019 439.6245)" font-family="'MyriadPro-Regular'" font-size="12">Voyageurs</text>
	<rect x="1578.522" y="478.9" fill="none" stroke="#000000" width="104.487" height="32.307"/>
	<rect x="1589.227" y="481.142" fill="none" width="83.076" height="27.822"/>
	<text transform="matrix(1 0 0 1 1604.4009 489.6636)"><tspan x="0" y="0" font-family="'MyriadPro-Regular'" font-size="12">Voyageurs</tspan><tspan x="-4.793" y="14.399" font-family="'MyriadPro-Regular'" font-size="12">sans bagage</tspan></text>
	<line fill="none" stroke="#000000" x1="1630.767" y1="170.969" x2="1630.767" y2="422.129"/>
	<polygon fill="#FFFFFF" stroke="#000000" points="1630.766,171.969 1623.599,179.463 1637.933,179.463 	"/>
	<line fill="none" stroke="#000000" x1="1630.768" y1="454.513" x2="1630.768" y2="477.591"/>
	<polygon fill="#FFFFFF" stroke="#000000" points="1630.767,455.513 1623.6,463.009 1637.934,463.009 	"/>
	<rect x="227.971" y="214.769" fill="none" stroke="#000000" width="104.487" height="32.308"/>
	<rect x="238.676" y="217.012" fill="none" width="83.076" height="27.821"/>
	<text transform="matrix(1 0 0 1 256.6221 225.5317)"><tspan x="0" y="0" font-family="'MyriadPro-Regular'" font-size="12">Membres </tspan><tspan x="-16.715" y="14.4" font-family="'MyriadPro-Regular'" font-size="12">Service Bagages</tspan></text>
	<rect x="92.638" y="293.19" fill="none" stroke="#000000" width="104.487" height="32.308"/>
	<rect x="103.343" y="302.165" fill="none" width="83.076" height="14.358"/>
	<text transform="matrix(1 0 0 1 117.7144 310.6851)" font-family="'MyriadPro-Regular'" font-size="12">Technicien</text>
	<rect x="363.305" y="293.19" fill="none" stroke="#000000" width="104.487" height="32.308"/>
	<rect x="374.01" y="302.165" fill="none" width="83.076" height="14.358"/>
	<text transform="matrix(1 0 0 1 383.7964 310.6851)" font-family="'MyriadPro-Regular'" font-size="12">Responsable</text>
	<g>
		<line fill="none" stroke="#000000" x1="1359.474" y1="325.678" x2="1359.474" y2="348.754"/>
		<polyline fill="none" stroke="#000000" points="1299.474,371.832 1299.474,348.754 1419.473,348.754 1419.473,371.832 		"/>
		<polygon fill="#FFFFFF" stroke="#000000" points="1359.473,326.678 1352.307,334.172 1366.641,334.172 		"/>
	</g>
	<rect x="1247.23" y="371.832" fill="none" stroke="#000000" width="104.487" height="32.307"/>
	<rect x="1257.934" y="374.074" fill="none" width="83.076" height="27.822"/>
	<text transform="matrix(1 0 0 1 1263.7671 382.5933)"><tspan x="0" y="0" font-family="'MyriadPro-Regular'" font-size="12">Operateurs de </tspan><tspan x="16.632" y="14.399" font-family="'MyriadPro-Regular'" font-size="12">guichet</tspan></text>
	<rect x="1367.23" y="371.832" fill="none" stroke="#000000" width="104.487" height="32.307"/>
	<rect x="1377.935" y="374.074" fill="none" width="83.075" height="27.822"/>
	<text transform="matrix(1 0 0 1 1388.9751 382.5942)"><tspan x="0" y="0" font-family="'MyriadPro-Regular'" font-size="12">Préposé aux </tspan><tspan x="-1.752" y="14.4" font-family="'MyriadPro-Regular'" font-size="12">réclamations</tspan></text>
	<g>
		<line fill="none" stroke="#000000" x1="280.215" y1="247.076" x2="280.215" y2="270.152"/>
		<polyline fill="none" stroke="#000000" points="144.882,293.19 144.882,270.113 415.548,270.113 415.548,293.19 		"/>
		<polygon fill="#FFFFFF" stroke="#000000" points="280.214,248.076 273.048,255.57 287.381,255.57 		"/>
	</g>
	<g>
		<line fill="none" stroke="#000000" x1="144.882" y1="325.498" x2="144.882" y2="348.574"/>
		<polyline fill="none" stroke="#000000" points="84.881,371.652 84.881,348.574 204.881,348.574 204.881,371.652 		"/>
		<polygon fill="#FFFFFF" stroke="#000000" points="144.881,326.498 137.715,333.992 152.048,333.992 		"/>
	</g>
	<rect x="32.638" y="371.652" fill="none" stroke="#000000" width="104.487" height="32.307"/>
	<rect x="169.677" y="380.626" fill="none" width="83.076" height="14.357"/>
	<text transform="matrix(1 0 0 1 181.4731 389.146)" font-family="'MyriadPro-Regular'" font-size="12">Conducteur</text>
	<rect x="152.638" y="371.652" fill="none" stroke="#000000" width="104.487" height="32.307"/>
	<rect x="37.343" y="380.626" fill="none" width="95.743" height="14.357"/>
	<text transform="matrix(1 0 0 1 39.9331 389.146)" font-family="'MyriadPro-Regular'" font-size="12">Manutentionnaire</text>
	<rect x="423.305" y="371.65" fill="none" stroke="#000000" width="104.487" height="32.309"/>
	<rect x="434.011" y="373.894" fill="none" width="83.076" height="27.82"/>
	<text transform="matrix(1 0 0 1 443.7974 382.4146)"><tspan x="0" y="0" font-family="'MyriadPro-Regular'" font-size="12">Responsable </tspan><tspan x="-8.556" y="14.4" font-family="'MyriadPro-Regular'" font-size="12">Service Bagages</tspan></text>
	<rect x="303.304" y="371.65" fill="none" stroke="#000000" width="104.488" height="32.309"/>
	<rect x="314.012" y="373.894" fill="none" width="83.076" height="27.82"/>
	<text transform="matrix(1 0 0 1 323.7983 382.4146)"><tspan x="0" y="0" font-family="'MyriadPro-Regular'" font-size="12">Responsable </tspan><tspan x="6.318" y="14.4" font-family="'MyriadPro-Regular'" font-size="12">technique</tspan></text>
	<g>
		<line fill="none" stroke="#000000" x1="415.549" y1="326.113" x2="415.548" y2="349.189"/>
		<polyline fill="none" stroke="#000000" points="475.548,372.267 475.548,349.189 355.548,349.189 355.548,372.267 		"/>
		<polygon fill="#FFFFFF" stroke="#000000" points="415.548,327.113 408.382,334.607 422.715,334.607 		"/>
	</g>
	<rect x="737.019" y="427.68" fill="none" stroke="#000000" width="104.487" height="32.309"/>
	<rect x="747.724" y="436.655" fill="none" width="83.076" height="14.359"/>
	<text transform="matrix(1 0 0 1 759.6768 445.1753)" font-family="'MyriadPro-Regular'" font-size="12">Superviseur</text>
	<line fill="none" stroke="#000000" x1="789.263" y1="191.758" x2="789.263" y2="427.68"/>
	<path fill="none" stroke="#000000" d="M84.881,403.958c0,40.672,101.538,42.669,101.538,0"/>
	<path fill="none" stroke="#000000" d="M457.086,403.958c0,19.816-101.537,21.814-101.537,0"/>
	<path fill="none" stroke="#000000" d="M494.28,403.958c0,21.724,92,36.178,242.739,39.876"/>
	<rect x="1307.23" y="293.37" fill="none" stroke="#000000" width="104.488" height="32.308"/>
	<rect x="1317.935" y="302.345" fill="none" width="83.076" height="14.358"/>
	<text transform="matrix(1 0 0 1 1332.3062 310.8647)" font-family="'MyriadPro-Regular'" font-size="12">Technicien</text>
	<rect x="1492.268" y="293.37" fill="none" stroke="#000000" width="104.487" height="32.308"/>
	<rect x="1502.973" y="302.345" fill="none" width="83.076" height="14.358"/>
	<text transform="matrix(1 0 0 1 1512.7603 310.8647)" font-family="'MyriadPro-Regular'" font-size="12">Responsable</text>
	<g>
		<line fill="none" stroke="#000000" x1="1476.345" y1="247.256" x2="1476.345" y2="270.332"/>
		<polyline fill="none" stroke="#000000" points="1359.474,293.37 1359.474,270.293 1544.511,270.293 1544.511,293.37 		"/>
		<polygon fill="#FFFFFF" stroke="#000000" points="1476.344,248.256 1469.178,255.75 1483.512,255.75 		"/>
	</g>
	<rect x="1492.268" y="350.064" fill="none" stroke="#000000" width="104.487" height="32.306"/>
	<rect x="1502.973" y="352.307" fill="none" width="83.076" height="27.822"/>
	<text transform="matrix(1 0 0 1 1512.7603 360.8286)"><tspan x="0" y="0" font-family="'MyriadPro-Regular'" font-size="12">Responsable  </tspan><tspan x="-5.61" y="14.4" font-family="'MyriadPro-Regular'" font-size="12">Service Accueil</tspan></text>
	<line fill="none" stroke="#000000" x1="1544.514" y1="325.678" x2="1544.514" y2="348.756"/>
	<polygon fill="#FFFFFF" stroke="#000000" points="1544.513,326.678 1537.346,334.174 1551.68,334.174 	"/>
	<path fill="none" stroke="#000000" d="M1418.371,404.691c0,22.344,42.64,33.593,160.151,33.593"/>
	<path fill="none" stroke="#000000" d="M1299.474,404.691c0,59.013,31.09,90.362,279.048,90.362"/>
	<path fill="none" stroke="#000000" d="M841.506,450.424c162.605,1.114,703.008-19.856,703.008-68.054"/>
	<text transform="matrix(1 0 0 1 1411.3345 511.8003)" font-family="'MyriadPro-Regular'" font-size="12">Accueil</text>
	<text transform="matrix(1 0 0 1 1411.3315 450.3687)" font-family="'MyriadPro-Regular'" font-size="12">Accueil</text>
	<text transform="matrix(1 0 0 1 855.4922 463.4683)" font-family="'MyriadPro-Regular'" font-size="12">Dirige</text>
	<path fill="none" stroke="#000000" d="M227.971,404.691c0,27.045,183.398,46.544,509.398,46.323"/>
	<text transform="matrix(1 0 0 1 122.5898 450.1528)" font-family="'MyriadPro-Regular'" font-size="12">Dirige</text>
	<text transform="matrix(1 0 0 1 565.9111 426.0054)" font-family="'MyriadPro-Regular'" font-size="12">Dirige</text>
	<text transform="matrix(1 0 0 1 693.4834 460.4683)" font-family="'MyriadPro-Regular'" font-size="12">Dirige</text>
	<text transform="matrix(1 0 0 1 391.1914 431.6655)" font-family="'MyriadPro-Regular'" font-size="12">Dirige</text>
	<rect x="874.28" y="214.19" fill="none" stroke="#000000" width="104.487" height="32.307"/>
	<rect x="880.114" y="216.626" fill="none" width="92.819" height="27.822"/>
	<text transform="matrix(1 0 0 1 883.75 225.1465)"><tspan x="0" y="0" font-family="'MyriadPro-Regular'" font-size="12">Membres Service </tspan><tspan x="10.086" y="14.4" font-family="'MyriadPro-Regular'" font-size="12">Maintenance</tspan></text>
	<line fill="none" stroke="#000000" x1="926.524" y1="191.113" x2="926.524" y2="214.189"/>
	<rect x="1422.819" y="214.191" fill="none" stroke="#000000" width="104.487" height="32.307"/>
	<rect x="1433.524" y="216.433" fill="none" width="83.076" height="27.822"/>
	<text transform="matrix(1 0 0 1 1451.4702 224.9546)"><tspan x="0" y="0" font-family="'MyriadPro-Regular'" font-size="12">Membres </tspan><tspan x="-13.77" y="14.4" font-family="'MyriadPro-Regular'" font-size="12">Service Accueil</tspan></text>
	<g>
		<line fill="none" stroke="#000000" x1="926.524" y1="247.077" x2="926.524" y2="270.153"/>
		<polyline fill="none" stroke="#000000" points="866.523,293.23 866.523,270.153 986.523,270.153 986.523,293.23 		"/>
		<polygon fill="#FFFFFF" stroke="#000000" points="926.523,248.077 919.357,255.571 933.69,255.571 		"/>
	</g>
	<rect x="814.28" y="293.23" fill="none" stroke="#000000" width="104.487" height="32.307"/>
	<rect x="951.319" y="302.205" fill="none" width="83.076" height="14.357"/>
	<text transform="matrix(1 0 0 1 961.1055 310.7246)" font-family="'MyriadPro-Regular'" font-size="12">Responsable</text>
	<rect x="934.28" y="293.23" fill="none" stroke="#000000" width="104.487" height="32.307"/>
	<rect x="818.985" y="302.205" fill="none" width="95.743" height="14.357"/>
	<text transform="matrix(1 0 0 1 839.689 310.7246)" font-family="'MyriadPro-Regular'" font-size="12">Technicien</text>
	<path fill="none" stroke="#000000" d="M875.754,326.092c0,40.672,101.538,42.669,101.538,0"/>
	<text transform="matrix(1 0 0 1 913.4629 372.2866)" font-family="'MyriadPro-Regular'" font-size="12">Dirige</text>
	<rect x="1120.28" y="214.182" fill="none" stroke="#000000" width="104.488" height="32.307"/>
	<rect x="1126.114" y="216.618" fill="none" width="92.819" height="27.822"/>
	<text transform="matrix(1 0 0 1 1129.7505 225.1377)"><tspan x="0" y="0" font-family="'MyriadPro-Regular'" font-size="12">Membres Service </tspan><tspan x="10.025" y="14.4" font-family="'MyriadPro-Regular'" font-size="12">Informatique</tspan></text>
	<line fill="none" stroke="#000000" x1="1172.524" y1="191.105" x2="1172.524" y2="214.181"/>
	<g>
		<line fill="none" stroke="#000000" x1="1172.524" y1="247.068" x2="1172.524" y2="270.145"/>
		<polyline fill="none" stroke="#000000" points="1112.524,293.222 1112.524,270.145 1232.524,270.145 1232.524,293.222 		"/>
		<polygon fill="#FFFFFF" stroke="#000000" points="1172.524,248.068 1165.357,255.562 1179.69,255.562 		"/>
	</g>
	<rect x="1060.28" y="293.222" fill="none" stroke="#000000" width="104.487" height="32.307"/>
	<rect x="1197.319" y="302.197" fill="none" width="83.076" height="14.357"/>
	<text transform="matrix(1 0 0 1 1207.106 310.7168)" font-family="'MyriadPro-Regular'" font-size="12">Responsable</text>
	<rect x="1180.28" y="293.222" fill="none" stroke="#000000" width="104.487" height="32.307"/>
	<rect x="1064.985" y="302.197" fill="none" width="95.743" height="14.357"/>
	<text transform="matrix(1 0 0 1 1085.689 310.7168)" font-family="'MyriadPro-Regular'" font-size="12">Technicien</text>
	<path fill="none" stroke="#000000" d="M1121.754,326.084c0,40.672,101.538,42.668,101.538,0"/>
	<text transform="matrix(1 0 0 1 1159.4634 372.2778)" font-family="'MyriadPro-Regular'" font-size="12">Dirige</text>
	<rect x="595.96" y="214.182" fill="none" stroke="#000000" width="104.487" height="32.307"/>
	<rect x="601.793" y="216.618" fill="none" width="92.819" height="27.822"/>
	<text transform="matrix(1 0 0 1 605.4297 225.1377)"><tspan x="0" y="0" font-family="'MyriadPro-Regular'" font-size="12">Membres Service </tspan><tspan x="22.458" y="14.4" font-family="'MyriadPro-Regular'" font-size="12">Sécurité</tspan></text>
	<line fill="none" stroke="#000000" x1="648.204" y1="191.105" x2="648.204" y2="214.181"/>
	<g>
		<line fill="none" stroke="#000000" x1="648.204" y1="247.068" x2="648.204" y2="270.145"/>
		<polyline fill="none" stroke="#000000" points="588.203,293.222 588.203,270.145 708.203,270.145 708.203,293.222 		"/>
		<polygon fill="#FFFFFF" stroke="#000000" points="648.203,248.068 641.037,255.562 655.37,255.562 		"/>
	</g>
	<rect x="535.959" y="293.222" fill="none" stroke="#000000" width="104.487" height="32.307"/>
	<rect x="672.999" y="302.197" fill="none" width="83.076" height="14.357"/>
	<text transform="matrix(1 0 0 1 682.7852 310.7168)" font-family="'MyriadPro-Regular'" font-size="12">Responsable</text>
	<rect x="655.959" y="293.222" fill="none" stroke="#000000" width="104.487" height="32.307"/>
	<rect x="540.665" y="302.197" fill="none" width="95.743" height="14.357"/>
	<text transform="matrix(1 0 0 1 561.3691 310.7168)" font-family="'MyriadPro-Regular'" font-size="12">Technicien</text>
	<path fill="none" stroke="#000000" d="M597.434,381.594c0,23.786,101.538,25.782,101.538,0"/>
	<text transform="matrix(1 0 0 1 635.1426 410.9019)" font-family="'MyriadPro-Regular'" font-size="12">Dirige</text>
	<rect x="535.959" y="349.734" fill="none" stroke="#000000" width="104.487" height="32.307"/>
	<rect x="546.665" y="358.709" fill="none" width="83.076" height="14.359"/>
	<text transform="matrix(1 0 0 1 561.167 367.229)" font-family="'MyriadPro-Regular'" font-size="12">Contrôleur</text>
	<line fill="none" stroke="#000000" x1="588.203" y1="326.658" x2="588.203" y2="349.734"/>
	<polygon fill="#FFFFFF" stroke="#000000" points="588.203,326.658 581.037,334.152 595.371,334.152 	"/>
	<line fill="none" stroke="#000000" x1="708.202" y1="326.658" x2="708.202" y2="349.734"/>
	<polygon fill="#FFFFFF" stroke="#000000" points="708.202,326.658 701.036,334.152 715.37,334.152 	"/>
	<rect x="655.958" y="349.734" fill="none" stroke="#000000" width="104.487" height="32.307"/>
	<rect x="666.664" y="351.978" fill="none" width="83.076" height="27.822"/>
	<text transform="matrix(1 0 0 1 676.4497 360.4976)"><tspan x="0" y="0" font-family="'MyriadPro-Regular'" font-size="12">Résponsable </tspan><tspan x="12.018" y="14.399" font-family="'MyriadPro-Regular'" font-size="12">sécurité</tspan></text>
	<path fill="none" stroke="#000000" d="M737.019,436.655c-12.739-0.448-21.559-31.131-21.649-54.284"/>
	<text transform="matrix(1 0 0 1 722.2441 410.3813)" font-family="'MyriadPro-Regular'" font-size="12">Dirige</text>
	<path fill="none" stroke="#000000" d="M1004.28,326.092c0,95.875-99,110.125-162.774,110.562"/>
	<path fill="none" stroke="#000000" d="M841.857,443.834c258.423,0,397-35.316,397-117.742"/>
	<text transform="matrix(1 0 0 1 989.1543 427.6802)" font-family="'MyriadPro-Regular'" font-size="12">Dirige</text>
</g>
<g>
	<rect x="1050.591" y="713.032" fill="none" stroke="#000000" width="104.488" height="32.307"/>
	<rect x="1061.296" y="715.274" fill="none" width="83.076" height="27.822"/>
	<text transform="matrix(1 0 0 1 1065.8521 723.7935)"><tspan x="0" y="0" font-family="'MyriadPro-Regular'" font-size="12">U4) Operateurs </tspan><tspan x="10.247" y="14.4" font-family="'MyriadPro-Regular'" font-size="12">de guichet</tspan></text>
	<rect x="1212.842" y="768.417" fill="none" stroke="#000000" width="104.487" height="32.307"/>
	<rect x="1223.547" y="770.659" fill="none" width="83.075" height="27.822"/>
	<text transform="matrix(1 0 0 1 1225.7622 779.1802)"><tspan x="0" y="0" font-family="'MyriadPro-Regular'" font-size="12">U8) Préposé aux </tspan><tspan x="7.074" y="14.399" font-family="'MyriadPro-Regular'" font-size="12">réclamations</tspan></text>
	<rect x="1212.842" y="713.03" fill="none" stroke="#000000" width="104.487" height="32.308"/>
	<rect x="1223.547" y="722.004" fill="none" width="83.076" height="14.358"/>
	<text transform="matrix(1 0 0 1 1230.0161 730.5239)" font-family="'MyriadPro-Regular'" font-size="12">U5) Voyageurs</text>
	<rect x="812.622" y="768.416" fill="none" stroke="#000000" width="104.487" height="32.309"/>
	<rect x="823.327" y="777.39" fill="none" width="83.076" height="14.359"/>
	<text transform="matrix(1 0 0 1 826.6582 785.9106)" font-family="'MyriadPro-Regular'" font-size="12">U7) Superviseur</text>
	<rect x="576.537" y="879.187" fill="none" stroke="#000000" width="104.487" height="32.309"/>
	<rect x="587.243" y="881.431" fill="none" width="83.076" height="27.82"/>
	<text transform="matrix(1 0 0 1 597.9536 889.9517)"><tspan x="0" y="0" font-family="'MyriadPro-Regular'" font-size="12">U10) Respon</tspan><tspan x="57.971" y="0" font-family="'MyriadPro-Regular'" font-size="12">-</tspan><tspan x="-1.458" y="14.4" font-family="'MyriadPro-Regular'" font-size="12">sable Service</tspan></text>
	<rect x="576.543" y="823.801" fill="none" stroke="#000000" width="104.488" height="32.309"/>
	<rect x="587.25" y="826.045" fill="none" width="83.076" height="27.82"/>
	<text transform="matrix(1 0 0 1 588.2173 834.5659)"><tspan x="0" y="0" font-family="'MyriadPro-Regular'" font-size="12">U9) Responsable </tspan><tspan x="15.138" y="14.399" font-family="'MyriadPro-Regular'" font-size="12">technique</tspan></text>
	<rect x="750.562" y="722.005" fill="none" width="83.076" height="14.357"/>
	<text transform="matrix(1 0 0 1 753.6348 730.5259)" font-family="'MyriadPro-Regular'" font-size="12">U2) Conducteur</text>
	<rect x="733.523" y="713.031" fill="none" stroke="#000000" width="104.487" height="32.307"/>
	<rect x="888.947" y="713.031" fill="none" stroke="#000000" width="104.487" height="32.308"/>
	<rect x="899.652" y="722.005" fill="none" width="83.076" height="14.358"/>
	<text transform="matrix(1 0 0 1 905.4673 730.5259)" font-family="'MyriadPro-Regular'" font-size="12">U3) Contrôleur</text>
	<g>
		<line fill="none" stroke="#000000" stroke-dasharray="2" x1="864.867" y1="976.848" x2="864.867" y2="999.926"/>
		<polyline fill="none" stroke="#000000" points="872.033,985.344 864.866,977.848 857.699,985.344 		"/>
	</g>
	<rect x="812.622" y="944.542" fill="none" stroke="#000000" width="104.488" height="32.307"/>
	<rect x="823.327" y="946.784" fill="none" width="83.076" height="27.822"/>
	<text transform="matrix(1 0 0 1 827.9116 955.3032)"><tspan x="0" y="0" font-family="'MyriadPro-Regular'" font-size="12">U11) Technicien </tspan><tspan x="4.236" y="14.4" font-family="'MyriadPro-Regular'" font-size="12">informatique</tspan></text>
	<rect x="812.621" y="1000.169" fill="none" stroke="#000000" width="104.488" height="32.307"/>
	<rect x="823.326" y="1002.412" fill="none" width="83.076" height="27.822"/>
	<text transform="matrix(1 0 0 1 834.1865 1010.9321)"><tspan x="0" y="0" font-family="'MyriadPro-Regular'" font-size="12">U12) Respon</tspan><tspan x="57.67" y="0" font-family="'MyriadPro-Regular'" font-size="12">-</tspan><tspan x="-5.178" y="14.399" font-family="'MyriadPro-Regular'" font-size="12">sable informa</tspan><tspan x="62.849" y="14.399" font-family="'MyriadPro-Regular'" font-size="12">-</tspan></text>
	<rect x="576.539" y="713.03" fill="none" stroke="#000000" width="104.488" height="32.309"/>
	<rect x="587.246" y="715.274" fill="none" width="83.076" height="27.82"/>
	<text transform="matrix(1 0 0 1 593.2949 723.7944)"><tspan x="0" y="0" font-family="'MyriadPro-Regular'" font-size="12">U1) Technicien </tspan><tspan x="2.802" y="14.399" font-family="'MyriadPro-Regular'" font-size="12">Maintenance</tspan></text>
	<rect x="576.54" y="768.416" fill="none" stroke="#000000" width="104.488" height="32.309"/>
	<rect x="579.449" y="770.66" fill="none" width="98.664" height="27.82"/>
	<text transform="matrix(1 0 0 1 588.1792 779.1802)"><tspan x="0" y="0" font-family="'MyriadPro-Regular'" font-size="12">U6) Responsable </tspan><tspan x="7.914" y="14.399" font-family="'MyriadPro-Regular'" font-size="12">Maintenance</tspan></text>
	<g>
		<line fill="none" stroke="#000000" stroke-dasharray="2" x1="628.782" y1="745.338" x2="628.782" y2="768.417"/>
		<polyline fill="none" stroke="#000000" points="635.948,753.834 628.781,746.338 621.614,753.834 		"/>
	</g>
	<g>
		<line fill="none" stroke="#000000" stroke-dasharray="2" x1="628.787" y1="800.158" x2="628.787" y2="823.236"/>
		<polyline fill="none" stroke="#000000" points="635.953,808.654 628.786,801.158 621.619,808.654 		"/>
	</g>
	<g>
		<line fill="none" stroke="#000000" stroke-dasharray="2" x1="628.782" y1="856.11" x2="628.782" y2="879.188"/>
		<polyline fill="none" stroke="#000000" points="635.948,864.606 628.781,857.11 621.614,864.606 		"/>
	</g>
	<g>
		<line fill="none" stroke="#000000" stroke-dasharray="2" x1="1265.086" y1="745.338" x2="1265.086" y2="768.417"/>
		<polyline fill="none" stroke="#000000" points="1272.252,753.834 1265.085,746.338 1257.918,753.834 		"/>
	</g>
	<g>
		<line fill="none" stroke="#000000" stroke-dasharray="2" x1="823.327" y1="745.338" x2="823.327" y2="768.417"/>
		<polyline fill="none" stroke="#000000" points="830.493,753.834 823.326,746.338 816.159,753.834 		"/>
	</g>
	<g>
		<line fill="none" stroke="#000000" stroke-dasharray="2" x1="906.403" y1="745.338" x2="906.403" y2="768.417"/>
		<polyline fill="none" stroke="#000000" points="913.569,753.834 906.402,746.338 899.235,753.834 		"/>
	</g>
	<g>
		<line fill="none" stroke="#000000" stroke-dasharray="2" x1="864.869" y1="800.658" x2="864.868" y2="944.542"/>
		<polyline fill="none" stroke="#000000" points="872.035,809.154 864.868,801.658 857.701,809.154 		"/>
	</g>
	<line fill="none" stroke="#000000" stroke-dasharray="2" x1="1109.162" y1="745.22" x2="888.947" y2="944.542"/>
	<polyline fill="none" stroke="#000000" points="1107.761,756.752 1108.978,746.454 1098.635,745.7 	"/>
	<g>
		<line fill="none" stroke="#000000" stroke-dasharray="2" x1="681.694" y1="892.889" x2="838.01" y2="944.542"/>
		<polyline fill="none" stroke="#000000" points="691.9,888.488 682.652,893.18 687.755,902.208 		"/>
	</g>
	<line fill="none" stroke="#000000" stroke-dasharray="2" x1="1212.842" y1="785.524" x2="915.011" y2="941.598"/>
	<polyline fill="none" stroke="#000000" points="1209.705,795.33 1212.72,785.406 1202.672,782.838 	"/>
	<text transform="matrix(1 0 0 1 641.0908 760.8774)" font-family="'MyriadPro-Regular'" font-size="12">«E»</text>
	<text transform="matrix(1 0 0 1 641.0908 818.5269)" font-family="'MyriadPro-Regular'" font-size="12">«E»</text>
	<text transform="matrix(1 0 0 1 641.0908 872.6001)" font-family="'MyriadPro-Regular'" font-size="12">«E»</text>
	<text transform="matrix(1 0 0 1 916.4585 763.8774)" font-family="'MyriadPro-Regular'" font-size="12">«E»</text>
	<text transform="matrix(1 0 0 1 830.0303 763.8774)" font-family="'MyriadPro-Regular'" font-size="12">«E»</text>
	<text transform="matrix(1 0 0 1 765.8521 911.4956)" font-family="'MyriadPro-Regular'" font-size="12">«E»</text>
	<text transform="matrix(1 0 0 1 872.9873 888.4878)" font-family="'MyriadPro-Regular'" font-size="12">«E»</text>
	<text transform="matrix(1 0 0 1 985.4546 875.6001)" font-family="'MyriadPro-Regular'" font-size="12">«E»</text>
	<text transform="matrix(1 0 0 1 1032.1646 895.3481)" font-family="'MyriadPro-Regular'" font-size="12">«E»</text>
	<text transform="matrix(1 0 0 1 1274.2485 763.8774)" font-family="'MyriadPro-Regular'" font-size="12">«E»</text>
</g>
</svg>
