<?xml version="1.0" encoding="utf-8"?>
<!-- Generator: Adobe Illustrator 15.0.0, SVG Export Plug-In . SVG Version: 6.00 Build 0)  -->
<!DOCTYPE svg PUBLIC "-//W3C//DTD SVG 1.1//EN" "http://www.w3.org/Graphics/SVG/1.1/DTD/svg11.dtd">
<svg version="1.1" id="Calque_1" xmlns="http://www.w3.org/2000/svg" xmlns:xlink="http://www.w3.org/1999/xlink" x="0px" y="0px"
	 width="821px" height="424.108px" viewBox="526.088 671.108 821 424.108" enable-background="new 526.088 671.108 821 424.108"
	 xml:space="preserve">
<g display="none">
	<rect x="887.702" y="57.267" display="inline" fill="none" stroke="#000000" width="104.487" height="32.308"/>
	<rect x="898.407" y="66.242" display="inline" fill="none" width="83.076" height="14.359"/>
	<text transform="matrix(1 0 0 1 928.9846 74.7617)" display="inline" font-family="'MyriadPro-Regular'" font-size="12">tous</text>
	<rect x="737.369" y="135.728" display="inline" fill="none" stroke="#000000" width="104.487" height="32.308"/>
	<rect x="748.074" y="144.703" display="inline" fill="none" width="83.076" height="14.359"/>
	<text transform="matrix(1 0 0 1 767.6472 153.2227)" display="inline" font-family="'MyriadPro-Regular'" font-size="12">employé</text>
	<rect x="1578.522" y="138.66" display="inline" fill="none" stroke="#000000" width="104.487" height="32.309"/>
	<rect x="1589.227" y="147.635" display="inline" fill="none" width="83.076" height="14.359"/>
	<text transform="matrix(1 0 0 1 1615.1233 156.1543)" display="inline" font-family="'MyriadPro-Regular'" font-size="12">public</text>
	<g display="inline">
		<line fill="none" stroke="#000000" x1="939.947" y1="89.575" x2="939.947" y2="112.651"/>
		<polyline fill="none" stroke="#000000" points="789.613,135.728 789.613,112.651 1630.763,112.651 1630.766,138.66 		"/>
		<polygon fill="#FFFFFF" stroke="#000000" points="939.946,90.575 932.78,98.069 947.113,98.069 		"/>
	</g>
	<g display="inline">
		<line fill="none" stroke="#000000" x1="789.613" y1="168.036" x2="789.613" y2="191.112"/>
		<polyline fill="none" stroke="#000000" points="280.215,214.383 280.215,191.306 1475.063,191.306 1475.063,214.382 		"/>
		<polygon fill="#FFFFFF" stroke="#000000" points="789.613,169.036 782.446,176.53 796.78,176.53 		"/>
	</g>
	<rect x="1578.522" y="422.129" display="inline" fill="none" stroke="#000000" width="104.487" height="32.309"/>
	<rect x="1589.227" y="431.104" display="inline" fill="none" width="83.076" height="14.358"/>
	<text transform="matrix(1 0 0 1 1604.4016 439.625)" display="inline" font-family="'MyriadPro-Regular'" font-size="12">Voyageurs</text>
	<rect x="1578.522" y="478.9" display="inline" fill="none" stroke="#000000" width="104.487" height="32.307"/>
	<rect x="1589.227" y="481.142" display="inline" fill="none" width="83.076" height="27.822"/>
	<text transform="matrix(1 0 0 1 1604.4006 489.6641)" display="inline" font-family="'MyriadPro-Regular'" font-size="12">Voyageurs</text>
	<text transform="matrix(1 0 0 1 1599.6077 504.0625)" display="inline" font-family="'MyriadPro-Regular'" font-size="12">sans bagage</text>
	<line display="inline" fill="none" stroke="#000000" x1="1630.767" y1="170.969" x2="1630.767" y2="422.129"/>
	<polygon display="inline" fill="#FFFFFF" stroke="#000000" points="1630.766,171.969 1623.599,179.463 1637.933,179.463 	"/>
	<line display="inline" fill="none" stroke="#000000" x1="1630.768" y1="454.513" x2="1630.768" y2="477.591"/>
	<polygon display="inline" fill="#FFFFFF" stroke="#000000" points="1630.767,455.513 1623.6,463.009 1637.934,463.009 	"/>
	<rect x="227.971" y="214.769" display="inline" fill="none" stroke="#000000" width="104.486" height="32.308"/>
	<rect x="238.676" y="217.012" display="inline" fill="none" width="83.076" height="27.821"/>
	<text transform="matrix(1 0 0 1 256.6218 225.5312)" display="inline" font-family="'MyriadPro-Regular'" font-size="12">Membres </text>
	<text transform="matrix(1 0 0 1 239.907 239.9316)" display="inline" font-family="'MyriadPro-Regular'" font-size="12">Service Bagages</text>
	<rect x="92.638" y="293.19" display="inline" fill="none" stroke="#000000" width="104.487" height="32.308"/>
	<rect x="103.343" y="302.165" display="inline" fill="none" width="83.076" height="14.358"/>
	<text transform="matrix(1 0 0 1 117.7141 310.6855)" display="inline" font-family="'MyriadPro-Regular'" font-size="12">Technicien</text>
	<rect x="363.305" y="293.19" display="inline" fill="none" stroke="#000000" width="104.486" height="32.308"/>
	<rect x="374.01" y="302.165" display="inline" fill="none" width="83.076" height="14.358"/>
	<text transform="matrix(1 0 0 1 383.7961 310.6855)" display="inline" font-family="'MyriadPro-Regular'" font-size="12">Responsable</text>
	<g display="inline">
		<line fill="none" stroke="#000000" x1="1359.474" y1="325.678" x2="1359.474" y2="348.754"/>
		<polyline fill="none" stroke="#000000" points="1299.474,371.832 1299.474,348.754 1419.473,348.754 1419.473,371.832 		"/>
		<polygon fill="#FFFFFF" stroke="#000000" points="1359.473,326.678 1352.307,334.172 1366.641,334.172 		"/>
	</g>
	<rect x="1247.23" y="371.832" display="inline" fill="none" stroke="#000000" width="104.487" height="32.307"/>
	<rect x="1257.934" y="374.074" display="inline" fill="none" width="83.076" height="27.822"/>
	<text transform="matrix(1 0 0 1 1263.7668 382.5938)" display="inline" font-family="'MyriadPro-Regular'" font-size="12">Operateurs de </text>
	<text transform="matrix(1 0 0 1 1280.3987 396.9922)" display="inline" font-family="'MyriadPro-Regular'" font-size="12">guichet</text>
	<rect x="1367.23" y="371.832" display="inline" fill="none" stroke="#000000" width="104.487" height="32.307"/>
	<rect x="1377.935" y="374.074" display="inline" fill="none" width="83.075" height="27.822"/>
	<text transform="matrix(1 0 0 1 1388.9749 382.5938)" display="inline" font-family="'MyriadPro-Regular'" font-size="12">Préposé aux </text>
	<text transform="matrix(1 0 0 1 1387.2229 396.9941)" display="inline" font-family="'MyriadPro-Regular'" font-size="12">réclamations</text>
	<g display="inline">
		<line fill="none" stroke="#000000" x1="280.215" y1="247.076" x2="280.215" y2="270.152"/>
		<polyline fill="none" stroke="#000000" points="144.882,293.19 144.882,270.113 415.548,270.113 415.548,293.19 		"/>
		<polygon fill="#FFFFFF" stroke="#000000" points="280.214,248.076 273.048,255.57 287.381,255.57 		"/>
	</g>
	<g display="inline">
		<line fill="none" stroke="#000000" x1="144.882" y1="325.498" x2="144.882" y2="348.574"/>
		<polyline fill="none" stroke="#000000" points="84.881,371.652 84.881,348.574 204.881,348.574 204.881,371.652 		"/>
		<polygon fill="#FFFFFF" stroke="#000000" points="144.881,326.498 137.715,333.992 152.048,333.992 		"/>
	</g>
	<rect x="32.638" y="371.652" display="inline" fill="none" stroke="#000000" width="104.487" height="32.307"/>
	<rect x="169.677" y="380.626" display="inline" fill="none" width="83.076" height="14.357"/>
	<text transform="matrix(1 0 0 1 181.4729 389.1465)" display="inline" font-family="'MyriadPro-Regular'" font-size="12">Conducteur</text>
	<rect x="152.638" y="371.652" display="inline" fill="none" stroke="#000000" width="104.487" height="32.307"/>
	<rect x="37.343" y="380.626" display="inline" fill="none" width="95.743" height="14.357"/>
	<text transform="matrix(1 0 0 1 39.9329 389.1465)" display="inline" font-family="'MyriadPro-Regular'" font-size="12">Manutentionnaire</text>
	<rect x="423.305" y="371.65" display="inline" fill="none" stroke="#000000" width="104.486" height="32.309"/>
	<rect x="434.011" y="373.894" display="inline" fill="none" width="83.076" height="27.82"/>
	<text transform="matrix(1 0 0 1 443.7971 382.415)" display="inline" font-family="'MyriadPro-Regular'" font-size="12">Responsable </text>
	<text transform="matrix(1 0 0 1 435.241 396.8145)" display="inline" font-family="'MyriadPro-Regular'" font-size="12">Service Bagages</text>
	<rect x="303.304" y="371.65" display="inline" fill="none" stroke="#000000" width="104.487" height="32.309"/>
	<rect x="314.012" y="373.894" display="inline" fill="none" width="83.076" height="27.82"/>
	<text transform="matrix(1 0 0 1 323.7981 382.415)" display="inline" font-family="'MyriadPro-Regular'" font-size="12">Responsable </text>
	<text transform="matrix(1 0 0 1 330.116 396.8145)" display="inline" font-family="'MyriadPro-Regular'" font-size="12">technique</text>
	<g display="inline">
		<line fill="none" stroke="#000000" x1="415.549" y1="326.113" x2="415.548" y2="349.189"/>
		<polyline fill="none" stroke="#000000" points="475.548,372.267 475.548,349.189 355.548,349.189 355.548,372.267 		"/>
		<polygon fill="#FFFFFF" stroke="#000000" points="415.548,327.113 408.382,334.607 422.715,334.607 		"/>
	</g>
	<rect x="737.019" y="427.68" display="inline" fill="none" stroke="#000000" width="104.487" height="32.31"/>
	<rect x="747.724" y="436.655" display="inline" fill="none" width="83.076" height="14.358"/>
	<text transform="matrix(1 0 0 1 759.6765 445.1758)" display="inline" font-family="'MyriadPro-Regular'" font-size="12">Superviseur</text>
	<line display="inline" fill="none" stroke="#000000" x1="789.263" y1="191.758" x2="789.263" y2="427.68"/>
	<path display="inline" fill="none" stroke="#000000" d="M84.881,403.958c0,40.672,101.538,42.669,101.538,0"/>
	<path display="inline" fill="none" stroke="#000000" d="M457.086,403.958c0,19.816-101.537,21.814-101.537,0"/>
	<path display="inline" fill="none" stroke="#000000" d="M494.28,403.958c0,21.724,92,36.178,242.739,39.876"/>
	<rect x="1307.23" y="293.37" display="inline" fill="none" stroke="#000000" width="104.488" height="32.308"/>
	<rect x="1317.935" y="302.345" display="inline" fill="none" width="83.076" height="14.358"/>
	<text transform="matrix(1 0 0 1 1332.3059 310.8643)" display="inline" font-family="'MyriadPro-Regular'" font-size="12">Technicien</text>
	<rect x="1492.268" y="293.37" display="inline" fill="none" stroke="#000000" width="104.486" height="32.308"/>
	<rect x="1502.973" y="302.345" display="inline" fill="none" width="83.076" height="14.358"/>
	<text transform="matrix(1 0 0 1 1512.76 310.8643)" display="inline" font-family="'MyriadPro-Regular'" font-size="12">Responsable</text>
	<g display="inline">
		<line fill="none" stroke="#000000" x1="1476.345" y1="247.256" x2="1476.345" y2="270.332"/>
		<polyline fill="none" stroke="#000000" points="1359.474,293.37 1359.474,270.293 1544.511,270.293 1544.511,293.37 		"/>
		<polygon fill="#FFFFFF" stroke="#000000" points="1476.344,248.256 1469.178,255.75 1483.512,255.75 		"/>
	</g>
	<rect x="1492.268" y="350.064" display="inline" fill="none" stroke="#000000" width="104.486" height="32.306"/>
	<rect x="1502.973" y="352.307" display="inline" fill="none" width="83.076" height="27.822"/>
	<text transform="matrix(1 0 0 1 1512.76 360.8281)" display="inline" font-family="'MyriadPro-Regular'" font-size="12">Responsable  </text>
	<text transform="matrix(1 0 0 1 1507.1506 375.2285)" display="inline" font-family="'MyriadPro-Regular'" font-size="12">Service Accueil</text>
	<line display="inline" fill="none" stroke="#000000" x1="1544.514" y1="325.678" x2="1544.514" y2="348.756"/>
	<polygon display="inline" fill="#FFFFFF" stroke="#000000" points="1544.513,326.678 1537.346,334.174 1551.68,334.174 	"/>
	<path display="inline" fill="none" stroke="#000000" d="M1418.37,404.691c0,22.344,42.641,33.593,160.151,33.593"/>
	<path display="inline" fill="none" stroke="#000000" d="M1299.474,404.691c0,59.013,31.09,90.362,279.048,90.362"/>
	<path display="inline" fill="none" stroke="#000000" d="M841.506,450.424c162.604,1.114,703.008-19.855,703.008-68.054"/>
	<text transform="matrix(1 0 0 1 1411.3342 511.8008)" display="inline" font-family="'MyriadPro-Regular'" font-size="12">Accueil</text>
	<text transform="matrix(1 0 0 1 1411.3313 450.3691)" display="inline" font-family="'MyriadPro-Regular'" font-size="12">Accueil</text>
	<text transform="matrix(1 0 0 1 855.4919 463.4688)" display="inline" font-family="'MyriadPro-Regular'" font-size="12">Dirige</text>
	<path display="inline" fill="none" stroke="#000000" d="M227.971,404.691c0,27.045,183.397,46.544,509.397,46.323"/>
	<text transform="matrix(1 0 0 1 122.5896 450.1523)" display="inline" font-family="'MyriadPro-Regular'" font-size="12">Dirige</text>
	<text transform="matrix(1 0 0 1 565.9109 426.0059)" display="inline" font-family="'MyriadPro-Regular'" font-size="12">Dirige</text>
	<text transform="matrix(1 0 0 1 693.4832 460.4688)" display="inline" font-family="'MyriadPro-Regular'" font-size="12">Dirige</text>
	<text transform="matrix(1 0 0 1 391.1912 431.665)" display="inline" font-family="'MyriadPro-Regular'" font-size="12">Dirige</text>
	<rect x="874.28" y="214.19" display="inline" fill="none" stroke="#000000" width="104.487" height="32.307"/>
	<rect x="880.114" y="216.626" display="inline" fill="none" width="92.819" height="27.822"/>
	<text transform="matrix(1 0 0 1 883.7502 225.1465)" display="inline" font-family="'MyriadPro-Regular'" font-size="12">Membres Service </text>
	<text transform="matrix(1 0 0 1 893.8362 239.5469)" display="inline" font-family="'MyriadPro-Regular'" font-size="12">Maintenance</text>
	<line display="inline" fill="none" stroke="#000000" x1="926.524" y1="191.113" x2="926.524" y2="214.189"/>
	<rect x="1422.819" y="214.191" display="inline" fill="none" stroke="#000000" width="104.487" height="32.307"/>
	<rect x="1433.524" y="216.433" display="inline" fill="none" width="83.076" height="27.822"/>
	<text transform="matrix(1 0 0 1 1451.47 224.9551)" display="inline" font-family="'MyriadPro-Regular'" font-size="12">Membres </text>
	<text transform="matrix(1 0 0 1 1437.6995 239.3545)" display="inline" font-family="'MyriadPro-Regular'" font-size="12">Service Accueil</text>
	<g display="inline">
		<line fill="none" stroke="#000000" x1="926.524" y1="247.077" x2="926.524" y2="270.153"/>
		<polyline fill="none" stroke="#000000" points="866.523,293.23 866.523,270.153 986.523,270.153 986.523,293.23 		"/>
		<polygon fill="#FFFFFF" stroke="#000000" points="926.523,248.077 919.357,255.571 933.69,255.571 		"/>
	</g>
	<rect x="814.28" y="293.23" display="inline" fill="none" stroke="#000000" width="104.487" height="32.307"/>
	<rect x="951.319" y="302.205" display="inline" fill="none" width="83.076" height="14.357"/>
	<text transform="matrix(1 0 0 1 961.1057 310.7246)" display="inline" font-family="'MyriadPro-Regular'" font-size="12">Responsable</text>
	<rect x="934.28" y="293.23" display="inline" fill="none" stroke="#000000" width="104.487" height="32.307"/>
	<rect x="818.985" y="302.205" display="inline" fill="none" width="95.743" height="14.357"/>
	<text transform="matrix(1 0 0 1 839.6887 310.7246)" display="inline" font-family="'MyriadPro-Regular'" font-size="12">Technicien</text>
	<path display="inline" fill="none" stroke="#000000" d="M875.754,326.092c0,40.672,101.538,42.669,101.538,0"/>
	<text transform="matrix(1 0 0 1 913.4631 372.2861)" display="inline" font-family="'MyriadPro-Regular'" font-size="12">Dirige</text>
	<rect x="1120.28" y="214.182" display="inline" fill="none" stroke="#000000" width="104.488" height="32.307"/>
	<rect x="1126.114" y="216.618" display="inline" fill="none" width="92.819" height="27.822"/>
	<text transform="matrix(1 0 0 1 1129.7502 225.1377)" display="inline" font-family="'MyriadPro-Regular'" font-size="12">Membres Service </text>
	<text transform="matrix(1 0 0 1 1139.7756 239.5381)" display="inline" font-family="'MyriadPro-Regular'" font-size="12">Informatique</text>
	<line display="inline" fill="none" stroke="#000000" x1="1172.524" y1="191.105" x2="1172.524" y2="214.181"/>
	<g display="inline">
		<line fill="none" stroke="#000000" x1="1172.524" y1="247.068" x2="1172.524" y2="270.145"/>
		<polyline fill="none" stroke="#000000" points="1112.524,293.222 1112.524,270.145 1232.524,270.145 1232.524,293.222 		"/>
		<polygon fill="#FFFFFF" stroke="#000000" points="1172.524,248.068 1165.357,255.562 1179.69,255.562 		"/>
	</g>
	<rect x="1060.28" y="293.222" display="inline" fill="none" stroke="#000000" width="104.487" height="32.307"/>
	<rect x="1197.319" y="302.197" display="inline" fill="none" width="83.076" height="14.356"/>
	<text transform="matrix(1 0 0 1 1207.1057 310.7168)" display="inline" font-family="'MyriadPro-Regular'" font-size="12">Responsable</text>
	<rect x="1180.28" y="293.222" display="inline" fill="none" stroke="#000000" width="104.487" height="32.307"/>
	<rect x="1064.985" y="302.197" display="inline" fill="none" width="95.743" height="14.356"/>
	<text transform="matrix(1 0 0 1 1085.6887 310.7168)" display="inline" font-family="'MyriadPro-Regular'" font-size="12">Technicien</text>
	<path display="inline" fill="none" stroke="#000000" d="M1121.754,326.084c0,40.672,101.537,42.668,101.537,0"/>
	<text transform="matrix(1 0 0 1 1159.4631 372.2773)" display="inline" font-family="'MyriadPro-Regular'" font-size="12">Dirige</text>
	<rect x="595.96" y="214.182" display="inline" fill="none" stroke="#000000" width="104.486" height="32.307"/>
	<rect x="601.793" y="216.618" display="inline" fill="none" width="92.818" height="27.822"/>
	<text transform="matrix(1 0 0 1 605.4294 225.1377)" display="inline" font-family="'MyriadPro-Regular'" font-size="12">Membres Service </text>
	<text transform="matrix(1 0 0 1 627.8875 239.5381)" display="inline" font-family="'MyriadPro-Regular'" font-size="12">Sécurité</text>
	<line display="inline" fill="none" stroke="#000000" x1="648.203" y1="191.105" x2="648.203" y2="214.181"/>
	<g display="inline">
		<line fill="none" stroke="#000000" x1="648.203" y1="247.068" x2="648.203" y2="270.145"/>
		<polyline fill="none" stroke="#000000" points="588.202,293.222 588.202,270.145 708.202,270.145 708.202,293.222 		"/>
		<polygon fill="#FFFFFF" stroke="#000000" points="648.202,248.068 641.036,255.562 655.369,255.562 		"/>
	</g>
	<rect x="535.959" y="293.222" display="inline" fill="none" stroke="#000000" width="104.486" height="32.307"/>
	<rect x="672.998" y="302.197" display="inline" fill="none" width="83.076" height="14.356"/>
	<text transform="matrix(1 0 0 1 682.7849 310.7168)" display="inline" font-family="'MyriadPro-Regular'" font-size="12">Responsable</text>
	<rect x="655.959" y="293.222" display="inline" fill="none" stroke="#000000" width="104.486" height="32.307"/>
	<rect x="540.664" y="302.197" display="inline" fill="none" width="95.743" height="14.356"/>
	<text transform="matrix(1 0 0 1 561.3689 310.7168)" display="inline" font-family="'MyriadPro-Regular'" font-size="12">Technicien</text>
	<path display="inline" fill="none" stroke="#000000" d="M597.434,381.594c0,23.786,101.538,25.782,101.538,0"/>
	<text transform="matrix(1 0 0 1 635.1423 410.9023)" display="inline" font-family="'MyriadPro-Regular'" font-size="12">Dirige</text>
	<rect x="535.959" y="349.734" display="inline" fill="none" stroke="#000000" width="104.486" height="32.307"/>
	<rect x="546.664" y="358.709" display="inline" fill="none" width="83.076" height="14.359"/>
	<text transform="matrix(1 0 0 1 561.1667 367.2285)" display="inline" font-family="'MyriadPro-Regular'" font-size="12">Contrôleur</text>
	<line display="inline" fill="none" stroke="#000000" x1="588.202" y1="326.658" x2="588.202" y2="349.734"/>
	<polygon display="inline" fill="#FFFFFF" stroke="#000000" points="588.202,326.658 581.036,334.152 595.37,334.152 	"/>
	<line display="inline" fill="none" stroke="#000000" x1="708.201" y1="326.658" x2="708.201" y2="349.734"/>
	<polygon display="inline" fill="#FFFFFF" stroke="#000000" points="708.201,326.658 701.035,334.152 715.369,334.152 	"/>
	<rect x="655.957" y="349.734" display="inline" fill="none" stroke="#000000" width="104.487" height="32.307"/>
	<rect x="666.663" y="351.978" display="inline" fill="none" width="83.076" height="27.822"/>
	<text transform="matrix(1 0 0 1 676.4495 360.498)" display="inline" font-family="'MyriadPro-Regular'" font-size="12">Résponsable </text>
	<text transform="matrix(1 0 0 1 688.4675 374.8965)" display="inline" font-family="'MyriadPro-Regular'" font-size="12">sécurité</text>
	<path display="inline" fill="none" stroke="#000000" d="M737.019,436.655c-12.739-0.448-21.56-31.131-21.649-54.284"/>
	<text transform="matrix(1 0 0 1 722.2439 410.3809)" display="inline" font-family="'MyriadPro-Regular'" font-size="12">Dirige</text>
	<path display="inline" fill="none" stroke="#000000" d="M1004.28,326.092c0,95.875-99,110.125-162.773,110.562"/>
	<path display="inline" fill="none" stroke="#000000" d="M841.857,443.834c258.423,0,397-35.316,397-117.742"/>
	<text transform="matrix(1 0 0 1 989.1545 427.6807)" display="inline" font-family="'MyriadPro-Regular'" font-size="12">Dirige</text>
</g>
<g>
	<rect x="1050.591" y="713.032" fill="none" stroke="#000000" width="104.487" height="32.307"/>
	<rect x="1061.296" y="715.274" fill="none" width="83.075" height="27.821"/>
	<text transform="matrix(1 0 0 1 1065.8518 723.7939)" font-family="'MyriadPro-Regular'" font-size="12">U4) Operateurs </text>
	<text transform="matrix(1 0 0 1 1076.0989 738.1934)" font-family="'MyriadPro-Regular'" font-size="12">de guichet</text>
	<rect x="1212.842" y="768.417" fill="none" stroke="#000000" width="104.486" height="32.307"/>
	<rect x="1223.547" y="770.659" fill="none" width="83.074" height="27.822"/>
	<text transform="matrix(1 0 0 1 1225.762 779.1797)" font-family="'MyriadPro-Regular'" font-size="12">U8) Préposé aux </text>
	<text transform="matrix(1 0 0 1 1232.8362 793.5791)" font-family="'MyriadPro-Regular'" font-size="12">réclamations</text>
	<rect x="1212.842" y="713.03" fill="none" stroke="#000000" width="104.486" height="32.308"/>
	<rect x="1223.547" y="722.004" fill="none" width="83.076" height="14.358"/>
	<text transform="matrix(1 0 0 1 1230.0159 730.5234)" font-family="'MyriadPro-Regular'" font-size="12">U5) Voyageurs</text>
	<rect x="812.621" y="768.416" fill="none" stroke="#000000" width="104.487" height="32.309"/>
	<rect x="823.326" y="777.39" fill="none" width="83.076" height="14.359"/>
	<text transform="matrix(1 0 0 1 826.658 785.9102)" font-family="'MyriadPro-Regular'" font-size="12">U7) Superviseur</text>
	<rect x="576.536" y="879.188" fill="none" stroke="#000000" width="104.487" height="32.309"/>
	<rect x="587.242" y="881.431" fill="none" width="83.076" height="27.82"/>
	<text transform="matrix(1 0 0 1 597.9534 889.9521)" font-family="'MyriadPro-Regular'" font-size="12">U10) Respon</text>
	<text transform="matrix(1 0 0 1 655.9246 889.9521)" font-family="'MyriadPro-Regular'" font-size="12">-</text>
	<text transform="matrix(1 0 0 1 596.4954 904.3516)" font-family="'MyriadPro-Regular'" font-size="12">sable Service</text>
	<rect x="576.543" y="823.801" fill="none" stroke="#000000" width="104.487" height="32.31"/>
	<rect x="587.25" y="826.045" fill="none" width="83.075" height="27.82"/>
	<text transform="matrix(1 0 0 1 588.217 834.5664)" font-family="'MyriadPro-Regular'" font-size="12">U9) Responsable </text>
	<text transform="matrix(1 0 0 1 603.3552 848.9648)" font-family="'MyriadPro-Regular'" font-size="12">technique</text>
	<rect x="750.562" y="722.005" fill="none" width="83.076" height="14.357"/>
	<text transform="matrix(1 0 0 1 753.6345 730.5254)" font-family="'MyriadPro-Regular'" font-size="12">U2) Conducteur</text>
	<rect x="733.523" y="713.031" fill="none" stroke="#000000" width="104.487" height="32.307"/>
	<rect x="888.947" y="713.031" fill="none" stroke="#000000" width="104.487" height="32.308"/>
	<rect x="899.652" y="722.005" fill="none" width="83.076" height="14.358"/>
	<text transform="matrix(1 0 0 1 905.467 730.5254)" font-family="'MyriadPro-Regular'" font-size="12">U3) Contrôleur</text>
	<g>
		<line fill="none" stroke="#000000" stroke-dasharray="2" x1="864.866" y1="976.848" x2="864.866" y2="999.926"/>
		<polyline fill="none" stroke="#000000" points="872.032,985.344 864.865,977.848 857.698,985.344 		"/>
	</g>
	<rect x="812.621" y="944.542" fill="none" stroke="#000000" width="104.488" height="32.307"/>
	<rect x="823.326" y="946.784" fill="none" width="83.076" height="27.822"/>
	<text transform="matrix(1 0 0 1 827.9114 955.3027)" font-family="'MyriadPro-Regular'" font-size="12">U11) Technicien </text>
	<text transform="matrix(1 0 0 1 832.1472 969.7031)" font-family="'MyriadPro-Regular'" font-size="12">informatique</text>
	<rect x="812.62" y="1000.169" fill="none" stroke="#000000" width="104.488" height="32.307"/>
	<rect x="823.325" y="1002.412" fill="none" width="83.076" height="27.822"/>
	<text transform="matrix(1 0 0 1 834.1863 1010.9316)" font-family="'MyriadPro-Regular'" font-size="12">U12) Respon</text>
	<text transform="matrix(1 0 0 1 891.8557 1010.9316)" font-family="'MyriadPro-Regular'" font-size="12">-</text>
	<text transform="matrix(1 0 0 1 829.0081 1025.3311)" font-family="'MyriadPro-Regular'" font-size="12">sable informa</text>
	<text transform="matrix(1 0 0 1 897.0354 1025.3311)" font-family="'MyriadPro-Regular'" font-size="12">-</text>
	<rect x="576.538" y="713.03" fill="none" stroke="#000000" width="104.488" height="32.309"/>
	<rect x="587.245" y="715.274" fill="none" width="83.076" height="27.819"/>
	<text transform="matrix(1 0 0 1 593.2947 723.7939)" font-family="'MyriadPro-Regular'" font-size="12">U1) Technicien </text>
	<text transform="matrix(1 0 0 1 596.0969 738.1934)" font-family="'MyriadPro-Regular'" font-size="12">Maintenance</text>
	<rect x="576.539" y="768.416" fill="none" stroke="#000000" width="104.488" height="32.309"/>
	<rect x="579.448" y="770.66" fill="none" width="98.664" height="27.82"/>
	<text transform="matrix(1 0 0 1 588.179 779.1797)" font-family="'MyriadPro-Regular'" font-size="12">U6) Responsable </text>
	<text transform="matrix(1 0 0 1 596.093 793.5791)" font-family="'MyriadPro-Regular'" font-size="12">Maintenance</text>
	<g>
		<line fill="none" stroke="#000000" stroke-dasharray="2" x1="628.781" y1="745.338" x2="628.781" y2="768.417"/>
		<polyline fill="none" stroke="#000000" points="635.948,753.834 628.781,746.338 621.614,753.834 		"/>
	</g>
	<g>
		<line fill="none" stroke="#000000" stroke-dasharray="2" x1="628.786" y1="800.158" x2="628.786" y2="823.236"/>
		<polyline fill="none" stroke="#000000" points="635.952,808.654 628.785,801.158 621.618,808.654 		"/>
	</g>
	<g>
		<line fill="none" stroke="#000000" stroke-dasharray="2" x1="628.781" y1="856.11" x2="628.781" y2="879.188"/>
		<polyline fill="none" stroke="#000000" points="635.948,864.606 628.781,857.11 621.614,864.606 		"/>
	</g>
	<g>
		<line fill="none" stroke="#000000" stroke-dasharray="2" x1="1265.086" y1="745.338" x2="1265.086" y2="768.417"/>
		<polyline fill="none" stroke="#000000" points="1272.252,753.834 1265.084,746.338 1257.918,753.834 		"/>
	</g>
	<g>
		<line fill="none" stroke="#000000" stroke-dasharray="2" x1="823.326" y1="745.338" x2="823.326" y2="768.417"/>
		<polyline fill="none" stroke="#000000" points="830.492,753.834 823.325,746.338 816.158,753.834 		"/>
	</g>
	<g>
		<line fill="none" stroke="#000000" stroke-dasharray="2" x1="906.403" y1="745.338" x2="906.403" y2="768.417"/>
		<polyline fill="none" stroke="#000000" points="913.569,753.834 906.402,746.338 899.235,753.834 		"/>
	</g>
	<g>
		<line fill="none" stroke="#000000" stroke-dasharray="2" x1="864.868" y1="800.658" x2="864.867" y2="944.542"/>
		<polyline fill="none" stroke="#000000" points="872.034,809.154 864.867,801.658 857.7,809.154 		"/>
	</g>
	<line fill="none" stroke="#000000" stroke-dasharray="2" x1="1109.161" y1="745.22" x2="888.947" y2="944.542"/>
	<polyline fill="none" stroke="#000000" points="1107.761,756.752 1108.978,746.454 1098.635,745.7 	"/>
	<g>
		<line fill="none" stroke="#000000" stroke-dasharray="2" x1="681.694" y1="892.889" x2="838.01" y2="944.542"/>
		<polyline fill="none" stroke="#000000" points="691.9,888.488 682.652,893.18 687.755,902.208 		"/>
	</g>
	<line fill="none" stroke="#000000" stroke-dasharray="2" x1="1212.842" y1="785.524" x2="915.011" y2="941.598"/>
	<polyline fill="none" stroke="#000000" points="1209.704,795.33 1212.72,785.406 1202.672,782.838 	"/>
	<text transform="matrix(1 0 0 1 641.0906 760.877)" font-family="'MyriadPro-Regular'" font-size="12">«E»</text>
	<text transform="matrix(1 0 0 1 641.0906 818.5273)" font-family="'MyriadPro-Regular'" font-size="12">«E»</text>
	<text transform="matrix(1 0 0 1 641.0906 872.5996)" font-family="'MyriadPro-Regular'" font-size="12">«E»</text>
	<text transform="matrix(1 0 0 1 916.4583 763.877)" font-family="'MyriadPro-Regular'" font-size="12">«E»</text>
	<text transform="matrix(1 0 0 1 830.03 763.877)" font-family="'MyriadPro-Regular'" font-size="12">«E»</text>
	<text transform="matrix(1 0 0 1 765.8518 911.4961)" font-family="'MyriadPro-Regular'" font-size="12">«E»</text>
	<text transform="matrix(1 0 0 1 872.9871 888.4883)" font-family="'MyriadPro-Regular'" font-size="12">«E»</text>
	<text transform="matrix(1 0 0 1 985.4543 875.5996)" font-family="'MyriadPro-Regular'" font-size="12">«E»</text>
	<text transform="matrix(1 0 0 1 1032.1643 895.3477)" font-family="'MyriadPro-Regular'" font-size="12">«E»</text>
	<text transform="matrix(1 0 0 1 1274.2483 763.877)" font-family="'MyriadPro-Regular'" font-size="12">«E»</text>
</g>
</svg>
