<?xml version="1.0" encoding="UTF-8" standalone="no"?>
<!DOCTYPE svg PUBLIC "-//W3C//DTD SVG 1.0//EN"
 "http://www.w3.org/TR/2001/REC-SVG-20010904/DTD/svg10.dtd">
<!-- Generated by dot version 1.13 (v16) (Mon August 23, 2004)
     For user: (maximegaudin) Maxime Gaudin   Title: G    Pages: 1 -->
<svg width="712pt" height="1992pt"
 viewBox = "-1 -1 711 1991"
 xmlns="http://www.w3.org/2000/svg">
<g id="graph0" class="graph" style="font-family:Times-Roman;font-size:14.00;">
<title>G</title>
<g id="node1" class="node"><title>R&amp;D</title>
<polygon style="fill:none;stroke:black;" points="116,1840 62,1840 62,1876 116,1876 116,1840"/>
<text text-anchor="middle" x="89" y="1863" style="font-family:helvetica;">R&amp;D</text>
</g>
<g id="node3" class="node"><title>SGBag</title>
<polygon style="fill:none;stroke:black;" points="371,1840 315,1840 315,1876 371,1876 371,1840"/>
<text text-anchor="middle" x="343" y="1863" style="font-family:helvetica;">SGBag</text>
</g>
<g id="edge2" class="edge"><title>R&amp;D-&gt;SGBag</title>
<path style="fill:none;stroke:black;" d="M116,1858C162,1858 253,1858 305,1858"/>
<polygon style="fill:black;stroke:black;" points="305,1854 315,1858 305,1861 305,1854"/>
</g>
<g id="node5" class="node"><title>Configuration</title>
<polygon style="fill:none;stroke:black;" points="658,1732 560,1732 560,1768 658,1768 658,1732"/>
<text text-anchor="middle" x="609" y="1755" style="font-family:helvetica;">Configuration</text>
</g>
<g id="edge4" class="edge"><title>SGBag-&gt;Configuration</title>
<path style="fill:none;stroke:black;" d="M371,1858C374,1857 491,1803 560,1772"/>
<polygon style="fill:black;stroke:black;" points="558,1769 569,1768 561,1775 558,1769"/>
</g>
<g id="node7" class="node"><title>Simulation</title>
<polygon style="fill:none;stroke:black;" points="648,1840 570,1840 570,1876 648,1876 648,1840"/>
<text text-anchor="middle" x="609" y="1863" style="font-family:helvetica;">Simulation</text>
</g>
<g id="edge6" class="edge"><title>SGBag-&gt;Simulation</title>
<path style="fill:none;stroke:black;" d="M371,1858C374,1858 489,1858 558,1858"/>
<polygon style="fill:black;stroke:black;" points="558,1854 568,1858 558,1861 558,1854"/>
</g>
<g id="node9" class="node"><title>Maintenance évolutive</title>
<polygon style="fill:none;stroke:black;" points="686,1948 532,1948 532,1984 686,1984 686,1948"/>
<text text-anchor="middle" x="609" y="1971" style="font-family:helvetica;">Maintenance évolutive</text>
</g>
<g id="edge8" class="edge"><title>SGBag-&gt;Maintenance évolutive</title>
<path style="fill:none;stroke:black;" d="M371,1858C374,1859 491,1913 560,1944"/>
<polygon style="fill:black;stroke:black;" points="561,1941 569,1948 558,1947 561,1941"/>
</g>
<g id="node10" class="node"><title>Gestion des vols</title>
<polygon style="fill:none;stroke:black;" points="147,1644 31,1644 31,1680 147,1680 147,1644"/>
<text text-anchor="middle" x="89" y="1667" style="font-family:helvetica;">Gestion des vols</text>
</g>
<g id="node11" class="node"><title>Gestion des voyageurs</title>
<polygon style="fill:none;stroke:black;" points="168,1455 10,1455 10,1491 168,1491 168,1455"/>
<text text-anchor="middle" x="89" y="1478" style="font-family:helvetica;">Gestion des voyageurs</text>
</g>
<g id="node13" class="node"><title>Enregistrement des bagages</title>
<polygon style="fill:none;stroke:black;" points="439,1401 247,1401 247,1437 439,1437 439,1401"/>
<text text-anchor="middle" x="343" y="1424" style="font-family:helvetica;">Enregistrement des bagages</text>
</g>
<g id="edge10" class="edge"><title>Gestion des voyageurs-&gt;Enregistrement des bagages</title>
<path style="fill:none;stroke:black;" d="M168,1474C171,1473 227,1455 275,1440"/>
<polygon style="fill:black;stroke:black;" points="274,1437 285,1437 276,1443 274,1437"/>
</g>
<g id="node21" class="node"><title>Réclamation</title>
<polygon style="fill:none;stroke:black;" points="388,1516 298,1516 298,1552 388,1552 388,1516"/>
<text text-anchor="middle" x="343" y="1539" style="font-family:helvetica;">Réclamation</text>
</g>
<g id="edge18" class="edge"><title>Gestion des voyageurs-&gt;Réclamation</title>
<path style="fill:none;stroke:black;" d="M168,1474C171,1475 237,1498 287,1515"/>
<polygon style="fill:black;stroke:black;" points="288,1512 297,1518 286,1518 288,1512"/>
</g>
<g id="node15" class="node"><title>Étiquettage</title>
<polygon style="fill:none;stroke:black;" points="653,1192 565,1192 565,1228 653,1228 653,1192"/>
<text text-anchor="middle" x="609" y="1215" style="font-family:helvetica;">Étiquettage</text>
</g>
<g id="edge12" class="edge"><title>Enregistrement des bagages-&gt;Étiquettage</title>
<path style="fill:none;stroke:black;" d="M395,1401C397,1398 452,1313 513,1264 527,1252 544,1241 560,1233"/>
<polygon style="fill:black;stroke:black;" points="559,1230 569,1228 562,1236 559,1230"/>
</g>
<g id="node17" class="node"><title>Vérification du poids</title>
<polygon style="fill:none;stroke:black;" points="680,1300 538,1300 538,1336 680,1336 680,1300"/>
<text text-anchor="middle" x="609" y="1323" style="font-family:helvetica;">Vérification du poids</text>
</g>
<g id="edge14" class="edge"><title>Enregistrement des bagages-&gt;Vérification du poids</title>
<path style="fill:none;stroke:black;" d="M395,1401C400,1399 491,1364 552,1340"/>
<polygon style="fill:black;stroke:black;" points="551,1336 562,1336 554,1343 551,1336"/>
</g>
<g id="node19" class="node"><title>Injection dans le SGBag</title>
<polygon style="fill:none;stroke:black;" points="690,1408 528,1408 528,1444 690,1444 690,1408"/>
<text text-anchor="middle" x="609" y="1431" style="font-family:helvetica;">Injection dans le SGBag</text>
</g>
<g id="edge16" class="edge"><title>Enregistrement des bagages-&gt;Injection dans le SGBag</title>
<path style="fill:none;stroke:black;" d="M441,1406C463,1409 491,1412 518,1416"/>
<polygon style="fill:black;stroke:black;" points="518,1413 528,1417 518,1419 518,1413"/>
</g>
<g id="node23" class="node"><title>Interface WEB</title>
<polygon style="fill:none;stroke:black;" points="661,1516 557,1516 557,1552 661,1552 661,1516"/>
<text text-anchor="middle" x="609" y="1539" style="font-family:helvetica;">Interface WEB</text>
</g>
<g id="edge20" class="edge"><title>Réclamation-&gt;Interface WEB</title>
<path style="fill:none;stroke:black;" d="M389,1543C394,1543 483,1539 547,1536"/>
<polygon style="fill:black;stroke:black;" points="547,1532 557,1536 547,1539 547,1532"/>
</g>
<g id="node25" class="node"><title>Interface SGBag</title>
<polygon style="fill:none;stroke:black;" points="667,1624 551,1624 551,1660 667,1660 667,1624"/>
<text text-anchor="middle" x="609" y="1647" style="font-family:helvetica;">Interface SGBag</text>
</g>
<g id="edge22" class="edge"><title>Réclamation-&gt;Interface SGBag</title>
<path style="fill:none;stroke:black;" d="M389,1543C394,1545 496,1591 560,1620"/>
<polygon style="fill:black;stroke:black;" points="561,1617 569,1624 558,1623 561,1617"/>
</g>
<g id="node26" class="node"><title>Gestion des locaux</title>
<polygon style="fill:none;stroke:black;" points="155,1340 23,1340 23,1376 155,1376 155,1340"/>
<text text-anchor="middle" x="89" y="1363" style="font-family:helvetica;">Gestion des locaux</text>
</g>
<g id="node27" class="node"><title>Gestion du personnel</title>
<polygon style="fill:none;stroke:black;" points="162,1205 16,1205 16,1241 162,1241 162,1205"/>
<text text-anchor="middle" x="89" y="1228" style="font-family:helvetica;">Gestion du personnel</text>
</g>
<g id="node28" class="node"><title>Gestion de l&#39;équipement</title>
<polygon style="fill:none;stroke:black;" points="172,1084 6,1084 6,1120 172,1120 172,1084"/>
<text text-anchor="middle" x="89" y="1107" style="font-family:helvetica;">Gestion de l&#39;équipement</text>
</g>
<g id="node30" class="node"><title>Réparation</title>
<polygon style="fill:none;stroke:black;" points="383,1084 303,1084 303,1120 383,1120 383,1084"/>
<text text-anchor="middle" x="343" y="1107" style="font-family:helvetica;">Réparation</text>
</g>
<g id="edge24" class="edge"><title>Gestion de l&#39;équipement-&gt;Réparation</title>
<path style="fill:none;stroke:black;" d="M173,1102C212,1102 257,1102 291,1102"/>
<polygon style="fill:black;stroke:black;" points="291,1098 301,1102 291,1105 291,1098"/>
</g>
<g id="node32" class="node"><title>SGBag (rails, chariots, etc.) </title>
<polygon style="fill:none;stroke:black;" points="705,1084 513,1084 513,1120 705,1120 705,1084"/>
<text text-anchor="middle" x="609" y="1107" style="font-family:helvetica;">SGBag (rails, chariots, etc.) </text>
</g>
<g id="edge26" class="edge"><title>Réparation-&gt;SGBag (rails, chariots, etc.) </title>
<path style="fill:none;stroke:black;" d="M385,1102C416,1102 461,1102 503,1102"/>
<polygon style="fill:black;stroke:black;" points="503,1098 513,1102 503,1105 503,1098"/>
</g>
<g id="node33" class="node"><title>Gestion de la sécurité</title>
<polygon style="fill:none;stroke:black;" points="164,976 14,976 14,1012 164,1012 164,976"/>
<text text-anchor="middle" x="89" y="999" style="font-family:helvetica;">Gestion de la sécurité</text>
</g>
<g id="node35" class="node"><title>Controle des bagages</title>
<polygon style="fill:none;stroke:black;" points="419,976 267,976 267,1012 419,1012 419,976"/>
<text text-anchor="middle" x="343" y="999" style="font-family:helvetica;">Controle des bagages</text>
</g>
<g id="edge28" class="edge"><title>Gestion de la sécurité-&gt;Controle des bagages</title>
<path style="fill:none;stroke:black;" d="M165,994C194,994 227,994 257,994"/>
<polygon style="fill:black;stroke:black;" points="257,990 267,994 257,997 257,990"/>
</g>
<g id="node37" class="node"><title>Bagages à soute</title>
<polygon style="fill:none;stroke:black;" points="668,976 550,976 550,1012 668,1012 668,976"/>
<text text-anchor="middle" x="609" y="999" style="font-family:helvetica;">Bagages à soute</text>
</g>
<g id="edge30" class="edge"><title>Controle des bagages-&gt;Bagages à soute</title>
<path style="fill:none;stroke:black;" d="M419,994C456,994 501,994 539,994"/>
<polygon style="fill:black;stroke:black;" points="539,990 549,994 539,997 539,990"/>
</g>
<g id="node38" class="node"><title>Gestion des bagages</title>
<polygon style="fill:none;stroke:black;" points="162,544 16,544 16,580 162,580 162,544"/>
<text text-anchor="middle" x="89" y="567" style="font-family:helvetica;">Gestion des bagages</text>
</g>
<g id="node40" class="node"><title>Acheminement automatisé des bagages</title>
<polygon style="fill:none;stroke:black;" points="476,436 210,436 210,472 476,472 476,436"/>
<text text-anchor="middle" x="343" y="459" style="font-family:helvetica;">Acheminement automatisé des bagages</text>
</g>
<g id="edge32" class="edge"><title>Gestion des bagages-&gt;Acheminement automatisé des bagages</title>
<path style="fill:none;stroke:black;" d="M162,562C166,560 252,508 304,477"/>
<polygon style="fill:black;stroke:black;" points="303,474 313,472 306,480 303,474"/>
</g>
<g id="node42" class="node"><title>Acheminement manuel des bagages</title>
<polygon style="fill:none;stroke:black;" points="463,652 223,652 223,688 463,688 463,652"/>
<text text-anchor="middle" x="343" y="675" style="font-family:helvetica;">Acheminement manuel des bagages</text>
</g>
<g id="edge34" class="edge"><title>Gestion des bagages-&gt;Acheminement manuel des bagages</title>
<path style="fill:none;stroke:black;" d="M162,562C166,564 252,616 304,647"/>
<polygon style="fill:black;stroke:black;" points="306,644 313,652 303,650 306,644"/>
</g>
<g id="node44" class="node"><title>Circulation des chariots</title>
<polygon style="fill:none;stroke:black;" points="689,220 529,220 529,256 689,256 689,220"/>
<text text-anchor="middle" x="609" y="243" style="font-family:helvetica;">Circulation des chariots</text>
</g>
<g id="edge36" class="edge"><title>Acheminement automatisé des bagages-&gt;Circulation des chariots</title>
<path style="fill:none;stroke:black;" d="M447,436C448,433 467,343 513,292 525,280 540,269 555,261"/>
<polygon style="fill:black;stroke:black;" points="554,258 564,256 557,264 554,258"/>
</g>
<g id="node46" class="node"><title>Gestion de l&#39;énergie</title>
<polygon style="fill:none;stroke:black;" points="679,328 539,328 539,364 679,364 679,328"/>
<text text-anchor="middle" x="609" y="351" style="font-family:helvetica;">Gestion de l&#39;énergie</text>
</g>
<g id="edge38" class="edge"><title>Acheminement automatisé des bagages-&gt;Gestion de l&#39;énergie</title>
<path style="fill:none;stroke:black;" d="M447,436C451,434 520,395 567,369"/>
<polygon style="fill:black;stroke:black;" points="566,366 576,364 569,372 566,366"/>
</g>
<g id="node48" class="node"><title>Carrousel</title>
<polygon style="fill:none;stroke:black;" points="646,436 572,436 572,472 646,472 646,436"/>
<text text-anchor="middle" x="609" y="459" style="font-family:helvetica;">Carrousel</text>
</g>
<g id="edge40" class="edge"><title>Acheminement automatisé des bagages-&gt;Carrousel</title>
<path style="fill:none;stroke:black;" d="M477,439C500,442 534,445 562,449"/>
<polygon style="fill:black;stroke:black;" points="562,446 572,450 562,452 562,446"/>
</g>
<g id="node50" class="node"><title>Supervision</title>
<polygon style="fill:none;stroke:black;" points="652,544 566,544 566,580 652,580 652,544"/>
<text text-anchor="middle" x="609" y="567" style="font-family:helvetica;">Supervision</text>
</g>
<g id="edge42" class="edge"><title>Acheminement automatisé des bagages-&gt;Supervision</title>
<path style="fill:none;stroke:black;" d="M476,472C487,485 500,498 513,508 528,520 545,530 561,539"/>
<polygon style="fill:black;stroke:black;" points="563,536 570,544 560,542 563,536"/>
</g>
<g id="edge50" class="edge"><title>Acheminement manuel des bagages-&gt;Supervision</title>
<path style="fill:none;stroke:black;" d="M464,666C477,651 495,631 513,616 528,604 546,594 562,585"/>
<polygon style="fill:black;stroke:black;" points="561,582 571,580 564,588 561,582"/>
</g>
<g id="node52" class="node"><title>Embarquement dans l&#39;avion</title>
<polygon style="fill:none;stroke:black;" points="702,652 516,652 516,688 702,688 702,652"/>
<text text-anchor="middle" x="609" y="675" style="font-family:helvetica;">Embarquement dans l&#39;avion</text>
</g>
<g id="edge44" class="edge"><title>Acheminement manuel des bagages-&gt;Embarquement dans l&#39;avion</title>
<path style="fill:none;stroke:black;" d="M464,686C475,684 489,683 504,681"/>
<polygon style="fill:black;stroke:black;" points="504,678 514,680 504,684 504,678"/>
</g>
<g id="node54" class="node"><title>Débarquement de l&#39;avion</title>
<polygon style="fill:none;stroke:black;" points="695,760 523,760 523,796 695,796 695,760"/>
<text text-anchor="middle" x="609" y="783" style="font-family:helvetica;">Débarquement de l&#39;avion</text>
</g>
<g id="edge46" class="edge"><title>Acheminement manuel des bagages-&gt;Débarquement de l&#39;avion</title>
<path style="fill:none;stroke:black;" d="M446,688C450,690 520,729 567,755"/>
<polygon style="fill:black;stroke:black;" points="569,752 576,760 566,758 569,752"/>
</g>
<g id="node56" class="node"><title>Commande manuelle</title>
<polygon style="fill:none;stroke:black;" points="681,868 537,868 537,904 681,904 681,868"/>
<text text-anchor="middle" x="609" y="891" style="font-family:helvetica;">Commande manuelle</text>
</g>
<g id="edge48" class="edge"><title>Acheminement manuel des bagages-&gt;Commande manuelle</title>
<path style="fill:none;stroke:black;" d="M446,688C447,691 467,782 513,832 525,844 540,855 555,863"/>
<polygon style="fill:black;stroke:black;" points="557,860 564,868 554,866 557,860"/>
</g>
<g id="node58" class="node"><title>Administration du SI</title>
<polygon style="fill:none;stroke:black;" points="159,112 19,112 19,148 159,148 159,112"/>
<text text-anchor="middle" x="89" y="135" style="font-family:helvetica;">Administration du SI</text>
</g>
<g id="node60" class="node"><title>Maintenance currative</title>
<polygon style="fill:none;stroke:black;" points="420,58 266,58 266,94 420,94 420,58"/>
<text text-anchor="middle" x="343" y="81" style="font-family:helvetica;">Maintenance currative</text>
</g>
<g id="edge52" class="edge"><title>Administration du SI-&gt;Maintenance currative</title>
<path style="fill:none;stroke:black;" d="M161,130C167,128 224,111 272,97"/>
<polygon style="fill:black;stroke:black;" points="271,94 282,94 273,100 271,94"/>
</g>
<g id="node62" class="node"><title>Gestion du réseau sans fil</title>
<polygon style="fill:none;stroke:black;" points="431,166 255,166 255,202 431,202 431,166"/>
<text text-anchor="middle" x="343" y="189" style="font-family:helvetica;">Gestion du réseau sans fil</text>
</g>
<g id="edge54" class="edge"><title>Administration du SI-&gt;Gestion du réseau sans fil</title>
<path style="fill:none;stroke:black;" d="M161,130C167,132 224,149 272,163"/>
<polygon style="fill:black;stroke:black;" points="273,160 282,166 271,166 273,160"/>
</g>
<g id="node64" class="node"><title>Analyse des performances</title>
<polygon style="fill:none;stroke:black;" points="699,4 519,4 519,40 699,40 699,4"/>
<text text-anchor="middle" x="609" y="27" style="font-family:helvetica;">Analyse des performances</text>
</g>
<g id="edge56" class="edge"><title>Maintenance currative-&gt;Analyse des performances</title>
<path style="fill:none;stroke:black;" d="M420,76C424,75 484,57 536,43"/>
<polygon style="fill:black;stroke:black;" points="535,40 546,40 537,46 535,40"/>
</g>
<g id="node66" class="node"><title>Reconfiguration</title>
<polygon style="fill:none;stroke:black;" points="665,112 553,112 553,148 665,148 665,112"/>
<text text-anchor="middle" x="609" y="135" style="font-family:helvetica;">Reconfiguration</text>
</g>
<g id="edge58" class="edge"><title>Maintenance currative-&gt;Reconfiguration</title>
<path style="fill:none;stroke:black;" d="M420,76C424,77 490,96 542,111"/>
<polygon style="fill:black;stroke:black;" points="543,108 552,114 541,114 543,108"/>
</g>
</g>
</svg>
