<?xml version="1.0" encoding="UTF-8" standalone="no"?>
<!DOCTYPE svg PUBLIC "-//W3C//DTD SVG 1.0//EN"
 "http://www.w3.org/TR/2001/REC-SVG-20010904/DTD/svg10.dtd" [
 <!ATTLIST svg xmlns:xlink CDATA #FIXED "http://www.w3.org/1999/xlink">
]>
<!-- Generated by Graphviz version 2.20.2 (Wed Sep 16 11:12:11 UTC 2009)
     For user: (paul) paul,,, -->
<!-- Title: G Pages: 1 -->
<svg width="792pt" height="1019pt"
 viewBox="0.00 0.00 792.00 1019.00" xmlns="http://www.w3.org/2000/svg" xmlns:xlink="http://www.w3.org/1999/xlink">
<g id="graph0" class="graph" transform="scale(1 1) rotate(0) translate(4 1015)">
<title>G</title>
<polygon style="fill:white;stroke:white;" points="-4,4 -4,-1015 788,-1015 788,4 -4,4"/>
<!-- D10) Administration du SI -->
<g id="node1" class="node"><title>D10) Administration du SI</title>
<polygon style="fill:none;stroke:black;" points="190,-61 10,-61 10,-25 190,-25 190,-61"/>
<text text-anchor="middle" x="100" y="-39.9" style="font-family:FreeSans;font-size:14.00;">D10) Administration du SI</text>
</g>
<!-- D10.1) Maintenance curative -->
<g id="node3" class="node"><title>D10.1) Maintenance curative</title>
<polygon style="fill:none;stroke:black;" points="495,-86 293,-86 293,-50 495,-50 495,-86"/>
<text text-anchor="middle" x="394" y="-64.9" style="font-family:FreeSans;font-size:14.00;">D10.1) Maintenance curative</text>
</g>
<!-- D10) Administration du SI&#45;&gt;D10.1) Maintenance curative -->
<g id="edge2" class="edge"><title>D10) Administration du SI&#45;&gt;D10.1) Maintenance curative</title>
<path style="fill:none;stroke:black;" d="M190,-43C190,-43 235,-48 283,-55"/>
<polygon style="fill:black;stroke:black;" points="282.701,-58.4875 293,-56 283.398,-51.5222 282.701,-58.4875"/>
</g>
<!-- D10.2) Gestion du réseau sans fil -->
<g id="node5" class="node"><title>D10.2) Gestion du réseau sans fil</title>
<polygon style="fill:none;stroke:black;" points="509,-36 279,-36 279,-1.06581e-14 509,-0 509,-36"/>
<text text-anchor="middle" x="394" y="-14.9" style="font-family:FreeSans;font-size:14.00;">D10.2) Gestion du réseau sans fil</text>
</g>
<!-- D10) Administration du SI&#45;&gt;D10.2) Gestion du réseau sans fil -->
<g id="edge4" class="edge"><title>D10) Administration du SI&#45;&gt;D10.2) Gestion du réseau sans fil</title>
<path style="fill:none;stroke:black;" d="M190,-43C190,-43 226,-39 268,-33"/>
<polygon style="fill:black;stroke:black;" points="268.398,-36.4778 278,-32 267.701,-29.5125 268.398,-36.4778"/>
</g>
<!-- D9) Gestion des bagages -->
<g id="node6" class="node"><title>D9) Gestion des bagages</title>
<polygon style="fill:none;stroke:black;" points="191,-211 9,-211 9,-175 191,-175 191,-211"/>
<text text-anchor="middle" x="100" y="-189.9" style="font-family:FreeSans;font-size:14.00;">D9) Gestion des bagages</text>
</g>
<!-- D9.1) Acheminement automatisé des bagages -->
<g id="node8" class="node"><title>D9.1) Acheminement automatisé des bagages</title>
<polygon style="fill:none;stroke:black;" points="552,-286 236,-286 236,-250 552,-250 552,-286"/>
<text text-anchor="middle" x="394" y="-264.9" style="font-family:FreeSans;font-size:14.00;">D9.1) Acheminement automatisé des bagages</text>
</g>
<!-- D9) Gestion des bagages&#45;&gt;D9.1) Acheminement automatisé des bagages -->
<g id="edge6" class="edge"><title>D9) Gestion des bagages&#45;&gt;D9.1) Acheminement automatisé des bagages</title>
<path style="fill:none;stroke:black;" d="M191,-193C191,-193 275,-224 335,-246"/>
<polygon style="fill:black;stroke:black;" points="334.415,-249.536 345,-250 337.015,-243.036 334.415,-249.536"/>
</g>
<!-- D9.2) Acheminement manuel des bagages -->
<g id="node10" class="node"><title>D9.2) Acheminement manuel des bagages</title>
<polygon style="fill:none;stroke:black;" points="540,-136 248,-136 248,-100 540,-100 540,-136"/>
<text text-anchor="middle" x="394" y="-114.9" style="font-family:FreeSans;font-size:14.00;">D9.2) Acheminement manuel des bagages</text>
</g>
<!-- D9) Gestion des bagages&#45;&gt;D9.2) Acheminement manuel des bagages -->
<g id="edge8" class="edge"><title>D9) Gestion des bagages&#45;&gt;D9.2) Acheminement manuel des bagages</title>
<path style="fill:none;stroke:black;" d="M191,-193C191,-193 275,-162 335,-140"/>
<polygon style="fill:black;stroke:black;" points="337.015,-142.964 345,-136 334.415,-136.464 337.015,-142.964"/>
</g>
<!-- Circulation des chariots -->
<g id="node12" class="node"><title>Circulation des chariots</title>
<text text-anchor="middle" x="686" y="-364.9" style="font-family:FreeSans;font-size:14.00;">Circulation des chariots</text>
</g>
<!-- D9.1) Acheminement automatisé des bagages&#45;&gt;Circulation des chariots -->
<g id="edge10" class="edge"><title>D9.1) Acheminement automatisé des bagages&#45;&gt;Circulation des chariots</title>
<path style="fill:none;stroke:black;" d="M552,-281C552,-281 563,-324 588,-343 590,-344 591,-345 593,-347"/>
<polygon style="fill:black;stroke:black;" points="591.559,-350.203 602,-352 594.958,-344.084 591.559,-350.203"/>
</g>
<!-- Gestion de l&#39;énergie -->
<g id="node14" class="node"><title>Gestion de l&#39;énergie</title>
<text text-anchor="middle" x="686" y="-314.9" style="font-family:FreeSans;font-size:14.00;">Gestion de l&#39;énergie</text>
</g>
<!-- D9.1) Acheminement automatisé des bagages&#45;&gt;Gestion de l&#39;énergie -->
<g id="edge12" class="edge"><title>D9.1) Acheminement automatisé des bagages&#45;&gt;Gestion de l&#39;énergie</title>
<path style="fill:none;stroke:black;" d="M552,-281C552,-281 572,-289 588,-293 593,-294 598,-296 603,-297"/>
<polygon style="fill:black;stroke:black;" points="602.416,-300.479 613,-300 604.427,-293.774 602.416,-300.479"/>
</g>
<!-- Carrousel -->
<g id="node16" class="node"><title>Carrousel</title>
<text text-anchor="middle" x="686" y="-264.9" style="font-family:FreeSans;font-size:14.00;">Carrousel</text>
</g>
<!-- D9.1) Acheminement automatisé des bagages&#45;&gt;Carrousel -->
<g id="edge14" class="edge"><title>D9.1) Acheminement automatisé des bagages&#45;&gt;Carrousel</title>
<path style="fill:none;stroke:black;" d="M552,-281C552,-281 598,-277 636,-273"/>
<polygon style="fill:black;stroke:black;" points="636.398,-276.478 646,-272 635.701,-269.512 636.398,-276.478"/>
</g>
<!-- supervision1 -->
<g id="node18" class="node"><title>supervision1</title>
<text text-anchor="middle" x="686" y="-214.9" style="font-family:FreeSans;font-size:14.00;">Supervision</text>
</g>
<!-- D9.1) Acheminement automatisé des bagages&#45;&gt;supervision1 -->
<g id="edge16" class="edge"><title>D9.1) Acheminement automatisé des bagages&#45;&gt;supervision1</title>
<path style="fill:none;stroke:black;" d="M552,-281C552,-281 568,-255 588,-243 601,-236 615,-230 629,-227"/>
<polygon style="fill:black;stroke:black;" points="629.881,-230.393 639,-225 628.508,-223.529 629.881,-230.393"/>
</g>
<!-- Embarquement dans l&#39;avion -->
<g id="node20" class="node"><title>Embarquement dans l&#39;avion</title>
<text text-anchor="middle" x="686" y="-164.9" style="font-family:FreeSans;font-size:14.00;">Embarquement dans l&#39;avion</text>
</g>
<!-- D9.2) Acheminement manuel des bagages&#45;&gt;Embarquement dans l&#39;avion -->
<g id="edge18" class="edge"><title>D9.2) Acheminement manuel des bagages&#45;&gt;Embarquement dans l&#39;avion</title>
<path style="fill:none;stroke:black;" d="M541,-106C541,-106 565,-132 588,-143 590,-144 592,-145 594,-146"/>
<polygon style="fill:black;stroke:black;" points="593.415,-149.536 604,-150 596.015,-143.036 593.415,-149.536"/>
</g>
<!-- Débarquement de l&#39;avion -->
<g id="node22" class="node"><title>Débarquement de l&#39;avion</title>
<text text-anchor="middle" x="686" y="-114.9" style="font-family:FreeSans;font-size:14.00;">Débarquement de l&#39;avion</text>
</g>
<!-- D9.2) Acheminement manuel des bagages&#45;&gt;Débarquement de l&#39;avion -->
<g id="edge20" class="edge"><title>D9.2) Acheminement manuel des bagages&#45;&gt;Débarquement de l&#39;avion</title>
<path style="fill:none;stroke:black;" d="M541,-106C541,-106 561,-108 587,-110"/>
<polygon style="fill:black;stroke:black;" points="586.701,-113.488 597,-111 587.398,-106.522 586.701,-113.488"/>
</g>
<!-- Commande manuelle -->
<g id="node24" class="node"><title>Commande manuelle</title>
<text text-anchor="middle" x="686" y="-64.9" style="font-family:FreeSans;font-size:14.00;">Commande manuelle</text>
</g>
<!-- D9.2) Acheminement manuel des bagages&#45;&gt;Commande manuelle -->
<g id="edge22" class="edge"><title>D9.2) Acheminement manuel des bagages&#45;&gt;Commande manuelle</title>
<path style="fill:none;stroke:black;" d="M541,-106C541,-106 568,-99 588,-93 594,-92 600,-90 606,-88"/>
<polygon style="fill:black;stroke:black;" points="606.881,-91.3933 616,-86 605.508,-84.5292 606.881,-91.3933"/>
</g>
<!-- supervision2 -->
<g id="node26" class="node"><title>supervision2</title>
<text text-anchor="middle" x="686" y="-14.9" style="font-family:FreeSans;font-size:14.00;">Supervision</text>
</g>
<!-- D9.2) Acheminement manuel des bagages&#45;&gt;supervision2 -->
<g id="edge24" class="edge"><title>D9.2) Acheminement manuel des bagages&#45;&gt;supervision2</title>
<path style="fill:none;stroke:black;" d="M541,-106C541,-106 548,-99 552,-93 569,-72 566,-59 588,-43 600,-35 615,-29 629,-25"/>
<polygon style="fill:black;stroke:black;" points="629.881,-28.3933 639,-23 628.508,-21.5292 629.881,-28.3933"/>
</g>
<!-- D8) Gestion de la sécurité -->
<g id="node27" class="node"><title>D8) Gestion de la sécurité</title>
<polygon style="fill:none;stroke:black;" points="191,-436 9,-436 9,-400 191,-400 191,-436"/>
<text text-anchor="middle" x="100" y="-414.9" style="font-family:FreeSans;font-size:14.00;">D8) Gestion de la sécurité</text>
</g>
<!-- D8.1) Contrôle des bagages -->
<g id="node29" class="node"><title>D8.1) Contrôle des bagages</title>
<polygon style="fill:none;stroke:black;" points="493,-436 295,-436 295,-400 493,-400 493,-436"/>
<text text-anchor="middle" x="394" y="-414.9" style="font-family:FreeSans;font-size:14.00;">D8.1) Contrôle des bagages</text>
</g>
<!-- D8) Gestion de la sécurité&#45;&gt;D8.1) Contrôle des bagages -->
<g id="edge26" class="edge"><title>D8) Gestion de la sécurité&#45;&gt;D8.1) Contrôle des bagages</title>
<path style="fill:none;stroke:black;" d="M192,-418C222,-418 255,-418 285,-418"/>
<polygon style="fill:black;stroke:black;" points="285,-421.5 295,-418 285,-414.5 285,-421.5"/>
</g>
<!-- Bagages à soute -->
<g id="node31" class="node"><title>Bagages à soute</title>
<text text-anchor="middle" x="686" y="-414.9" style="font-family:FreeSans;font-size:14.00;">Bagages à soute</text>
</g>
<!-- D8.1) Contrôle des bagages&#45;&gt;Bagages à soute -->
<g id="edge28" class="edge"><title>D8.1) Contrôle des bagages&#45;&gt;Bagages à soute</title>
<path style="fill:none;stroke:black;" d="M493,-418C532,-418 577,-418 613,-418"/>
<polygon style="fill:black;stroke:black;" points="613,-421.5 623,-418 613,-414.5 613,-421.5"/>
</g>
<!-- D7) Gestion de l&#39;équipement -->
<g id="node32" class="node"><title>D7) Gestion de l&#39;équipement</title>
<polygon style="fill:none;stroke:black;" points="200,-486 5.68434e-14,-486 1.42109e-14,-450 200,-450 200,-486"/>
<text text-anchor="middle" x="100" y="-464.9" style="font-family:FreeSans;font-size:14.00;">D7) Gestion de l&#39;équipement</text>
</g>
<!-- D7.1) Réparation -->
<g id="node34" class="node"><title>D7.1) Réparation</title>
<polygon style="fill:none;stroke:black;" points="457,-486 331,-486 331,-450 457,-450 457,-486"/>
<text text-anchor="middle" x="394" y="-464.9" style="font-family:FreeSans;font-size:14.00;">D7.1) Réparation</text>
</g>
<!-- D7) Gestion de l&#39;équipement&#45;&gt;D7.1) Réparation -->
<g id="edge30" class="edge"><title>D7) Gestion de l&#39;équipement&#45;&gt;D7.1) Réparation</title>
<path style="fill:none;stroke:black;" d="M200,-468C240,-468 285,-468 321,-468"/>
<polygon style="fill:black;stroke:black;" points="321,-471.5 331,-468 321,-464.5 321,-471.5"/>
</g>
<!-- SGBag (rails, chariots, etc.) -->
<g id="node36" class="node"><title>SGBag (rails, chariots, etc.)</title>
<text text-anchor="middle" x="686" y="-464.9" style="font-family:FreeSans;font-size:14.00;">SGBag (rails, chariots, etc.)</text>
</g>
<!-- D7.1) Réparation&#45;&gt;SGBag (rails, chariots, etc.) -->
<g id="edge32" class="edge"><title>D7.1) Réparation&#45;&gt;SGBag (rails, chariots, etc.)</title>
<path style="fill:none;stroke:black;" d="M457,-468C493,-468 538,-468 580,-468"/>
<polygon style="fill:black;stroke:black;" points="580,-471.5 590,-468 580,-464.5 580,-471.5"/>
</g>
<!-- D6) Gestion du personnel -->
<g id="node37" class="node"><title>D6) Gestion du personnel</title>
<polygon style="fill:none;stroke:black;" points="191,-536 9,-536 9,-500 191,-500 191,-536"/>
<text text-anchor="middle" x="100" y="-514.9" style="font-family:FreeSans;font-size:14.00;">D6) Gestion du personnel</text>
</g>
<!-- D5) Gestion des locaux -->
<g id="node38" class="node"><title>D5) Gestion des locaux</title>
<polygon style="fill:none;stroke:black;" points="184,-586 16,-586 16,-550 184,-550 184,-586"/>
<text text-anchor="middle" x="100" y="-564.9" style="font-family:FreeSans;font-size:14.00;">D5) Gestion des locaux</text>
</g>
<!-- D4) Gestion des voyageurs -->
<g id="node39" class="node"><title>D4) Gestion des voyageurs</title>
<polygon style="fill:none;stroke:black;" points="196,-636 4,-636 4,-600 196,-600 196,-636"/>
<text text-anchor="middle" x="100" y="-614.9" style="font-family:FreeSans;font-size:14.00;">D4) Gestion des voyageurs</text>
</g>
<!-- D4.1) Réclamation -->
<g id="node41" class="node"><title>D4.1) Réclamation</title>
<polygon style="fill:none;stroke:black;" points="462,-636 326,-636 326,-600 462,-600 462,-636"/>
<text text-anchor="middle" x="394" y="-614.9" style="font-family:FreeSans;font-size:14.00;">D4.1) Réclamation</text>
</g>
<!-- D4) Gestion des voyageurs&#45;&gt;D4.1) Réclamation -->
<g id="edge34" class="edge"><title>D4) Gestion des voyageurs&#45;&gt;D4.1) Réclamation</title>
<path style="fill:none;stroke:black;" d="M197,-618C235,-618 279,-618 316,-618"/>
<polygon style="fill:black;stroke:black;" points="316,-621.5 326,-618 316,-614.5 316,-621.5"/>
</g>
<!-- Interface WEB -->
<g id="node43" class="node"><title>Interface WEB</title>
<text text-anchor="middle" x="686" y="-639.9" style="font-family:FreeSans;font-size:14.00;">Interface WEB</text>
</g>
<!-- D4.1) Réclamation&#45;&gt;Interface WEB -->
<g id="edge36" class="edge"><title>D4.1) Réclamation&#45;&gt;Interface WEB</title>
<path style="fill:none;stroke:black;" d="M462,-618C462,-618 555,-629 621,-636"/>
<polygon style="fill:black;stroke:black;" points="620.701,-639.488 631,-637 621.398,-632.522 620.701,-639.488"/>
</g>
<!-- Interface SGBag -->
<g id="node45" class="node"><title>Interface SGBag</title>
<text text-anchor="middle" x="686" y="-589.9" style="font-family:FreeSans;font-size:14.00;">Interface SGBag</text>
</g>
<!-- D4.1) Réclamation&#45;&gt;Interface SGBag -->
<g id="edge38" class="edge"><title>D4.1) Réclamation&#45;&gt;Interface SGBag</title>
<path style="fill:none;stroke:black;" d="M462,-618C462,-618 548,-608 614,-601"/>
<polygon style="fill:black;stroke:black;" points="614.398,-604.478 624,-600 613.701,-597.512 614.398,-604.478"/>
</g>
<!-- D3) Gestion des voyageurs -->
<g id="node46" class="node"><title>D3) Gestion des voyageurs</title>
<polygon style="fill:none;stroke:black;" points="196,-761 4,-761 4,-725 196,-725 196,-761"/>
<text text-anchor="middle" x="100" y="-739.9" style="font-family:FreeSans;font-size:14.00;">D3) Gestion des voyageurs</text>
</g>
<!-- D3.1) Enregistrement des bagages -->
<g id="node48" class="node"><title>D3.1) Enregistrement des bagages</title>
<polygon style="fill:none;stroke:black;" points="514,-761 274,-761 274,-725 514,-725 514,-761"/>
<text text-anchor="middle" x="394" y="-739.9" style="font-family:FreeSans;font-size:14.00;">D3.1) Enregistrement des bagages</text>
</g>
<!-- D3) Gestion des voyageurs&#45;&gt;D3.1) Enregistrement des bagages -->
<g id="edge40" class="edge"><title>D3) Gestion des voyageurs&#45;&gt;D3.1) Enregistrement des bagages</title>
<path style="fill:none;stroke:black;" d="M197,-743C218,-743 241,-743 263,-743"/>
<polygon style="fill:black;stroke:black;" points="263,-746.5 273,-743 263,-739.5 263,-746.5"/>
</g>
<!-- Étiquettage -->
<g id="node50" class="node"><title>Étiquettage</title>
<text text-anchor="middle" x="686" y="-789.9" style="font-family:FreeSans;font-size:14.00;">Étiquettage</text>
</g>
<!-- D3.1) Enregistrement des bagages&#45;&gt;Étiquettage -->
<g id="edge42" class="edge"><title>D3.1) Enregistrement des bagages&#45;&gt;Étiquettage</title>
<path style="fill:none;stroke:black;" d="M515,-743C515,-743 556,-758 588,-768 602,-772 617,-776 631,-779"/>
<polygon style="fill:black;stroke:black;" points="630.416,-782.479 641,-782 632.427,-775.774 630.416,-782.479"/>
</g>
<!-- Vérification du poids -->
<g id="node52" class="node"><title>Vérification du poids</title>
<text text-anchor="middle" x="686" y="-739.9" style="font-family:FreeSans;font-size:14.00;">Vérification du poids</text>
</g>
<!-- D3.1) Enregistrement des bagages&#45;&gt;Vérification du poids -->
<g id="edge44" class="edge"><title>D3.1) Enregistrement des bagages&#45;&gt;Vérification du poids</title>
<path style="fill:none;stroke:black;" d="M515,-743C515,-743 560,-743 603,-743"/>
<polygon style="fill:black;stroke:black;" points="603,-746.5 613,-743 603,-739.5 603,-746.5"/>
</g>
<!-- Injection dans le SGBag -->
<g id="node54" class="node"><title>Injection dans le SGBag</title>
<text text-anchor="middle" x="686" y="-689.9" style="font-family:FreeSans;font-size:14.00;">Injection dans le SGBag</text>
</g>
<!-- D3.1) Enregistrement des bagages&#45;&gt;Injection dans le SGBag -->
<g id="edge46" class="edge"><title>D3.1) Enregistrement des bagages&#45;&gt;Injection dans le SGBag</title>
<path style="fill:none;stroke:black;" d="M515,-743C515,-743 556,-727 588,-718 593,-717 598,-715 603,-714"/>
<polygon style="fill:black;stroke:black;" points="604.427,-717.226 613,-711 602.416,-710.521 604.427,-717.226"/>
</g>
<!-- D2) Gestion des vols -->
<g id="node55" class="node"><title>D2) Gestion des vols</title>
<polygon style="fill:none;stroke:black;" points="175,-861 25,-861 25,-825 175,-825 175,-861"/>
<text text-anchor="middle" x="100" y="-839.9" style="font-family:FreeSans;font-size:14.00;">D2) Gestion des vols</text>
</g>
<!-- D1) R&amp;D -->
<g id="node56" class="node"><title>D1) R&amp;D</title>
<polygon style="fill:none;stroke:black;" points="137,-936 63,-936 63,-900 137,-900 137,-936"/>
<text text-anchor="middle" x="100" y="-914.9" style="font-family:FreeSans;font-size:14.00;">D1) R&amp;D</text>
</g>
<!-- D1.1) SGBag -->
<g id="node58" class="node"><title>D1.1) SGBag</title>
<polygon style="fill:none;stroke:black;" points="445,-936 343,-936 343,-900 445,-900 445,-936"/>
<text text-anchor="middle" x="394" y="-914.9" style="font-family:FreeSans;font-size:14.00;">D1.1) SGBag</text>
</g>
<!-- D1) R&amp;D&#45;&gt;D1.1) SGBag -->
<g id="edge48" class="edge"><title>D1) R&amp;D&#45;&gt;D1.1) SGBag</title>
<path style="fill:none;stroke:black;" d="M137,-918C186,-918 273,-918 333,-918"/>
<polygon style="fill:black;stroke:black;" points="333,-921.5 343,-918 333,-914.5 333,-921.5"/>
</g>
<!-- Configuration -->
<g id="node60" class="node"><title>Configuration</title>
<text text-anchor="middle" x="686" y="-989.9" style="font-family:FreeSans;font-size:14.00;">Configuration</text>
</g>
<!-- D1.1) SGBag&#45;&gt;Configuration -->
<g id="edge50" class="edge"><title>D1.1) SGBag&#45;&gt;Configuration</title>
<path style="fill:none;stroke:black;" d="M445,-918C445,-918 524,-948 588,-968 600,-971 613,-974 625,-977"/>
<polygon style="fill:black;stroke:black;" points="624.416,-980.479 635,-980 626.427,-973.774 624.416,-980.479"/>
</g>
<!-- Simulation -->
<g id="node62" class="node"><title>Simulation</title>
<text text-anchor="middle" x="686" y="-939.9" style="font-family:FreeSans;font-size:14.00;">Simulation</text>
</g>
<!-- D1.1) SGBag&#45;&gt;Simulation -->
<g id="edge52" class="edge"><title>D1.1) SGBag&#45;&gt;Simulation</title>
<path style="fill:none;stroke:black;" d="M445,-918C445,-918 563,-930 634,-938"/>
<polygon style="fill:black;stroke:black;" points="633.701,-941.488 644,-939 634.398,-934.522 633.701,-941.488"/>
</g>
<!-- Maintenance évolutive -->
<g id="node64" class="node"><title>Maintenance évolutive</title>
<text text-anchor="middle" x="686" y="-889.9" style="font-family:FreeSans;font-size:14.00;">Maintenance évolutive</text>
</g>
<!-- D1.1) SGBag&#45;&gt;Maintenance évolutive -->
<g id="edge54" class="edge"><title>D1.1) SGBag&#45;&gt;Maintenance évolutive</title>
<path style="fill:none;stroke:black;" d="M445,-918C445,-918 527,-910 595,-902"/>
<polygon style="fill:black;stroke:black;" points="595.398,-905.478 605,-901 594.701,-898.512 595.398,-905.478"/>
</g>
<!-- Analyse des performances -->
<g id="node66" class="node"><title>Analyse des performances</title>
<text text-anchor="middle" x="686" y="-839.9" style="font-family:FreeSans;font-size:14.00;">Analyse des performances</text>
</g>
<!-- D1.1) SGBag&#45;&gt;Analyse des performances -->
<g id="edge56" class="edge"><title>D1.1) SGBag&#45;&gt;Analyse des performances</title>
<path style="fill:none;stroke:black;" d="M445,-918C445,-918 524,-887 588,-868 593,-867 598,-865 603,-864"/>
<polygon style="fill:black;stroke:black;" points="604.427,-867.226 613,-861 602.416,-860.521 604.427,-867.226"/>
</g>
</g>
</svg>
