<?xml version="1.0" encoding="UTF-8" standalone="no"?>
<!DOCTYPE svg PUBLIC "-//W3C//DTD SVG 1.1//EN"
 "http://www.w3.org/Graphics/SVG/1.1/DTD/svg11.dtd">
<!-- Generated by graphviz version 2.26.3 (20100126.1600)
 -->
<!-- Title: G Pages: 1 -->
<svg width="870pt" height="944pt"
 viewBox="0.00 0.00 870.00 944.00" xmlns="http://www.w3.org/2000/svg" xmlns:xlink="http://www.w3.org/1999/xlink">
<g id="graph1" class="graph" transform="scale(1 1) rotate(0) translate(4 940)">
<title>G</title>
<polygon fill="white" stroke="white" points="-4,5 -4,-940 867,-940 867,5 -4,5"/>
<!-- D9) Administration du SI -->
<g id="node1" class="node"><title>D9) Administration du SI</title>
<polygon fill="none" stroke="black" points="207,-61 17,-61 17,-25 207,-25 207,-61"/>
<text text-anchor="middle" x="112" y="-39.4" font-family="FreeSans" font-size="14.00">D9) Administration du SI</text>
</g>
<!-- D9.1) Maintenance curative -->
<g id="node3" class="node"><title>D9.1) Maintenance curative</title>
<polygon fill="none" stroke="black" points="541,-86 327,-86 327,-50 541,-50 541,-86"/>
<text text-anchor="middle" x="434" y="-64.4" font-family="FreeSans" font-size="14.00">D9.1) Maintenance curative</text>
</g>
<!-- D9) Administration du SI&#45;&gt;D9.1) Maintenance curative -->
<g id="edge2" class="edge"><title>D9) Administration du SI&#45;&gt;D9.1) Maintenance curative</title>
<path fill="none" stroke="black" d="M208,-43C208,-43 261.251,-48.8906 316.056,-54.9531"/>
<polygon fill="black" stroke="black" points="315.971,-58.465 326.295,-56.0857 316.741,-51.5074 315.971,-58.465"/>
</g>
<!-- D9.2) Gestion du réseau sans fil -->
<g id="node5" class="node"><title>D9.2) Gestion du réseau sans fil</title>
<polygon fill="none" stroke="black" points="556,-36 312,-36 312,-1.77636e-14 556,-3.55271e-15 556,-36"/>
<text text-anchor="middle" x="434" y="-14.4" font-family="FreeSans" font-size="14.00">D9.2) Gestion du réseau sans fil</text>
</g>
<!-- D9) Administration du SI&#45;&gt;D9.2) Gestion du réseau sans fil -->
<g id="edge4" class="edge"><title>D9) Administration du SI&#45;&gt;D9.2) Gestion du réseau sans fil</title>
<path fill="none" stroke="black" d="M208,-43C208,-43 252.008,-38.1318 301.185,-32.6919"/>
<polygon fill="black" stroke="black" points="301.855,-36.1392 311.41,-31.5609 301.085,-29.1817 301.855,-36.1392"/>
</g>
<!-- D8) Gestion des bagages -->
<g id="node6" class="node"><title>D8) Gestion des bagages</title>
<polygon fill="none" stroke="black" points="209,-211 15,-211 15,-175 209,-175 209,-211"/>
<text text-anchor="middle" x="112" y="-189.4" font-family="FreeSans" font-size="14.00">D8) Gestion des bagages</text>
</g>
<!-- D8.1) Acheminement automatisé des bagages -->
<g id="node8" class="node"><title>D8.1) Acheminement automatisé des bagages</title>
<polygon fill="none" stroke="black" points="607,-286 261,-286 261,-250 607,-250 607,-286"/>
<text text-anchor="middle" x="434" y="-264.4" font-family="FreeSans" font-size="14.00">D8.1) Acheminement automatisé des bagages</text>
</g>
<!-- D8) Gestion des bagages&#45;&gt;D8.1) Acheminement automatisé des bagages -->
<g id="edge6" class="edge"><title>D8) Gestion des bagages&#45;&gt;D8.1) Acheminement automatisé des bagages</title>
<path fill="none" stroke="black" d="M209,-193C209,-193 303.7,-224.567 370.224,-246.741"/>
<polygon fill="black" stroke="black" points="369.227,-250.098 379.821,-249.94 371.441,-243.457 369.227,-250.098"/>
</g>
<!-- D8.2) Acheminement manuel des bagages -->
<g id="node10" class="node"><title>D8.2) Acheminement manuel des bagages</title>
<polygon fill="none" stroke="black" points="594,-136 274,-136 274,-100 594,-100 594,-136"/>
<text text-anchor="middle" x="434" y="-114.4" font-family="FreeSans" font-size="14.00">D8.2) Acheminement manuel des bagages</text>
</g>
<!-- D8) Gestion des bagages&#45;&gt;D8.2) Acheminement manuel des bagages -->
<g id="edge8" class="edge"><title>D8) Gestion des bagages&#45;&gt;D8.2) Acheminement manuel des bagages</title>
<path fill="none" stroke="black" d="M209,-193C209,-193 303.7,-161.433 370.224,-139.259"/>
<polygon fill="black" stroke="black" points="371.441,-142.543 379.821,-136.06 369.227,-135.902 371.441,-142.543"/>
</g>
<!-- Circulation des chariots -->
<g id="node12" class="node"><title>Circulation des chariots</title>
<text text-anchor="middle" x="753" y="-364.4" font-family="FreeSans" font-size="14.00">Circulation des chariots</text>
</g>
<!-- D8.1) Acheminement automatisé des bagages&#45;&gt;Circulation des chariots -->
<g id="edge10" class="edge"><title>D8.1) Acheminement automatisé des bagages&#45;&gt;Circulation des chariots</title>
<path fill="none" stroke="black" d="M608,-281C608,-281 618.349,-324.097 644,-343 646.381,-344.755 648.865,-346.389 651.43,-347.911"/>
<polygon fill="black" stroke="black" points="649.962,-351.094 660.439,-352.666 653.229,-344.903 649.962,-351.094"/>
</g>
<!-- Gestion de l&#39;énergie -->
<g id="node14" class="node"><title>Gestion de l&#39;énergie</title>
<text text-anchor="middle" x="753" y="-314.4" font-family="FreeSans" font-size="14.00">Gestion de l&#39;énergie</text>
</g>
<!-- D8.1) Acheminement automatisé des bagages&#45;&gt;Gestion de l&#39;énergie -->
<g id="edge12" class="edge"><title>D8.1) Acheminement automatisé des bagages&#45;&gt;Gestion de l&#39;énergie</title>
<path fill="none" stroke="black" d="M608,-281C608,-281 627.762,-288.443 644,-293 649.628,-294.58 655.44,-296.133 661.315,-297.646"/>
<polygon fill="black" stroke="black" points="660.688,-301.097 671.24,-300.149 662.4,-294.309 660.688,-301.097"/>
</g>
<!-- Carrousel -->
<g id="node16" class="node"><title>Carrousel</title>
<text text-anchor="middle" x="753" y="-264.4" font-family="FreeSans" font-size="14.00">Carrousel</text>
</g>
<!-- D8.1) Acheminement automatisé des bagages&#45;&gt;Carrousel -->
<g id="edge14" class="edge"><title>D8.1) Acheminement automatisé des bagages&#45;&gt;Carrousel</title>
<path fill="none" stroke="black" d="M608,-281C608,-281 658.788,-276.447 700.248,-272.729"/>
<polygon fill="black" stroke="black" points="700.632,-276.209 710.279,-271.83 700.007,-269.237 700.632,-276.209"/>
</g>
<!-- s1 -->
<g id="node18" class="node"><title>s1</title>
<text text-anchor="middle" x="753" y="-214.4" font-family="FreeSans" font-size="14.00">Supervision</text>
</g>
<!-- D8.1) Acheminement automatisé des bagages&#45;&gt;s1 -->
<g id="edge16" class="edge"><title>D8.1) Acheminement automatisé des bagages&#45;&gt;s1</title>
<path fill="none" stroke="black" d="M608,-281C608,-281 623.798,-254.538 644,-243 658.659,-234.627 675.936,-229.058 692.36,-225.354"/>
<polygon fill="black" stroke="black" points="693.355,-228.723 702.445,-223.28 691.945,-221.866 693.355,-228.723"/>
</g>
<!-- Embarquement dans l&#39;avion -->
<g id="node20" class="node"><title>Embarquement dans l&#39;avion</title>
<text text-anchor="middle" x="753" y="-164.4" font-family="FreeSans" font-size="14.00">Embarquement dans l&#39;avion</text>
</g>
<!-- D8.2) Acheminement manuel des bagages&#45;&gt;Embarquement dans l&#39;avion -->
<g id="edge18" class="edge"><title>D8.2) Acheminement manuel des bagages&#45;&gt;Embarquement dans l&#39;avion</title>
<path fill="none" stroke="black" d="M594,-106C594,-106 618.886,-131.444 644,-143 646.604,-144.198 649.271,-145.342 651.984,-146.432"/>
<polygon fill="black" stroke="black" points="650.77,-149.715 661.363,-149.941 653.223,-143.159 650.77,-149.715"/>
</g>
<!-- Débarquement de l&#39;avion -->
<g id="node22" class="node"><title>Débarquement de l&#39;avion</title>
<text text-anchor="middle" x="753" y="-114.4" font-family="FreeSans" font-size="14.00">Débarquement de l&#39;avion</text>
</g>
<!-- D8.2) Acheminement manuel des bagages&#45;&gt;Débarquement de l&#39;avion -->
<g id="edge20" class="edge"><title>D8.2) Acheminement manuel des bagages&#45;&gt;Débarquement de l&#39;avion</title>
<path fill="none" stroke="black" d="M594,-106C594,-106 616.019,-107.662 643.67,-109.749"/>
<polygon fill="black" stroke="black" points="643.423,-113.24 653.658,-110.502 643.95,-106.26 643.423,-113.24"/>
</g>
<!-- Commande manuelle -->
<g id="node24" class="node"><title>Commande manuelle</title>
<text text-anchor="middle" x="753" y="-64.4" font-family="FreeSans" font-size="14.00">Commande manuelle</text>
</g>
<!-- D8.2) Acheminement manuel des bagages&#45;&gt;Commande manuelle -->
<g id="edge22" class="edge"><title>D8.2) Acheminement manuel des bagages&#45;&gt;Commande manuelle</title>
<path fill="none" stroke="black" d="M594,-106C594,-106 621.697,-98.456 644,-93 650.188,-91.4862 656.581,-89.9498 663.023,-88.4214"/>
<polygon fill="black" stroke="black" points="664.237,-91.7314 673.167,-86.0306 662.631,-84.9181 664.237,-91.7314"/>
</g>
<!-- s2 -->
<g id="node26" class="node"><title>s2</title>
<text text-anchor="middle" x="753" y="-14.4" font-family="FreeSans" font-size="14.00">Supervision</text>
</g>
<!-- D8.2) Acheminement manuel des bagages&#45;&gt;s2 -->
<g id="edge24" class="edge"><title>D8.2) Acheminement manuel des bagages&#45;&gt;s2</title>
<path fill="none" stroke="black" d="M594,-106C594,-106 602.381,-99.3656 608,-93 626.122,-72.4716 621.187,-58.1463 644,-43 658.198,-33.5732 675.475,-27.6718 692.051,-23.9864"/>
<polygon fill="black" stroke="black" points="693.117,-27.3432 702.246,-21.9665 691.757,-20.4767 693.117,-27.3432"/>
</g>
<!-- D7) Gestion de la sécurité -->
<g id="node27" class="node"><title>D7) Gestion de la sécurité</title>
<polygon fill="none" stroke="black" points="214,-436 10,-436 10,-400 214,-400 214,-436"/>
<text text-anchor="middle" x="112" y="-414.4" font-family="FreeSans" font-size="14.00">D7) Gestion de la sécurité</text>
</g>
<!-- D7.1) Contrôle des bagages -->
<g id="node29" class="node"><title>D7.1) Contrôle des bagages</title>
<polygon fill="none" stroke="black" points="542,-436 326,-436 326,-400 542,-400 542,-436"/>
<text text-anchor="middle" x="434" y="-414.4" font-family="FreeSans" font-size="14.00">D7.1) Contrôle des bagages</text>
</g>
<!-- D7) Gestion de la sécurité&#45;&gt;D7.1) Contrôle des bagages -->
<g id="edge26" class="edge"><title>D7) Gestion de la sécurité&#45;&gt;D7.1) Contrôle des bagages</title>
<path fill="none" stroke="black" d="M214.325,-418C246.535,-418 282.374,-418 315.604,-418"/>
<polygon fill="black" stroke="black" points="315.826,-421.5 325.826,-418 315.826,-414.5 315.826,-421.5"/>
</g>
<!-- Bagages à soute -->
<g id="node31" class="node"><title>Bagages à soute</title>
<text text-anchor="middle" x="753" y="-414.4" font-family="FreeSans" font-size="14.00">Bagages à soute</text>
</g>
<!-- D7.1) Contrôle des bagages&#45;&gt;Bagages à soute -->
<g id="edge28" class="edge"><title>D7.1) Contrôle des bagages&#45;&gt;Bagages à soute</title>
<path fill="none" stroke="black" d="M542.444,-418C586.144,-418 635.559,-418 675.531,-418"/>
<polygon fill="black" stroke="black" points="675.745,-421.5 685.745,-418 675.745,-414.5 675.745,-421.5"/>
</g>
<!-- D6) Gestion de l&#39;équipement -->
<g id="node32" class="node"><title>D6) Gestion de l&#39;équipement</title>
<polygon fill="none" stroke="black" points="223,-486 1,-486 1,-450 223,-450 223,-486"/>
<text text-anchor="middle" x="112" y="-464.4" font-family="FreeSans" font-size="14.00">D6) Gestion de l&#39;équipement</text>
</g>
<!-- D6.1) Réparation -->
<g id="node34" class="node"><title>D6.1) Réparation</title>
<polygon fill="none" stroke="black" points="502,-486 366,-486 366,-450 502,-450 502,-486"/>
<text text-anchor="middle" x="434" y="-464.4" font-family="FreeSans" font-size="14.00">D6.1) Réparation</text>
</g>
<!-- D6) Gestion de l&#39;équipement&#45;&gt;D6.1) Réparation -->
<g id="edge30" class="edge"><title>D6) Gestion de l&#39;équipement&#45;&gt;D6.1) Réparation</title>
<path fill="none" stroke="black" d="M223.716,-468C266.995,-468 315.531,-468 355.06,-468"/>
<polygon fill="black" stroke="black" points="355.168,-471.5 365.168,-468 355.168,-464.5 355.168,-471.5"/>
</g>
<!-- SGBag (rails, chariots, etc.) -->
<g id="node36" class="node"><title>SGBag (rails, chariots, etc.)</title>
<text text-anchor="middle" x="753" y="-464.4" font-family="FreeSans" font-size="14.00">SGBag (rails, chariots, etc.)</text>
</g>
<!-- D6.1) Réparation&#45;&gt;SGBag (rails, chariots, etc.) -->
<g id="edge32" class="edge"><title>D6.1) Réparation&#45;&gt;SGBag (rails, chariots, etc.)</title>
<path fill="none" stroke="black" d="M502.826,-468C541.905,-468 591.859,-468 636.837,-468"/>
<polygon fill="black" stroke="black" points="636.95,-471.5 646.95,-468 636.95,-464.5 636.95,-471.5"/>
</g>
<!-- D5) Gestion du personnel -->
<g id="node37" class="node"><title>D5) Gestion du personnel</title>
<polygon fill="none" stroke="black" points="211,-543 13,-543 13,-507 211,-507 211,-543"/>
<text text-anchor="middle" x="112" y="-521.4" font-family="FreeSans" font-size="14.00">D5) Gestion du personnel</text>
</g>
<!-- D4) Gestion des locaux -->
<g id="node38" class="node"><title>D4) Gestion des locaux</title>
<polygon fill="none" stroke="black" points="202,-605 22,-605 22,-569 202,-569 202,-605"/>
<text text-anchor="middle" x="112" y="-583.4" font-family="FreeSans" font-size="14.00">D4) Gestion des locaux</text>
</g>
<!-- D3) Gestion des voyageurs -->
<g id="node39" class="node"><title>D3) Gestion des voyageurs</title>
<polygon fill="none" stroke="black" points="216,-661 8,-661 8,-625 216,-625 216,-661"/>
<text text-anchor="middle" x="112" y="-639.4" font-family="FreeSans" font-size="14.00">D3) Gestion des voyageurs</text>
</g>
<!-- D3.2) Réclamation -->
<g id="node41" class="node"><title>D3.2) Réclamation</title>
<polygon fill="none" stroke="black" points="507,-686 361,-686 361,-650 507,-650 507,-686"/>
<text text-anchor="middle" x="434" y="-664.4" font-family="FreeSans" font-size="14.00">D3.2) Réclamation</text>
</g>
<!-- D3) Gestion des voyageurs&#45;&gt;D3.2) Réclamation -->
<g id="edge34" class="edge"><title>D3) Gestion des voyageurs&#45;&gt;D3.2) Réclamation</title>
<path fill="none" stroke="black" d="M216,-639C216,-639 289.105,-648.725 350.647,-656.912"/>
<polygon fill="black" stroke="black" points="350.428,-660.413 360.803,-658.263 351.352,-653.475 350.428,-660.413"/>
</g>
<!-- D3.1) Enregistrement des bagages -->
<g id="node47" class="node"><title>D3.1) Enregistrement des bagages</title>
<polygon fill="none" stroke="black" points="567,-611 301,-611 301,-575 567,-575 567,-611"/>
<text text-anchor="middle" x="434" y="-589.4" font-family="FreeSans" font-size="14.00">D3.1) Enregistrement des bagages</text>
</g>
<!-- D3) Gestion des voyageurs&#45;&gt;D3.1) Enregistrement des bagages -->
<g id="edge40" class="edge"><title>D3) Gestion des voyageurs&#45;&gt;D3.1) Enregistrement des bagages</title>
<path fill="none" stroke="black" d="M216,-639C216,-639 279.797,-625.538 338.367,-613.179"/>
<polygon fill="black" stroke="black" points="339.404,-616.538 348.466,-611.048 337.959,-609.689 339.404,-616.538"/>
</g>
<!-- Interface WEB -->
<g id="node43" class="node"><title>Interface WEB</title>
<text text-anchor="middle" x="753" y="-714.4" font-family="FreeSans" font-size="14.00">Interface WEB</text>
</g>
<!-- D3.2) Réclamation&#45;&gt;Interface WEB -->
<g id="edge36" class="edge"><title>D3.2) Réclamation&#45;&gt;Interface WEB</title>
<path fill="none" stroke="black" d="M507,-674C507,-674 610.963,-692.595 683.719,-705.608"/>
<polygon fill="black" stroke="black" points="683.304,-709.089 693.764,-707.405 684.536,-702.199 683.304,-709.089"/>
</g>
<!-- Interface SGBag -->
<g id="node45" class="node"><title>Interface SGBag</title>
<text text-anchor="middle" x="753" y="-664.4" font-family="FreeSans" font-size="14.00">Interface SGBag</text>
</g>
<!-- D3.2) Réclamation&#45;&gt;Interface SGBag -->
<g id="edge38" class="edge"><title>D3.2) Réclamation&#45;&gt;Interface SGBag</title>
<path fill="none" stroke="black" d="M507,-674C507,-674 604.504,-671.622 676.74,-669.86"/>
<polygon fill="black" stroke="black" points="676.841,-673.359 686.753,-669.616 676.671,-666.361 676.841,-673.359"/>
</g>
<!-- Étiquettage -->
<g id="node49" class="node"><title>Étiquettage</title>
<text text-anchor="middle" x="753" y="-614.4" font-family="FreeSans" font-size="14.00">Étiquettage</text>
</g>
<!-- D3.1) Enregistrement des bagages&#45;&gt;Étiquettage -->
<g id="edge42" class="edge"><title>D3.1) Enregistrement des bagages&#45;&gt;Étiquettage</title>
<path fill="none" stroke="black" d="M567,-583C567,-583 637.991,-596.359 692.258,-606.57"/>
<polygon fill="black" stroke="black" points="691.7,-610.026 702.175,-608.436 692.994,-603.147 691.7,-610.026"/>
</g>
<!-- Vérification du poids -->
<g id="node51" class="node"><title>Vérification du poids</title>
<text text-anchor="middle" x="753" y="-564.4" font-family="FreeSans" font-size="14.00">Vérification du poids</text>
</g>
<!-- D3.1) Enregistrement des bagages&#45;&gt;Vérification du poids -->
<g id="edge44" class="edge"><title>D3.1) Enregistrement des bagages&#45;&gt;Vérification du poids</title>
<path fill="none" stroke="black" d="M567,-583C567,-583 613.912,-579.217 660.617,-575.45"/>
<polygon fill="black" stroke="black" points="661.19,-578.915 670.876,-574.623 660.627,-571.938 661.19,-578.915"/>
</g>
<!-- Injection dans le SGBag -->
<g id="node53" class="node"><title>Injection dans le SGBag</title>
<text text-anchor="middle" x="753" y="-514.4" font-family="FreeSans" font-size="14.00">Injection dans le SGBag</text>
</g>
<!-- D3.1) Enregistrement des bagages&#45;&gt;Injection dans le SGBag -->
<g id="edge46" class="edge"><title>D3.1) Enregistrement des bagages&#45;&gt;Injection dans le SGBag</title>
<path fill="none" stroke="black" d="M567,-583C567,-583 607.804,-556.306 644,-543 647.737,-541.626 651.575,-540.312 655.473,-539.057"/>
<polygon fill="black" stroke="black" points="656.729,-542.333 665.266,-536.058 654.679,-535.64 656.729,-542.333"/>
</g>
<!-- D2) Gestion des vols -->
<g id="node54" class="node"><title>D2) Gestion des vols</title>
<polygon fill="none" stroke="black" points="194,-774 30,-774 30,-738 194,-738 194,-774"/>
<text text-anchor="middle" x="112" y="-752.4" font-family="FreeSans" font-size="14.00">D2) Gestion des vols</text>
</g>
<!-- D1) Développement -->
<g id="node55" class="node"><title>D1) Développement</title>
<polygon fill="none" stroke="black" points="192,-861 32,-861 32,-825 192,-825 192,-861"/>
<text text-anchor="middle" x="112" y="-839.4" font-family="FreeSans" font-size="14.00">D1) Développement</text>
</g>
<!-- D1.1) SGBag -->
<g id="node57" class="node"><title>D1.1) SGBag</title>
<polygon fill="none" stroke="black" points="487,-861 381,-861 381,-825 487,-825 487,-861"/>
<text text-anchor="middle" x="434" y="-839.4" font-family="FreeSans" font-size="14.00">D1.1) SGBag</text>
</g>
<!-- D1) Développement&#45;&gt;D1.1) SGBag -->
<g id="edge48" class="edge"><title>D1) Développement&#45;&gt;D1.1) SGBag</title>
<path fill="none" stroke="black" d="M192.839,-843C247.739,-843 319.335,-843 370.22,-843"/>
<polygon fill="black" stroke="black" points="370.429,-846.5 380.429,-843 370.429,-839.5 370.429,-846.5"/>
</g>
<!-- Configuration -->
<g id="node59" class="node"><title>Configuration</title>
<text text-anchor="middle" x="753" y="-914.4" font-family="FreeSans" font-size="14.00">Configuration</text>
</g>
<!-- D1.1) SGBag&#45;&gt;Configuration -->
<g id="edge50" class="edge"><title>D1.1) SGBag&#45;&gt;Configuration</title>
<path fill="none" stroke="black" d="M488,-843C488,-843 573.788,-873.733 644,-893 657.635,-896.741 672.333,-900.377 686.386,-903.665"/>
<polygon fill="black" stroke="black" points="685.949,-907.156 696.48,-905.994 687.523,-900.335 685.949,-907.156"/>
</g>
<!-- Simulation -->
<g id="node61" class="node"><title>Simulation</title>
<text text-anchor="middle" x="753" y="-864.4" font-family="FreeSans" font-size="14.00">Simulation</text>
</g>
<!-- D1.1) SGBag&#45;&gt;Simulation -->
<g id="edge52" class="edge"><title>D1.1) SGBag&#45;&gt;Simulation</title>
<path fill="none" stroke="black" d="M488,-843C488,-843 618.203,-855.283 696.077,-862.63"/>
<polygon fill="black" stroke="black" points="695.949,-866.133 706.233,-863.588 696.606,-859.164 695.949,-866.133"/>
</g>
<!-- Maintenance évolutive -->
<g id="node63" class="node"><title>Maintenance évolutive</title>
<text text-anchor="middle" x="753" y="-814.4" font-family="FreeSans" font-size="14.00">Maintenance évolutive</text>
</g>
<!-- D1.1) SGBag&#45;&gt;Maintenance évolutive -->
<g id="edge54" class="edge"><title>D1.1) SGBag&#45;&gt;Maintenance évolutive</title>
<path fill="none" stroke="black" d="M488,-843C488,-843 577.841,-834.524 652.902,-827.443"/>
<polygon fill="black" stroke="black" points="653.286,-830.923 662.913,-826.499 652.629,-823.954 653.286,-830.923"/>
</g>
<!-- Analyse des performances -->
<g id="node65" class="node"><title>Analyse des performances</title>
<text text-anchor="middle" x="753" y="-764.4" font-family="FreeSans" font-size="14.00">Analyse des performances</text>
</g>
<!-- D1.1) SGBag&#45;&gt;Analyse des performances -->
<g id="edge56" class="edge"><title>D1.1) SGBag&#45;&gt;Analyse des performances</title>
<path fill="none" stroke="black" d="M488,-843C488,-843 573.788,-812.267 644,-793 649.577,-791.47 655.333,-789.957 661.149,-788.478"/>
<polygon fill="black" stroke="black" points="662.12,-791.843 670.974,-786.025 660.424,-785.052 662.12,-791.843"/>
</g>
</g>
</svg>
