<?xml version="1.0" encoding="UTF-8" standalone="no"?>
<!DOCTYPE svg PUBLIC "-//W3C//DTD SVG 1.1//EN"
 "http://www.w3.org/Graphics/SVG/1.1/DTD/svg11.dtd">
<!-- Generated by graphviz version 2.26.3 (20100126.1600)
 -->
<!-- Title: G Pages: 1 -->
<svg width="796pt" height="944pt"
 viewBox="0.00 0.00 796.00 944.00" xmlns="http://www.w3.org/2000/svg" xmlns:xlink="http://www.w3.org/1999/xlink">
<g id="graph1" class="graph" transform="scale(1 1) rotate(0) translate(4 940)">
<title>G</title>
<polygon fill="white" stroke="white" points="-4,5 -4,-940 793,-940 793,5 -4,5"/>
<!-- D9) Administration du SI -->
<g id="node1" class="node"><title>D9) Administration du SI</title>
<polygon fill="none" stroke="black" points="186,-61 14,-61 14,-25 186,-25 186,-61"/>
<text text-anchor="middle" x="100" y="-39.9" font-family="FreeSans" font-size="14.00">D9) Administration du SI</text>
</g>
<!-- D9.1) Maintenance curative -->
<g id="node3" class="node"><title>D9.1) Maintenance curative</title>
<polygon fill="none" stroke="black" points="492,-86 298,-86 298,-50 492,-50 492,-86"/>
<text text-anchor="middle" x="395" y="-64.9" font-family="FreeSans" font-size="14.00">D9.1) Maintenance curative</text>
</g>
<!-- D9) Administration du SI&#45;&gt;D9.1) Maintenance curative -->
<g id="edge2" class="edge"><title>D9) Administration du SI&#45;&gt;D9.1) Maintenance curative</title>
<path fill="none" stroke="black" d="M187,-43C187,-43 236.715,-48.9754 287.535,-55.0835"/>
<polygon fill="black" stroke="black" points="287.353,-58.5867 297.699,-56.3052 288.188,-51.6368 287.353,-58.5867"/>
</g>
<!-- D9.2) Gestion du réseau sans fil -->
<g id="node5" class="node"><title>D9.2) Gestion du réseau sans fil</title>
<polygon fill="none" stroke="black" points="507,-36 283,-36 283,-7.10543e-15 507,-0 507,-36"/>
<text text-anchor="middle" x="395" y="-14.9" font-family="FreeSans" font-size="14.00">D9.2) Gestion du réseau sans fil</text>
</g>
<!-- D9) Administration du SI&#45;&gt;D9.2) Gestion du réseau sans fil -->
<g id="edge4" class="edge"><title>D9) Administration du SI&#45;&gt;D9.2) Gestion du réseau sans fil</title>
<path fill="none" stroke="black" d="M187,-43C187,-43 227.499,-38.1323 272.756,-32.6928"/>
<polygon fill="black" stroke="black" points="273.27,-36.1563 282.781,-31.4879 272.435,-29.2063 273.27,-36.1563"/>
</g>
<!-- D8) Gestion des bagages -->
<g id="node6" class="node"><title>D8) Gestion des bagages</title>
<polygon fill="none" stroke="black" points="191,-211 9,-211 9,-175 191,-175 191,-211"/>
<text text-anchor="middle" x="100" y="-189.9" font-family="FreeSans" font-size="14.00">D8) Gestion des bagages</text>
</g>
<!-- D8.1) Acheminement automatisé des bagages -->
<g id="node8" class="node"><title>D8.1) Acheminement automatisé des bagages</title>
<polygon fill="none" stroke="black" points="553,-286 237,-286 237,-250 553,-250 553,-286"/>
<text text-anchor="middle" x="395" y="-264.9" font-family="FreeSans" font-size="14.00">D8.1) Acheminement automatisé des bagages</text>
</g>
<!-- D8) Gestion des bagages&#45;&gt;D8.1) Acheminement automatisé des bagages -->
<g id="edge6" class="edge"><title>D8) Gestion des bagages&#45;&gt;D8.1) Acheminement automatisé des bagages</title>
<path fill="none" stroke="black" d="M191,-193C191,-193 276.159,-224.308 336.434,-246.468"/>
<polygon fill="black" stroke="black" points="335.284,-249.774 345.877,-249.94 337.699,-243.204 335.284,-249.774"/>
</g>
<!-- D8.2) Acheminement manuel des bagages -->
<g id="node10" class="node"><title>D8.2) Acheminement manuel des bagages</title>
<polygon fill="none" stroke="black" points="541,-136 249,-136 249,-100 541,-100 541,-136"/>
<text text-anchor="middle" x="395" y="-114.9" font-family="FreeSans" font-size="14.00">D8.2) Acheminement manuel des bagages</text>
</g>
<!-- D8) Gestion des bagages&#45;&gt;D8.2) Acheminement manuel des bagages -->
<g id="edge8" class="edge"><title>D8) Gestion des bagages&#45;&gt;D8.2) Acheminement manuel des bagages</title>
<path fill="none" stroke="black" d="M191,-193C191,-193 276.159,-161.692 336.434,-139.532"/>
<polygon fill="black" stroke="black" points="337.699,-142.796 345.877,-136.06 335.284,-136.226 337.699,-142.796"/>
</g>
<!-- Circulation des chariots -->
<g id="node12" class="node"><title>Circulation des chariots</title>
<text text-anchor="middle" x="689" y="-364.9" font-family="FreeSans" font-size="14.00">Circulation des chariots</text>
</g>
<!-- D8.1) Acheminement automatisé des bagages&#45;&gt;Circulation des chariots -->
<g id="edge10" class="edge"><title>D8.1) Acheminement automatisé des bagages&#45;&gt;Circulation des chariots</title>
<path fill="none" stroke="black" d="M554,-281C554,-281 564.558,-323.817 590,-343 592.044,-344.541 594.172,-345.987 596.368,-347.345"/>
<polygon fill="black" stroke="black" points="594.693,-350.418 605.144,-352.156 598.058,-344.28 594.693,-350.418"/>
</g>
<!-- Gestion de l&#39;énergie -->
<g id="node14" class="node"><title>Gestion de l&#39;énergie</title>
<text text-anchor="middle" x="689" y="-314.9" font-family="FreeSans" font-size="14.00">Gestion de l&#39;énergie</text>
</g>
<!-- D8.1) Acheminement automatisé des bagages&#45;&gt;Gestion de l&#39;énergie -->
<g id="edge12" class="edge"><title>D8.1) Acheminement automatisé des bagages&#45;&gt;Gestion de l&#39;énergie</title>
<path fill="none" stroke="black" d="M554,-281C554,-281 573.813,-288.265 590,-293 595.211,-294.524 600.591,-296.041 606.027,-297.531"/>
<polygon fill="black" stroke="black" points="605.279,-300.955 615.845,-300.18 607.102,-294.196 605.279,-300.955"/>
</g>
<!-- Carrousel -->
<g id="node16" class="node"><title>Carrousel</title>
<text text-anchor="middle" x="689" y="-264.9" font-family="FreeSans" font-size="14.00">Carrousel</text>
</g>
<!-- D8.1) Acheminement automatisé des bagages&#45;&gt;Carrousel -->
<g id="edge14" class="edge"><title>D8.1) Acheminement automatisé des bagages&#45;&gt;Carrousel</title>
<path fill="none" stroke="black" d="M554,-281C554,-281 600.403,-276.532 638.798,-272.834"/>
<polygon fill="black" stroke="black" points="639.243,-276.308 648.861,-271.865 638.572,-269.34 639.243,-276.308"/>
</g>
<!-- s1 -->
<g id="node18" class="node"><title>s1</title>
<text text-anchor="middle" x="689" y="-214.9" font-family="FreeSans" font-size="14.00">Supervision</text>
</g>
<!-- D8.1) Acheminement automatisé des bagages&#45;&gt;s1 -->
<g id="edge16" class="edge"><title>D8.1) Acheminement automatisé des bagages&#45;&gt;s1</title>
<path fill="none" stroke="black" d="M554,-281C554,-281 569.926,-254.759 590,-243 602.863,-235.465 617.958,-230.183 632.431,-226.487"/>
<polygon fill="black" stroke="black" points="633.377,-229.86 642.316,-224.173 631.781,-223.044 633.377,-229.86"/>
</g>
<!-- Embarquement dans l&#39;avion -->
<g id="node20" class="node"><title>Embarquement dans l&#39;avion</title>
<text text-anchor="middle" x="689" y="-164.9" font-family="FreeSans" font-size="14.00">Embarquement dans l&#39;avion</text>
</g>
<!-- D8.2) Acheminement manuel des bagages&#45;&gt;Embarquement dans l&#39;avion -->
<g id="edge18" class="edge"><title>D8.2) Acheminement manuel des bagages&#45;&gt;Embarquement dans l&#39;avion</title>
<path fill="none" stroke="black" d="M542,-106C542,-106 565.77,-131.235 590,-143 592.302,-144.118 594.66,-145.189 597.059,-146.216"/>
<polygon fill="black" stroke="black" points="595.904,-149.523 606.49,-149.956 598.485,-143.016 595.904,-149.523"/>
</g>
<!-- Débarquement de l&#39;avion -->
<g id="node22" class="node"><title>Débarquement de l&#39;avion</title>
<text text-anchor="middle" x="689" y="-114.9" font-family="FreeSans" font-size="14.00">Débarquement de l&#39;avion</text>
</g>
<!-- D8.2) Acheminement manuel des bagages&#45;&gt;Débarquement de l&#39;avion -->
<g id="edge20" class="edge"><title>D8.2) Acheminement manuel des bagages&#45;&gt;Débarquement de l&#39;avion</title>
<path fill="none" stroke="black" d="M542,-106C542,-106 562.954,-107.711 589.039,-109.84"/>
<polygon fill="black" stroke="black" points="589.003,-113.349 599.255,-110.674 589.573,-106.372 589.003,-113.349"/>
</g>
<!-- Commande manuelle -->
<g id="node24" class="node"><title>Commande manuelle</title>
<text text-anchor="middle" x="689" y="-64.9" font-family="FreeSans" font-size="14.00">Commande manuelle</text>
</g>
<!-- D8.2) Acheminement manuel des bagages&#45;&gt;Commande manuelle -->
<g id="edge22" class="edge"><title>D8.2) Acheminement manuel des bagages&#45;&gt;Commande manuelle</title>
<path fill="none" stroke="black" d="M542,-106C542,-106 568.618,-98.5948 590,-93 595.603,-91.5339 601.389,-90.0348 607.219,-88.535"/>
<polygon fill="black" stroke="black" points="608.23,-91.8891 617.048,-86.0161 606.492,-85.1083 608.23,-91.8891"/>
</g>
<!-- s2 -->
<g id="node26" class="node"><title>s2</title>
<text text-anchor="middle" x="689" y="-14.9" font-family="FreeSans" font-size="14.00">Supervision</text>
</g>
<!-- D8.2) Acheminement manuel des bagages&#45;&gt;s2 -->
<g id="edge24" class="edge"><title>D8.2) Acheminement manuel des bagages&#45;&gt;s2</title>
<path fill="none" stroke="black" d="M542,-106C542,-106 549.027,-99.0907 554,-93 571.319,-71.7893 567.355,-58.3952 590,-43 602.507,-34.4974 617.673,-28.8854 632.336,-25.1816"/>
<polygon fill="black" stroke="black" points="633.388,-28.5321 642.368,-22.9103 631.842,-21.7049 633.388,-28.5321"/>
</g>
<!-- D7) Gestion de la sécurité -->
<g id="node27" class="node"><title>D7) Gestion de la sécurité</title>
<polygon fill="none" stroke="black" points="192,-436 8,-436 8,-400 192,-400 192,-436"/>
<text text-anchor="middle" x="100" y="-414.9" font-family="FreeSans" font-size="14.00">D7) Gestion de la sécurité</text>
</g>
<!-- D7.1) Contrôle des bagages -->
<g id="node29" class="node"><title>D7.1) Contrôle des bagages</title>
<polygon fill="none" stroke="black" points="494,-436 296,-436 296,-400 494,-400 494,-436"/>
<text text-anchor="middle" x="395" y="-414.9" font-family="FreeSans" font-size="14.00">D7.1) Contrôle des bagages</text>
</g>
<!-- D7) Gestion de la sécurité&#45;&gt;D7.1) Contrôle des bagages -->
<g id="edge26" class="edge"><title>D7) Gestion de la sécurité&#45;&gt;D7.1) Contrôle des bagages</title>
<path fill="none" stroke="black" d="M192.126,-418C221.592,-418 254.507,-418 285.108,-418"/>
<polygon fill="black" stroke="black" points="285.388,-421.5 295.388,-418 285.388,-414.5 285.388,-421.5"/>
</g>
<!-- Bagages à soute -->
<g id="node31" class="node"><title>Bagages à soute</title>
<text text-anchor="middle" x="689" y="-414.9" font-family="FreeSans" font-size="14.00">Bagages à soute</text>
</g>
<!-- D7.1) Contrôle des bagages&#45;&gt;Bagages à soute -->
<g id="edge28" class="edge"><title>D7.1) Contrôle des bagages&#45;&gt;Bagages à soute</title>
<path fill="none" stroke="black" d="M494.535,-418C533.973,-418 578.516,-418 615.012,-418"/>
<polygon fill="black" stroke="black" points="615.082,-421.5 625.082,-418 615.082,-414.5 615.082,-421.5"/>
</g>
<!-- D6) Gestion de l&#39;équipement -->
<g id="node32" class="node"><title>D6) Gestion de l&#39;équipement</title>
<polygon fill="none" stroke="black" points="200,-486 5.68434e-14,-486 1.42109e-14,-450 200,-450 200,-486"/>
<text text-anchor="middle" x="100" y="-464.9" font-family="FreeSans" font-size="14.00">D6) Gestion de l&#39;équipement</text>
</g>
<!-- D6.1) Réparation -->
<g id="node34" class="node"><title>D6.1) Réparation</title>
<polygon fill="none" stroke="black" points="458,-486 332,-486 332,-450 458,-450 458,-486"/>
<text text-anchor="middle" x="395" y="-464.9" font-family="FreeSans" font-size="14.00">D6.1) Réparation</text>
</g>
<!-- D6) Gestion de l&#39;équipement&#45;&gt;D6.1) Réparation -->
<g id="edge30" class="edge"><title>D6) Gestion de l&#39;équipement&#45;&gt;D6.1) Réparation</title>
<path fill="none" stroke="black" d="M200.285,-468C239.982,-468 284.779,-468 321.388,-468"/>
<polygon fill="black" stroke="black" points="321.486,-471.5 331.486,-468 321.486,-464.5 321.486,-471.5"/>
</g>
<!-- SGBag (rails, chariots, etc.) -->
<g id="node36" class="node"><title>SGBag (rails, chariots, etc.)</title>
<text text-anchor="middle" x="689" y="-464.9" font-family="FreeSans" font-size="14.00">SGBag (rails, chariots, etc.)</text>
</g>
<!-- D6.1) Réparation&#45;&gt;SGBag (rails, chariots, etc.) -->
<g id="edge32" class="edge"><title>D6.1) Réparation&#45;&gt;SGBag (rails, chariots, etc.)</title>
<path fill="none" stroke="black" d="M458.794,-468C494.99,-468 541.222,-468 582.745,-468"/>
<polygon fill="black" stroke="black" points="582.911,-471.5 592.911,-468 582.911,-464.5 582.911,-471.5"/>
</g>
<!-- D5) Gestion du personnel -->
<g id="node37" class="node"><title>D5) Gestion du personnel</title>
<polygon fill="none" stroke="black" points="191,-543 9,-543 9,-507 191,-507 191,-543"/>
<text text-anchor="middle" x="100" y="-521.9" font-family="FreeSans" font-size="14.00">D5) Gestion du personnel</text>
</g>
<!-- D4) Gestion des locaux -->
<g id="node38" class="node"><title>D4) Gestion des locaux</title>
<polygon fill="none" stroke="black" points="184,-605 16,-605 16,-569 184,-569 184,-605"/>
<text text-anchor="middle" x="100" y="-583.9" font-family="FreeSans" font-size="14.00">D4) Gestion des locaux</text>
</g>
<!-- D3) Gestion des voyageurs -->
<g id="node39" class="node"><title>D3) Gestion des voyageurs</title>
<polygon fill="none" stroke="black" points="197,-661 3,-661 3,-625 197,-625 197,-661"/>
<text text-anchor="middle" x="100" y="-639.9" font-family="FreeSans" font-size="14.00">D3) Gestion des voyageurs</text>
</g>
<!-- D3.2) Réclamation -->
<g id="node41" class="node"><title>D3.2) Réclamation</title>
<polygon fill="none" stroke="black" points="463,-686 327,-686 327,-650 463,-650 463,-686"/>
<text text-anchor="middle" x="395" y="-664.9" font-family="FreeSans" font-size="14.00">D3.2) Réclamation</text>
</g>
<!-- D3) Gestion des voyageurs&#45;&gt;D3.2) Réclamation -->
<g id="edge34" class="edge"><title>D3) Gestion des voyageurs&#45;&gt;D3.2) Réclamation</title>
<path fill="none" stroke="black" d="M197,-639C197,-639 260.914,-648.361 316.116,-656.446"/>
<polygon fill="black" stroke="black" points="315.903,-659.952 326.305,-657.939 316.918,-653.026 315.903,-659.952"/>
</g>
<!-- D3.1) Enregistrement des bagages -->
<g id="node47" class="node"><title>D3.1) Enregistrement des bagages</title>
<polygon fill="none" stroke="black" points="516,-611 274,-611 274,-575 516,-575 516,-611"/>
<text text-anchor="middle" x="395" y="-589.9" font-family="FreeSans" font-size="14.00">D3.1) Enregistrement des bagages</text>
</g>
<!-- D3) Gestion des voyageurs&#45;&gt;D3.1) Enregistrement des bagages -->
<g id="edge40" class="edge"><title>D3) Gestion des voyageurs&#45;&gt;D3.1) Enregistrement des bagages</title>
<path fill="none" stroke="black" d="M197,-639C197,-639 254.466,-625.649 307.481,-613.333"/>
<polygon fill="black" stroke="black" points="308.365,-616.721 317.313,-611.048 306.781,-609.902 308.365,-616.721"/>
</g>
<!-- Interface WEB -->
<g id="node43" class="node"><title>Interface WEB</title>
<text text-anchor="middle" x="689" y="-714.9" font-family="FreeSans" font-size="14.00">Interface WEB</text>
</g>
<!-- D3.2) Réclamation&#45;&gt;Interface WEB -->
<g id="edge36" class="edge"><title>D3.2) Réclamation&#45;&gt;Interface WEB</title>
<path fill="none" stroke="black" d="M464,-674C464,-674 557.502,-692.285 623.955,-705.28"/>
<polygon fill="black" stroke="black" points="623.473,-708.752 633.959,-707.236 624.816,-701.882 623.473,-708.752"/>
</g>
<!-- Interface SGBag -->
<g id="node45" class="node"><title>Interface SGBag</title>
<text text-anchor="middle" x="689" y="-664.9" font-family="FreeSans" font-size="14.00">Interface SGBag</text>
</g>
<!-- D3.2) Réclamation&#45;&gt;Interface SGBag -->
<g id="edge38" class="edge"><title>D3.2) Réclamation&#45;&gt;Interface SGBag</title>
<path fill="none" stroke="black" d="M464,-674C464,-674 550.789,-671.686 616.563,-669.932"/>
<polygon fill="black" stroke="black" points="617.019,-673.421 626.922,-669.655 616.832,-666.423 617.019,-673.421"/>
</g>
<!-- Étiquettage -->
<g id="node49" class="node"><title>Étiquettage</title>
<text text-anchor="middle" x="689" y="-614.9" font-family="FreeSans" font-size="14.00">Étiquettage</text>
</g>
<!-- D3.1) Enregistrement des bagages&#45;&gt;Étiquettage -->
<g id="edge42" class="edge"><title>D3.1) Enregistrement des bagages&#45;&gt;Étiquettage</title>
<path fill="none" stroke="black" d="M516,-583C516,-583 583.842,-596.725 634.558,-606.986"/>
<polygon fill="black" stroke="black" points="633.953,-610.434 644.448,-608.987 635.341,-603.573 633.953,-610.434"/>
</g>
<!-- Vérification du poids -->
<g id="node51" class="node"><title>Vérification du poids</title>
<text text-anchor="middle" x="689" y="-564.9" font-family="FreeSans" font-size="14.00">Vérification du poids</text>
</g>
<!-- D3.1) Enregistrement des bagages&#45;&gt;Vérification du poids -->
<g id="edge44" class="edge"><title>D3.1) Enregistrement des bagages&#45;&gt;Vérification du poids</title>
<path fill="none" stroke="black" d="M516,-583C516,-583 561.522,-579.053 605.863,-575.208"/>
<polygon fill="black" stroke="black" points="606.223,-578.69 615.883,-574.34 605.618,-571.717 606.223,-578.69"/>
</g>
<!-- Injection dans le SGBag -->
<g id="node53" class="node"><title>Injection dans le SGBag</title>
<text text-anchor="middle" x="689" y="-514.9" font-family="FreeSans" font-size="14.00">Injection dans le SGBag</text>
</g>
<!-- D3.1) Enregistrement des bagages&#45;&gt;Injection dans le SGBag -->
<g id="edge46" class="edge"><title>D3.1) Enregistrement des bagages&#45;&gt;Injection dans le SGBag</title>
<path fill="none" stroke="black" d="M516,-583C516,-583 555.163,-556.57 590,-543 593.422,-541.667 596.939,-540.386 600.513,-539.157"/>
<polygon fill="black" stroke="black" points="601.663,-542.463 610.079,-536.027 599.487,-535.81 601.663,-542.463"/>
</g>
<!-- D2) Gestion des vols -->
<g id="node54" class="node"><title>D2) Gestion des vols</title>
<polygon fill="none" stroke="black" points="176,-774 24,-774 24,-738 176,-738 176,-774"/>
<text text-anchor="middle" x="100" y="-752.9" font-family="FreeSans" font-size="14.00">D2) Gestion des vols</text>
</g>
<!-- D1) Développement -->
<g id="node55" class="node"><title>D1) Développement</title>
<polygon fill="none" stroke="black" points="173,-861 27,-861 27,-825 173,-825 173,-861"/>
<text text-anchor="middle" x="100" y="-839.9" font-family="FreeSans" font-size="14.00">D1) Développement</text>
</g>
<!-- D1.1) SGBag -->
<g id="node57" class="node"><title>D1.1) SGBag</title>
<polygon fill="none" stroke="black" points="446,-861 344,-861 344,-825 446,-825 446,-861"/>
<text text-anchor="middle" x="395" y="-839.9" font-family="FreeSans" font-size="14.00">D1.1) SGBag</text>
</g>
<!-- D1) Développement&#45;&gt;D1.1) SGBag -->
<g id="edge48" class="edge"><title>D1) Développement&#45;&gt;D1.1) SGBag</title>
<path fill="none" stroke="black" d="M173.3,-843C222.48,-843 286.539,-843 333.145,-843"/>
<polygon fill="black" stroke="black" points="333.405,-846.5 343.405,-843 333.405,-839.5 333.405,-846.5"/>
</g>
<!-- Configuration -->
<g id="node59" class="node"><title>Configuration</title>
<text text-anchor="middle" x="689" y="-914.9" font-family="FreeSans" font-size="14.00">Configuration</text>
</g>
<!-- D1.1) SGBag&#45;&gt;Configuration -->
<g id="edge50" class="edge"><title>D1.1) SGBag&#45;&gt;Configuration</title>
<path fill="none" stroke="black" d="M447,-843C447,-843 525.519,-873.627 590,-893 602.057,-896.622 615.042,-900.159 627.514,-903.378"/>
<polygon fill="black" stroke="black" points="626.824,-906.814 637.379,-905.888 628.55,-900.03 626.824,-906.814"/>
</g>
<!-- Simulation -->
<g id="node61" class="node"><title>Simulation</title>
<text text-anchor="middle" x="689" y="-864.9" font-family="FreeSans" font-size="14.00">Simulation</text>
</g>
<!-- D1.1) SGBag&#45;&gt;Simulation -->
<g id="edge52" class="edge"><title>D1.1) SGBag&#45;&gt;Simulation</title>
<path fill="none" stroke="black" d="M447,-843C447,-843 565.563,-855.248 636.713,-862.598"/>
<polygon fill="black" stroke="black" points="636.54,-866.099 646.847,-863.645 637.259,-859.136 636.54,-866.099"/>
</g>
<!-- Maintenance évolutive -->
<g id="node63" class="node"><title>Maintenance évolutive</title>
<text text-anchor="middle" x="689" y="-814.9" font-family="FreeSans" font-size="14.00">Maintenance évolutive</text>
</g>
<!-- D1.1) SGBag&#45;&gt;Maintenance évolutive -->
<g id="edge54" class="edge"><title>D1.1) SGBag&#45;&gt;Maintenance évolutive</title>
<path fill="none" stroke="black" d="M447,-843C447,-843 529.161,-834.512 597.737,-827.428"/>
<polygon fill="black" stroke="black" points="598.157,-830.903 607.744,-826.394 597.438,-823.94 598.157,-830.903"/>
</g>
<!-- Analyse des performances -->
<g id="node65" class="node"><title>Analyse des performances</title>
<text text-anchor="middle" x="689" y="-764.9" font-family="FreeSans" font-size="14.00">Analyse des performances</text>
</g>
<!-- D1.1) SGBag&#45;&gt;Analyse des performances -->
<g id="edge56" class="edge"><title>D1.1) SGBag&#45;&gt;Analyse des performances</title>
<path fill="none" stroke="black" d="M447,-843C447,-843 525.519,-812.373 590,-793 594.811,-791.555 599.769,-790.123 604.784,-788.72"/>
<polygon fill="black" stroke="black" points="605.757,-792.082 614.474,-786.06 603.904,-785.332 605.757,-792.082"/>
</g>
</g>
</svg>
