<?xml version="1.0" encoding="UTF-8" standalone="no"?>
<!DOCTYPE svg PUBLIC "-//W3C//DTD SVG 1.1//EN"
 "http://www.w3.org/Graphics/SVG/1.1/DTD/svg11.dtd">
<!-- Generated by graphviz version 2.26.3 (20100126.1600)
 -->
<!-- Title: G Pages: 1 -->
<svg width="836pt" height="944pt"
 viewBox="0.00 0.00 836.00 944.00" xmlns="http://www.w3.org/2000/svg" xmlns:xlink="http://www.w3.org/1999/xlink">
<g id="graph1" class="graph" transform="scale(1 1) rotate(0) translate(4 940)">
<title>G</title>
<polygon fill="white" stroke="white" points="-4,5 -4,-940 833,-940 833,5 -4,5"/>
<!-- D9) Administration du SI -->
<g id="node1" class="node"><title>D9) Administration du SI</title>
<polygon fill="none" stroke="black" points="201,-61 13,-61 13,-25 201,-25 201,-61"/>
<text text-anchor="middle" x="107" y="-39.4" font-family="FreeSans" font-size="14.00">D9) Administration du SI</text>
</g>
<!-- D9.1) Maintenance curative -->
<g id="node3" class="node"><title>D9.1) Maintenance curative</title>
<polygon fill="none" stroke="black" points="521,-86 313,-86 313,-50 521,-50 521,-86"/>
<text text-anchor="middle" x="417" y="-64.4" font-family="FreeSans" font-size="14.00">D9.1) Maintenance curative</text>
</g>
<!-- D9) Administration du SI&#45;&gt;D9.1) Maintenance curative -->
<g id="edge2" class="edge"><title>D9) Administration du SI&#45;&gt;D9.1) Maintenance curative</title>
<path fill="none" stroke="black" d="M201,-43C201,-43 250.729,-48.7556 302.465,-54.7436"/>
<polygon fill="black" stroke="black" points="302.144,-58.2297 312.48,-55.9028 302.949,-51.2762 302.144,-58.2297"/>
</g>
<!-- D9.2) Gestion du réseau sans fil -->
<g id="node5" class="node"><title>D9.2) Gestion du réseau sans fil</title>
<polygon fill="none" stroke="black" points="536,-36 298,-36 298,-1.77636e-14 536,-3.55271e-15 536,-36"/>
<text text-anchor="middle" x="417" y="-14.4" font-family="FreeSans" font-size="14.00">D9.2) Gestion du réseau sans fil</text>
</g>
<!-- D9) Administration du SI&#45;&gt;D9.2) Gestion du réseau sans fil -->
<g id="edge4" class="edge"><title>D9) Administration du SI&#45;&gt;D9.2) Gestion du réseau sans fil</title>
<path fill="none" stroke="black" d="M201,-43C201,-43 241.681,-38.2916 287.733,-32.9615"/>
<polygon fill="black" stroke="black" points="288.412,-36.4064 297.943,-31.7797 287.607,-29.4528 288.412,-36.4064"/>
</g>
<!-- D8) Gestion des bagages -->
<g id="node6" class="node"><title>D8) Gestion des bagages</title>
<polygon fill="none" stroke="black" points="201,-211 13,-211 13,-175 201,-175 201,-211"/>
<text text-anchor="middle" x="107" y="-189.4" font-family="FreeSans" font-size="14.00">D8) Gestion des bagages</text>
</g>
<!-- D8.1) Acheminement automatisé des bagages -->
<g id="node8" class="node"><title>D8.1) Acheminement automatisé des bagages</title>
<polygon fill="none" stroke="black" points="584,-286 250,-286 250,-250 584,-250 584,-286"/>
<text text-anchor="middle" x="417" y="-264.4" font-family="FreeSans" font-size="14.00">D8.1) Acheminement automatisé des bagages</text>
</g>
<!-- D8) Gestion des bagages&#45;&gt;D8.1) Acheminement automatisé des bagages -->
<g id="edge6" class="edge"><title>D8) Gestion des bagages&#45;&gt;D8.1) Acheminement automatisé des bagages</title>
<path fill="none" stroke="black" d="M201,-193C201,-193 291.539,-224.437 355.383,-246.605"/>
<polygon fill="black" stroke="black" points="354.393,-249.966 364.988,-249.94 356.689,-243.354 354.393,-249.966"/>
</g>
<!-- D8.2) Acheminement manuel des bagages -->
<g id="node10" class="node"><title>D8.2) Acheminement manuel des bagages</title>
<polygon fill="none" stroke="black" points="571,-136 263,-136 263,-100 571,-100 571,-136"/>
<text text-anchor="middle" x="417" y="-114.4" font-family="FreeSans" font-size="14.00">D8.2) Acheminement manuel des bagages</text>
</g>
<!-- D8) Gestion des bagages&#45;&gt;D8.2) Acheminement manuel des bagages -->
<g id="edge8" class="edge"><title>D8) Gestion des bagages&#45;&gt;D8.2) Acheminement manuel des bagages</title>
<path fill="none" stroke="black" d="M201,-193C201,-193 291.539,-161.563 355.383,-139.395"/>
<polygon fill="black" stroke="black" points="356.689,-142.646 364.988,-136.06 354.393,-136.034 356.689,-142.646"/>
</g>
<!-- Circulation des chariots -->
<g id="node12" class="node"><title>Circulation des chariots</title>
<text text-anchor="middle" x="724" y="-364.4" font-family="FreeSans" font-size="14.00">Circulation des chariots</text>
</g>
<!-- D8.1) Acheminement automatisé des bagages&#45;&gt;Circulation des chariots -->
<g id="edge10" class="edge"><title>D8.1) Acheminement automatisé des bagages&#45;&gt;Circulation des chariots</title>
<path fill="none" stroke="black" d="M584,-281C584,-281 594.448,-323.963 620,-343 621.875,-344.397 623.818,-345.717 625.816,-346.965"/>
<polygon fill="black" stroke="black" points="624.458,-350.213 634.904,-351.981 627.841,-344.084 624.458,-350.213"/>
</g>
<!-- Gestion de l&#39;énergie -->
<g id="node14" class="node"><title>Gestion de l&#39;énergie</title>
<text text-anchor="middle" x="724" y="-314.4" font-family="FreeSans" font-size="14.00">Gestion de l&#39;énergie</text>
</g>
<!-- D8.1) Acheminement automatisé des bagages&#45;&gt;Gestion de l&#39;énergie -->
<g id="edge12" class="edge"><title>D8.1) Acheminement automatisé des bagages&#45;&gt;Gestion de l&#39;énergie</title>
<path fill="none" stroke="black" d="M584,-281C584,-281 603.786,-288.358 620,-293 625.547,-294.588 631.279,-296.159 637.07,-297.693"/>
<polygon fill="black" stroke="black" points="636.291,-301.107 646.85,-300.238 638.053,-294.332 636.291,-301.107"/>
</g>
<!-- Carrousel -->
<g id="node16" class="node"><title>Carrousel</title>
<text text-anchor="middle" x="724" y="-264.4" font-family="FreeSans" font-size="14.00">Carrousel</text>
</g>
<!-- D8.1) Acheminement automatisé des bagages&#45;&gt;Carrousel -->
<g id="edge14" class="edge"><title>D8.1) Acheminement automatisé des bagages&#45;&gt;Carrousel</title>
<path fill="none" stroke="black" d="M584,-281C584,-281 632.327,-276.513 672.193,-272.811"/>
<polygon fill="black" stroke="black" points="672.741,-276.275 682.374,-271.865 672.094,-269.305 672.741,-276.275"/>
</g>
<!-- s1 -->
<g id="node18" class="node"><title>s1</title>
<text text-anchor="middle" x="724" y="-214.4" font-family="FreeSans" font-size="14.00">Supervision</text>
</g>
<!-- D8.1) Acheminement automatisé des bagages&#45;&gt;s1 -->
<g id="edge16" class="edge"><title>D8.1) Acheminement automatisé des bagages&#45;&gt;s1</title>
<path fill="none" stroke="black" d="M584,-281C584,-281 599.859,-254.644 620,-243 633.781,-235.033 649.995,-229.598 665.466,-225.893"/>
<polygon fill="black" stroke="black" points="666.471,-229.256 675.492,-223.699 664.975,-222.418 666.471,-229.256"/>
</g>
<!-- Embarquement dans l&#39;avion -->
<g id="node20" class="node"><title>Embarquement dans l&#39;avion</title>
<text text-anchor="middle" x="724" y="-164.4" font-family="FreeSans" font-size="14.00">Embarquement dans l&#39;avion</text>
</g>
<!-- D8.2) Acheminement manuel des bagages&#45;&gt;Embarquement dans l&#39;avion -->
<g id="edge18" class="edge"><title>D8.2) Acheminement manuel des bagages&#45;&gt;Embarquement dans l&#39;avion</title>
<path fill="none" stroke="black" d="M571,-106C571,-106 595.326,-131.344 620,-143 622.435,-144.15 624.927,-145.25 627.463,-146.302"/>
<polygon fill="black" stroke="black" points="626.22,-149.574 636.81,-149.904 628.737,-143.042 626.22,-149.574"/>
</g>
<!-- Débarquement de l&#39;avion -->
<g id="node22" class="node"><title>Débarquement de l&#39;avion</title>
<text text-anchor="middle" x="724" y="-114.4" font-family="FreeSans" font-size="14.00">Débarquement de l&#39;avion</text>
</g>
<!-- D8.2) Acheminement manuel des bagages&#45;&gt;Débarquement de l&#39;avion -->
<g id="edge20" class="edge"><title>D8.2) Acheminement manuel des bagages&#45;&gt;Débarquement de l&#39;avion</title>
<path fill="none" stroke="black" d="M571,-106C571,-106 592.202,-107.663 618.82,-109.751"/>
<polygon fill="black" stroke="black" points="618.6,-113.244 628.843,-110.537 619.147,-106.265 618.6,-113.244"/>
</g>
<!-- Commande manuelle -->
<g id="node24" class="node"><title>Commande manuelle</title>
<text text-anchor="middle" x="724" y="-64.4" font-family="FreeSans" font-size="14.00">Commande manuelle</text>
</g>
<!-- D8.2) Acheminement manuel des bagages&#45;&gt;Commande manuelle -->
<g id="edge22" class="edge"><title>D8.2) Acheminement manuel des bagages&#45;&gt;Commande manuelle</title>
<path fill="none" stroke="black" d="M571,-106C571,-106 598.156,-98.5223 620,-93 625.966,-91.4916 632.131,-89.9548 638.342,-88.4222"/>
<polygon fill="black" stroke="black" points="639.243,-91.8052 648.12,-86.022 637.574,-85.007 639.243,-91.8052"/>
</g>
<!-- s2 -->
<g id="node26" class="node"><title>s2</title>
<text text-anchor="middle" x="724" y="-14.4" font-family="FreeSans" font-size="14.00">Supervision</text>
</g>
<!-- D8.2) Acheminement manuel des bagages&#45;&gt;s2 -->
<g id="edge24" class="edge"><title>D8.2) Acheminement manuel des bagages&#45;&gt;s2</title>
<path fill="none" stroke="black" d="M571,-106C571,-106 578.707,-99.2247 584,-93 601.739,-72.1397 597.267,-58.2653 620,-43 633.342,-34.0409 649.549,-28.2821 665.159,-24.5837"/>
<polygon fill="black" stroke="black" points="666.236,-27.9332 675.294,-22.4379 664.786,-21.085 666.236,-27.9332"/>
</g>
<!-- D7) Gestion de la sécurité -->
<g id="node27" class="node"><title>D7) Gestion de la sécurité</title>
<polygon fill="none" stroke="black" points="205,-436 9,-436 9,-400 205,-400 205,-436"/>
<text text-anchor="middle" x="107" y="-414.4" font-family="FreeSans" font-size="14.00">D7) Gestion de la sécurité</text>
</g>
<!-- D7.1) Contrôle des bagages -->
<g id="node29" class="node"><title>D7.1) Contrôle des bagages</title>
<polygon fill="none" stroke="black" points="521,-436 313,-436 313,-400 521,-400 521,-436"/>
<text text-anchor="middle" x="417" y="-414.4" font-family="FreeSans" font-size="14.00">D7.1) Contrôle des bagages</text>
</g>
<!-- D7) Gestion de la sécurité&#45;&gt;D7.1) Contrôle des bagages -->
<g id="edge26" class="edge"><title>D7) Gestion de la sécurité&#45;&gt;D7.1) Contrôle des bagages</title>
<path fill="none" stroke="black" d="M205.512,-418C236.387,-418 270.727,-418 302.602,-418"/>
<polygon fill="black" stroke="black" points="302.857,-421.5 312.857,-418 302.857,-414.5 302.857,-421.5"/>
</g>
<!-- Bagages à soute -->
<g id="node31" class="node"><title>Bagages à soute</title>
<text text-anchor="middle" x="724" y="-414.4" font-family="FreeSans" font-size="14.00">Bagages à soute</text>
</g>
<!-- D7.1) Contrôle des bagages&#45;&gt;Bagages à soute -->
<g id="edge28" class="edge"><title>D7.1) Contrôle des bagages&#45;&gt;Bagages à soute</title>
<path fill="none" stroke="black" d="M521.365,-418C563.171,-418 610.415,-418 648.761,-418"/>
<polygon fill="black" stroke="black" points="648.818,-421.5 658.818,-418 648.818,-414.5 648.818,-421.5"/>
</g>
<!-- D6) Gestion de l&#39;équipement -->
<g id="node32" class="node"><title>D6) Gestion de l&#39;équipement</title>
<polygon fill="none" stroke="black" points="214,-486 1.13687e-13,-486 0,-450 214,-450 214,-486"/>
<text text-anchor="middle" x="107" y="-464.4" font-family="FreeSans" font-size="14.00">D6) Gestion de l&#39;équipement</text>
</g>
<!-- D6.1) Réparation -->
<g id="node34" class="node"><title>D6.1) Réparation</title>
<polygon fill="none" stroke="black" points="484,-486 350,-486 350,-450 484,-450 484,-486"/>
<text text-anchor="middle" x="417" y="-464.4" font-family="FreeSans" font-size="14.00">D6.1) Réparation</text>
</g>
<!-- D6) Gestion de l&#39;équipement&#45;&gt;D6.1) Réparation -->
<g id="edge30" class="edge"><title>D6) Gestion de l&#39;équipement&#45;&gt;D6.1) Réparation</title>
<path fill="none" stroke="black" d="M214.118,-468C255.07,-468 300.967,-468 338.735,-468"/>
<polygon fill="black" stroke="black" points="339.161,-471.5 349.161,-468 339.161,-464.5 339.161,-471.5"/>
</g>
<!-- SGBag (rails, chariots, etc.) -->
<g id="node36" class="node"><title>SGBag (rails, chariots, etc.)</title>
<text text-anchor="middle" x="724" y="-464.4" font-family="FreeSans" font-size="14.00">SGBag (rails, chariots, etc.)</text>
</g>
<!-- D6.1) Réparation&#45;&gt;SGBag (rails, chariots, etc.) -->
<g id="edge32" class="edge"><title>D6.1) Réparation&#45;&gt;SGBag (rails, chariots, etc.)</title>
<path fill="none" stroke="black" d="M484.753,-468C521.861,-468 568.813,-468 611.277,-468"/>
<polygon fill="black" stroke="black" points="611.396,-471.5 621.396,-468 611.396,-464.5 611.396,-471.5"/>
</g>
<!-- D5) Gestion du personnel -->
<g id="node37" class="node"><title>D5) Gestion du personnel</title>
<polygon fill="none" stroke="black" points="204,-543 10,-543 10,-507 204,-507 204,-543"/>
<text text-anchor="middle" x="107" y="-521.4" font-family="FreeSans" font-size="14.00">D5) Gestion du personnel</text>
</g>
<!-- D4) Gestion des locaux -->
<g id="node38" class="node"><title>D4) Gestion des locaux</title>
<polygon fill="none" stroke="black" points="195,-605 19,-605 19,-569 195,-569 195,-605"/>
<text text-anchor="middle" x="107" y="-583.4" font-family="FreeSans" font-size="14.00">D4) Gestion des locaux</text>
</g>
<!-- D3) Gestion des voyageurs -->
<g id="node39" class="node"><title>D3) Gestion des voyageurs</title>
<polygon fill="none" stroke="black" points="208,-661 6,-661 6,-625 208,-625 208,-661"/>
<text text-anchor="middle" x="107" y="-639.4" font-family="FreeSans" font-size="14.00">D3) Gestion des voyageurs</text>
</g>
<!-- D3.2) Réclamation -->
<g id="node41" class="node"><title>D3.2) Réclamation</title>
<polygon fill="none" stroke="black" points="489,-686 345,-686 345,-650 489,-650 489,-686"/>
<text text-anchor="middle" x="417" y="-664.4" font-family="FreeSans" font-size="14.00">D3.2) Réclamation</text>
</g>
<!-- D3) Gestion des voyageurs&#45;&gt;D3.2) Réclamation -->
<g id="edge34" class="edge"><title>D3) Gestion des voyageurs&#45;&gt;D3.2) Réclamation</title>
<path fill="none" stroke="black" d="M209,-639C209,-639 276.7,-648.439 334.854,-656.547"/>
<polygon fill="black" stroke="black" points="334.448,-660.024 344.835,-657.939 335.415,-653.091 334.448,-660.024"/>
</g>
<!-- D3.1) Enregistrement des bagages -->
<g id="node47" class="node"><title>D3.1) Enregistrement des bagages</title>
<polygon fill="none" stroke="black" points="545,-611 289,-611 289,-575 545,-575 545,-611"/>
<text text-anchor="middle" x="417" y="-589.4" font-family="FreeSans" font-size="14.00">D3.1) Enregistrement des bagages</text>
</g>
<!-- D3) Gestion des voyageurs&#45;&gt;D3.1) Enregistrement des bagages -->
<g id="edge40" class="edge"><title>D3) Gestion des voyageurs&#45;&gt;D3.1) Enregistrement des bagages</title>
<path fill="none" stroke="black" d="M209,-639C209,-639 269.62,-625.594 325.408,-613.256"/>
<polygon fill="black" stroke="black" points="326.382,-616.625 335.39,-611.048 324.87,-609.79 326.382,-616.625"/>
</g>
<!-- Interface WEB -->
<g id="node43" class="node"><title>Interface WEB</title>
<text text-anchor="middle" x="724" y="-714.4" font-family="FreeSans" font-size="14.00">Interface WEB</text>
</g>
<!-- D3.2) Réclamation&#45;&gt;Interface WEB -->
<g id="edge36" class="edge"><title>D3.2) Réclamation&#45;&gt;Interface WEB</title>
<path fill="none" stroke="black" d="M489,-674C489,-674 586.494,-692.254 655.89,-705.248"/>
<polygon fill="black" stroke="black" points="655.437,-708.723 665.91,-707.124 656.725,-701.843 655.437,-708.723"/>
</g>
<!-- Interface SGBag -->
<g id="node45" class="node"><title>Interface SGBag</title>
<text text-anchor="middle" x="724" y="-664.4" font-family="FreeSans" font-size="14.00">Interface SGBag</text>
</g>
<!-- D3.2) Réclamation&#45;&gt;Interface SGBag -->
<g id="edge38" class="edge"><title>D3.2) Réclamation&#45;&gt;Interface SGBag</title>
<path fill="none" stroke="black" d="M489,-674C489,-674 580.292,-671.669 649.075,-669.913"/>
<polygon fill="black" stroke="black" points="649.567,-673.402 659.474,-669.647 649.388,-666.404 649.567,-673.402"/>
</g>
<!-- Étiquettage -->
<g id="node49" class="node"><title>Étiquettage</title>
<text text-anchor="middle" x="724" y="-614.4" font-family="FreeSans" font-size="14.00">Étiquettage</text>
</g>
<!-- D3.1) Enregistrement des bagages&#45;&gt;Étiquettage -->
<g id="edge42" class="edge"><title>D3.1) Enregistrement des bagages&#45;&gt;Étiquettage</title>
<path fill="none" stroke="black" d="M545,-583C545,-583 612.632,-596.224 664.752,-606.415"/>
<polygon fill="black" stroke="black" points="664.128,-609.859 674.614,-608.343 665.471,-602.989 664.128,-609.859"/>
</g>
<!-- Vérification du poids -->
<g id="node51" class="node"><title>Vérification du poids</title>
<text text-anchor="middle" x="724" y="-564.4" font-family="FreeSans" font-size="14.00">Vérification du poids</text>
</g>
<!-- D3.1) Enregistrement des bagages&#45;&gt;Vérification du poids -->
<g id="edge44" class="edge"><title>D3.1) Enregistrement des bagages&#45;&gt;Vérification du poids</title>
<path fill="none" stroke="black" d="M545,-583C545,-583 590.776,-579.164 636.03,-575.372"/>
<polygon fill="black" stroke="black" points="636.596,-578.837 646.269,-574.514 636.012,-571.861 636.596,-578.837"/>
</g>
<!-- Injection dans le SGBag -->
<g id="node53" class="node"><title>Injection dans le SGBag</title>
<text text-anchor="middle" x="724" y="-514.4" font-family="FreeSans" font-size="14.00">Injection dans le SGBag</text>
</g>
<!-- D3.1) Enregistrement des bagages&#45;&gt;Injection dans le SGBag -->
<g id="edge46" class="edge"><title>D3.1) Enregistrement des bagages&#45;&gt;Injection dans le SGBag</title>
<path fill="none" stroke="black" d="M545,-583C545,-583 584.683,-556.412 620,-543 623.505,-541.669 627.103,-540.393 630.759,-539.17"/>
<polygon fill="black" stroke="black" points="632.075,-542.425 640.546,-536.061 629.955,-535.753 632.075,-542.425"/>
</g>
<!-- D2) Gestion des vols -->
<g id="node54" class="node"><title>D2) Gestion des vols</title>
<polygon fill="none" stroke="black" points="186,-774 28,-774 28,-738 186,-738 186,-774"/>
<text text-anchor="middle" x="107" y="-752.4" font-family="FreeSans" font-size="14.00">D2) Gestion des vols</text>
</g>
<!-- D1) Développement -->
<g id="node55" class="node"><title>D1) Développement</title>
<polygon fill="none" stroke="black" points="184,-861 30,-861 30,-825 184,-825 184,-861"/>
<text text-anchor="middle" x="107" y="-839.4" font-family="FreeSans" font-size="14.00">D1) Développement</text>
</g>
<!-- D1.1) SGBag -->
<g id="node57" class="node"><title>D1.1) SGBag</title>
<polygon fill="none" stroke="black" points="470,-861 364,-861 364,-825 470,-825 470,-861"/>
<text text-anchor="middle" x="417" y="-839.4" font-family="FreeSans" font-size="14.00">D1.1) SGBag</text>
</g>
<!-- D1) Développement&#45;&gt;D1.1) SGBag -->
<g id="edge48" class="edge"><title>D1) Développement&#45;&gt;D1.1) SGBag</title>
<path fill="none" stroke="black" d="M184.826,-843C236.733,-843 304.142,-843 352.943,-843"/>
<polygon fill="black" stroke="black" points="353.062,-846.5 363.062,-843 353.062,-839.5 353.062,-846.5"/>
</g>
<!-- Configuration -->
<g id="node59" class="node"><title>Configuration</title>
<text text-anchor="middle" x="724" y="-914.4" font-family="FreeSans" font-size="14.00">Configuration</text>
</g>
<!-- D1.1) SGBag&#45;&gt;Configuration -->
<g id="edge50" class="edge"><title>D1.1) SGBag&#45;&gt;Configuration</title>
<path fill="none" stroke="black" d="M471,-843C471,-843 552.866,-873.707 620,-893 632.587,-896.617 646.131,-900.139 659.151,-903.343"/>
<polygon fill="black" stroke="black" points="658.436,-906.771 668.98,-905.727 660.087,-899.968 658.436,-906.771"/>
</g>
<!-- Simulation -->
<g id="node61" class="node"><title>Simulation</title>
<text text-anchor="middle" x="724" y="-864.4" font-family="FreeSans" font-size="14.00">Simulation</text>
</g>
<!-- D1.1) SGBag&#45;&gt;Simulation -->
<g id="edge52" class="edge"><title>D1.1) SGBag&#45;&gt;Simulation</title>
<path fill="none" stroke="black" d="M471,-843C471,-843 594.141,-855.168 668.603,-862.526"/>
<polygon fill="black" stroke="black" points="668.473,-866.03 678.769,-863.531 669.161,-859.064 668.473,-866.03"/>
</g>
<!-- Maintenance évolutive -->
<g id="node63" class="node"><title>Maintenance évolutive</title>
<text text-anchor="middle" x="724" y="-814.4" font-family="FreeSans" font-size="14.00">Maintenance évolutive</text>
</g>
<!-- D1.1) SGBag&#45;&gt;Maintenance évolutive -->
<g id="edge54" class="edge"><title>D1.1) SGBag&#45;&gt;Maintenance évolutive</title>
<path fill="none" stroke="black" d="M471,-843C471,-843 555.875,-834.613 627.306,-827.555"/>
<polygon fill="black" stroke="black" points="627.678,-831.035 637.286,-826.569 626.99,-824.069 627.678,-831.035"/>
</g>
<!-- Analyse des performances -->
<g id="node65" class="node"><title>Analyse des performances</title>
<text text-anchor="middle" x="724" y="-764.4" font-family="FreeSans" font-size="14.00">Analyse des performances</text>
</g>
<!-- D1.1) SGBag&#45;&gt;Analyse des performances -->
<g id="edge56" class="edge"><title>D1.1) SGBag&#45;&gt;Analyse des performances</title>
<path fill="none" stroke="black" d="M471,-843C471,-843 552.866,-812.293 620,-793 625.187,-791.509 630.537,-790.035 635.945,-788.592"/>
<polygon fill="black" stroke="black" points="636.934,-791.952 645.721,-786.033 635.161,-785.18 636.934,-791.952"/>
</g>
</g>
</svg>
