<?xml version="1.0" encoding="UTF-8" standalone="no"?>
<!DOCTYPE svg PUBLIC "-//W3C//DTD SVG 1.0//EN"
 "http://www.w3.org/TR/2001/REC-SVG-20010904/DTD/svg10.dtd" [
 <!ATTLIST svg xmlns:xlink CDATA #FIXED "http://www.w3.org/1999/xlink">
]>
<!-- Generated by Graphviz version 2.20.2 (Wed Sep 16 11:12:11 UTC 2009)
     For user: (paul) paul,,, -->
<!-- Title: G Pages: 1 -->
<svg width="780pt" height="1019pt"
 viewBox="0.00 0.00 780.00 1019.00" xmlns="http://www.w3.org/2000/svg" xmlns:xlink="http://www.w3.org/1999/xlink">
<g id="graph0" class="graph" transform="scale(1 1) rotate(0) translate(4 1015)">
<title>G</title>
<polygon style="fill:white;stroke:white;" points="-4,4 -4,-1015 776,-1015 776,4 -4,4"/>
<!-- D10) Administration du SI -->
<g id="node1" class="node"><title>D10) Administration du SI</title>
<polygon style="fill:none;stroke:black;" points="187,-61 11,-61 11,-25 187,-25 187,-61"/>
<text text-anchor="middle" x="99" y="-38.4" style="font-family:Arial;font-size:14.00;">D10) Administration du SI</text>
</g>
<!-- D10.1) Maintenance curative -->
<g id="node3" class="node"><title>D10.1) Maintenance curative</title>
<polygon style="fill:none;stroke:black;" points="486,-86 292,-86 292,-50 486,-50 486,-86"/>
<text text-anchor="middle" x="389" y="-63.4" style="font-family:Arial;font-size:14.00;">D10.1) Maintenance curative</text>
</g>
<!-- D10) Administration du SI&#45;&gt;D10.1) Maintenance curative -->
<g id="edge2" class="edge"><title>D10) Administration du SI&#45;&gt;D10.1) Maintenance curative</title>
<path style="fill:none;stroke:black;" d="M188,-43C188,-43 233,-48 281,-55"/>
<polygon style="fill:black;stroke:black;" points="280.701,-58.4875 291,-56 281.398,-51.5222 280.701,-58.4875"/>
</g>
<!-- D10.2) Gestion du réseau sans fil -->
<g id="node5" class="node"><title>D10.2) Gestion du réseau sans fil</title>
<polygon style="fill:none;stroke:black;" points="503,-36 275,-36 275,-1.06581e-14 503,-0 503,-36"/>
<text text-anchor="middle" x="389" y="-13.4" style="font-family:Arial;font-size:14.00;">D10.2) Gestion du réseau sans fil</text>
</g>
<!-- D10) Administration du SI&#45;&gt;D10.2) Gestion du réseau sans fil -->
<g id="edge4" class="edge"><title>D10) Administration du SI&#45;&gt;D10.2) Gestion du réseau sans fil</title>
<path style="fill:none;stroke:black;" d="M188,-43C188,-43 224,-39 265,-33"/>
<polygon style="fill:black;stroke:black;" points="265.398,-36.4778 275,-32 264.701,-29.5125 265.398,-36.4778"/>
</g>
<!-- D9) Gestion des bagages -->
<g id="node6" class="node"><title>D9) Gestion des bagages</title>
<polygon style="fill:none;stroke:black;" points="189,-211 9,-211 9,-175 189,-175 189,-211"/>
<text text-anchor="middle" x="99" y="-188.4" style="font-family:Arial;font-size:14.00;">D9) Gestion des bagages</text>
</g>
<!-- D9.1) Acheminement automatisé des bagages -->
<g id="node8" class="node"><title>D9.1) Acheminement automatisé des bagages</title>
<polygon style="fill:none;stroke:black;" points="543,-286 235,-286 235,-250 543,-250 543,-286"/>
<text text-anchor="middle" x="389" y="-263.4" style="font-family:Arial;font-size:14.00;">D9.1) Acheminement automatisé des bagages</text>
</g>
<!-- D9) Gestion des bagages&#45;&gt;D9.1) Acheminement automatisé des bagages -->
<g id="edge6" class="edge"><title>D9) Gestion des bagages&#45;&gt;D9.1) Acheminement automatisé des bagages</title>
<path style="fill:none;stroke:black;" d="M189,-193C189,-193 272,-224 331,-246"/>
<polygon style="fill:black;stroke:black;" points="330.415,-249.536 341,-250 333.015,-243.036 330.415,-249.536"/>
</g>
<!-- D9.2) Acheminement manuel des bagages -->
<g id="node10" class="node"><title>D9.2) Acheminement manuel des bagages</title>
<polygon style="fill:none;stroke:black;" points="532,-136 246,-136 246,-100 532,-100 532,-136"/>
<text text-anchor="middle" x="389" y="-113.4" style="font-family:Arial;font-size:14.00;">D9.2) Acheminement manuel des bagages</text>
</g>
<!-- D9) Gestion des bagages&#45;&gt;D9.2) Acheminement manuel des bagages -->
<g id="edge8" class="edge"><title>D9) Gestion des bagages&#45;&gt;D9.2) Acheminement manuel des bagages</title>
<path style="fill:none;stroke:black;" d="M189,-193C189,-193 272,-162 331,-140"/>
<polygon style="fill:black;stroke:black;" points="333.015,-142.964 341,-136 330.415,-136.464 333.015,-142.964"/>
</g>
<!-- Circulation des chariots -->
<g id="node12" class="node"><title>Circulation des chariots</title>
<text text-anchor="middle" x="676" y="-363.4" style="font-family:Arial;font-size:14.00;">Circulation des chariots</text>
</g>
<!-- D9.1) Acheminement automatisé des bagages&#45;&gt;Circulation des chariots -->
<g id="edge10" class="edge"><title>D9.1) Acheminement automatisé des bagages&#45;&gt;Circulation des chariots</title>
<path style="fill:none;stroke:black;" d="M544,-281C544,-281 555,-324 580,-343 582,-344 583,-345 585,-347"/>
<polygon style="fill:black;stroke:black;" points="583.559,-350.203 594,-352 586.958,-344.084 583.559,-350.203"/>
</g>
<!-- Gestion de l&#39;énergie -->
<g id="node14" class="node"><title>Gestion de l&#39;énergie</title>
<text text-anchor="middle" x="676" y="-313.4" style="font-family:Arial;font-size:14.00;">Gestion de l&#39;énergie</text>
</g>
<!-- D9.1) Acheminement automatisé des bagages&#45;&gt;Gestion de l&#39;énergie -->
<g id="edge12" class="edge"><title>D9.1) Acheminement automatisé des bagages&#45;&gt;Gestion de l&#39;énergie</title>
<path style="fill:none;stroke:black;" d="M544,-281C544,-281 564,-289 580,-293 585,-294 589,-296 594,-297"/>
<polygon style="fill:black;stroke:black;" points="593.416,-300.479 604,-300 595.427,-293.774 593.416,-300.479"/>
</g>
<!-- Carrousel -->
<g id="node16" class="node"><title>Carrousel</title>
<text text-anchor="middle" x="676" y="-263.4" style="font-family:Arial;font-size:14.00;">Carrousel</text>
</g>
<!-- D9.1) Acheminement automatisé des bagages&#45;&gt;Carrousel -->
<g id="edge14" class="edge"><title>D9.1) Acheminement automatisé des bagages&#45;&gt;Carrousel</title>
<path style="fill:none;stroke:black;" d="M544,-281C544,-281 589,-277 627,-273"/>
<polygon style="fill:black;stroke:black;" points="627.398,-276.478 637,-272 626.701,-269.512 627.398,-276.478"/>
</g>
<!-- supervision1 -->
<g id="node18" class="node"><title>supervision1</title>
<text text-anchor="middle" x="676" y="-213.4" style="font-family:Arial;font-size:14.00;">Supervision</text>
</g>
<!-- D9.1) Acheminement automatisé des bagages&#45;&gt;supervision1 -->
<g id="edge16" class="edge"><title>D9.1) Acheminement automatisé des bagages&#45;&gt;supervision1</title>
<path style="fill:none;stroke:black;" d="M544,-281C544,-281 560,-255 580,-243 592,-236 607,-230 621,-227"/>
<polygon style="fill:black;stroke:black;" points="621.881,-230.393 631,-225 620.508,-223.529 621.881,-230.393"/>
</g>
<!-- Embarquement dans l&#39;avion -->
<g id="node20" class="node"><title>Embarquement dans l&#39;avion</title>
<text text-anchor="middle" x="676" y="-163.4" style="font-family:Arial;font-size:14.00;">Embarquement dans l&#39;avion</text>
</g>
<!-- D9.2) Acheminement manuel des bagages&#45;&gt;Embarquement dans l&#39;avion -->
<g id="edge18" class="edge"><title>D9.2) Acheminement manuel des bagages&#45;&gt;Embarquement dans l&#39;avion</title>
<path style="fill:none;stroke:black;" d="M532,-106C532,-106 556,-132 580,-143 582,-144 584,-145 587,-146"/>
<polygon style="fill:black;stroke:black;" points="585.44,-149.137 596,-150 588.283,-142.74 585.44,-149.137"/>
</g>
<!-- Débarquement de l&#39;avion -->
<g id="node22" class="node"><title>Débarquement de l&#39;avion</title>
<text text-anchor="middle" x="676" y="-113.4" style="font-family:Arial;font-size:14.00;">Débarquement de l&#39;avion</text>
</g>
<!-- D9.2) Acheminement manuel des bagages&#45;&gt;Débarquement de l&#39;avion -->
<g id="edge20" class="edge"><title>D9.2) Acheminement manuel des bagages&#45;&gt;Débarquement de l&#39;avion</title>
<path style="fill:none;stroke:black;" d="M532,-106C532,-106 553,-108 579,-110"/>
<polygon style="fill:black;stroke:black;" points="578.701,-113.488 589,-111 579.398,-106.522 578.701,-113.488"/>
</g>
<!-- Commande manuelle -->
<g id="node24" class="node"><title>Commande manuelle</title>
<text text-anchor="middle" x="676" y="-63.4" style="font-family:Arial;font-size:14.00;">Commande manuelle</text>
</g>
<!-- D9.2) Acheminement manuel des bagages&#45;&gt;Commande manuelle -->
<g id="edge22" class="edge"><title>D9.2) Acheminement manuel des bagages&#45;&gt;Commande manuelle</title>
<path style="fill:none;stroke:black;" d="M532,-106C532,-106 559,-99 580,-93 586,-92 592,-90 597,-88"/>
<polygon style="fill:black;stroke:black;" points="597.881,-91.3933 607,-86 596.508,-84.5292 597.881,-91.3933"/>
</g>
<!-- supervision2 -->
<g id="node26" class="node"><title>supervision2</title>
<text text-anchor="middle" x="676" y="-13.4" style="font-family:Arial;font-size:14.00;">Supervision</text>
</g>
<!-- D9.2) Acheminement manuel des bagages&#45;&gt;supervision2 -->
<g id="edge24" class="edge"><title>D9.2) Acheminement manuel des bagages&#45;&gt;supervision2</title>
<path style="fill:none;stroke:black;" d="M532,-106C532,-106 540,-100 544,-93 562,-72 558,-59 580,-43 592,-35 607,-29 621,-26"/>
<polygon style="fill:black;stroke:black;" points="621.881,-29.3933 631,-24 620.508,-22.5292 621.881,-29.3933"/>
</g>
<!-- D8) Gestion de la sécurité -->
<g id="node27" class="node"><title>D8) Gestion de la sécurité</title>
<polygon style="fill:none;stroke:black;" points="189,-436 9,-436 9,-400 189,-400 189,-436"/>
<text text-anchor="middle" x="99" y="-413.4" style="font-family:Arial;font-size:14.00;">D8) Gestion de la sécurité</text>
</g>
<!-- D8.1) Contrôle des bagages -->
<g id="node29" class="node"><title>D8.1) Contrôle des bagages</title>
<polygon style="fill:none;stroke:black;" points="487,-436 291,-436 291,-400 487,-400 487,-436"/>
<text text-anchor="middle" x="389" y="-413.4" style="font-family:Arial;font-size:14.00;">D8.1) Contrôle des bagages</text>
</g>
<!-- D8) Gestion de la sécurité&#45;&gt;D8.1) Contrôle des bagages -->
<g id="edge26" class="edge"><title>D8) Gestion de la sécurité&#45;&gt;D8.1) Contrôle des bagages</title>
<path style="fill:none;stroke:black;" d="M190,-418C219,-418 251,-418 281,-418"/>
<polygon style="fill:black;stroke:black;" points="281,-421.5 291,-418 281,-414.5 281,-421.5"/>
</g>
<!-- Bagages à soute -->
<g id="node31" class="node"><title>Bagages à soute</title>
<text text-anchor="middle" x="676" y="-413.4" style="font-family:Arial;font-size:14.00;">Bagages à soute</text>
</g>
<!-- D8.1) Contrôle des bagages&#45;&gt;Bagages à soute -->
<g id="edge28" class="edge"><title>D8.1) Contrôle des bagages&#45;&gt;Bagages à soute</title>
<path style="fill:none;stroke:black;" d="M487,-418C525,-418 568,-418 604,-418"/>
<polygon style="fill:black;stroke:black;" points="604,-421.5 614,-418 604,-414.5 604,-421.5"/>
</g>
<!-- D7) Gestion de l&#39;équipement -->
<g id="node32" class="node"><title>D7) Gestion de l&#39;équipement</title>
<polygon style="fill:none;stroke:black;" points="198,-486 5.68434e-14,-486 1.42109e-14,-450 198,-450 198,-486"/>
<text text-anchor="middle" x="99" y="-463.4" style="font-family:Arial;font-size:14.00;">D7) Gestion de l&#39;équipement</text>
</g>
<!-- D7.1) Réparation -->
<g id="node34" class="node"><title>D7.1) Réparation</title>
<polygon style="fill:none;stroke:black;" points="451,-486 327,-486 327,-450 451,-450 451,-486"/>
<text text-anchor="middle" x="389" y="-463.4" style="font-family:Arial;font-size:14.00;">D7.1) Réparation</text>
</g>
<!-- D7) Gestion de l&#39;équipement&#45;&gt;D7.1) Réparation -->
<g id="edge30" class="edge"><title>D7) Gestion de l&#39;équipement&#45;&gt;D7.1) Réparation</title>
<path style="fill:none;stroke:black;" d="M198,-468C237,-468 281,-468 317,-468"/>
<polygon style="fill:black;stroke:black;" points="317,-471.5 327,-468 317,-464.5 317,-471.5"/>
</g>
<!-- SGBag (rails, chariots, etc.) -->
<g id="node36" class="node"><title>SGBag (rails, chariots, etc.)</title>
<text text-anchor="middle" x="676" y="-463.4" style="font-family:Arial;font-size:14.00;">SGBag (rails, chariots, etc.)</text>
</g>
<!-- D7.1) Réparation&#45;&gt;SGBag (rails, chariots, etc.) -->
<g id="edge32" class="edge"><title>D7.1) Réparation&#45;&gt;SGBag (rails, chariots, etc.)</title>
<path style="fill:none;stroke:black;" d="M451,-468C486,-468 531,-468 571,-468"/>
<polygon style="fill:black;stroke:black;" points="571,-471.5 581,-468 571,-464.5 571,-471.5"/>
</g>
<!-- D6) Gestion du personnel -->
<g id="node37" class="node"><title>D6) Gestion du personnel</title>
<polygon style="fill:none;stroke:black;" points="188,-536 10,-536 10,-500 188,-500 188,-536"/>
<text text-anchor="middle" x="99" y="-513.4" style="font-family:Arial;font-size:14.00;">D6) Gestion du personnel</text>
</g>
<!-- D5) Gestion des locaux -->
<g id="node38" class="node"><title>D5) Gestion des locaux</title>
<polygon style="fill:none;stroke:black;" points="181,-586 17,-586 17,-550 181,-550 181,-586"/>
<text text-anchor="middle" x="99" y="-563.4" style="font-family:Arial;font-size:14.00;">D5) Gestion des locaux</text>
</g>
<!-- D4) Gestion des voyageurs -->
<g id="node39" class="node"><title>D4) Gestion des voyageurs</title>
<polygon style="fill:none;stroke:black;" points="193,-636 5,-636 5,-600 193,-600 193,-636"/>
<text text-anchor="middle" x="99" y="-613.4" style="font-family:Arial;font-size:14.00;">D4) Gestion des voyageurs</text>
</g>
<!-- D4.1) Réclamation -->
<g id="node41" class="node"><title>D4.1) Réclamation</title>
<polygon style="fill:none;stroke:black;" points="456,-636 322,-636 322,-600 456,-600 456,-636"/>
<text text-anchor="middle" x="389" y="-613.4" style="font-family:Arial;font-size:14.00;">D4.1) Réclamation</text>
</g>
<!-- D4) Gestion des voyageurs&#45;&gt;D4.1) Réclamation -->
<g id="edge34" class="edge"><title>D4) Gestion des voyageurs&#45;&gt;D4.1) Réclamation</title>
<path style="fill:none;stroke:black;" d="M194,-618C232,-618 276,-618 312,-618"/>
<polygon style="fill:black;stroke:black;" points="312,-621.5 322,-618 312,-614.5 312,-621.5"/>
</g>
<!-- Interface WEB -->
<g id="node43" class="node"><title>Interface WEB</title>
<text text-anchor="middle" x="676" y="-638.4" style="font-family:Arial;font-size:14.00;">Interface WEB</text>
</g>
<!-- D4.1) Réclamation&#45;&gt;Interface WEB -->
<g id="edge36" class="edge"><title>D4.1) Réclamation&#45;&gt;Interface WEB</title>
<path style="fill:none;stroke:black;" d="M456,-618C456,-618 546,-628 611,-636"/>
<polygon style="fill:black;stroke:black;" points="610.701,-639.488 621,-637 611.398,-632.522 610.701,-639.488"/>
</g>
<!-- Interface SGBag -->
<g id="node45" class="node"><title>Interface SGBag</title>
<text text-anchor="middle" x="676" y="-588.4" style="font-family:Arial;font-size:14.00;">Interface SGBag</text>
</g>
<!-- D4.1) Réclamation&#45;&gt;Interface SGBag -->
<g id="edge38" class="edge"><title>D4.1) Réclamation&#45;&gt;Interface SGBag</title>
<path style="fill:none;stroke:black;" d="M456,-618C456,-618 540,-608 604,-601"/>
<polygon style="fill:black;stroke:black;" points="604.398,-604.478 614,-600 603.701,-597.512 604.398,-604.478"/>
</g>
<!-- D3) Gestion des voyageurs -->
<g id="node46" class="node"><title>D3) Gestion des voyageurs</title>
<polygon style="fill:none;stroke:black;" points="193,-761 5,-761 5,-725 193,-725 193,-761"/>
<text text-anchor="middle" x="99" y="-738.4" style="font-family:Arial;font-size:14.00;">D3) Gestion des voyageurs</text>
</g>
<!-- D3.1) Enregistrement des bagages -->
<g id="node48" class="node"><title>D3.1) Enregistrement des bagages</title>
<polygon style="fill:none;stroke:black;" points="508,-761 270,-761 270,-725 508,-725 508,-761"/>
<text text-anchor="middle" x="389" y="-738.4" style="font-family:Arial;font-size:14.00;">D3.1) Enregistrement des bagages</text>
</g>
<!-- D3) Gestion des voyageurs&#45;&gt;D3.1) Enregistrement des bagages -->
<g id="edge40" class="edge"><title>D3) Gestion des voyageurs&#45;&gt;D3.1) Enregistrement des bagages</title>
<path style="fill:none;stroke:black;" d="M194,-743C215,-743 237,-743 259,-743"/>
<polygon style="fill:black;stroke:black;" points="259,-746.5 269,-743 259,-739.5 259,-746.5"/>
</g>
<!-- Étiquettage -->
<g id="node50" class="node"><title>Étiquettage</title>
<text text-anchor="middle" x="676" y="-788.4" style="font-family:Arial;font-size:14.00;">Étiquettage</text>
</g>
<!-- D3.1) Enregistrement des bagages&#45;&gt;Étiquettage -->
<g id="edge42" class="edge"><title>D3.1) Enregistrement des bagages&#45;&gt;Étiquettage</title>
<path style="fill:none;stroke:black;" d="M509,-743C509,-743 549,-758 580,-768 594,-772 608,-776 622,-780"/>
<polygon style="fill:black;stroke:black;" points="621.508,-783.471 632,-782 622.881,-776.607 621.508,-783.471"/>
</g>
<!-- Vérification du poids -->
<g id="node52" class="node"><title>Vérification du poids</title>
<text text-anchor="middle" x="676" y="-738.4" style="font-family:Arial;font-size:14.00;">Vérification du poids</text>
</g>
<!-- D3.1) Enregistrement des bagages&#45;&gt;Vérification du poids -->
<g id="edge44" class="edge"><title>D3.1) Enregistrement des bagages&#45;&gt;Vérification du poids</title>
<path style="fill:none;stroke:black;" d="M509,-743C509,-743 551,-743 593,-743"/>
<polygon style="fill:black;stroke:black;" points="593,-746.5 603,-743 593,-739.5 593,-746.5"/>
</g>
<!-- Injection dans le SGBag -->
<g id="node54" class="node"><title>Injection dans le SGBag</title>
<text text-anchor="middle" x="676" y="-688.4" style="font-family:Arial;font-size:14.00;">Injection dans le SGBag</text>
</g>
<!-- D3.1) Enregistrement des bagages&#45;&gt;Injection dans le SGBag -->
<g id="edge46" class="edge"><title>D3.1) Enregistrement des bagages&#45;&gt;Injection dans le SGBag</title>
<path style="fill:none;stroke:black;" d="M509,-743C509,-743 549,-727 580,-718 585,-717 589,-715 594,-714"/>
<polygon style="fill:black;stroke:black;" points="595.427,-717.226 604,-711 593.416,-710.521 595.427,-717.226"/>
</g>
<!-- D2) Gestion des vols -->
<g id="node55" class="node"><title>D2) Gestion des vols</title>
<polygon style="fill:none;stroke:black;" points="174,-861 24,-861 24,-825 174,-825 174,-861"/>
<text text-anchor="middle" x="99" y="-838.4" style="font-family:Arial;font-size:14.00;">D2) Gestion des vols</text>
</g>
<!-- D1) R&amp;D -->
<g id="node56" class="node"><title>D1) R&amp;D</title>
<polygon style="fill:none;stroke:black;" points="136,-936 62,-936 62,-900 136,-900 136,-936"/>
<text text-anchor="middle" x="99" y="-913.4" style="font-family:Arial;font-size:14.00;">D1) R&amp;D</text>
</g>
<!-- D1.1) SGBag -->
<g id="node58" class="node"><title>D1.1) SGBag</title>
<polygon style="fill:none;stroke:black;" points="440,-936 338,-936 338,-900 440,-900 440,-936"/>
<text text-anchor="middle" x="389" y="-913.4" style="font-family:Arial;font-size:14.00;">D1.1) SGBag</text>
</g>
<!-- D1) R&amp;D&#45;&gt;D1.1) SGBag -->
<g id="edge48" class="edge"><title>D1) R&amp;D&#45;&gt;D1.1) SGBag</title>
<path style="fill:none;stroke:black;" d="M136,-918C184,-918 270,-918 328,-918"/>
<polygon style="fill:black;stroke:black;" points="328,-921.5 338,-918 328,-914.5 328,-921.5"/>
</g>
<!-- Configuration -->
<g id="node60" class="node"><title>Configuration</title>
<text text-anchor="middle" x="676" y="-988.4" style="font-family:Arial;font-size:14.00;">Configuration</text>
</g>
<!-- D1.1) SGBag&#45;&gt;Configuration -->
<g id="edge50" class="edge"><title>D1.1) SGBag&#45;&gt;Configuration</title>
<path style="fill:none;stroke:black;" d="M440,-918C440,-918 517,-948 580,-968 592,-971 604,-974 616,-977"/>
<polygon style="fill:black;stroke:black;" points="615.416,-980.479 626,-980 617.427,-973.774 615.416,-980.479"/>
</g>
<!-- Simulation -->
<g id="node62" class="node"><title>Simulation</title>
<text text-anchor="middle" x="676" y="-938.4" style="font-family:Arial;font-size:14.00;">Simulation</text>
</g>
<!-- D1.1) SGBag&#45;&gt;Simulation -->
<g id="edge52" class="edge"><title>D1.1) SGBag&#45;&gt;Simulation</title>
<path style="fill:none;stroke:black;" d="M440,-918C440,-918 556,-931 625,-938"/>
<polygon style="fill:black;stroke:black;" points="624.701,-941.488 635,-939 625.398,-934.522 624.701,-941.488"/>
</g>
<!-- Maintenance évolutive -->
<g id="node64" class="node"><title>Maintenance évolutive</title>
<text text-anchor="middle" x="676" y="-888.4" style="font-family:Arial;font-size:14.00;">Maintenance évolutive</text>
</g>
<!-- D1.1) SGBag&#45;&gt;Maintenance évolutive -->
<g id="edge54" class="edge"><title>D1.1) SGBag&#45;&gt;Maintenance évolutive</title>
<path style="fill:none;stroke:black;" d="M440,-918C440,-918 521,-910 588,-902"/>
<polygon style="fill:black;stroke:black;" points="588.398,-905.478 598,-901 587.701,-898.512 588.398,-905.478"/>
</g>
<!-- Analyse des performances -->
<g id="node66" class="node"><title>Analyse des performances</title>
<text text-anchor="middle" x="676" y="-838.4" style="font-family:Arial;font-size:14.00;">Analyse des performances</text>
</g>
<!-- D1.1) SGBag&#45;&gt;Analyse des performances -->
<g id="edge56" class="edge"><title>D1.1) SGBag&#45;&gt;Analyse des performances</title>
<path style="fill:none;stroke:black;" d="M440,-918C440,-918 517,-887 580,-868 585,-867 589,-865 594,-864"/>
<polygon style="fill:black;stroke:black;" points="595.427,-867.226 604,-861 593.416,-860.521 595.427,-867.226"/>
</g>
</g>
</svg>
