<?xml version="1.0" encoding="UTF-8" standalone="no"?>
<!DOCTYPE svg PUBLIC "-//W3C//DTD SVG 1.0//EN"
 "http://www.w3.org/TR/2001/REC-SVG-20010904/DTD/svg10.dtd" [
 <!ATTLIST svg xmlns:xlink CDATA #FIXED "http://www.w3.org/1999/xlink">
]>
<!-- Generated by Graphviz version 2.20.2 (Wed Sep 16 11:12:11 UTC 2009)
     For user: (paul) paul,,, -->
<!-- Title: G Pages: 1 -->
<svg width="792pt" height="944pt"
 viewBox="0.00 0.00 792.00 944.00" xmlns="http://www.w3.org/2000/svg" xmlns:xlink="http://www.w3.org/1999/xlink">
<g id="graph0" class="graph" transform="scale(1 1) rotate(0) translate(4 940)">
<title>G</title>
<polygon style="fill:white;stroke:white;" points="-4,4 -4,-940 788,-940 788,4 -4,4"/>
<!-- D9) Administration du SI -->
<g id="node1" class="node"><title>D9) Administration du SI</title>
<polygon style="fill:none;stroke:black;" points="186,-61 14,-61 14,-25 186,-25 186,-61"/>
<text text-anchor="middle" x="100" y="-39.9" style="font-family:FreeSans;font-size:14.00;">D9) Administration du SI</text>
</g>
<!-- D9.1) Maintenance curative -->
<g id="node3" class="node"><title>D9.1) Maintenance curative</title>
<polygon style="fill:none;stroke:black;" points="491,-86 297,-86 297,-50 491,-50 491,-86"/>
<text text-anchor="middle" x="394" y="-64.9" style="font-family:FreeSans;font-size:14.00;">D9.1) Maintenance curative</text>
</g>
<!-- D9) Administration du SI&#45;&gt;D9.1) Maintenance curative -->
<g id="edge2" class="edge"><title>D9) Administration du SI&#45;&gt;D9.1) Maintenance curative</title>
<path style="fill:none;stroke:black;" d="M186,-43C186,-43 236,-49 287,-55"/>
<polygon style="fill:black;stroke:black;" points="286.701,-58.4875 297,-56 287.398,-51.5222 286.701,-58.4875"/>
</g>
<!-- D9.2) Gestion du réseau sans fil -->
<g id="node5" class="node"><title>D9.2) Gestion du réseau sans fil</title>
<polygon style="fill:none;stroke:black;" points="505,-36 283,-36 283,-1.06581e-14 505,-0 505,-36"/>
<text text-anchor="middle" x="394" y="-14.9" style="font-family:FreeSans;font-size:14.00;">D9.2) Gestion du réseau sans fil</text>
</g>
<!-- D9) Administration du SI&#45;&gt;D9.2) Gestion du réseau sans fil -->
<g id="edge4" class="edge"><title>D9) Administration du SI&#45;&gt;D9.2) Gestion du réseau sans fil</title>
<path style="fill:none;stroke:black;" d="M186,-43C186,-43 227,-38 272,-32"/>
<polygon style="fill:black;stroke:black;" points="272.398,-35.4778 282,-31 271.701,-28.5125 272.398,-35.4778"/>
</g>
<!-- D8) Gestion des bagages -->
<g id="node6" class="node"><title>D8) Gestion des bagages</title>
<polygon style="fill:none;stroke:black;" points="191,-211 9,-211 9,-175 191,-175 191,-211"/>
<text text-anchor="middle" x="100" y="-189.9" style="font-family:FreeSans;font-size:14.00;">D8) Gestion des bagages</text>
</g>
<!-- D8.1) Acheminement automatisé des bagages -->
<g id="node8" class="node"><title>D8.1) Acheminement automatisé des bagages</title>
<polygon style="fill:none;stroke:black;" points="552,-286 236,-286 236,-250 552,-250 552,-286"/>
<text text-anchor="middle" x="394" y="-264.9" style="font-family:FreeSans;font-size:14.00;">D8.1) Acheminement automatisé des bagages</text>
</g>
<!-- D8) Gestion des bagages&#45;&gt;D8.1) Acheminement automatisé des bagages -->
<g id="edge6" class="edge"><title>D8) Gestion des bagages&#45;&gt;D8.1) Acheminement automatisé des bagages</title>
<path style="fill:none;stroke:black;" d="M191,-193C191,-193 275,-224 335,-246"/>
<polygon style="fill:black;stroke:black;" points="334.415,-249.536 345,-250 337.015,-243.036 334.415,-249.536"/>
</g>
<!-- D8.2) Acheminement manuel des bagages -->
<g id="node10" class="node"><title>D8.2) Acheminement manuel des bagages</title>
<polygon style="fill:none;stroke:black;" points="540,-136 248,-136 248,-100 540,-100 540,-136"/>
<text text-anchor="middle" x="394" y="-114.9" style="font-family:FreeSans;font-size:14.00;">D8.2) Acheminement manuel des bagages</text>
</g>
<!-- D8) Gestion des bagages&#45;&gt;D8.2) Acheminement manuel des bagages -->
<g id="edge8" class="edge"><title>D8) Gestion des bagages&#45;&gt;D8.2) Acheminement manuel des bagages</title>
<path style="fill:none;stroke:black;" d="M191,-193C191,-193 275,-162 335,-140"/>
<polygon style="fill:black;stroke:black;" points="337.015,-142.964 345,-136 334.415,-136.464 337.015,-142.964"/>
</g>
<!-- Circulation des chariots -->
<g id="node12" class="node"><title>Circulation des chariots</title>
<text text-anchor="middle" x="686" y="-364.9" style="font-family:FreeSans;font-size:14.00;">Circulation des chariots</text>
</g>
<!-- D8.1) Acheminement automatisé des bagages&#45;&gt;Circulation des chariots -->
<g id="edge10" class="edge"><title>D8.1) Acheminement automatisé des bagages&#45;&gt;Circulation des chariots</title>
<path style="fill:none;stroke:black;" d="M552,-281C552,-281 563,-324 588,-343 590,-344 591,-345 593,-347"/>
<polygon style="fill:black;stroke:black;" points="591.559,-350.203 602,-352 594.958,-344.084 591.559,-350.203"/>
</g>
<!-- Gestion de l&#39;énergie -->
<g id="node14" class="node"><title>Gestion de l&#39;énergie</title>
<text text-anchor="middle" x="686" y="-314.9" style="font-family:FreeSans;font-size:14.00;">Gestion de l&#39;énergie</text>
</g>
<!-- D8.1) Acheminement automatisé des bagages&#45;&gt;Gestion de l&#39;énergie -->
<g id="edge12" class="edge"><title>D8.1) Acheminement automatisé des bagages&#45;&gt;Gestion de l&#39;énergie</title>
<path style="fill:none;stroke:black;" d="M552,-281C552,-281 572,-289 588,-293 593,-294 598,-296 603,-297"/>
<polygon style="fill:black;stroke:black;" points="602.416,-300.479 613,-300 604.427,-293.774 602.416,-300.479"/>
</g>
<!-- Carrousel -->
<g id="node16" class="node"><title>Carrousel</title>
<text text-anchor="middle" x="686" y="-264.9" style="font-family:FreeSans;font-size:14.00;">Carrousel</text>
</g>
<!-- D8.1) Acheminement automatisé des bagages&#45;&gt;Carrousel -->
<g id="edge14" class="edge"><title>D8.1) Acheminement automatisé des bagages&#45;&gt;Carrousel</title>
<path style="fill:none;stroke:black;" d="M552,-281C552,-281 598,-277 636,-273"/>
<polygon style="fill:black;stroke:black;" points="636.398,-276.478 646,-272 635.701,-269.512 636.398,-276.478"/>
</g>
<!-- s1 -->
<g id="node18" class="node"><title>s1</title>
<text text-anchor="middle" x="686" y="-214.9" style="font-family:FreeSans;font-size:14.00;">Supervision</text>
</g>
<!-- D8.1) Acheminement automatisé des bagages&#45;&gt;s1 -->
<g id="edge16" class="edge"><title>D8.1) Acheminement automatisé des bagages&#45;&gt;s1</title>
<path style="fill:none;stroke:black;" d="M552,-281C552,-281 568,-255 588,-243 601,-236 615,-230 629,-227"/>
<polygon style="fill:black;stroke:black;" points="629.881,-230.393 639,-225 628.508,-223.529 629.881,-230.393"/>
</g>
<!-- Embarquement dans l&#39;avion -->
<g id="node20" class="node"><title>Embarquement dans l&#39;avion</title>
<text text-anchor="middle" x="686" y="-164.9" style="font-family:FreeSans;font-size:14.00;">Embarquement dans l&#39;avion</text>
</g>
<!-- D8.2) Acheminement manuel des bagages&#45;&gt;Embarquement dans l&#39;avion -->
<g id="edge18" class="edge"><title>D8.2) Acheminement manuel des bagages&#45;&gt;Embarquement dans l&#39;avion</title>
<path style="fill:none;stroke:black;" d="M541,-106C541,-106 565,-132 588,-143 590,-144 592,-145 594,-146"/>
<polygon style="fill:black;stroke:black;" points="593.415,-149.536 604,-150 596.015,-143.036 593.415,-149.536"/>
</g>
<!-- Débarquement de l&#39;avion -->
<g id="node22" class="node"><title>Débarquement de l&#39;avion</title>
<text text-anchor="middle" x="686" y="-114.9" style="font-family:FreeSans;font-size:14.00;">Débarquement de l&#39;avion</text>
</g>
<!-- D8.2) Acheminement manuel des bagages&#45;&gt;Débarquement de l&#39;avion -->
<g id="edge20" class="edge"><title>D8.2) Acheminement manuel des bagages&#45;&gt;Débarquement de l&#39;avion</title>
<path style="fill:none;stroke:black;" d="M541,-106C541,-106 561,-108 587,-110"/>
<polygon style="fill:black;stroke:black;" points="586.701,-113.488 597,-111 587.398,-106.522 586.701,-113.488"/>
</g>
<!-- Commande manuelle -->
<g id="node24" class="node"><title>Commande manuelle</title>
<text text-anchor="middle" x="686" y="-64.9" style="font-family:FreeSans;font-size:14.00;">Commande manuelle</text>
</g>
<!-- D8.2) Acheminement manuel des bagages&#45;&gt;Commande manuelle -->
<g id="edge22" class="edge"><title>D8.2) Acheminement manuel des bagages&#45;&gt;Commande manuelle</title>
<path style="fill:none;stroke:black;" d="M541,-106C541,-106 568,-99 588,-93 594,-92 600,-90 606,-88"/>
<polygon style="fill:black;stroke:black;" points="606.881,-91.3933 616,-86 605.508,-84.5292 606.881,-91.3933"/>
</g>
<!-- s2 -->
<g id="node26" class="node"><title>s2</title>
<text text-anchor="middle" x="686" y="-14.9" style="font-family:FreeSans;font-size:14.00;">Supervision</text>
</g>
<!-- D8.2) Acheminement manuel des bagages&#45;&gt;s2 -->
<g id="edge24" class="edge"><title>D8.2) Acheminement manuel des bagages&#45;&gt;s2</title>
<path style="fill:none;stroke:black;" d="M541,-106C541,-106 548,-99 552,-93 569,-72 566,-59 588,-43 600,-35 615,-29 629,-25"/>
<polygon style="fill:black;stroke:black;" points="629.881,-28.3933 639,-23 628.508,-21.5292 629.881,-28.3933"/>
</g>
<!-- D7) Gestion de la sécurité -->
<g id="node27" class="node"><title>D7) Gestion de la sécurité</title>
<polygon style="fill:none;stroke:black;" points="191,-436 9,-436 9,-400 191,-400 191,-436"/>
<text text-anchor="middle" x="100" y="-414.9" style="font-family:FreeSans;font-size:14.00;">D7) Gestion de la sécurité</text>
</g>
<!-- D7.1) Contrôle des bagages -->
<g id="node29" class="node"><title>D7.1) Contrôle des bagages</title>
<polygon style="fill:none;stroke:black;" points="493,-436 295,-436 295,-400 493,-400 493,-436"/>
<text text-anchor="middle" x="394" y="-414.9" style="font-family:FreeSans;font-size:14.00;">D7.1) Contrôle des bagages</text>
</g>
<!-- D7) Gestion de la sécurité&#45;&gt;D7.1) Contrôle des bagages -->
<g id="edge26" class="edge"><title>D7) Gestion de la sécurité&#45;&gt;D7.1) Contrôle des bagages</title>
<path style="fill:none;stroke:black;" d="M192,-418C222,-418 255,-418 285,-418"/>
<polygon style="fill:black;stroke:black;" points="285,-421.5 295,-418 285,-414.5 285,-421.5"/>
</g>
<!-- Bagages à soute -->
<g id="node31" class="node"><title>Bagages à soute</title>
<text text-anchor="middle" x="686" y="-414.9" style="font-family:FreeSans;font-size:14.00;">Bagages à soute</text>
</g>
<!-- D7.1) Contrôle des bagages&#45;&gt;Bagages à soute -->
<g id="edge28" class="edge"><title>D7.1) Contrôle des bagages&#45;&gt;Bagages à soute</title>
<path style="fill:none;stroke:black;" d="M493,-418C532,-418 577,-418 613,-418"/>
<polygon style="fill:black;stroke:black;" points="613,-421.5 623,-418 613,-414.5 613,-421.5"/>
</g>
<!-- D6) Gestion de l&#39;équipement -->
<g id="node32" class="node"><title>D6) Gestion de l&#39;équipement</title>
<polygon style="fill:none;stroke:black;" points="200,-486 5.68434e-14,-486 1.42109e-14,-450 200,-450 200,-486"/>
<text text-anchor="middle" x="100" y="-464.9" style="font-family:FreeSans;font-size:14.00;">D6) Gestion de l&#39;équipement</text>
</g>
<!-- D6.1) Réparation -->
<g id="node34" class="node"><title>D6.1) Réparation</title>
<polygon style="fill:none;stroke:black;" points="457,-486 331,-486 331,-450 457,-450 457,-486"/>
<text text-anchor="middle" x="394" y="-464.9" style="font-family:FreeSans;font-size:14.00;">D6.1) Réparation</text>
</g>
<!-- D6) Gestion de l&#39;équipement&#45;&gt;D6.1) Réparation -->
<g id="edge30" class="edge"><title>D6) Gestion de l&#39;équipement&#45;&gt;D6.1) Réparation</title>
<path style="fill:none;stroke:black;" d="M200,-468C240,-468 285,-468 321,-468"/>
<polygon style="fill:black;stroke:black;" points="321,-471.5 331,-468 321,-464.5 321,-471.5"/>
</g>
<!-- SGBag (rails, chariots, etc.) -->
<g id="node36" class="node"><title>SGBag (rails, chariots, etc.)</title>
<text text-anchor="middle" x="686" y="-464.9" style="font-family:FreeSans;font-size:14.00;">SGBag (rails, chariots, etc.)</text>
</g>
<!-- D6.1) Réparation&#45;&gt;SGBag (rails, chariots, etc.) -->
<g id="edge32" class="edge"><title>D6.1) Réparation&#45;&gt;SGBag (rails, chariots, etc.)</title>
<path style="fill:none;stroke:black;" d="M457,-468C493,-468 538,-468 580,-468"/>
<polygon style="fill:black;stroke:black;" points="580,-471.5 590,-468 580,-464.5 580,-471.5"/>
</g>
<!-- D5) Gestion du personnel -->
<g id="node37" class="node"><title>D5) Gestion du personnel</title>
<polygon style="fill:none;stroke:black;" points="191,-543 9,-543 9,-507 191,-507 191,-543"/>
<text text-anchor="middle" x="100" y="-521.9" style="font-family:FreeSans;font-size:14.00;">D5) Gestion du personnel</text>
</g>
<!-- D4) Gestion des locaux -->
<g id="node38" class="node"><title>D4) Gestion des locaux</title>
<polygon style="fill:none;stroke:black;" points="184,-605 16,-605 16,-569 184,-569 184,-605"/>
<text text-anchor="middle" x="100" y="-583.9" style="font-family:FreeSans;font-size:14.00;">D4) Gestion des locaux</text>
</g>
<!-- D3) Gestion des voyageurs -->
<g id="node39" class="node"><title>D3) Gestion des voyageurs</title>
<polygon style="fill:none;stroke:black;" points="196,-661 4,-661 4,-625 196,-625 196,-661"/>
<text text-anchor="middle" x="100" y="-639.9" style="font-family:FreeSans;font-size:14.00;">D3) Gestion des voyageurs</text>
</g>
<!-- D3.2) Réclamation -->
<g id="node41" class="node"><title>D3.2) Réclamation</title>
<polygon style="fill:none;stroke:black;" points="462,-686 326,-686 326,-650 462,-650 462,-686"/>
<text text-anchor="middle" x="394" y="-664.9" style="font-family:FreeSans;font-size:14.00;">D3.2) Réclamation</text>
</g>
<!-- D3) Gestion des voyageurs&#45;&gt;D3.2) Réclamation -->
<g id="edge34" class="edge"><title>D3) Gestion des voyageurs&#45;&gt;D3.2) Réclamation</title>
<path style="fill:none;stroke:black;" d="M197,-639C197,-639 261,-649 316,-657"/>
<polygon style="fill:black;stroke:black;" points="315.701,-660.488 326,-658 316.398,-653.522 315.701,-660.488"/>
</g>
<!-- D3.1) Enregistrement des bagages -->
<g id="node47" class="node"><title>D3.1) Enregistrement des bagages</title>
<polygon style="fill:none;stroke:black;" points="514,-611 274,-611 274,-575 514,-575 514,-611"/>
<text text-anchor="middle" x="394" y="-589.9" style="font-family:FreeSans;font-size:14.00;">D3.1) Enregistrement des bagages</text>
</g>
<!-- D3) Gestion des voyageurs&#45;&gt;D3.1) Enregistrement des bagages -->
<g id="edge40" class="edge"><title>D3) Gestion des voyageurs&#45;&gt;D3.1) Enregistrement des bagages</title>
<path style="fill:none;stroke:black;" d="M197,-639C197,-639 255,-626 307,-613"/>
<polygon style="fill:black;stroke:black;" points="307.881,-616.393 317,-611 306.508,-609.529 307.881,-616.393"/>
</g>
<!-- Interface WEB -->
<g id="node43" class="node"><title>Interface WEB</title>
<text text-anchor="middle" x="686" y="-714.9" style="font-family:FreeSans;font-size:14.00;">Interface WEB</text>
</g>
<!-- D3.2) Réclamation&#45;&gt;Interface WEB -->
<g id="edge36" class="edge"><title>D3.2) Réclamation&#45;&gt;Interface WEB</title>
<path style="fill:none;stroke:black;" d="M462,-674C462,-674 555,-692 621,-705"/>
<polygon style="fill:black;stroke:black;" points="620.508,-708.471 631,-707 621.881,-701.607 620.508,-708.471"/>
</g>
<!-- Interface SGBag -->
<g id="node45" class="node"><title>Interface SGBag</title>
<text text-anchor="middle" x="686" y="-664.9" style="font-family:FreeSans;font-size:14.00;">Interface SGBag</text>
</g>
<!-- D3.2) Réclamation&#45;&gt;Interface SGBag -->
<g id="edge38" class="edge"><title>D3.2) Réclamation&#45;&gt;Interface SGBag</title>
<path style="fill:none;stroke:black;" d="M462,-674C462,-674 548,-671 614,-670"/>
<polygon style="fill:black;stroke:black;" points="614,-673.5 624,-670 614,-666.5 614,-673.5"/>
</g>
<!-- Étiquettage -->
<g id="node49" class="node"><title>Étiquettage</title>
<text text-anchor="middle" x="686" y="-614.9" style="font-family:FreeSans;font-size:14.00;">Étiquettage</text>
</g>
<!-- D3.1) Enregistrement des bagages&#45;&gt;Étiquettage -->
<g id="edge42" class="edge"><title>D3.1) Enregistrement des bagages&#45;&gt;Étiquettage</title>
<path style="fill:none;stroke:black;" d="M515,-583C515,-583 581,-596 631,-607"/>
<polygon style="fill:black;stroke:black;" points="630.508,-610.471 641,-609 631.881,-603.607 630.508,-610.471"/>
</g>
<!-- Vérification du poids -->
<g id="node51" class="node"><title>Vérification du poids</title>
<text text-anchor="middle" x="686" y="-564.9" style="font-family:FreeSans;font-size:14.00;">Vérification du poids</text>
</g>
<!-- D3.1) Enregistrement des bagages&#45;&gt;Vérification du poids -->
<g id="edge44" class="edge"><title>D3.1) Enregistrement des bagages&#45;&gt;Vérification du poids</title>
<path style="fill:none;stroke:black;" d="M515,-583C515,-583 560,-579 603,-575"/>
<polygon style="fill:black;stroke:black;" points="603.398,-578.478 613,-574 602.701,-571.512 603.398,-578.478"/>
</g>
<!-- Injection dans le SGBag -->
<g id="node53" class="node"><title>Injection dans le SGBag</title>
<text text-anchor="middle" x="686" y="-514.9" style="font-family:FreeSans;font-size:14.00;">Injection dans le SGBag</text>
</g>
<!-- D3.1) Enregistrement des bagages&#45;&gt;Injection dans le SGBag -->
<g id="edge46" class="edge"><title>D3.1) Enregistrement des bagages&#45;&gt;Injection dans le SGBag</title>
<path style="fill:none;stroke:black;" d="M515,-583C515,-583 554,-556 588,-543 591,-542 594,-540 597,-539"/>
<polygon style="fill:black;stroke:black;" points="598.427,-542.226 607,-536 596.416,-535.521 598.427,-542.226"/>
</g>
<!-- D2) Gestion des vols -->
<g id="node54" class="node"><title>D2) Gestion des vols</title>
<polygon style="fill:none;stroke:black;" points="175,-774 25,-774 25,-738 175,-738 175,-774"/>
<text text-anchor="middle" x="100" y="-752.9" style="font-family:FreeSans;font-size:14.00;">D2) Gestion des vols</text>
</g>
<!-- D1) Développement -->
<g id="node55" class="node"><title>D1) Développement</title>
<polygon style="fill:none;stroke:black;" points="173,-861 27,-861 27,-825 173,-825 173,-861"/>
<text text-anchor="middle" x="100" y="-839.9" style="font-family:FreeSans;font-size:14.00;">D1) Développement</text>
</g>
<!-- D1.1) SGBag -->
<g id="node57" class="node"><title>D1.1) SGBag</title>
<polygon style="fill:none;stroke:black;" points="445,-861 343,-861 343,-825 445,-825 445,-861"/>
<text text-anchor="middle" x="394" y="-839.9" style="font-family:FreeSans;font-size:14.00;">D1.1) SGBag</text>
</g>
<!-- D1) Développement&#45;&gt;D1.1) SGBag -->
<g id="edge48" class="edge"><title>D1) Développement&#45;&gt;D1.1) SGBag</title>
<path style="fill:none;stroke:black;" d="M173,-843C222,-843 286,-843 333,-843"/>
<polygon style="fill:black;stroke:black;" points="333,-846.5 343,-843 333,-839.5 333,-846.5"/>
</g>
<!-- Configuration -->
<g id="node59" class="node"><title>Configuration</title>
<text text-anchor="middle" x="686" y="-914.9" style="font-family:FreeSans;font-size:14.00;">Configuration</text>
</g>
<!-- D1.1) SGBag&#45;&gt;Configuration -->
<g id="edge50" class="edge"><title>D1.1) SGBag&#45;&gt;Configuration</title>
<path style="fill:none;stroke:black;" d="M445,-843C445,-843 524,-873 588,-893 600,-896 613,-899 625,-902"/>
<polygon style="fill:black;stroke:black;" points="624.416,-905.479 635,-905 626.427,-898.774 624.416,-905.479"/>
</g>
<!-- Simulation -->
<g id="node61" class="node"><title>Simulation</title>
<text text-anchor="middle" x="686" y="-864.9" style="font-family:FreeSans;font-size:14.00;">Simulation</text>
</g>
<!-- D1.1) SGBag&#45;&gt;Simulation -->
<g id="edge52" class="edge"><title>D1.1) SGBag&#45;&gt;Simulation</title>
<path style="fill:none;stroke:black;" d="M445,-843C445,-843 563,-855 634,-863"/>
<polygon style="fill:black;stroke:black;" points="633.701,-866.488 644,-864 634.398,-859.522 633.701,-866.488"/>
</g>
<!-- Maintenance évolutive -->
<g id="node63" class="node"><title>Maintenance évolutive</title>
<text text-anchor="middle" x="686" y="-814.9" style="font-family:FreeSans;font-size:14.00;">Maintenance évolutive</text>
</g>
<!-- D1.1) SGBag&#45;&gt;Maintenance évolutive -->
<g id="edge54" class="edge"><title>D1.1) SGBag&#45;&gt;Maintenance évolutive</title>
<path style="fill:none;stroke:black;" d="M445,-843C445,-843 527,-835 595,-827"/>
<polygon style="fill:black;stroke:black;" points="595.398,-830.478 605,-826 594.701,-823.512 595.398,-830.478"/>
</g>
<!-- Analyse des performances -->
<g id="node65" class="node"><title>Analyse des performances</title>
<text text-anchor="middle" x="686" y="-764.9" style="font-family:FreeSans;font-size:14.00;">Analyse des performances</text>
</g>
<!-- D1.1) SGBag&#45;&gt;Analyse des performances -->
<g id="edge56" class="edge"><title>D1.1) SGBag&#45;&gt;Analyse des performances</title>
<path style="fill:none;stroke:black;" d="M445,-843C445,-843 524,-812 588,-793 593,-792 598,-790 603,-789"/>
<polygon style="fill:black;stroke:black;" points="604.427,-792.226 613,-786 602.416,-785.521 604.427,-792.226"/>
</g>
</g>
</svg>
