<?xml version="1.0" encoding="UTF-8" standalone="no"?>
<!DOCTYPE svg PUBLIC "-//W3C//DTD SVG 1.0//EN"
 "http://www.w3.org/TR/2001/REC-SVG-20010904/DTD/svg10.dtd">
<!-- Generated by dot version 1.13 (v16) (Mon August 23, 2004)
     For user: (maximegaudin) Maxime Gaudin   Title: G    Pages: 1 -->
<svg width="778pt" height="948pt"
 viewBox = "-1 -1 777 947"
 xmlns="http://www.w3.org/2000/svg">
<g id="graph0" class="graph" style="font-family:Times-Roman;font-size:14.00;">
<title>G</title>
<g id="node1" class="node"><title>D9) Administration du SI</title>
<polygon style="fill:none;stroke:black;" points="188,879 18,879 18,915 188,915 188,879"/>
<text text-anchor="middle" x="103" y="902" style="font-family:FreeSans;">D9) Administration du SI</text>
</g>
<g id="node3" class="node"><title>D9.1) Maintenance curative</title>
<polygon style="fill:none;stroke:black;" points="485,854 297,854 297,890 485,890 485,854"/>
<text text-anchor="middle" x="391" y="877" style="font-family:FreeSans;">D9.1) Maintenance curative</text>
</g>
<g id="edge2" class="edge"><title>D9) Administration du SI-&gt;D9.1) Maintenance curative</title>
<path style="fill:none;stroke:black;" d="M188,897C191,896 238,891 286,885"/>
<polygon style="fill:black;stroke:black;" points="286,882 296,884 286,888 286,882"/>
</g>
<g id="node5" class="node"><title>D9.2) Gestion du réseau sans fil</title>
<polygon style="fill:none;stroke:black;" points="498,904 284,904 284,940 498,940 498,904"/>
<text text-anchor="middle" x="391" y="927" style="font-family:FreeSans;">D9.2) Gestion du réseau sans fil</text>
</g>
<g id="edge4" class="edge"><title>D9) Administration du SI-&gt;D9.2) Gestion du réseau sans fil</title>
<path style="fill:none;stroke:black;" d="M188,897C191,897 230,902 272,908"/>
<polygon style="fill:black;stroke:black;" points="272,905 282,909 272,911 272,905"/>
</g>
<g id="node6" class="node"><title>D8) Gestion des bagages</title>
<polygon style="fill:none;stroke:black;" points="190,729 16,729 16,765 190,765 190,729"/>
<text text-anchor="middle" x="103" y="752" style="font-family:FreeSans;">D8) Gestion des bagages</text>
</g>
<g id="node8" class="node"><title>D8.1) Acheminement automatisé des bagages</title>
<polygon style="fill:none;stroke:black;" points="544,654 238,654 238,690 544,690 544,654"/>
<text text-anchor="middle" x="391" y="677" style="font-family:FreeSans;">D8.1) Acheminement automatisé des bagages</text>
</g>
<g id="edge6" class="edge"><title>D8) Gestion des bagages-&gt;D8.1) Acheminement automatisé des bagages</title>
<path style="fill:none;stroke:black;" d="M190,747C194,746 276,715 334,694"/>
<polygon style="fill:black;stroke:black;" points="332,691 343,690 335,697 332,691"/>
</g>
<g id="node10" class="node"><title>D8.2) Acheminement manuel des bagages</title>
<polygon style="fill:none;stroke:black;" points="532,804 250,804 250,840 532,840 532,804"/>
<text text-anchor="middle" x="391" y="827" style="font-family:FreeSans;">D8.2) Acheminement manuel des bagages</text>
</g>
<g id="edge8" class="edge"><title>D8) Gestion des bagages-&gt;D8.2) Acheminement manuel des bagages</title>
<path style="fill:none;stroke:black;" d="M190,747C194,748 276,779 334,800"/>
<polygon style="fill:black;stroke:black;" points="335,797 343,804 332,803 335,797"/>
</g>
<g id="node12" class="node"><title>Circulation des chariots</title>
<text text-anchor="middle" x="676" y="577" style="font-family:FreeSans;">Circulation des chariots</text>
</g>
<g id="edge10" class="edge"><title>D8.1) Acheminement automatisé des bagages-&gt;Circulation des chariots</title>
<path style="fill:none;stroke:black;" d="M545,659C546,656 557,615 581,597 582,596 584,595 586,594"/>
<polygon style="fill:black;stroke:black;" points="585,591 595,589 588,597 585,591"/>
</g>
<g id="node14" class="node"><title>Gestion de l&#39;énergie</title>
<text text-anchor="middle" x="676" y="627" style="font-family:FreeSans;">Gestion de l&#39;énergie</text>
</g>
<g id="edge12" class="edge"><title>D8.1) Acheminement automatisé des bagages-&gt;Gestion de l&#39;énergie</title>
<path style="fill:none;stroke:black;" d="M545,659C546,659 565,651 581,647 586,646 591,644 596,643"/>
<polygon style="fill:black;stroke:black;" points="595,640 606,640 597,646 595,640"/>
</g>
<g id="node16" class="node"><title>Carrousel</title>
<text text-anchor="middle" x="676" y="677" style="font-family:FreeSans;">Carrousel</text>
</g>
<g id="edge14" class="edge"><title>D8.1) Acheminement automatisé des bagages-&gt;Carrousel</title>
<path style="fill:none;stroke:black;" d="M545,659C548,659 592,663 629,667"/>
<polygon style="fill:black;stroke:black;" points="629,664 639,668 629,670 629,664"/>
</g>
<g id="node18" class="node"><title>s1</title>
<text text-anchor="middle" x="676" y="727" style="font-family:FreeSans;">Supervision</text>
</g>
<g id="edge16" class="edge"><title>D8.1) Acheminement automatisé des bagages-&gt;s1</title>
<path style="fill:none;stroke:black;" d="M545,659C546,661 562,685 581,697 594,704 608,710 622,713"/>
<polygon style="fill:black;stroke:black;" points="623,710 632,716 621,716 623,710"/>
</g>
<g id="node20" class="node"><title>Embarquement dans l&#39;avion</title>
<text text-anchor="middle" x="676" y="777" style="font-family:FreeSans;">Embarquement dans l&#39;avion</text>
</g>
<g id="edge18" class="edge"><title>D8.2) Acheminement manuel des bagages-&gt;Embarquement dans l&#39;avion</title>
<path style="fill:none;stroke:black;" d="M532,834C534,832 558,808 581,797 583,796 585,795 588,794"/>
<polygon style="fill:black;stroke:black;" points="586,791 597,790 589,797 586,791"/>
</g>
<g id="node22" class="node"><title>Débarquement de l&#39;avion</title>
<text text-anchor="middle" x="676" y="827" style="font-family:FreeSans;">Débarquement de l&#39;avion</text>
</g>
<g id="edge20" class="edge"><title>D8.2) Acheminement manuel des bagages-&gt;Débarquement de l&#39;avion</title>
<path style="fill:none;stroke:black;" d="M532,834C534,834 554,832 580,830"/>
<polygon style="fill:black;stroke:black;" points="580,827 590,829 580,833 580,827"/>
</g>
<g id="node24" class="node"><title>Commande manuelle</title>
<text text-anchor="middle" x="676" y="877" style="font-family:FreeSans;">Commande manuelle</text>
</g>
<g id="edge22" class="edge"><title>D8.2) Acheminement manuel des bagages-&gt;Commande manuelle</title>
<path style="fill:none;stroke:black;" d="M532,834C534,834 561,841 581,847 587,848 593,850 598,852"/>
<polygon style="fill:black;stroke:black;" points="599,849 608,854 598,855 599,849"/>
</g>
<g id="node26" class="node"><title>s2</title>
<text text-anchor="middle" x="676" y="927" style="font-family:FreeSans;">Supervision</text>
</g>
<g id="edge24" class="edge"><title>D8.2) Acheminement manuel des bagages-&gt;s2</title>
<path style="fill:none;stroke:black;" d="M532,834C533,835 540,840 545,847 563,867 559,881 581,897 593,905 608,911 622,915"/>
<polygon style="fill:black;stroke:black;" points="623,912 632,917 622,918 623,912"/>
</g>
<g id="node27" class="node"><title>D7) Gestion de la sécurité</title>
<polygon style="fill:none;stroke:black;" points="192,504 14,504 14,540 192,540 192,504"/>
<text text-anchor="middle" x="103" y="527" style="font-family:FreeSans;">D7) Gestion de la sécurité</text>
</g>
<g id="node29" class="node"><title>D7.1) Contrôle des bagages</title>
<polygon style="fill:none;stroke:black;" points="486,504 296,504 296,540 486,540 486,504"/>
<text text-anchor="middle" x="391" y="527" style="font-family:FreeSans;">D7.1) Contrôle des bagages</text>
</g>
<g id="edge26" class="edge"><title>D7) Gestion de la sécurité-&gt;D7.1) Contrôle des bagages</title>
<path style="fill:none;stroke:black;" d="M193,522C222,522 255,522 285,522"/>
<polygon style="fill:black;stroke:black;" points="285,518 295,522 285,525 285,518"/>
</g>
<g id="node31" class="node"><title>Bagages à soute</title>
<text text-anchor="middle" x="676" y="527" style="font-family:FreeSans;">Bagages à soute</text>
</g>
<g id="edge28" class="edge"><title>D7.1) Contrôle des bagages-&gt;Bagages à soute</title>
<path style="fill:none;stroke:black;" d="M487,522C526,522 570,522 606,522"/>
<polygon style="fill:black;stroke:black;" points="606,518 616,522 606,525 606,518"/>
</g>
<g id="node32" class="node"><title>D6) Gestion de l&#39;équipement</title>
<polygon style="fill:none;stroke:black;" points="200,454 6,454 6,490 200,490 200,454"/>
<text text-anchor="middle" x="103" y="477" style="font-family:FreeSans;">D6) Gestion de l&#39;équipement</text>
</g>
<g id="node34" class="node"><title>D6.1) Réparation</title>
<polygon style="fill:none;stroke:black;" points="452,454 330,454 330,490 452,490 452,454"/>
<text text-anchor="middle" x="391" y="477" style="font-family:FreeSans;">D6.1) Réparation</text>
</g>
<g id="edge30" class="edge"><title>D6) Gestion de l&#39;équipement-&gt;D6.1) Réparation</title>
<path style="fill:none;stroke:black;" d="M201,472C239,472 283,472 319,472"/>
<polygon style="fill:black;stroke:black;" points="319,468 329,472 319,475 319,468"/>
</g>
<g id="node36" class="node"><title>SGBag (rails, chariots, etc.)</title>
<text text-anchor="middle" x="676" y="477" style="font-family:FreeSans;">SGBag (rails, chariots, etc.)</text>
</g>
<g id="edge32" class="edge"><title>D6.1) Réparation-&gt;SGBag (rails, chariots, etc.)</title>
<path style="fill:none;stroke:black;" d="M453,472C488,472 532,472 572,472"/>
<polygon style="fill:black;stroke:black;" points="572,468 582,472 572,475 572,468"/>
</g>
<g id="node37" class="node"><title>D5) Gestion du personnel</title>
<polygon style="fill:none;stroke:black;" points="190,397 16,397 16,433 190,433 190,397"/>
<text text-anchor="middle" x="103" y="420" style="font-family:FreeSans;">D5) Gestion du personnel</text>
</g>
<g id="node38" class="node"><title>D4) Gestion des locaux</title>
<polygon style="fill:none;stroke:black;" points="183,335 23,335 23,371 183,371 183,335"/>
<text text-anchor="middle" x="103" y="358" style="font-family:FreeSans;">D4) Gestion des locaux</text>
</g>
<g id="node39" class="node"><title>D3) Gestion des voyageurs</title>
<polygon style="fill:none;stroke:black;" points="196,279 10,279 10,315 196,315 196,279"/>
<text text-anchor="middle" x="103" y="302" style="font-family:FreeSans;">D3) Gestion des voyageurs</text>
</g>
<g id="node41" class="node"><title>D3.2) Réclamation</title>
<polygon style="fill:none;stroke:black;" points="457,254 325,254 325,290 457,290 457,254"/>
<text text-anchor="middle" x="391" y="277" style="font-family:FreeSans;">D3.2) Réclamation</text>
</g>
<g id="edge34" class="edge"><title>D3) Gestion des voyageurs-&gt;D3.2) Réclamation</title>
<path style="fill:none;stroke:black;" d="M196,301C200,300 262,291 315,283"/>
<polygon style="fill:black;stroke:black;" points="315,280 325,282 315,286 315,280"/>
</g>
<g id="node47" class="node"><title>D3.1) Enregistrement des bagages</title>
<polygon style="fill:none;stroke:black;" points="508,329 274,329 274,365 508,365 508,329"/>
<text text-anchor="middle" x="391" y="352" style="font-family:FreeSans;">D3.1) Enregistrement des bagages</text>
</g>
<g id="edge40" class="edge"><title>D3) Gestion des voyageurs-&gt;D3.1) Enregistrement des bagages</title>
<path style="fill:none;stroke:black;" d="M196,301C199,302 255,314 305,327"/>
<polygon style="fill:black;stroke:black;" points="306,324 315,329 305,330 306,324"/>
</g>
<g id="node43" class="node"><title>Interface WEB</title>
<text text-anchor="middle" x="676" y="227" style="font-family:FreeSans;">Interface WEB</text>
</g>
<g id="edge36" class="edge"><title>D3.2) Réclamation-&gt;Interface WEB</title>
<path style="fill:none;stroke:black;" d="M457,266C462,265 551,247 614,235"/>
<polygon style="fill:black;stroke:black;" points="614,232 624,233 615,238 614,232"/>
</g>
<g id="node45" class="node"><title>Interface SGBag</title>
<text text-anchor="middle" x="676" y="277" style="font-family:FreeSans;">Interface SGBag</text>
</g>
<g id="edge38" class="edge"><title>D3.2) Réclamation-&gt;Interface SGBag</title>
<path style="fill:none;stroke:black;" d="M457,266C462,266 545,269 608,270"/>
<polygon style="fill:black;stroke:black;" points="608,266 618,270 608,273 608,266"/>
</g>
<g id="node49" class="node"><title>Étiquettage</title>
<text text-anchor="middle" x="676" y="327" style="font-family:FreeSans;">Étiquettage</text>
</g>
<g id="edge42" class="edge"><title>D3.1) Enregistrement des bagages-&gt;Étiquettage</title>
<path style="fill:none;stroke:black;" d="M509,357C512,356 574,344 621,333"/>
<polygon style="fill:black;stroke:black;" points="621,330 631,331 622,336 621,330"/>
</g>
<g id="node51" class="node"><title>Vérification du poids</title>
<text text-anchor="middle" x="676" y="377" style="font-family:FreeSans;">Vérification du poids</text>
</g>
<g id="edge44" class="edge"><title>D3.1) Enregistrement des bagages-&gt;Vérification du poids</title>
<path style="fill:none;stroke:black;" d="M509,357C512,357 553,360 594,364"/>
<polygon style="fill:black;stroke:black;" points="594,361 604,365 594,367 594,361"/>
</g>
<g id="node53" class="node"><title>Injection dans le SGBag</title>
<text text-anchor="middle" x="676" y="427" style="font-family:FreeSans;">Injection dans le SGBag</text>
</g>
<g id="edge46" class="edge"><title>D3.1) Enregistrement des bagages-&gt;Injection dans le SGBag</title>
<path style="fill:none;stroke:black;" d="M509,357C511,359 549,384 581,397 584,399 587,400 590,401"/>
<polygon style="fill:black;stroke:black;" points="591,398 600,404 589,404 591,398"/>
</g>
<g id="node54" class="node"><title>D2) Gestion des vols</title>
<polygon style="fill:none;stroke:black;" points="175,166 31,166 31,202 175,202 175,166"/>
<text text-anchor="middle" x="103" y="189" style="font-family:FreeSans;">D2) Gestion des vols</text>
</g>
<g id="node55" class="node"><title>D1) Développement</title>
<polygon style="fill:none;stroke:black;" points="173,79 33,79 33,115 173,115 173,79"/>
<text text-anchor="middle" x="103" y="102" style="font-family:FreeSans;">D1) Développement</text>
</g>
<g id="node57" class="node"><title>D1.1) SGBag</title>
<polygon style="fill:none;stroke:black;" points="438,79 344,79 344,115 438,115 438,79"/>
<text text-anchor="middle" x="391" y="102" style="font-family:FreeSans;">D1.1) SGBag</text>
</g>
<g id="edge48" class="edge"><title>D1) Développement-&gt;D1.1) SGBag</title>
<path style="fill:none;stroke:black;" d="M174,97C222,97 286,97 333,97"/>
<polygon style="fill:black;stroke:black;" points="333,93 343,97 333,100 333,93"/>
</g>
<g id="node59" class="node"><title>Configuration</title>
<text text-anchor="middle" x="676" y="27" style="font-family:FreeSans;">Configuration</text>
</g>
<g id="edge50" class="edge"><title>D1.1) SGBag-&gt;Configuration</title>
<path style="fill:none;stroke:black;" d="M440,97C442,96 519,67 581,47 593,44 605,41 616,38"/>
<polygon style="fill:black;stroke:black;" points="615,35 626,35 617,41 615,35"/>
</g>
<g id="node61" class="node"><title>Simulation</title>
<text text-anchor="middle" x="676" y="77" style="font-family:FreeSans;">Simulation</text>
</g>
<g id="edge52" class="edge"><title>D1.1) SGBag-&gt;Simulation</title>
<path style="fill:none;stroke:black;" d="M440,97C443,97 557,85 626,77"/>
<polygon style="fill:black;stroke:black;" points="626,74 636,76 626,80 626,74"/>
</g>
<g id="node63" class="node"><title>Maintenance évolutive</title>
<text text-anchor="middle" x="676" y="127" style="font-family:FreeSans;">Maintenance évolutive</text>
</g>
<g id="edge54" class="edge"><title>D1.1) SGBag-&gt;Maintenance évolutive</title>
<path style="fill:none;stroke:black;" d="M440,97C442,97 522,105 588,113"/>
<polygon style="fill:black;stroke:black;" points="588,110 598,114 588,116 588,110"/>
</g>
<g id="node65" class="node"><title>Analyse des performances</title>
<text text-anchor="middle" x="676" y="177" style="font-family:FreeSans;">Analyse des performances</text>
</g>
<g id="edge56" class="edge"><title>D1.1) SGBag-&gt;Analyse des performances</title>
<path style="fill:none;stroke:black;" d="M440,97C442,98 519,128 581,147 586,148 590,150 595,151"/>
<polygon style="fill:black;stroke:black;" points="596,148 605,154 594,154 596,148"/>
</g>
</g>
</svg>
