<?xml version="1.0" encoding="UTF-8" standalone="no"?>
<!DOCTYPE svg PUBLIC "-//W3C//DTD SVG 1.0//EN"
 "http://www.w3.org/TR/2001/REC-SVG-20010904/DTD/svg10.dtd" [
 <!ATTLIST svg xmlns:xlink CDATA #FIXED "http://www.w3.org/1999/xlink">
]>
<!-- Generated by Graphviz version 2.20.2 (Wed Sep 16 11:12:11 UTC 2009)
     For user: (paul) paul,,, -->
<!-- Title: archi Pages: 1 -->
<svg width="1205pt" height="332pt"
 viewBox="0.00 0.00 1205.00 332.00" xmlns="http://www.w3.org/2000/svg" xmlns:xlink="http://www.w3.org/1999/xlink">
<g id="graph0" class="graph" transform="scale(1 1) rotate(0) translate(4 328)">
<title>archi</title>
<polygon style="fill:white;stroke:white;" points="-4,4 -4,-328 1201,-328 1201,4 -4,4"/>
<!-- racine -->
<g id="node1" class="node"><title>racine</title>
<ellipse style="fill:none;stroke:black;" cx="478" cy="-306" rx="39.8056" ry="18"/>
<text text-anchor="middle" x="478" y="-301.9" style="font-family:Times New Roman;font-size:14.00;">racine</text>
</g>
<!-- makeroot -->
<g id="node2" class="node"><title>makeroot</title>
<ellipse style="fill:none;stroke:black;" cx="173" cy="-234" rx="50.0315" ry="18"/>
<text text-anchor="middle" x="173" y="-229.9" style="font-family:Times New Roman;font-size:14.00;">Makefile</text>
</g>
<!-- racine&#45;&#45;makeroot -->
<g id="edge22" class="edge"><title>racine&#45;&#45;makeroot</title>
<path style="fill:none;stroke:black;" d="M441,-299C393,-289 305,-271 232,-252 225,-250 218,-248 210,-246"/>
</g>
<!-- md -->
<g id="node10" class="node"><title>md</title>
<ellipse style="fill:none;stroke:black;" cx="312" cy="-234" rx="70.878" ry="18"/>
<text text-anchor="middle" x="312" y="-229.9" style="font-family:Times New Roman;font-size:14.00;">README.md</text>
</g>
<!-- racine&#45;&#45;md -->
<g id="edge24" class="edge"><title>racine&#45;&#45;md</title>
<path style="fill:none;stroke:black;" d="M449,-293C421,-281 378,-263 348,-250"/>
</g>
<!-- GuideDeStyle -->
<g id="node15" class="node"><title>GuideDeStyle</title>
<ellipse style="fill:none;stroke:black;" cx="478" cy="-234" rx="77.1319" ry="18"/>
<text text-anchor="middle" x="478" y="-229.9" style="font-family:Times New Roman;font-size:14.00;">GuideDeStyle</text>
</g>
<!-- racine&#45;&#45;GuideDeStyle -->
<g id="edge2" class="edge"><title>racine&#45;&#45;GuideDeStyle</title>
<path style="fill:none;stroke:black;" d="M478,-288C478,-277 478,-263 478,-252"/>
</g>
<!-- common -->
<g id="node30" class="node"><title>common</title>
<ellipse style="fill:none;stroke:black;" cx="624" cy="-234" rx="50.9221" ry="18"/>
<text text-anchor="middle" x="624" y="-229.9" style="font-family:Times New Roman;font-size:14.00;">common</text>
</g>
<!-- racine&#45;&#45;common -->
<g id="edge26" class="edge"><title>racine&#45;&#45;common</title>
<path style="fill:none;stroke:black;" d="M505,-293C530,-280 568,-262 594,-249"/>
</g>
<!-- set_path -->
<g id="node32" class="node"><title>set_path</title>
<ellipse style="fill:none;stroke:black;" cx="746" cy="-234" rx="52.8111" ry="18"/>
<text text-anchor="middle" x="746" y="-229.9" style="font-family:Times New Roman;font-size:14.00;">set_path</text>
</g>
<!-- racine&#45;&#45;set_path -->
<g id="edge28" class="edge"><title>racine&#45;&#45;set_path</title>
<path style="fill:none;stroke:black;" d="M513,-297C554,-287 624,-268 684,-252 691,-250 698,-248 705,-246"/>
</g>
<!-- makegds -->
<g id="node3" class="node"><title>makegds</title>
<ellipse style="fill:none;stroke:black;" cx="315" cy="-162" rx="50.0315" ry="18"/>
<text text-anchor="middle" x="315" y="-157.9" style="font-family:Times New Roman;font-size:14.00;">Makefile</text>
</g>
<!-- log -->
<g id="node4" class="node"><title>log</title>
<ellipse style="fill:none;stroke:black;" cx="94" cy="-90" rx="94.004" ry="18"/>
<text text-anchor="middle" x="94" y="-85.9" style="font-family:Times New Roman;font-size:14.00;">GuideDeStyle.log</text>
</g>
<!-- out -->
<g id="node5" class="node"><title>out</title>
<ellipse style="fill:none;stroke:black;" cx="302" cy="-90" rx="96.0882" ry="18"/>
<text text-anchor="middle" x="302" y="-85.9" style="font-family:Times New Roman;font-size:14.00;">GuideDeStyle.out</text>
</g>
<!-- tex -->
<g id="node6" class="node"><title>tex</title>
<ellipse style="fill:none;stroke:black;" cx="512" cy="-90" rx="95.8938" ry="18"/>
<text text-anchor="middle" x="512" y="-85.9" style="font-family:Times New Roman;font-size:14.00;">GuideDeStyle.tex</text>
</g>
<!-- aux -->
<g id="node7" class="node"><title>aux</title>
<ellipse style="fill:none;stroke:black;" cx="724" cy="-90" rx="97.9784" ry="18"/>
<text text-anchor="middle" x="724" y="-85.9" style="font-family:Times New Roman;font-size:14.00;">GuideDeStyle.aux</text>
</g>
<!-- pdf -->
<g id="node8" class="node"><title>pdf</title>
<ellipse style="fill:none;stroke:black;" cx="478" cy="-162" rx="95.1989" ry="18"/>
<text text-anchor="middle" x="478" y="-157.9" style="font-family:Times New Roman;font-size:14.00;">GuideDeStyle.pdf</text>
</g>
<!-- aux2 -->
<g id="node9" class="node"><title>aux2</title>
<ellipse style="fill:none;stroke:black;" cx="906" cy="-90" rx="66.0138" ry="18"/>
<text text-anchor="middle" x="906" y="-85.9" style="font-family:Times New Roman;font-size:14.00;">include.aux</text>
</g>
<!-- svg -->
<g id="node11" class="node"><title>svg</title>
<ellipse style="fill:none;stroke:black;" cx="891" cy="-18" rx="54.2008" ry="18"/>
<text text-anchor="middle" x="891" y="-13.9" style="font-family:Times New Roman;font-size:14.00;">archi.svg</text>
</g>
<!-- png -->
<g id="node12" class="node"><title>png</title>
<ellipse style="fill:none;stroke:black;" cx="1018" cy="-18" rx="55.0898" ry="18"/>
<text text-anchor="middle" x="1018" y="-13.9" style="font-family:Times New Roman;font-size:14.00;">archi.png</text>
</g>
<!-- dot -->
<g id="node13" class="node"><title>dot</title>
<ellipse style="fill:none;stroke:black;" cx="1144" cy="-18" rx="53.0059" ry="18"/>
<text text-anchor="middle" x="1144" y="-13.9" style="font-family:Times New Roman;font-size:14.00;">archi.dot</text>
</g>
<!-- GuideDeStyle&#45;&#45;makegds -->
<g id="edge4" class="edge"><title>GuideDeStyle&#45;&#45;makegds</title>
<path style="fill:none;stroke:black;" d="M442,-218C414,-206 374,-188 347,-176"/>
</g>
<!-- GuideDeStyle&#45;&#45;pdf -->
<g id="edge6" class="edge"><title>GuideDeStyle&#45;&#45;pdf</title>
<path style="fill:none;stroke:black;" d="M478,-216C478,-205 478,-191 478,-180"/>
</g>
<!-- src -->
<g id="node19" class="node"><title>src</title>
<ellipse style="fill:none;stroke:black;" cx="618" cy="-162" rx="27" ry="18"/>
<text text-anchor="middle" x="618" y="-157.9" style="font-family:Times New Roman;font-size:14.00;">src</text>
</g>
<!-- GuideDeStyle&#45;&#45;src -->
<g id="edge8" class="edge"><title>GuideDeStyle&#45;&#45;src</title>
<path style="fill:none;stroke:black;" d="M510,-217C536,-204 573,-185 596,-173"/>
</g>
<!-- src&#45;&#45;log -->
<g id="edge12" class="edge"><title>src&#45;&#45;log</title>
<path style="fill:none;stroke:black;" d="M598,-150C593,-147 587,-145 582,-144 416,-96 367,-130 197,-108 186,-106 174,-104 162,-102"/>
</g>
<!-- src&#45;&#45;out -->
<g id="edge14" class="edge"><title>src&#45;&#45;out</title>
<path style="fill:none;stroke:black;" d="M597,-150C592,-148 587,-146 582,-144 562,-137 448,-116 372,-102"/>
</g>
<!-- src&#45;&#45;tex -->
<g id="edge16" class="edge"><title>src&#45;&#45;tex</title>
<path style="fill:none;stroke:black;" d="M599,-149C582,-137 557,-120 538,-107"/>
</g>
<!-- src&#45;&#45;aux -->
<g id="edge10" class="edge"><title>src&#45;&#45;aux</title>
<path style="fill:none;stroke:black;" d="M637,-149C654,-137 679,-120 698,-107"/>
</g>
<!-- src&#45;&#45;aux2 -->
<g id="edge18" class="edge"><title>src&#45;&#45;aux2</title>
<path style="fill:none;stroke:black;" d="M643,-156C691,-144 795,-118 857,-102"/>
</g>
<!-- img -->
<g id="node26" class="node"><title>img</title>
<ellipse style="fill:none;stroke:black;" cx="1018" cy="-90" rx="27.9903" ry="18"/>
<text text-anchor="middle" x="1018" y="-85.9" style="font-family:Times New Roman;font-size:14.00;">img</text>
</g>
<!-- src&#45;&#45;img -->
<g id="edge20" class="edge"><title>src&#45;&#45;img</title>
<path style="fill:none;stroke:black;" d="M645,-161C706,-157 859,-146 981,-108 986,-106 991,-104 996,-102"/>
</g>
<!-- img&#45;&#45;svg -->
<g id="edge30" class="edge"><title>img&#45;&#45;svg</title>
<path style="fill:none;stroke:black;" d="M997,-78C976,-66 942,-47 919,-33"/>
</g>
<!-- img&#45;&#45;png -->
<g id="edge32" class="edge"><title>img&#45;&#45;png</title>
<path style="fill:none;stroke:black;" d="M1018,-72C1018,-61 1018,-47 1018,-36"/>
</g>
<!-- img&#45;&#45;dot -->
<g id="edge34" class="edge"><title>img&#45;&#45;dot</title>
<path style="fill:none;stroke:black;" d="M1039,-78C1060,-66 1093,-47 1117,-33"/>
</g>
</g>
</svg>
