<?xml version="1.0" encoding="UTF-8" standalone="no"?>
<!-- Generator: Adobe Illustrator 14.0.0, SVG Export Plug-In . SVG Version: 6.00 Build 43363)  -->

<svg
   xmlns:dc="http://purl.org/dc/elements/1.1/"
   xmlns:cc="http://creativecommons.org/ns#"
   xmlns:rdf="http://www.w3.org/1999/02/22-rdf-syntax-ns#"
   xmlns:svg="http://www.w3.org/2000/svg"
   xmlns="http://www.w3.org/2000/svg"
   xmlns:sodipodi="http://sodipodi.sourceforge.net/DTD/sodipodi-0.dtd"
   xmlns:inkscape="http://www.inkscape.org/namespaces/inkscape"
   version="1.1"
   id="Calque_1"
   x="0px"
   y="0px"
   width="249"
   height="297"
   viewBox="0 0 248.99999 296.99999"
   enable-background="new 0 0 595.28 841.89"
   xml:space="preserve"
   inkscape:version="0.48.0 r9654"
   sodipodi:docname="avion.svg"><metadata
   id="metadata28"><rdf:RDF><cc:Work
       rdf:about=""><dc:format>image/svg+xml</dc:format><dc:type
         rdf:resource="http://purl.org/dc/dcmitype/StillImage" /></cc:Work></rdf:RDF></metadata><defs
   id="defs26" /><sodipodi:namedview
   pagecolor="#ffffff"
   bordercolor="#666666"
   borderopacity="1"
   objecttolerance="10"
   gridtolerance="10"
   guidetolerance="10"
   inkscape:pageopacity="0"
   inkscape:pageshadow="2"
   inkscape:window-width="640"
   inkscape:window-height="480"
   id="namedview24"
   showgrid="false"
   inkscape:zoom="0.32308258"
   inkscape:cx="133.942"
   inkscape:cy="148.499"
   inkscape:window-x="0"
   inkscape:window-y="24"
   inkscape:window-maximized="0"
   inkscape:current-layer="Calque_1"
   fit-margin-top="0"
   fit-margin-left="0"
   fit-margin-right="0"
   fit-margin-bottom="0" />
<g
   id="VdiQlC_1_"
   transform="translate(-163.69801,-272.444)">
	<g
   id="g4">
		<g
   id="g6">
			<path
   clip-rule="evenodd"
   d="m 285.698,272.444 c -19.31,24.024 -11.262,75.404 -13,117 -4.528,2.244 -10.395,9.72 -17,13 -0.169,-5.164 0.62,-11.286 -1,-15 -4.333,0 -8.667,0 -13,0 -3.457,7.12 -1.997,18.711 1,25 -23.979,24.688 -57.471,39.862 -78,68 -0.333,0 -0.667,0 -1,0 0,-69.333 0,-138.667 0,-208 40.666,0 81.333,0 122,0 z"
   id="path8"
   inkscape:connector-curvature="0"
   style="fill:#ffffff;fill-rule:evenodd" />
			<path
   clip-rule="evenodd"
   d="m 285.698,272.444 c 1.667,0 3.333,0 5,0 19.31,24.024 11.262,75.404 13,117 4.529,2.244 10.396,9.72 17,13 0.17,-5.164 -0.619,-11.286 1,-15 4.667,0 9.334,0 14,0 1.43,8.973 1.371,18.347 -2,25 24.501,24.499 57.196,40.804 79,68 0,1.333 0,2.667 0,4 -1.135,0.19 -0.555,1.003 0,1 0,1.667 0,3.333 0,5 -1.086,0.247 -0.678,1.988 -2,2 -24.206,-16.323 -54.748,-20.425 -79,-37 -9.14,-0.104 -18.006,-0.575 -28,-2 -2.383,20.616 0.692,46.692 -5,64 8.212,16.454 35.065,14.269 34,40 -12.187,-2.813 -24.947,-5.053 -36,-9 -4.064,5.603 -4.817,14.517 -8,21 -0.333,0 -0.667,0 -1,0 -2.649,-6.685 -4.709,-13.957 -7,-21 -11.79,3.543 -24.402,6.265 -37,9 -0.828,-25.161 24.617,-24.05 34,-39 -4.691,-18.309 -4.123,-41.877 -4,-65 -10.057,1.067 -19.246,2.037 -28,2 -24.759,16.089 -55.345,20.188 -79,37 -2.217,0.551 -1.424,-1.909 -3,-2 0,-3.333 0,-6.667 0,-10 0.333,0 0.667,0 1,0 20.529,-28.138 54.021,-43.312 78,-68 -2.997,-6.289 -4.457,-17.88 -1,-25 4.333,0 8.667,0 13,0 1.62,3.714 0.831,9.836 1,15 6.605,-3.28 12.472,-10.756 17,-13 1.738,-41.595 -6.31,-92.976 13,-117 z m -15,123 c 0.655,0.656 -0.42,-0.419 0,0 l 0,0 z m 33.999,0 c 0.656,0.656 -0.419,-0.419 0,0 l 0,0 z"
   id="path10"
   inkscape:connector-curvature="0"
   style="fill-rule:evenodd" />
			<path
   clip-rule="evenodd"
   d="m 290.698,272.444 c 40.667,0 81.333,0 122,0 0,69.333 0,138.667 0,208 -21.804,-27.196 -54.499,-43.501 -79,-68 3.371,-6.653 3.43,-16.027 2,-25 -4.666,0 -9.333,0 -14,0 -1.619,3.714 -0.83,9.836 -1,15 -6.604,-3.28 -12.471,-10.756 -17,-13 -1.738,-41.595 6.31,-92.976 -13,-117 z"
   id="path12"
   inkscape:connector-curvature="0"
   style="fill:#ffffff;fill-rule:evenodd" />
			<path
   clip-rule="evenodd"
   d="m 270.698,395.444 c -0.42,-0.419 0.655,0.656 0,0 l 0,0 z"
   id="path14"
   inkscape:connector-curvature="0"
   style="fill:#ffffff;fill-rule:evenodd" />
			<path
   clip-rule="evenodd"
   d="m 304.697,395.444 c -0.419,-0.419 0.656,0.656 0,0 l 0,0 z"
   id="path16"
   inkscape:connector-curvature="0"
   style="fill:#ffffff;fill-rule:evenodd" />
			<path
   clip-rule="evenodd"
   d="m 287.698,569.444 c -41.333,0 -82.667,0 -124,0 0,-26.333 0,-52.667 0,-79 1.576,0.091 0.783,2.551 3,2 23.655,-16.812 54.241,-20.911 79,-37 8.754,0.037 17.943,-0.933 28,-2 -0.123,23.123 -0.691,46.691 4,65 -9.383,14.95 -34.828,13.839 -34,39 12.598,-2.735 25.21,-5.457 37,-9 2.29,7.043 4.351,14.316 7,21 z"
   id="path18"
   inkscape:connector-curvature="0"
   style="fill:#ffffff;fill-rule:evenodd" />
			<path
   clip-rule="evenodd"
   d="m 412.697,490.444 c 0,26.333 0,52.667 0,79 -41.333,0 -82.666,0 -124,0 3.183,-6.483 3.936,-15.397 8,-21 11.052,3.947 23.813,6.187 36,9 1.065,-25.731 -25.787,-23.546 -34,-40 5.692,-17.308 2.617,-43.384 5,-64 9.994,1.425 18.86,1.896 28,2 24.252,16.575 54.794,20.677 79,37 1.323,-0.011 0.914,-1.753 2,-2 z"
   id="path20"
   inkscape:connector-curvature="0"
   style="fill:#ffffff;fill-rule:evenodd" />
			<path
   clip-rule="evenodd"
   d="m 412.697,484.444 c 0,0.333 10e-4,0.667 0,1 -0.554,0.003 -1.135,-0.809 0,-1 z"
   id="path22"
   inkscape:connector-curvature="0"
   style="fill:#ffffff;fill-rule:evenodd" />
		</g>
	</g>
</g>
</svg>