<?xml version="1.0" encoding="utf-8"?>
<!-- Generator: Adobe Illustrator 14.0.0, SVG Export Plug-In . SVG Version: 6.00 Build 43363)  -->
<!DOCTYPE svg PUBLIC "-//W3C//DTD SVG 1.1//EN" "http://www.w3.org/Graphics/SVG/1.1/DTD/svg11.dtd">
<svg version="1.1" id="Calque_1" xmlns="http://www.w3.org/2000/svg" xmlns:xlink="http://www.w3.org/1999/xlink" x="0px" y="0px"
	 width="595.28px" height="841.89px" viewBox="0 0 595.28 841.89" enable-background="new 0 0 595.28 841.89" xml:space="preserve">
<g id="VdiQlC_1_">
	<g>
		<g>
			<path fill-rule="evenodd" clip-rule="evenodd" fill="#FFFFFF" d="M285.698,272.444c-19.31,24.024-11.262,75.404-13,117
				c-4.528,2.244-10.395,9.72-17,13c-0.169-5.164,0.62-11.286-1-15c-4.333,0-8.667,0-13,0c-3.457,7.12-1.997,18.711,1,25
				c-23.979,24.688-57.471,39.862-78,68c-0.333,0-0.667,0-1,0c0-69.333,0-138.667,0-208
				C204.364,272.444,245.031,272.444,285.698,272.444z"/>
			<path fill-rule="evenodd" clip-rule="evenodd" d="M285.698,272.444c1.667,0,3.333,0,5,0c19.31,24.024,11.262,75.404,13,117
				c4.529,2.244,10.396,9.72,17,13c0.17-5.164-0.619-11.286,1-15c4.667,0,9.334,0,14,0c1.43,8.973,1.371,18.347-2,25
				c24.501,24.499,57.196,40.804,79,68c0,1.333,0,2.667,0,4c-1.135,0.19-0.555,1.003,0,1c0,1.667,0,3.333,0,5
				c-1.086,0.247-0.678,1.988-2,2c-24.206-16.323-54.748-20.425-79-37c-9.14-0.104-18.006-0.575-28-2
				c-2.383,20.616,0.692,46.692-5,64c8.212,16.454,35.065,14.269,34,40c-12.187-2.813-24.947-5.053-36-9
				c-4.064,5.603-4.817,14.517-8,21c-0.333,0-0.667,0-1,0c-2.649-6.685-4.709-13.957-7-21c-11.79,3.543-24.402,6.265-37,9
				c-0.828-25.161,24.617-24.05,34-39c-4.691-18.309-4.123-41.877-4-65c-10.057,1.067-19.246,2.037-28,2
				c-24.759,16.089-55.345,20.188-79,37c-2.217,0.551-1.424-1.909-3-2c0-3.333,0-6.667,0-10c0.333,0,0.667,0,1,0
				c20.529-28.138,54.021-43.312,78-68c-2.997-6.289-4.457-17.88-1-25c4.333,0,8.667,0,13,0c1.62,3.714,0.831,9.836,1,15
				c6.605-3.28,12.472-10.756,17-13C274.436,347.849,266.388,296.468,285.698,272.444z M270.698,395.444
				C271.353,396.1,270.278,395.025,270.698,395.444L270.698,395.444z M304.697,395.444
				C305.353,396.1,304.278,395.025,304.697,395.444L304.697,395.444z"/>
			<path fill-rule="evenodd" clip-rule="evenodd" fill="#FFFFFF" d="M290.698,272.444c40.667,0,81.333,0,122,0
				c0,69.333,0,138.667,0,208c-21.804-27.196-54.499-43.501-79-68c3.371-6.653,3.43-16.027,2-25c-4.666,0-9.333,0-14,0
				c-1.619,3.714-0.83,9.836-1,15c-6.604-3.28-12.471-10.756-17-13C301.96,347.849,310.008,296.468,290.698,272.444z"/>
			<path fill-rule="evenodd" clip-rule="evenodd" fill="#FFFFFF" d="M270.698,395.444
				C270.278,395.025,271.353,396.1,270.698,395.444L270.698,395.444z"/>
			<path fill-rule="evenodd" clip-rule="evenodd" fill="#FFFFFF" d="M304.697,395.444
				C304.278,395.025,305.353,396.1,304.697,395.444L304.697,395.444z"/>
			<path fill-rule="evenodd" clip-rule="evenodd" fill="#FFFFFF" d="M287.698,569.444c-41.333,0-82.667,0-124,0
				c0-26.333,0-52.667,0-79c1.576,0.091,0.783,2.551,3,2c23.655-16.812,54.241-20.911,79-37c8.754,0.037,17.943-0.933,28-2
				c-0.123,23.123-0.691,46.691,4,65c-9.383,14.95-34.828,13.839-34,39c12.598-2.735,25.21-5.457,37-9
				C282.988,555.487,285.049,562.76,287.698,569.444z"/>
			<path fill-rule="evenodd" clip-rule="evenodd" fill="#FFFFFF" d="M412.697,490.444c0,26.333,0,52.667,0,79
				c-41.333,0-82.666,0-124,0c3.183-6.483,3.936-15.397,8-21c11.052,3.947,23.813,6.187,36,9c1.065-25.731-25.787-23.546-34-40
				c5.692-17.308,2.617-43.384,5-64c9.994,1.425,18.86,1.896,28,2c24.252,16.575,54.794,20.677,79,37
				C412.02,492.433,411.611,490.691,412.697,490.444z"/>
			<path fill-rule="evenodd" clip-rule="evenodd" fill="#FFFFFF" d="M412.697,484.444c0,0.333,0.001,0.667,0,1
				C412.143,485.447,411.562,484.635,412.697,484.444z"/>
		</g>
	</g>
</g>
</svg>
