<?xml version="1.0" encoding="utf-8"?>
<!-- Generator: Adobe Illustrator 14.0.0, SVG Export Plug-In . SVG Version: 6.00 Build 43363)  -->
<!DOCTYPE svg PUBLIC "-//W3C//DTD SVG 1.1//EN" "http://www.w3.org/Graphics/SVG/1.1/DTD/svg11.dtd">
<svg version="1.1" id="Calque_1" xmlns="http://www.w3.org/2000/svg" xmlns:xlink="http://www.w3.org/1999/xlink" x="0px" y="0px"
	 width="595.28px" height="841.89px" viewBox="0 0 595.28 841.89" enable-background="new 0 0 595.28 841.89" xml:space="preserve">
<g>
	<path d="M155.103,487.953h-40.907c-6.627,0-12-5.373-12-12v-146.93c0-6.627,5.373-12,12-12h40.907V487.953z"/>
	<path d="M347.301,487.953h40.906c6.628,0,12-5.373,12-12V329.022c0-6.627-5.372-12-12-12h-40.906V487.953z"/>
	<path d="M286.332,317.022v-17.341c0-10.752-8.748-19.5-19.5-19.5h-31.339c-10.752,0-19.5,8.748-19.5,19.5v17.341l-46.807,0.001
		v170.93H333.14v-170.93L286.332,317.022z M271.332,317.022h-40.339v-17.341c0-2.481,2.019-4.5,4.5-4.5h31.339
		c2.481,0,4.5,2.019,4.5,4.5V317.022z"/>
</g>
</svg>
