<?xml version="1.0" encoding="UTF-8" standalone="no"?>
<!-- Generator: Adobe Illustrator 14.0.0, SVG Export Plug-In . SVG Version: 6.00 Build 43363)  -->

<svg
   xmlns:dc="http://purl.org/dc/elements/1.1/"
   xmlns:cc="http://creativecommons.org/ns#"
   xmlns:rdf="http://www.w3.org/1999/02/22-rdf-syntax-ns#"
   xmlns:svg="http://www.w3.org/2000/svg"
   xmlns="http://www.w3.org/2000/svg"
   xmlns:sodipodi="http://sodipodi.sourceforge.net/DTD/sodipodi-0.dtd"
   xmlns:inkscape="http://www.inkscape.org/namespaces/inkscape"
   version="1.1"
   id="Calque_1"
   x="0px"
   y="0px"
   width="298.01102"
   height="207.772"
   viewBox="0 0 298.011 207.772"
   enable-background="new 0 0 595.28 841.89"
   xml:space="preserve"
   inkscape:version="0.48.0 r9654"
   sodipodi:docname="bagages.svg"><metadata
   id="metadata3018"><rdf:RDF><cc:Work
       rdf:about=""><dc:format>image/svg+xml</dc:format><dc:type
         rdf:resource="http://purl.org/dc/dcmitype/StillImage" /></cc:Work></rdf:RDF></metadata><defs
   id="defs3016" /><sodipodi:namedview
   pagecolor="#ffffff"
   bordercolor="#666666"
   borderopacity="1"
   objecttolerance="10"
   gridtolerance="10"
   guidetolerance="10"
   inkscape:pageopacity="0"
   inkscape:pageshadow="2"
   inkscape:window-width="640"
   inkscape:window-height="480"
   id="namedview3014"
   showgrid="false"
   fit-margin-top="0"
   fit-margin-left="0"
   fit-margin-right="0"
   fit-margin-bottom="0"
   inkscape:zoom="0.32308258"
   inkscape:cx="195.444"
   inkscape:cy="67.008001"
   inkscape:window-x="0"
   inkscape:window-y="24"
   inkscape:window-maximized="0"
   inkscape:current-layer="Calque_1" />
<g
   id="g3006"
   transform="translate(-102.19601,-280.181)">
	<path
   d="m 155.103,487.953 h -40.907 c -6.627,0 -12,-5.373 -12,-12 v -146.93 c 0,-6.627 5.373,-12 12,-12 h 40.907 v 170.93 z"
   id="path3008"
   inkscape:connector-curvature="0" />
	<path
   d="m 347.301,487.953 h 40.906 c 6.628,0 12,-5.373 12,-12 V 329.022 c 0,-6.627 -5.372,-12 -12,-12 h -40.906 v 170.931 z"
   id="path3010"
   inkscape:connector-curvature="0" />
	<path
   d="m 286.332,317.022 v -17.341 c 0,-10.752 -8.748,-19.5 -19.5,-19.5 h -31.339 c -10.752,0 -19.5,8.748 -19.5,19.5 v 17.341 l -46.807,0.001 v 170.93 H 333.14 v -170.93 l -46.808,-0.001 z m -15,0 h -40.339 v -17.341 c 0,-2.481 2.019,-4.5 4.5,-4.5 h 31.339 c 2.481,0 4.5,2.019 4.5,4.5 v 17.341 z"
   id="path3012"
   inkscape:connector-curvature="0" />
</g>
</svg>