<?xml version="1.0" encoding="UTF-8" standalone="no"?>
<!-- Generator: Adobe Illustrator 14.0.0, SVG Export Plug-In . SVG Version: 6.00 Build 43363)  -->

<svg
   xmlns:dc="http://purl.org/dc/elements/1.1/"
   xmlns:cc="http://creativecommons.org/ns#"
   xmlns:rdf="http://www.w3.org/1999/02/22-rdf-syntax-ns#"
   xmlns:svg="http://www.w3.org/2000/svg"
   xmlns="http://www.w3.org/2000/svg"
   xmlns:sodipodi="http://sodipodi.sourceforge.net/DTD/sodipodi-0.dtd"
   xmlns:inkscape="http://www.inkscape.org/namespaces/inkscape"
   version="1.1"
   id="Calque_1"
   x="0px"
   y="0px"
   width="380.98401"
   height="236.67398"
   viewBox="0 0 380.98399 236.67398"
   enable-background="new 0 0 595.28 841.89"
   xml:space="preserve"
   inkscape:version="0.48.0 r9654"
   sodipodi:docname="caroussel.svg"><metadata
   id="metadata3081"><rdf:RDF><cc:Work
       rdf:about=""><dc:format>image/svg+xml</dc:format><dc:type
         rdf:resource="http://purl.org/dc/dcmitype/StillImage" /></cc:Work></rdf:RDF></metadata><defs
   id="defs3079" /><sodipodi:namedview
   pagecolor="#ffffff"
   bordercolor="#666666"
   borderopacity="1"
   objecttolerance="10"
   gridtolerance="10"
   guidetolerance="10"
   inkscape:pageopacity="0"
   inkscape:pageshadow="2"
   inkscape:window-width="640"
   inkscape:window-height="480"
   id="namedview3077"
   showgrid="false"
   fit-margin-top="0"
   fit-margin-left="0"
   fit-margin-right="0"
   fit-margin-bottom="0"
   inkscape:zoom="0.32308258"
   inkscape:cx="229.04"
   inkscape:cy="146.19398"
   inkscape:window-x="0"
   inkscape:window-y="24"
   inkscape:window-maximized="0"
   inkscape:current-layer="Calque_1" />
<path
   d="m 263.23799,40.628004 c 42.869,0 77.746,34.877 77.746,77.745996 0,42.869 -34.877,77.746 -77.746,77.746 h -145.492 c -42.868999,0 -77.745999,-34.877 -77.745999,-77.746 0,-42.868996 34.877,-77.745996 77.745999,-77.745996 h 145.492 m 0,-40.00000034 h -145.492 C 52.820991,0.62800366 -9.4696599e-6,53.449004 -9.4696599e-6,118.374 -9.4696599e-6,183.3 52.820991,236.12 117.74599,236.12 h 145.492 c 64.926,0 117.746,-52.82 117.746,-117.746 0,-64.924996 -52.82,-117.74599634 -117.746,-117.74599634 l 0,0 z"
   id="path3021"
   inkscape:connector-curvature="0" />
<line
   x1="117.74599"
   y1="118.32501"
   x2="117.74599"
   y2="0.84799194"
   id="line3023"
   style="fill:none;stroke:#ffffff;stroke-width:1.5" />
<line
   x1="117.74599"
   y1="118.37399"
   x2="77.567001"
   y2="7.9819946"
   id="line3025"
   style="fill:none;stroke:#ffffff;stroke-width:1.5" />
<line
   x1="117.74599"
   y1="118.37399"
   x2="42.23399"
   y2="28.381989"
   id="line3027"
   style="fill:none;stroke:#ffffff;stroke-width:1.5" />
<line
   x1="117.70399"
   y1="118.32501"
   x2="15.964993"
   y2="59.585999"
   id="line3029"
   style="fill:none;stroke:#ffffff;stroke-width:1.5" />
<line
   x1="117.74599"
   y1="118.34799"
   x2="2.0539899"
   y2="97.949005"
   id="line3031"
   style="fill:none;stroke:#ffffff;stroke-width:1.5" />
<line
   x1="117.74599"
   y1="118.32501"
   x2="2.0549893"
   y2="138.72299"
   id="line3033"
   style="fill:none;stroke:#ffffff;stroke-width:1.5" />
<line
   x1="117.74599"
   y1="118.37399"
   x2="16.006992"
   y2="177.112"
   id="line3035"
   style="fill:none;stroke:#ffffff;stroke-width:1.5" />
<line
   x1="117.74599"
   y1="118.37399"
   x2="42.23299"
   y2="208.366"
   id="line3037"
   style="fill:none;stroke:#ffffff;stroke-width:1.5" />
<line
   x1="117.74599"
   y1="118.327"
   x2="77.565994"
   y2="228.71799"
   id="line3039"
   style="fill:none;stroke:#ffffff;stroke-width:1.5" />
<line
   x1="117.74599"
   y1="235.85001"
   x2="117.74599"
   y2="118.37399"
   id="line3041"
   style="fill:none;stroke:#ffffff;stroke-width:1.5" />
<line
   x1="263.23801"
   y1="118.30099"
   x2="263.23801"
   y2="0.82400513"
   id="line3043"
   style="fill:none;stroke:#ffffff;stroke-width:1.5" />
<line
   x1="263.23801"
   y1="118.349"
   x2="303.418"
   y2="7.9580078"
   id="line3045"
   style="fill:none;stroke:#ffffff;stroke-width:1.5" />
<line
   x1="263.23801"
   y1="118.349"
   x2="338.75"
   y2="28.356995"
   id="line3047"
   style="fill:none;stroke:#ffffff;stroke-width:1.5" />
<line
   x1="263.28"
   y1="118.30099"
   x2="365.01801"
   y2="59.561005"
   id="line3049"
   style="fill:none;stroke:#ffffff;stroke-width:1.5" />
<line
   x1="263.23801"
   y1="118.32401"
   x2="378.92899"
   y2="97.925018"
   id="line3051"
   style="fill:none;stroke:#ffffff;stroke-width:1.5" />
<line
   x1="263.23801"
   y1="118.30099"
   x2="378.92801"
   y2="138.69901"
   id="line3053"
   style="fill:none;stroke:#ffffff;stroke-width:1.5" />
<line
   x1="263.23801"
   y1="118.349"
   x2="364.97598"
   y2="177.08801"
   id="line3055"
   style="fill:none;stroke:#ffffff;stroke-width:1.5" />
<line
   x1="263.23801"
   y1="118.349"
   x2="338.75"
   y2="208.34201"
   id="line3057"
   style="fill:none;stroke:#ffffff;stroke-width:1.5" />
<line
   x1="263.23801"
   y1="118.30301"
   x2="303.418"
   y2="228.69302"
   id="line3059"
   style="fill:none;stroke:#ffffff;stroke-width:1.5" />
<line
   x1="263.23801"
   y1="235.82602"
   x2="263.23801"
   y2="118.349"
   id="line3061"
   style="fill:none;stroke:#ffffff;stroke-width:1.5" />
<line
   x1="154.89999"
   y1="118.349"
   x2="154.89999"
   y2="0.87200928"
   id="line3063"
   style="fill:none;stroke:#ffffff;stroke-width:1.5" />
<line
   x1="154.89999"
   y1="235.87503"
   x2="154.89999"
   y2="118.39801"
   id="line3065"
   style="fill:none;stroke:#ffffff;stroke-width:1.5" />
<line
   x1="190.492"
   y1="118.22699"
   x2="190.492"
   y2="0.75"
   id="line3067"
   style="fill:none;stroke:#ffffff;stroke-width:1.5" />
<line
   x1="190.492"
   y1="235.75302"
   x2="190.492"
   y2="118.276"
   id="line3069"
   style="fill:none;stroke:#ffffff;stroke-width:1.5" />
<line
   x1="226.89999"
   y1="118.39801"
   x2="226.89999"
   y2="0.92098999"
   id="line3071"
   style="fill:none;stroke:#ffffff;stroke-width:1.5" />
<line
   x1="226.89999"
   y1="235.92398"
   x2="226.89999"
   y2="118.44699"
   id="line3073"
   style="fill:none;stroke:#ffffff;stroke-width:1.5" />
<path
   d="m 263.23799,45.628004 h -145.492 c -40.176999,0 -72.745999,32.569 -72.745999,72.745996 0,40.177 32.569,72.746 72.745999,72.746 h 145.492 c 40.177,0 72.746,-32.569 72.746,-72.746 0,-40.176996 -32.569,-72.745996 -72.746,-72.745996 l 0,0 z"
   id="path3075"
   inkscape:connector-curvature="0"
   style="fill:none;stroke:#000000;stroke-width:7" />
</svg>