<?xml version="1.0" encoding="utf-8"?>
<!-- Generator: Adobe Illustrator 14.0.0, SVG Export Plug-In . SVG Version: 6.00 Build 43363)  -->
<!DOCTYPE svg PUBLIC "-//W3C//DTD SVG 1.1//EN" "http://www.w3.org/Graphics/SVG/1.1/DTD/svg11.dtd">
<svg version="1.1" id="Calque_1" xmlns="http://www.w3.org/2000/svg" xmlns:xlink="http://www.w3.org/1999/xlink" x="0px" y="0px"
	 width="595.28px" height="841.89px" viewBox="0 0 595.28 841.89" enable-background="new 0 0 595.28 841.89" xml:space="preserve">
<path d="M331.838,371.093c42.869,0,77.746,34.877,77.746,77.746s-34.877,77.746-77.746,77.746H186.346
	c-42.869,0-77.746-34.877-77.746-77.746s34.877-77.746,77.746-77.746H331.838 M331.838,331.093H186.346
	c-64.925,0-117.746,52.821-117.746,117.746c0,64.926,52.821,117.746,117.746,117.746h145.492
	c64.926,0,117.746-52.82,117.746-117.746C449.584,383.914,396.764,331.093,331.838,331.093L331.838,331.093z"/>
<line fill="none" stroke="#FFFFFF" stroke-width="1.5" x1="186.346" y1="448.79" x2="186.346" y2="331.313"/>
<line fill="none" stroke="#FFFFFF" stroke-width="1.5" x1="186.346" y1="448.839" x2="146.167" y2="338.447"/>
<line fill="none" stroke="#FFFFFF" stroke-width="1.5" x1="186.346" y1="448.839" x2="110.834" y2="358.847"/>
<line fill="none" stroke="#FFFFFF" stroke-width="1.5" x1="186.304" y1="448.79" x2="84.565" y2="390.051"/>
<line fill="none" stroke="#FFFFFF" stroke-width="1.5" x1="186.346" y1="448.813" x2="70.654" y2="428.414"/>
<line fill="none" stroke="#FFFFFF" stroke-width="1.5" x1="186.346" y1="448.79" x2="70.655" y2="469.188"/>
<line fill="none" stroke="#FFFFFF" stroke-width="1.5" x1="186.346" y1="448.839" x2="84.607" y2="507.577"/>
<line fill="none" stroke="#FFFFFF" stroke-width="1.5" x1="186.346" y1="448.839" x2="110.833" y2="538.831"/>
<line fill="none" stroke="#FFFFFF" stroke-width="1.5" x1="186.346" y1="448.792" x2="146.166" y2="559.183"/>
<line fill="none" stroke="#FFFFFF" stroke-width="1.5" x1="186.346" y1="566.315" x2="186.346" y2="448.839"/>
<line fill="none" stroke="#FFFFFF" stroke-width="1.5" x1="331.838" y1="448.766" x2="331.838" y2="331.289"/>
<line fill="none" stroke="#FFFFFF" stroke-width="1.5" x1="331.838" y1="448.814" x2="372.018" y2="338.423"/>
<line fill="none" stroke="#FFFFFF" stroke-width="1.5" x1="331.838" y1="448.814" x2="407.35" y2="358.822"/>
<line fill="none" stroke="#FFFFFF" stroke-width="1.5" x1="331.88" y1="448.766" x2="433.618" y2="390.026"/>
<line fill="none" stroke="#FFFFFF" stroke-width="1.5" x1="331.838" y1="448.789" x2="447.529" y2="428.39"/>
<line fill="none" stroke="#FFFFFF" stroke-width="1.5" x1="331.838" y1="448.766" x2="447.528" y2="469.164"/>
<line fill="none" stroke="#FFFFFF" stroke-width="1.5" x1="331.838" y1="448.814" x2="433.576" y2="507.553"/>
<line fill="none" stroke="#FFFFFF" stroke-width="1.5" x1="331.838" y1="448.814" x2="407.35" y2="538.807"/>
<line fill="none" stroke="#FFFFFF" stroke-width="1.5" x1="331.838" y1="448.768" x2="372.018" y2="559.158"/>
<line fill="none" stroke="#FFFFFF" stroke-width="1.5" x1="331.838" y1="566.291" x2="331.838" y2="448.814"/>
<line fill="none" stroke="#FFFFFF" stroke-width="1.5" x1="223.5" y1="448.814" x2="223.5" y2="331.337"/>
<line fill="none" stroke="#FFFFFF" stroke-width="1.5" x1="223.5" y1="566.34" x2="223.5" y2="448.863"/>
<line fill="none" stroke="#FFFFFF" stroke-width="1.5" x1="259.092" y1="448.692" x2="259.092" y2="331.215"/>
<line fill="none" stroke="#FFFFFF" stroke-width="1.5" x1="259.092" y1="566.218" x2="259.092" y2="448.741"/>
<line fill="none" stroke="#FFFFFF" stroke-width="1.5" x1="295.5" y1="448.863" x2="295.5" y2="331.386"/>
<line fill="none" stroke="#FFFFFF" stroke-width="1.5" x1="295.5" y1="566.389" x2="295.5" y2="448.912"/>
<path fill="none" stroke="#000000" stroke-width="7" d="M331.838,376.093H186.346c-40.177,0-72.746,32.569-72.746,72.746
	s32.569,72.746,72.746,72.746h145.492c40.177,0,72.746-32.569,72.746-72.746S372.015,376.093,331.838,376.093L331.838,376.093z"/>
</svg>
