<?xml version="1.0" encoding="UTF-8" standalone="no"?>
<!-- Generator: Adobe Illustrator 14.0.0, SVG Export Plug-In . SVG Version: 6.00 Build 43363)  -->

<svg
   xmlns:dc="http://purl.org/dc/elements/1.1/"
   xmlns:cc="http://creativecommons.org/ns#"
   xmlns:rdf="http://www.w3.org/1999/02/22-rdf-syntax-ns#"
   xmlns:svg="http://www.w3.org/2000/svg"
   xmlns="http://www.w3.org/2000/svg"
   xmlns:sodipodi="http://sodipodi.sourceforge.net/DTD/sodipodi-0.dtd"
   xmlns:inkscape="http://www.inkscape.org/namespaces/inkscape"
   version="1.1"
   id="Calque_1"
   x="0px"
   y="0px"
   width="526.82599"
   height="329.733"
   viewBox="0 0 526.82596 329.733"
   enable-background="new 0 0 595.28 841.89"
   xml:space="preserve"
   inkscape:version="0.48.0 r9654"
   sodipodi:docname="rechargement-batterie.svg"><metadata
   id="metadata3151"><rdf:RDF><cc:Work
       rdf:about=""><dc:format>image/svg+xml</dc:format><dc:type
         rdf:resource="http://purl.org/dc/dcmitype/StillImage" /></cc:Work></rdf:RDF></metadata><defs
   id="defs3149" /><sodipodi:namedview
   pagecolor="#ffffff"
   bordercolor="#666666"
   borderopacity="1"
   objecttolerance="10"
   gridtolerance="10"
   guidetolerance="10"
   inkscape:pageopacity="0"
   inkscape:pageshadow="2"
   inkscape:window-width="640"
   inkscape:window-height="480"
   id="namedview3147"
   showgrid="false"
   fit-margin-top="0"
   fit-margin-left="0"
   fit-margin-right="0"
   fit-margin-bottom="0"
   inkscape:zoom="0.32308258"
   inkscape:cx="274.536"
   inkscape:cy="144.88799"
   inkscape:window-x="0"
   inkscape:window-y="24"
   inkscape:window-maximized="0"
   inkscape:current-layer="Calque_1" />
<g
   id="g3127"
   transform="translate(-23.104009,-236.1)">
	<polyline
   points="427.084,241.1 427.084,511.085 28.104,511.085 28.104,241.1  "
   id="polyline3129"
   style="fill:none;stroke:#000000;stroke-width:10" />
	<circle
   cx="48.353001"
   cy="545.58398"
   r="20.249001"
   id="circle3131"
   sodipodi:cx="48.353001"
   sodipodi:cy="545.58398"
   sodipodi:rx="20.249001"
   sodipodi:ry="20.249001"
   d="m 68.602001,545.58398 c 0,11.18322 -9.065786,20.249 -20.249,20.249 -11.183215,0 -20.249001,-9.06578 -20.249001,-20.249 0,-11.18321 9.065786,-20.249 20.249001,-20.249 11.183214,0 20.249,9.06579 20.249,20.249 z" />
	<circle
   cx="406.83499"
   cy="545.58398"
   r="20.249001"
   id="circle3133"
   sodipodi:cx="406.83499"
   sodipodi:cy="545.58398"
   sodipodi:rx="20.249001"
   sodipodi:ry="20.249001"
   d="m 427.08399,545.58398 c 0,11.18322 -9.06578,20.249 -20.249,20.249 -11.18321,0 -20.249,-9.06578 -20.249,-20.249 0,-11.18321 9.06579,-20.249 20.249,-20.249 11.18322,0 20.249,9.06579 20.249,20.249 z" />
</g>
<g
   id="g3135"
   transform="translate(-23.104009,-236.1)">
	<rect
   x="464.92999"
   y="280.10001"
   width="85"
   height="15"
   id="rect3137" />
	<rect
   x="483.33099"
   y="242.10001"
   width="7"
   height="64"
   id="rect3139" />
	<rect
   x="521.789"
   y="242.10001"
   width="7"
   height="64"
   id="rect3141" />
</g>
<path
   d="m 523.56799,71.742 c 0,21.673 -17.57,39.242 -39.242,39.242 -21.674,0 -39.242,-17.569 -39.242,-39.242 V 50.27 h 78.484"
   id="path3143"
   inkscape:connector-curvature="0" />
<path
   d="m 484.32599,109.984 c 0,41.833 -33.913,75.746 -75.746,75.746"
   id="path3145"
   inkscape:connector-curvature="0"
   style="fill:none;stroke:#000000;stroke-width:7" />
</svg>