<?xml version="1.0" encoding="utf-8"?>
<!-- Generator: Adobe Illustrator 14.0.0, SVG Export Plug-In . SVG Version: 6.00 Build 43363)  -->
<!DOCTYPE svg PUBLIC "-//W3C//DTD SVG 1.1//EN" "http://www.w3.org/Graphics/SVG/1.1/DTD/svg11.dtd">
<svg version="1.1" id="Calque_1" xmlns="http://www.w3.org/2000/svg" xmlns:xlink="http://www.w3.org/1999/xlink" x="0px" y="0px"
	 width="595.28px" height="841.89px" viewBox="0 0 595.28 841.89" enable-background="new 0 0 595.28 841.89" xml:space="preserve">
<g>
	<polyline fill="none" stroke="#000000" stroke-width="10" points="427.084,241.1 427.084,511.085 28.104,511.085 28.104,241.1 	"/>
	<circle cx="48.353" cy="545.584" r="20.249"/>
	<circle cx="406.835" cy="545.584" r="20.249"/>
</g>
<path d="M180.605,314.931v161.798c0,5.346,4.334,9.682,9.681,9.682c5.348,0,9.682-4.336,9.682-9.682V314.931"/>
<path d="M200.674,306.185h-17.42l-8.711-15.086l14.618-25.324c-9.353,0.382-18.312,5.4-23.339,14.105
	c-7.801,13.511-3.172,30.787,10.34,38.588c13.511,7.8,30.787,3.171,38.587-10.34c5.026-8.705,4.893-18.973,0.548-27.263
	L200.674,306.185z"/>
<polygon points="284.852,276.956 284.852,407.723 278.578,407.723 278.578,276.956 281.715,273.654 "/>
<path d="M281.715,273.654"/>
<path d="M272.033,400.671v76.058c0,5.346,4.334,9.682,9.68,9.682c5.348,0,9.683-4.336,9.683-9.682v-76.058"/>
<rect x="270.276" y="398.504" width="22.879" height="4.333"/>
</svg>
