<?xml version="1.0" encoding="utf-8"?>
<!-- Generator: Adobe Illustrator 14.0.0, SVG Export Plug-In . SVG Version: 6.00 Build 43363)  -->
<!DOCTYPE svg PUBLIC "-//W3C//DTD SVG 1.1//EN" "http://www.w3.org/Graphics/SVG/1.1/DTD/svg11.dtd">
<svg version="1.1" id="Calque_1" xmlns="http://www.w3.org/2000/svg" xmlns:xlink="http://www.w3.org/1999/xlink" x="0px" y="0px"
	 width="595.28px" height="841.89px" viewBox="0 0 595.28 841.89" enable-background="new 0 0 595.28 841.89" xml:space="preserve">
<g>
	<path d="M159.8,210.6V340h-18.6V210.6h-48v-16.4h114.4v16.4H159.8z"/>
	<path d="M262.998,239h-31.4v-12.6c13.6-1.731,22.466-4.131,26.6-7.2c4.131-3.066,7.731-10.066,10.8-21h11.6V340h-17.6V239z"/>
</g>
<g display="none">
	<rect x="163.25" y="211" display="inline" fill="none" width="28.106" height="132.25"/>
	<path display="inline" d="M174.763,337.942h7.25v-12.47h2.378v15.167H163.25v-14.645h2.378v11.948h6.757V326.43h2.378V337.942z"/>
	<path display="inline" d="M173.951,308.363c0.271-0.619,0.59-1.136,0.957-1.552c0.367-0.416,0.783-0.715,1.247-0.899
		c0.464-0.184,0.899-0.304,1.305-0.362c0.406-0.058,0.89-0.087,1.45-0.087c0.174,0,0.425,0.005,0.754,0.014
		c0.329,0.01,0.57,0.015,0.725,0.015c0.793,0,1.46-0.087,2.001-0.261c0.542-0.174,0.986-0.512,1.334-1.015h0.667v3.277
		c-0.889,0.387-2.04,0.58-3.451,0.58h-1.885c-1.295,0-2.248,0.28-2.856,0.841c-0.609,0.561-0.914,1.44-0.914,2.639v6.96h9.106v2.697
		H163.25v-9.744c0-2.068,0.489-3.659,1.465-4.771s2.373-1.667,4.19-1.667c1.199,0,2.194,0.261,2.987,0.783
		C172.685,306.333,173.371,307.184,173.951,308.363z M169.282,307.841c-1.392,0-2.349,0.367-2.871,1.102s-0.783,1.75-0.783,3.045
		v6.525h7.279v-6.525c0-1.431-0.29-2.479-0.87-3.146S170.539,307.841,169.282,307.841z"/>
	<path display="inline" d="M184.391,289.397v2.842l-17.719,6.003h17.719v2.552H163.25v-3.741l18.415-6.264l-18.415-6.148V280.9
		h21.141v2.552h-17.719L184.391,289.397z"/>
	<path display="inline" d="M163.25,273.187h21.141v2.726H163.25V273.187z"/>
	<path display="inline" d="M163.25,252.017h21.141v3.045l-17.139,10.933h17.139v2.552H163.25v-2.929l17.284-11.049H163.25V252.017z"
		/>
	<path display="inline" d="M178.04,236.066v8.149l6.351,2.232v2.871l-21.141-7.54V238.3l21.141-7.424v3.016L178.04,236.066z
		 M175.778,236.82l-9.628,3.248l9.628,3.48V236.82z"/>
	<path display="inline" d="M163.25,225.453h18.763v-10.44h2.378v13.137H163.25V225.453z"/>
</g>
<g>
	<rect x="155.75" y="210.234" fill="none" width="28.107" height="143.727"/>
	<path d="M172.226,215.596h-7.325v12.599h-2.403v-15.324h21.36v14.796h-2.403v-12.072h-6.827v11.632h-2.403V215.596z"/>
	<path d="M173.046,245.481c-0.273,0.625-0.596,1.147-0.967,1.568c-0.371,0.42-0.791,0.722-1.26,0.908
		c-0.469,0.186-0.908,0.308-1.318,0.366c-0.411,0.059-0.899,0.088-1.465,0.088c-0.176,0-0.43-0.005-0.762-0.015
		c-0.333-0.01-0.576-0.015-0.732-0.015c-0.801,0-1.475,0.088-2.022,0.264s-0.996,0.518-1.348,1.025h-0.674v-3.311
		c0.898-0.391,2.061-0.586,3.487-0.586h1.904c1.309,0,2.271-0.283,2.886-0.85s0.923-1.455,0.923-2.666v-7.032h-9.2v-2.725h21.36
		v9.845c0,2.09-0.494,3.696-1.48,4.82c-0.986,1.123-2.398,1.685-4.234,1.685c-1.211,0-2.217-0.264-3.018-0.791
		C174.325,247.533,173.632,246.673,173.046,245.481z M177.763,246.009c1.407,0,2.374-0.372,2.901-1.114s0.791-1.768,0.791-3.076
		v-6.593h-7.354v6.593c0,1.445,0.293,2.505,0.879,3.179S176.493,246.009,177.763,246.009z"/>
	<path d="M162.498,264.644v-2.872l17.902-6.065h-17.902v-2.579h21.36v3.78l-18.605,6.329l18.605,6.211v3.78h-21.36v-2.579H180.4
		L162.498,264.644z"/>
	<path d="M183.858,281.022h-21.36v-2.754h21.36V281.022z"/>
	<path d="M183.858,302.411h-21.36v-3.077l17.316-11.046h-17.316v-2.579h21.36v2.959l-17.463,11.164h17.463V302.411z"/>
	<path d="M168.915,318.526v-8.233l-6.417-2.257v-2.9l21.36,7.618v3.516l-21.36,7.501v-3.047L168.915,318.526z M171.2,317.764
		l9.728-3.281l-9.728-3.516V317.764z"/>
	<path d="M183.858,329.25h-18.957v10.548h-2.403v-13.273h21.36V329.25z"/>
</g>
</svg>
