<?xml version="1.0" encoding="UTF-8" standalone="no"?>
<!-- Generator: Adobe Illustrator 14.0.0, SVG Export Plug-In . SVG Version: 6.00 Build 43363)  -->

<svg
   xmlns:dc="http://purl.org/dc/elements/1.1/"
   xmlns:cc="http://creativecommons.org/ns#"
   xmlns:rdf="http://www.w3.org/1999/02/22-rdf-syntax-ns#"
   xmlns:svg="http://www.w3.org/2000/svg"
   xmlns="http://www.w3.org/2000/svg"
   xmlns:sodipodi="http://sodipodi.sourceforge.net/DTD/sodipodi-0.dtd"
   xmlns:inkscape="http://www.inkscape.org/namespaces/inkscape"
   version="1.1"
   id="Calque_1"
   x="0px"
   y="0px"
   width="187.39801"
   height="159.761"
   viewBox="0 0 187.398 159.761"
   enable-background="new 0 0 595.28 841.89"
   xml:space="preserve"
   inkscape:version="0.48.0 r9654"
   sodipodi:docname="Terminal.svg"><metadata
   id="metadata3240"><rdf:RDF><cc:Work
       rdf:about=""><dc:format>image/svg+xml</dc:format><dc:type
         rdf:resource="http://purl.org/dc/dcmitype/StillImage" /></cc:Work></rdf:RDF></metadata><defs
   id="defs3238" /><sodipodi:namedview
   pagecolor="#ffffff"
   bordercolor="#666666"
   borderopacity="1"
   objecttolerance="10"
   gridtolerance="10"
   guidetolerance="10"
   inkscape:pageopacity="0"
   inkscape:pageshadow="2"
   inkscape:window-width="640"
   inkscape:window-height="480"
   id="namedview3236"
   showgrid="false"
   fit-margin-top="0"
   fit-margin-left="0"
   fit-margin-right="0"
   fit-margin-bottom="0"
   inkscape:zoom="0.32308258"
   inkscape:cx="204.44"
   inkscape:cy="-66.984003"
   inkscape:window-x="0"
   inkscape:window-y="24"
   inkscape:window-maximized="0"
   inkscape:current-layer="Calque_1" />
<g
   id="g3194"
   transform="translate(-93.200009,-194.2)">
	<path
   d="M 159.8,210.6 V 340 H 141.2 V 210.6 h -48 v -16.4 h 114.4 v 16.4 h -47.8 z"
   id="path3196"
   inkscape:connector-curvature="0" />
	<path
   d="m 262.998,239 h -31.4 v -12.6 c 13.6,-1.731 22.466,-4.131 26.6,-7.2 4.131,-3.066 7.731,-10.066 10.8,-21 h 11.6 V 340 h -17.6 V 239 z"
   id="path3198"
   inkscape:connector-curvature="0" />
</g>
<g
   display="none"
   id="g3200"
   style="display:none"
   transform="translate(-93.200009,-194.2)">
	<rect
   x="163.25"
   y="211"
   display="inline"
   width="28.106001"
   height="132.25"
   id="rect3202"
   style="fill:none;display:inline" />
	<path
   display="inline"
   d="m 174.763,337.942 h 7.25 v -12.47 h 2.378 v 15.167 H 163.25 v -14.645 h 2.378 v 11.948 h 6.757 V 326.43 h 2.378 v 11.512 z"
   id="path3204"
   inkscape:connector-curvature="0"
   style="display:inline" />
	<path
   display="inline"
   d="m 173.951,308.363 c 0.271,-0.619 0.59,-1.136 0.957,-1.552 0.367,-0.416 0.783,-0.715 1.247,-0.899 0.464,-0.184 0.899,-0.304 1.305,-0.362 0.406,-0.058 0.89,-0.087 1.45,-0.087 0.174,0 0.425,0.005 0.754,0.014 0.329,0.01 0.57,0.015 0.725,0.015 0.793,0 1.46,-0.087 2.001,-0.261 0.542,-0.174 0.986,-0.512 1.334,-1.015 h 0.667 v 3.277 c -0.889,0.387 -2.04,0.58 -3.451,0.58 h -1.885 c -1.295,0 -2.248,0.28 -2.856,0.841 -0.609,0.561 -0.914,1.44 -0.914,2.639 v 6.96 h 9.106 v 2.697 H 163.25 v -9.744 c 0,-2.068 0.489,-3.659 1.465,-4.771 0.976,-1.112 2.373,-1.667 4.19,-1.667 1.199,0 2.194,0.261 2.987,0.783 0.793,0.522 1.479,1.373 2.059,2.552 z m -4.669,-0.522 c -1.392,0 -2.349,0.367 -2.871,1.102 -0.522,0.735 -0.783,1.75 -0.783,3.045 v 6.525 h 7.279 v -6.525 c 0,-1.431 -0.29,-2.479 -0.87,-3.146 -0.58,-0.667 -1.498,-1.001 -2.755,-1.001 z"
   id="path3206"
   inkscape:connector-curvature="0"
   style="display:inline" />
	<path
   display="inline"
   d="m 184.391,289.397 v 2.842 l -17.719,6.003 h 17.719 v 2.552 H 163.25 v -3.741 l 18.415,-6.264 -18.415,-6.148 V 280.9 h 21.141 v 2.552 h -17.719 l 17.719,5.945 z"
   id="path3208"
   inkscape:connector-curvature="0"
   style="display:inline" />
	<path
   display="inline"
   d="m 163.25,273.187 h 21.141 v 2.726 H 163.25 v -2.726 z"
   id="path3210"
   inkscape:connector-curvature="0"
   style="display:inline" />
	<path
   display="inline"
   d="m 163.25,252.017 h 21.141 v 3.045 l -17.139,10.933 h 17.139 v 2.552 H 163.25 v -2.929 l 17.284,-11.049 H 163.25 v -2.552 z"
   id="path3212"
   inkscape:connector-curvature="0"
   style="display:inline" />
	<path
   display="inline"
   d="m 178.04,236.066 v 8.149 l 6.351,2.232 v 2.871 l -21.141,-7.54 V 238.3 l 21.141,-7.424 v 3.016 l -6.351,2.174 z m -2.262,0.754 -9.628,3.248 9.628,3.48 v -6.728 z"
   id="path3214"
   inkscape:connector-curvature="0"
   style="display:inline" />
	<path
   display="inline"
   d="m 163.25,225.453 h 18.763 v -10.44 h 2.378 V 228.15 H 163.25 v -2.697 z"
   id="path3216"
   inkscape:connector-curvature="0"
   style="display:inline" />
</g>
<g
   id="g3218"
   transform="translate(-93.200009,-194.2)">
	<rect
   x="155.75"
   y="210.23399"
   width="28.107"
   height="143.72701"
   id="rect3220"
   style="fill:none" />
	<path
   d="m 172.226,215.596 h -7.325 v 12.599 h -2.403 v -15.324 h 21.36 v 14.796 h -2.403 v -12.072 h -6.827 v 11.632 h -2.403 v -11.631 z"
   id="path3222"
   inkscape:connector-curvature="0" />
	<path
   d="m 173.046,245.481 c -0.273,0.625 -0.596,1.147 -0.967,1.568 -0.371,0.42 -0.791,0.722 -1.26,0.908 -0.469,0.186 -0.908,0.308 -1.318,0.366 -0.411,0.059 -0.899,0.088 -1.465,0.088 -0.176,0 -0.43,-0.005 -0.762,-0.015 -0.333,-0.01 -0.576,-0.015 -0.732,-0.015 -0.801,0 -1.475,0.088 -2.022,0.264 -0.547,0.176 -0.996,0.518 -1.348,1.025 h -0.674 v -3.311 c 0.898,-0.391 2.061,-0.586 3.487,-0.586 h 1.904 c 1.309,0 2.271,-0.283 2.886,-0.85 0.615,-0.567 0.923,-1.455 0.923,-2.666 v -7.032 h -9.2 V 232.5 h 21.36 v 9.845 c 0,2.09 -0.494,3.696 -1.48,4.82 -0.986,1.123 -2.398,1.685 -4.234,1.685 -1.211,0 -2.217,-0.264 -3.018,-0.791 -0.801,-0.526 -1.494,-1.386 -2.08,-2.578 z m 4.717,0.528 c 1.407,0 2.374,-0.372 2.901,-1.114 0.527,-0.742 0.791,-1.768 0.791,-3.076 v -6.593 h -7.354 v 6.593 c 0,1.445 0.293,2.505 0.879,3.179 0.586,0.674 1.513,1.011 2.783,1.011 z"
   id="path3224"
   inkscape:connector-curvature="0" />
	<path
   d="m 162.498,264.644 v -2.872 l 17.902,-6.065 h -17.902 v -2.579 h 21.36 v 3.78 l -18.605,6.329 18.605,6.211 v 3.78 h -21.36 v -2.579 H 180.4 l -17.902,-6.005 z"
   id="path3226"
   inkscape:connector-curvature="0" />
	<path
   d="m 183.858,281.022 h -21.36 v -2.754 h 21.36 v 2.754 z"
   id="path3228"
   inkscape:connector-curvature="0" />
	<path
   d="m 183.858,302.411 h -21.36 v -3.077 l 17.316,-11.046 h -17.316 v -2.579 h 21.36 v 2.959 l -17.463,11.164 h 17.463 v 2.579 z"
   id="path3230"
   inkscape:connector-curvature="0" />
	<path
   d="m 168.915,318.526 v -8.233 l -6.417,-2.257 v -2.9 l 21.36,7.618 v 3.516 l -21.36,7.501 v -3.047 l 6.417,-2.198 z m 2.285,-0.762 9.728,-3.281 -9.728,-3.516 v 6.797 z"
   id="path3232"
   inkscape:connector-curvature="0" />
	<path
   d="m 183.858,329.25 h -18.957 v 10.548 h -2.403 v -13.273 h 21.36 v 2.725 z"
   id="path3234"
   inkscape:connector-curvature="0" />
</g>
</svg>