<?xml version="1.0" encoding="utf-8"?>
<!-- Generator: Adobe Illustrator 14.0.0, SVG Export Plug-In . SVG Version: 6.00 Build 43363)  -->
<!DOCTYPE svg PUBLIC "-//W3C//DTD SVG 1.1//EN" "http://www.w3.org/Graphics/SVG/1.1/DTD/svg11.dtd">
<svg version="1.1" id="Calque_1" xmlns="http://www.w3.org/2000/svg" xmlns:xlink="http://www.w3.org/1999/xlink" x="0px" y="0px"
	 width="595.28px" height="841.89px" viewBox="0 0 595.28 841.89" enable-background="new 0 0 595.28 841.89" xml:space="preserve">
<polygon stroke="#000000" stroke-width="10" points="268.092,241.1 268.092,376.093 467.582,376.093 467.582,511.085 
	68.602,511.085 68.602,241.1 "/>
<g>
	<path d="M88.851,528.335c9.511,0,17.249,7.736,17.249,17.248s-7.738,17.25-17.249,17.25s-17.249-7.738-17.249-17.25
		C71.602,536.074,79.34,528.335,88.851,528.335 M88.851,525.335c-11.183,0-20.249,9.064-20.249,20.248s9.066,20.25,20.249,20.25
		c11.185,0,20.249-9.066,20.249-20.25S100.034,525.335,88.851,525.335L88.851,525.335z"/>
</g>
<g>
	<path d="M447.333,528.335c9.511,0,17.249,7.736,17.249,17.248s-7.738,17.25-17.249,17.25s-17.249-7.738-17.249-17.25
		C430.084,536.074,437.823,528.335,447.333,528.335 M447.333,525.335c-11.184,0-20.249,9.064-20.249,20.248
		s9.065,20.25,20.249,20.25s20.249-9.066,20.249-20.25S458.517,525.335,447.333,525.335L447.333,525.335z"/>
</g>
<path fill="none" stroke="#000000" stroke-width="3" d="M31.89,456.25c7.95,0,14.396,6.443,14.396,14.393
	c0,7.951-6.444,14.396-14.396,14.396"/>
<line fill="none" stroke="#000000" stroke-width="3" x1="46.284" y1="470.642" x2="69.345" y2="470.642"/>
</svg>
